<svg xmlns="http://www.w3.org/2000/svg" fill="none" viewBox="33.42 233.45 245.58 232.5">
    <path
        d="M266.508 357.49C266.184 357.569 266.171 357.118 266.076 356.888C265.314 354.993 265.648 354.614 265.502 352.885C265.36 351.205 264.359 348.726 264.131 347.032C263.763 344.282 263.269 341.506 262.286 338.82C261.674 337.152 260.256 335.526 259.953 333.746L261.756 335.731C263.491 339.857 264.729 343.386 265.487 347.895C265.862 350.121 266.084 352.407 266.531 354.627C266.709 355.502 266.686 356.613 266.502 357.491L266.508 357.49Z"
        fill="#010301" />
    <path
        d="M277.472 397.307C277.139 397 276.645 397.026 276.253 396.668C275.654 396.113 274.737 394.467 273.968 393.636C271.038 390.449 269.359 388.517 267.663 384.381C266.722 382.096 265.164 378.295 264.677 376.009C264.484 375.113 264.262 372.391 264.381 371.528C264.547 370.264 265.716 369.066 266.22 368.002C267.236 365.873 267.355 362.944 267.657 360.61C267.105 360.553 267.233 360.706 267.135 361.097C266.974 361.707 267.023 362.38 266.856 363C266.513 364.202 265.86 365.534 265.553 366.786C265.327 367.358 264.865 367.509 264.262 367.479L264.376 364.046C263.24 362.611 262.088 361.239 261.022 359.743C260.913 359.591 260.61 359.558 260.477 359.344C259.075 357.232 258.646 353.999 257.267 352.012C256.786 351.332 255.847 351.401 255.591 350.981C255.26 350.416 254.944 347.711 254.676 346.863C254.441 346.142 252.596 342.073 252.486 344.679C252.445 345.592 252.619 347.387 252.775 348.316C252.917 349.235 253.857 351.189 253.598 351.809C253.315 352.484 252.436 352.216 251.918 352.498C251.278 352.854 251.323 354.18 251.108 354.771C249.112 360.107 247.71 363.259 244.22 367.816C243.749 368.429 243.76 369.154 242.492 369.311C242.159 369.313 241.807 369.062 241.686 368.74C241.1 367.209 242.856 362.414 243.226 360.56C243.866 357.262 244.815 351.883 244.966 348.643C245.043 347.064 244.168 345.362 245.884 344.316C247.757 343.184 250.565 342.069 252.735 341.923C253.609 340.929 256.81 340.051 257.456 339.201C258.573 337.737 255.762 336.756 255.111 336.248C252.612 334.258 251.26 331.363 248.743 329.534C248.278 329.516 248.456 329.578 248.437 329.898C248.373 330.758 249.499 334.281 250.092 334.891C251.059 335.923 252.061 335.209 253.147 335.556C256.114 336.483 253.624 341.49 250.269 339.362C248.917 338.518 247.381 335.412 246.464 333.895C246.195 333.443 245.854 331.895 245.253 331.896C245.038 331.902 244.556 332.503 244.015 332.159L244.264 331.006L245.332 331.377C245.444 330.396 244.912 329.47 244.869 328.566C244.837 327.82 245.221 327.223 245.205 326.691C245.178 325.6 243.272 324.628 242.641 323.507C240.922 320.4 239.665 317.049 237.498 314.158C236.667 313.064 235.104 312.408 235.109 310.876C235.595 310.327 238.737 312.129 239.425 312.433C241.71 313.411 244.066 314.331 246.228 315.681C252.465 319.579 254.784 327.177 259.112 332.876C259.313 333.128 259.585 333.313 259.835 333.519C260.039 333.494 259.924 333.128 259.911 332.947C259.765 331.267 256.64 327.74 255.651 326.262C253.732 323.375 253.155 320.793 250.452 318.211C246.861 314.783 243.04 313.073 238.71 311.045C237.296 310.378 235.673 308.764 234.432 308.084C233.918 307.8 232.76 307.725 232.576 307.267C232.313 305.404 233.904 306.633 234.815 306.898C236.865 307.477 238.955 308.104 241.011 308.627C241.46 308.744 243.693 309.318 243.924 309.087C243.979 308.676 243.669 308.549 243.418 308.321C242.239 307.337 238.274 305.712 236.665 305.004C235.823 304.649 233.882 304.544 233.682 303.284C233.624 302.934 233.985 302.557 233.997 302.149C234.06 300.506 233.93 299.179 234.291 297.504C234.942 294.491 237.614 291.376 237.405 288.653C237.226 286.517 235.487 283.595 234.641 281.709C233.974 280.226 234.303 278.118 234.198 276.542C234.032 273.826 233.464 271.065 233.109 268.392C232.935 267.186 232.87 265.266 232.502 264.21C232.214 263.353 229.992 260.423 229.32 259.487C228.772 258.734 229.133 258.099 227.616 258.519C227.763 258.336 227.772 258.153 227.673 257.959C226.813 256.191 224.286 253.209 222.501 252.325C221.722 251.943 220.877 251.996 220.243 251.72C219.623 251.456 218.911 250.556 217.971 250.153C216.372 249.457 214.415 248.862 212.772 248.264C211.876 247.933 211.107 247.101 210.04 247.339C210.075 248.705 211.892 248.553 212.83 248.923C214.93 249.742 217.384 251.103 219.721 252.077C223.509 253.65 223.536 254.74 225.975 257.687C227.046 258.977 230.667 262.78 231.127 264.06C231.45 264.956 231.697 266.587 231.911 267.599C232.773 271.613 234.196 279.02 231.952 282.705C231.567 283.345 231.11 283.248 230.805 283.635C230.363 284.19 230.573 285.459 230.148 286.261C229.072 288.287 226.186 288.326 224.27 288.873C223.314 289.148 221.247 290.131 220.405 290.216C218.518 290.396 218.263 287.934 216.433 287.788C216.687 289.33 217.763 290.974 216.785 292.46C214.641 292.081 215.027 293.691 214.203 294.919C213.226 296.382 211.821 295.704 210.483 295.747C209.612 295.768 208.231 296.832 208.509 294.929C208.602 294.281 209.38 293.753 209.25 293.002C208.993 291.535 203.641 290.502 207.757 288.305C207.892 287.642 207.358 287.844 207.172 287.493C206.911 287.008 206.805 286.45 206.598 285.942C206.419 285.539 205.557 284.916 206.097 284.535C206.383 284.341 206.746 284.614 207.087 284.537C207.616 284.414 208.047 283.869 208.676 284.216C209.483 284.671 208.777 287.203 210.151 287.509C211.506 287.826 211.563 286.817 212.35 286.288C214.275 284.971 216.384 284.163 218.294 283.093C219.108 282.627 219.538 281.578 220.448 281.118C221.008 280.83 221.608 280.819 222.065 280.593C222.344 280.446 222.259 280.043 222.432 280.03C222.656 280.014 222.934 280.292 223.22 280.099C223.59 279.848 223.794 278.526 224.478 278.508L223.996 278.202L224.437 277.945L222.297 276.444C222.228 275.506 222.73 275.011 222.546 273.964C222.394 273.045 221.448 272.302 221.445 271.541C221.45 271.027 221.962 269.373 221.933 268.979C221.907 268.617 221.532 268.355 221.481 268.059C221.399 267.659 221.775 267.215 221.718 266.748C221.632 266.026 220.58 265.3 220.455 264.028C220.386 263.402 220.66 262.858 220.54 262.246C220.506 262.099 219.448 259.64 219.352 259.53C219.176 259.319 218.442 259.148 218.111 258.86C217.172 258.074 217.158 256.855 216.843 255.763C215.661 255.625 215.224 257.156 213.977 256.841C213.13 255.973 213.743 253.958 212.348 253.803C212.045 254.531 211.373 256.196 210.701 256.557C210.092 256.891 209.514 256.355 209.108 256.651L207.529 259.163C205.251 258.549 205.265 260.388 204.2 261.812C203.752 262.424 201.621 265.168 200.848 264.464C199.779 263.505 201.93 262.651 202.395 261.954C203.617 260.141 202.957 257.901 203.152 256.004C203.241 255.175 204.099 254.267 204.076 253.829C204.058 253.265 202.753 252.203 202.977 251.299L195.579 251.658C194.68 252.439 193.061 251.735 192.131 251.835C191.95 251.858 192.177 252.593 191.578 252.347L191.52 251.688C190.181 252.043 189.534 250.965 190.507 250.029C190.818 249.727 193.279 248.415 193.712 248.318C194.242 248.195 196.11 247.886 196.612 247.882C198.821 247.818 201.423 249.777 203.655 248.245L203.617 247.594C202.982 247.566 198.5 246.512 198.303 246.315C198.094 246.096 197.664 244.498 197.259 243.952C196.447 242.858 194.761 242.262 194.206 240.827C193.859 239.922 193.782 237.98 193.961 237.034C194.075 236.404 194.718 235.918 195.172 235.511C195.159 234.615 192.74 236.18 192.488 236.404C188.509 239.894 189.312 244.222 188.748 248.737C188.648 249.557 187.595 250.746 187.583 251.166C187.541 252.506 189.928 252.065 190.134 254.169C190.328 256.243 188.511 256.525 187.264 257.696C187.045 257.904 185.48 259.719 185.386 259.908C184.841 260.985 184.933 262.818 184.452 264.011C184.149 264.739 183.335 265.484 182.996 266.163C182.545 267.051 182.238 269.46 181.558 269.841C181.084 270.1 180.53 269.767 179.963 269.916C179.361 270.077 179.083 270.826 178.587 270.914C177.952 271.025 177.778 270.436 177.364 270.35C175.417 269.894 175.078 272.442 174.146 272.328C173.256 272.221 171.064 266.486 168.646 268.513C168.507 270.279 167.865 271.353 168.084 273.155C168.409 275.849 170.272 277.801 169.632 280.65C169.399 281.705 168.714 282.655 168.671 283.813C167.81 284.796 166.912 283.545 166.142 283.292C164.677 282.811 162.665 282.617 161.084 281.981C158.063 280.768 159.088 278.18 158.646 275.663C158.423 274.353 156.828 270.35 156.082 269.26C155.889 268.984 153.659 266.849 153.39 266.696C153.098 266.535 152.728 266.306 152.381 266.428L151.888 267.45C152.037 268.018 153.337 268.339 153.708 268.676C153.974 268.913 156.213 272.346 156.313 272.689C156.471 273.234 156.662 275.275 156.549 275.774C156.166 277.46 154.033 276.065 153.247 276.025C152.427 275.978 150.706 276.104 149.844 276.19C149.429 276.23 144.927 277.447 146.614 275.964C147.474 275.215 151.513 274.91 151.689 274.683L151.631 274.024C150.244 273.588 149.172 274.33 147.737 273.944C145.052 273.22 146.808 272.139 146.574 270.371C146.348 268.622 144.552 268.562 146.844 267.003C147.335 266.668 149.025 266.245 147.945 265.586C146.156 264.474 145.494 266.76 144.939 267.08C144.701 267.215 144.335 267.027 144.029 267.137C140.941 268.25 139.511 277.622 140.2 280.439C140.37 281.165 141.195 281.865 141.469 282.658C141.73 283.419 142.342 286.073 141.377 286.401C140.411 286.719 139.236 283.55 137.729 283.524C135.709 284.699 136.297 287.875 135.666 289.56C134.922 291.571 132.585 292.825 131.488 294.7C130.725 296.018 129.55 301.101 129.008 301.515C127.807 302.406 126.893 301.52 125.941 301.31C125.535 301.213 124.123 301.583 124.23 300.814C126.487 298.786 126.685 295.903 128.186 293.345C128.748 292.374 130.078 291.012 130.354 290.094C130.541 289.44 130.421 284.409 130.31 283.465C130.093 281.523 125.636 273.62 124.349 271.597C122.902 269.316 114.51 261.928 112.084 261.088C108.402 259.806 104.534 258.782 100.739 258.14C100.117 258.036 99.5662 258.268 98.9063 258.04C98.1376 257.797 96.6527 256.332 96.8131 255.4C96.2904 255.887 95.0872 257.782 94.2033 257.304C93.6564 257.012 94.6634 255.515 94.4392 254.816C94.2994 254.377 92.5998 253.324 92.1721 252.744C91.7558 252.186 90.8912 249.918 92.0877 250.117C94.0023 250.448 94.5617 255.597 95.5954 255.937C95.9105 255.111 96.6287 254.932 96.483 253.967C96.4065 253.501 94.5952 249.761 94.2855 249.322C94.0568 249.007 92.5611 247.93 92.1855 247.795C90.8843 247.324 89.2398 247.025 87.872 246.849C86.9826 246.741 86.7503 246.332 85.5609 246.676C84.9719 246.836 81.6233 249.084 81.0371 249.595C79.5135 250.949 77.945 253.61 77.6661 255.643C77.1897 258.994 79.3406 262.378 77.9997 265.516C77.8166 265.958 77.3926 266.009 77.1863 266.313C75.5601 268.764 72.6316 271.621 72.1016 274.508L71.7387 281.018C71.3652 282.652 67.5512 282.375 66.811 281.496C66.4827 281.113 66.2366 278.329 66.011 277.477C65.0348 273.816 62.2246 270.659 58.3003 270.348C57.9751 270.32 55.7925 270.297 55.612 270.33C55.4001 270.378 52.2119 272.185 51.8547 272.435C48.8334 274.604 48.7231 278.676 47.791 281.957C47.8478 282.733 49.5228 283.895 49.813 285.051C50.0208 285.839 50.3282 287.988 50.4002 288.838C50.5752 291.232 48.6488 291.899 47.4929 293.46C44.9031 296.976 43.5184 301.7 41.4359 305.234C40.26 307.235 39.3566 304.882 37.9312 304.187C37.2844 303.87 35.024 303.096 34.465 303.488C33.6639 304.275 34.3886 305.077 34.4075 305.781C34.4369 306.764 34.1582 307.64 34.4089 308.746C34.678 309.926 35.9195 311.321 36.3445 312.445C37.4378 315.34 33.3335 319.62 33.4209 322.556C33.4969 324.755 34.501 326.297 34.8855 328.162C35.641 331.885 35.7979 339.608 35.2673 343.38C34.7444 347.122 33.3454 348.528 36.0011 352.252C36.6008 353.086 38.7761 355.687 39.4833 356.383C40.0288 356.922 40.9554 357.27 41.7378 357.255C44.8793 357.175 47.7304 355.178 49.5006 352.643C50.1798 351.663 50.2425 346.629 52.322 349.214C52.6423 349.62 54.8785 355.062 55.2231 355.98C55.4516 356.604 55.8275 357.636 55.8093 358.281C55.765 359.728 53.5899 360.7 52.6121 361.705C49.9949 364.4 50.3857 367.109 52.4554 370.007C54.1913 372.449 56.3501 373.039 59.223 372.188C59.0932 372.913 59.9261 373.142 60.1257 373.504C60.9311 374.964 60.2891 377.345 60.4809 378.807C60.6315 379.973 62.0279 382.772 62.6371 383.914C63.323 385.213 66.3059 389.124 66.5009 390.05C66.6113 390.533 66.6733 391.513 66.512 391.987C65.8539 394.015 62.8248 397.371 61.9753 399.595L61.7727 400.797L63.3975 401.14L61.1402 401.702C60.815 403.416 61.2315 405.45 62.1238 406.936C63.5458 409.326 66.0805 410.37 68.1108 412.104C71.5026 415 75.8156 420.625 78.1274 424.468C79.1069 426.12 79.1522 427.453 80.7965 428.776C82.1568 429.876 83.4189 430.392 84.613 431.898C87.2291 435.215 87.3196 440.112 92.2544 441.204C93.5423 441.494 94.8144 440.942 95.7116 441.156C96.8708 441.426 96.8369 442.882 98.2221 442.715C98.5526 442.681 101.057 441.523 101.533 441.286C103.22 440.435 106.528 438.482 106.481 436.366C106.421 434.198 104.982 433.949 104.548 432.696C104.138 431.517 103.776 429.778 103.447 428.54C103.372 428.224 103.029 427.95 102.97 427.59C102.762 426.223 104.317 426.903 104.998 427.25C107.668 428.615 109.974 431.809 113.243 431.547C115.518 431.358 118.15 427.39 119.049 425.451C120.172 423.038 120.672 420.004 121.708 417.736C122.275 416.518 123.88 415.126 124.12 413.847C124.324 412.804 123.935 411.773 124.022 410.771C124.081 409.974 124.703 409.363 124.752 408.429C124.842 406.849 124.213 405.75 123.994 404.355C123.826 403.223 123.676 397.381 125.907 398.951C127.004 399.716 126.969 400.704 127.343 401.723C129.508 407.525 131.601 414.093 131.596 420.489C131.586 425.038 129.522 427.53 131.835 432.284C132.631 433.926 133.269 434.842 133.69 436.801C134.093 438.645 133.335 440.605 133.657 442.516C134.168 445.519 139.357 447.588 142.081 446.758C142.806 446.533 143.409 445.367 144.275 445.336C145.926 445.267 146.413 446.796 147.334 447.2C149.132 447.988 152.902 446.513 153.078 444.5C153.307 441.733 151.279 438.821 150.865 435.984C150.67 434.649 150.913 433.552 150.835 432.348C150.644 429.292 149.71 425.764 150.797 422.733C150.941 422.325 151.073 421.952 151.551 421.874C152.139 421.831 153.933 424.493 154.311 425.106C156.794 429.109 156.878 430.075 156.771 434.641C156.722 436.915 156.246 439.378 156.336 441.768C156.381 442.964 156.465 445.14 158.09 445.171C158.574 445.187 161.051 444.226 161.588 443.943C162.84 443.295 165.417 440.762 165.691 439.373C166.152 436.888 163.771 434.422 162.811 432.32C160.802 427.931 160.271 422.137 159.075 417.399C158.044 413.29 155.728 409.395 155.043 405.293C154.592 402.663 154.959 401.072 158.062 401.317C158.449 401.341 158.759 401.598 159.074 401.627C161.338 401.867 161.984 401.596 163.311 403.885C164.796 406.43 167.89 412.882 168.777 415.597C169.732 418.512 169.317 423.55 170.208 426.759C171.481 431.406 175.616 434.912 176.414 440.056C176.745 442.213 176.233 444.637 176.681 446.659C177.005 448.144 178.412 448.448 178.557 450.427C178.691 452.258 177.467 454.318 177.365 456.012C177.306 456.937 177.5 459.768 178.351 460.252C179.889 461.144 184.508 459.073 186.352 458.896C187.362 458.149 185.469 453.43 184.922 452.42C184.439 451.525 183.282 450.572 182.89 449.593C182.36 448.24 182.762 446.231 182.494 444.891C182.357 444.173 180.983 441.994 180.657 441.065C179.745 438.469 179.421 435.462 178.839 432.819C177.847 428.356 179.048 424.789 177.212 420.397C176.707 419.205 175.761 417.87 175.268 416.719C173.734 413.066 172.578 408.143 171.746 404.267C171.194 401.728 170.184 398.944 172.085 396.721C171.219 396.934 170.402 397.368 169.589 397.726C168.995 397.994 168.378 398.488 167.426 398.678C167.001 398.761 166.845 398.954 166.489 398.512L171.14 396.439L171.068 395.319L171.994 395.476C171.993 393.99 174.331 394.086 175.247 392.949L175.356 394.31L175.531 393.611C176.036 393.597 176.356 393.999 176.931 394.097C179.436 394.554 181.721 395.395 183.851 396.898C186.908 399.051 187.502 400.965 188.743 404.135C189.955 407.191 190.961 410.362 191.892 413.536C191.945 415.288 190.223 415.274 189.352 416.258C187.555 418.295 187.896 420.718 188.807 423.048C189.665 425.232 189.572 424.533 191.419 424.964C193.923 425.551 196.112 426.997 198.58 425.467C199.935 424.63 199.476 421.259 199.267 419.864C198.53 414.92 197.492 410.418 197.038 405.421C196.976 404.71 196.576 401.602 197.11 401.403C198.562 400.858 200.904 406.133 201.656 407.008C202.174 407.611 201.813 406.655 202.195 406.744C202.552 407.511 202.243 408.422 202.378 409.108C202.499 409.73 203.056 410.3 203.202 411.135C203.858 414.66 203.712 417.389 205.47 420.844C207.376 424.59 209.919 429.089 209.888 433.487C209.866 436.848 209.977 436.895 210.771 440.121C211.37 442.591 211.089 444.152 213.019 446.164C214.787 448.014 217.982 446.174 219.42 444.668C220.826 443.183 221.525 438.629 220.408 436.893C219.17 434.961 217.316 436.488 216.306 434.722C213.988 430.664 212.927 426.122 212.667 421.4C212.551 419.236 212.984 416.935 212.411 414.818C212.234 414.135 211.743 413.905 211.509 413.385C209.322 408.291 206.996 403.229 205.9 397.671C205.677 396.543 205.306 392.353 205.435 391.316C205.7 389.04 208.282 391.888 208.824 392.567C212.239 396.801 213.749 401.601 215.548 406.509C216.463 409.02 217.766 410.85 218.081 413.685C218.267 415.339 217.89 416.385 217.909 417.817C217.93 419.432 218.632 421.091 218.499 422.791C218.416 423.717 217.761 424.181 217.506 424.928C217.292 425.533 216.681 429.225 216.744 429.777C217.046 432.431 221.13 431.007 222.638 431.358C223.818 431.636 224.232 434.805 224.3 435.87C224.471 438.521 224.407 439.52 224.959 442.24C225.363 444.233 223.875 445.636 223.28 447.361C223.122 447.834 222.251 451.513 222.289 451.754C222.404 452.432 223.334 452.972 224.018 452.902C224.969 452.823 224.886 451.821 225.65 451.424L225.41 452.823L228.44 452.121L228.185 448.501L227.505 448.434C227.887 446.738 228.721 446.088 230.258 445.374C229.52 447.021 230.71 448.466 228.993 449.941C230.854 452.308 232.182 450.52 232.197 448.22C232.21 447.234 231.391 445.594 231.358 444.517C231.325 443.491 232.304 442.318 232.439 441.397C233.057 437.21 230.645 435.835 230.022 432.457C229.772 431.093 230.135 429.441 229.923 428.162C229.457 425.306 228.519 424.094 229.017 420.77C229.257 419.192 229.919 416.23 232.303 420.432C232.971 422.201 233.624 423.941 234.278 425.701C235.661 431.976 235.441 429.993 235.323 432.794C235.264 434.041 235.947 436.322 237.362 436.573C239.823 437.004 243.366 435.493 245.131 433.781C246.335 432.613 247.494 428.909 246.173 427.637C245.401 426.891 242.575 427.055 241.468 426.912C238.788 426.561 237.952 422.451 237.61 420.271C237.033 416.623 237.241 413.76 235.934 410.123C234.441 406.015 232.678 402.934 231.994 398.393C231.505 395.112 231.818 387.598 235.575 394.012C237.797 397.796 238.003 401.943 239.377 405.91C239.694 406.85 240.55 407.847 240.684 408.959C241.533 409.102 240.68 407.88 241.651 408.215C242.522 408.516 242.671 410.999 244.561 410.678C244.838 410.626 246.649 410.119 246.96 409.999C248.339 409.482 250.391 406.646 251.873 406.375C252.573 406.259 254.65 406.312 254.814 407.22L255.08 407.191C257.264 406.078 262.277 402.031 260.173 399.424C258.981 397.951 258.001 398.201 256.582 397.642C255.209 397.089 255.412 396.027 254.839 394.966C252.247 390.106 250.711 386.119 248.887 380.871C248.478 379.691 247.733 379.33 248.117 377.975C248.648 376.119 251.7 372.01 253.933 373.033C254.044 373.077 255.548 374.531 255.713 374.734C256.971 376.225 257.732 378.234 258.704 379.919C260.854 383.602 266.04 392.232 266.719 396.078C266.903 397.124 266.693 399.559 267.349 400.45C267.577 400.756 268.283 400.714 268.337 401.331C268.379 401.767 267.871 402.318 267.812 402.803C267.479 405.308 270.953 409.014 273.595 408.714C275.088 408.54 277.777 406.695 278.476 405.362C279.437 403.504 279.045 398.772 277.478 397.294L277.472 397.307ZM207.713 259.578C207.872 259.567 208.011 259.683 208.022 259.835C208.034 259.994 207.917 260.133 207.754 260.144C207.605 260.155 207.466 260.039 207.454 259.877C207.443 259.728 207.56 259.59 207.713 259.578ZM194.797 246.184L194.721 246.886L193.72 247.173C193.53 246.319 194.044 246.155 194.797 246.184ZM64.1738 400.862C63.6465 401.018 62.9738 399.721 63.6261 399.533C64.2274 399.362 64.8669 400.652 64.1738 400.862ZM161.059 436.799C162.758 434.76 164.383 441.843 161.528 440.702C160.489 440.297 160.525 437.436 161.059 436.799ZM214.635 438.349C215.099 437.512 216.394 438.604 216.802 438.607C217.22 438.609 217.6 438.227 218.09 438.321C220.245 438.677 218.005 443.494 217.117 443.806C214.854 444.602 214.046 439.407 214.635 438.349ZM241.46 431.711C241.656 430.422 242.698 430.733 243.031 430.293C243.288 429.965 243.15 428.84 243.62 428.656C245.499 428.636 244.699 431.8 243.91 432.755C242.816 434.087 241.219 433.423 241.46 431.715L241.46 431.711ZM232.525 404.318C232.742 404.068 233.477 404.697 233.26 404.95C233.043 405.2 232.317 404.557 232.525 404.318ZM242.93 377.044C243.524 376.949 244.122 377.054 244.562 377.49L242.98 377.723L242.93 377.041L242.93 377.044ZM242.584 353.529C242.239 352.195 242.691 351.007 242.758 349.738C242.795 349.221 242.255 346.972 243.145 347.089C244.046 347.215 243.134 350.331 243.089 350.881C243.019 351.708 243.722 353.371 242.584 353.529ZM244.483 335.565C245.986 334.824 248.876 339.204 246.479 339.324C245.867 339.359 245.465 338.683 244.967 339.061C243.852 341.444 244.527 344.786 240.796 344.747C240.501 343.657 241.685 343.557 242.062 343.123C242.182 342.987 243.338 339.99 243.367 339.818C243.568 338.724 241.863 337.457 243.552 336.765L244.826 337.133L244.486 335.565L244.483 335.565ZM239.103 336.193C238.683 334.692 240.753 333.62 241.588 334.46C243.257 336.126 239.916 339.056 239.103 336.193ZM243.123 332.689L243.61 333.008L243.635 333.338L243.173 333.372L243.123 332.689ZM234.116 316.314C234.145 314.205 234.946 314.006 236.353 315.477C237.658 316.838 239.947 320.244 238.934 322.103C238.81 322.327 237.344 322.818 237.987 323.704C238.801 324.831 239.249 322.295 239.501 322.224C240.991 322.33 242.144 325.006 242.201 326.244C242.235 326.84 241.928 327.506 241.899 328.129C241.844 329.171 242.567 330.971 241.179 331.242L240.922 327.72L240.121 327.661C239.768 329.57 238.954 332.871 237.352 329.619C236.583 328.082 236.99 327.165 236.599 325.802C235.591 322.28 234.032 320.521 234.11 316.321L234.116 316.314ZM221.848 291.82C224.28 289.672 228.008 290.697 230.866 287.321C231.616 286.42 233.07 282.633 234.379 283.49C234.548 283.608 235.821 285.43 235.904 285.681C237.541 290.419 234.496 293.883 233.199 298.065C232.729 299.576 233.149 303.086 230.767 302.704C228.873 302.394 227.398 301.283 225.784 300.555C224.605 300.02 221.444 299.247 221.074 297.85C220.735 296.613 221.107 294.905 220.57 293.595C220.593 293.326 221.646 292.007 221.848 291.82ZM207.832 298.077L208.889 297.71C208.96 298.102 208.867 298.567 208.978 298.923C209.032 299.079 210.073 299.077 209.048 299.754L208.79 299.431L204.907 305.847C203.408 306.373 202.835 308.044 201.178 308.334C201.047 307.882 201.24 307.719 201.442 307.395C202.374 305.903 204.263 304.675 205.263 303.22C206.255 301.779 207.034 299.667 207.832 298.077ZM202.347 301.775C202.654 300.706 203.225 299.819 204.463 299.865C204.849 300.584 203.463 302.666 202.811 302.405L202.347 301.775ZM201.683 271.273L202.244 271.007L202.6 271.323L202.625 271.653L201.715 271.719L201.683 271.273ZM197.705 255.375C197.906 255.308 198.083 255.272 198.293 255.322C198.641 255.394 199.77 257.438 199.796 257.8C199.88 258.639 198.698 259.968 198.002 259.869C197.371 259.776 196.174 255.906 197.705 255.375ZM190.294 268.63C190.538 268.752 190.894 268.619 191.165 268.618L190.87 270.919C189.472 271.054 189.014 269.205 189.062 268.076C189.982 267.71 190.07 268.507 190.294 268.627L190.294 268.63ZM189.057 262.289C190.356 264.207 188.518 264.478 187.643 263.547C186.56 262.397 187.871 260.503 189.057 262.289ZM184.585 266.053C186.302 263.681 187.631 265.382 186.668 267.218C186.545 267.451 186.209 267.55 186.135 267.696C185.936 268.051 185.681 268.402 185.55 268.798C185.359 269.411 185.301 271.876 184.013 271.317C182.837 270.814 183.921 266.98 184.585 266.053ZM177.118 272.709C177.398 272.698 177.708 272.997 178.063 272.994C178.751 272.986 179.307 272.497 180.273 272.673C180.62 272.732 182.541 273.727 182.713 274.036C183.001 274.571 182.994 275.501 182.873 276.089C182.79 276.557 181.559 278.389 181.193 278.693C180.33 279.387 179.824 279.072 178.979 279.134C178.488 279.16 177.792 279.777 177.324 278.998C177.088 278.586 177.453 278.134 177.265 277.621C177.092 277.172 176.431 276.921 176.34 276.437C176.197 275.517 176.997 274.847 175.537 273.992C175.445 273.442 176.616 272.713 177.109 272.709L177.118 272.709ZM174.988 286.752C177.24 286.106 177.652 288.804 176.783 290.441C176.585 290.819 174.888 292.612 174.569 292.798C173.329 293.487 172.105 292.015 172.396 290.72C172.478 290.372 173.264 289.651 173.527 289.138C173.96 288.313 173.965 287.041 174.985 286.752L174.988 286.752ZM169.933 271.114C170.417 271.121 171.396 271.115 171.599 271.571C171.727 271.851 172.524 274.212 172.54 274.435C172.584 274.904 172.433 275.61 172.06 275.947C171.05 276.255 167.948 272.053 169.934 271.118L169.933 271.114ZM176.213 303.043C176.135 302.288 176.639 298.154 177.913 299.29C179.012 300.335 177.682 303.898 179.229 304.191C179.686 304.285 179.741 304.144 179.917 303.787C180.477 302.653 181 298.196 181.733 297.629C182.27 297.206 183.1 297.356 183.196 298.087C183.356 299.253 181.929 300.45 182.331 301.705C183.607 301.836 184.153 300.329 184.345 299.288C184.723 297.27 183.919 295.209 184.035 293.266C184.075 292.47 184.824 291.111 184.748 290.687C184.657 290.031 181.595 289.013 180.931 287.426C180.84 287.218 180.273 285.484 180.262 285.335C180.278 284.661 181.057 284.464 181.077 284.29C181.135 283.613 179.913 282.61 180.705 280.819C181.584 278.862 182.473 281.769 183.578 281.175C184.973 280.419 184.983 275.83 185.315 274.34C185.853 271.881 187.125 270.302 189.263 272.65C189.589 273.009 189.77 273.692 190.065 273.94C190.844 274.589 191.315 273.839 191.2 275.795C191.069 278.107 188.559 279.048 188.832 281.008C188.957 281.822 193.176 288.117 193.614 288.085L194.683 286.852L196.198 287.437C196.478 286.571 198.436 285.849 197.26 284.632C196.631 285.855 194.042 283.797 193.86 283.105C193.657 282.372 195.385 279.131 195.933 278.993C196.716 278.809 198.528 280.237 198.671 281.03C198.76 281.527 198.441 281.99 198.631 282.532C198.819 283.054 200.116 283.6 200.284 284.111C200.501 284.716 199.91 285.465 200.364 286.225C200.879 287.108 204.623 287.188 204.315 288.557C203.862 290.58 199.792 285.903 198.768 286.329C198.427 287.115 197.477 287.471 196.682 287.756C197.723 288.461 199.314 288.793 200.372 289.424C200.711 289.634 202.703 291.159 202.924 291.41C204.007 292.69 202.559 294.808 203.664 295.241C204.34 295.5 204.983 294.93 205.121 296.055C205.244 297.148 202.665 299.925 201.589 300.078C200.47 300.225 200.166 299.285 199.766 298.498C198.419 295.933 198.586 294.689 200.958 292.922C200.217 292.034 199.154 292.358 198.158 291.96C196.786 291.407 195.563 289.688 194.253 288.961C194.711 290.801 195.83 292.312 196.619 293.988C197.86 296.592 198.924 299.223 200.072 301.834C200.728 303.305 202.226 304.545 200.789 306.191C200.154 306.933 198.304 308.779 197.552 309.38C196.893 309.919 196.605 310.412 195.882 309.629C194.46 308.085 195.32 307.391 195.022 305.946C194.858 305.188 193.621 303.984 193.705 303.516L194.244 303.122C196.26 304.269 196.425 303.574 196.06 301.523C195.646 299.264 193.496 294.551 192.377 292.461C192.24 292.204 190.527 290.252 190.326 290.14C189.015 289.39 188.809 291.707 187.744 292.416C187.23 292.753 186.771 292.637 186.271 292.855C184.461 293.684 184.472 296.336 186.223 295.597C186.892 295.314 187.102 294.258 188.003 294.663C187.983 296.001 188.375 297.556 188.311 298.868C188.263 299.824 186.933 303.953 186.502 304.992C186.264 305.576 185.845 306.143 185.44 306.631C186.413 308.185 187.52 305.955 188.203 305.167C189.213 304.869 188.927 308.593 188.726 309.239C188.493 310.026 187.936 310.044 187.768 310.379C187.14 311.611 188.638 315.664 187.352 316.154C186.986 316.288 186.548 316.33 186.237 316.054C185.906 315.769 184.817 313.374 184.242 312.691C181.232 309.133 173.526 306.936 169.763 310.392C169.259 310.858 168.848 312.426 167.907 311.308C167.108 310.371 167.064 308.3 167.532 307.206C169.104 303.569 172.9 303.903 176.199 303.041L176.213 303.043ZM189.815 300.113C190.126 297.62 189.463 295.164 189.822 292.709C189.933 292.444 190.44 292.355 190.599 292.438C190.711 292.495 191.829 294.435 191.87 294.549C192.502 296.578 193.806 301.779 193.08 303.598C192.119 306.032 192.402 305.348 192.184 307.942C192.11 308.858 191.471 311.278 190.496 309.691L190.561 303.974L189.815 300.113ZM187.879 320.957C187.696 320.948 187.445 321.041 187.314 320.999C186.446 320.74 187.099 319.665 187.879 320.957ZM186.042 324.496L183.956 325.078C182.494 324.905 184.009 321.565 185.19 321.947C186.162 322.475 186.035 323.511 186.042 324.496ZM172.476 310.434C172.487 310.583 172.37 310.721 172.217 310.732C172.058 310.744 171.919 310.627 171.908 310.475C171.896 310.317 172.014 310.178 172.176 310.166C172.325 310.156 172.464 310.272 172.476 310.434ZM168.698 336.312C168.094 336.711 164.901 338.014 164.858 338.317C165.28 341.131 166.512 344.058 166.824 346.851C166.874 347.221 166.738 347.586 166.755 347.958C166.764 348.214 167.328 349.63 166.45 349.499C165.753 349.391 165.537 347.286 165.392 346.774C164.005 342.19 163.147 337.502 161.851 332.866C161.678 332.238 160.537 329.902 160.506 329.475L160.265 326.177C161.402 325.697 161.723 327.452 162.091 328.387C162.989 330.666 163.473 333.037 164.199 335.328C164.422 336.017 164.947 336.59 164.767 337.51C165.158 337.865 169.06 334.79 169.205 335.472C169.335 336.093 169.107 336.058 168.698 336.312ZM171.008 363.332C170.739 363.502 170.189 363.028 170.29 362.936C170.567 362.757 171.118 363.24 171.008 363.332ZM166.641 326.845C165.634 325.709 165.302 323.36 165.713 321.928C168.009 320.863 171.314 326.815 169.803 327.898C169.335 328.231 167.007 327.247 166.644 326.845L166.641 326.845ZM163.791 284.361C164.614 284.142 166.729 285.603 166.21 286.454C166.151 286.533 164.972 287.156 164.823 287.177C163.739 287.353 162.184 285.016 163.792 284.365L163.791 284.361ZM163.493 296.033C164.885 295.525 166.779 299.1 164.376 299.136C162.811 299.166 162.269 296.487 163.493 296.033ZM165.472 311.886C165.939 311.979 168.808 314.734 169.016 315.255C169.646 316.825 166.212 318.351 164.96 318.41C164.195 318.98 165.483 321.142 163.242 322.249C162.672 322.525 157.245 324.121 156.772 324.133C156.641 324.133 154.466 323.447 154.374 323.356C153.531 322.54 154.687 321.922 155.033 321.467C155.269 321.171 155.2 320.545 155.629 320.377C156.307 320.093 156.645 320.751 157.217 320.934C158.294 321.284 163.106 320.204 163.675 319.2C164.486 317.781 162.134 317.098 161.598 316.377C160.931 315.473 160.727 313.573 161.876 312.985L165.468 311.886L165.472 311.886ZM142.089 321.845C142.819 321.246 145.485 321.587 145.301 323.002C145.115 324.108 143.378 324.918 142.511 324.224C142.054 323.86 141.603 322.258 142.089 321.848L142.089 321.845ZM139.208 318.57C139.89 318.478 141.033 318.395 141.533 318.937C141.87 319.296 141.972 319.932 141.91 320.418C140.63 321.454 138.375 319.99 139.205 318.571L139.208 318.57ZM143.622 318.257L143.589 317.798L144.274 317.748L144.308 318.207L143.622 318.257ZM143.099 312.57C142.775 311.8 142.66 309.968 143.601 309.613C144.468 309.283 145.879 310.506 146.544 311.066C148.321 312.594 150.277 315.416 149.739 317.872C149.331 319.667 148.265 317.723 147.92 317.374C146.876 316.315 143.592 313.743 143.099 312.57ZM149.495 345.251C149.436 344.891 149.391 344.722 149.661 344.435C149.731 344.365 151.209 343.425 151.364 343.348C152.07 343.007 152.899 342.914 153.671 342.89C154.091 343.191 152.412 344.202 152.227 344.3C151.857 344.509 149.698 345.437 149.491 345.248L149.495 345.251ZM151.122 358.261C150.687 359.811 150.617 361.348 149.832 362.797L149.171 362.878C148.806 362.563 150.114 357.555 150.276 356.688C150.464 355.594 150.433 352.534 151.105 351.867C151.336 351.625 151.525 351.439 151.893 351.477C153.157 353.492 151.7 356.2 151.123 358.264L151.122 358.261ZM154.621 348.065C154.939 346.394 155.553 344.069 157.643 343.991C158.665 345.767 157.585 347.036 157.196 348.583C156.882 349.88 155.798 355.318 154.694 355.805C154.517 355.883 154.114 355.955 153.967 355.868C153.718 355.405 153.625 355.025 153.651 354.49C153.751 352.909 154.308 349.682 154.621 348.062L154.621 348.065ZM157.115 341.9C156.521 342.168 155.881 342.355 155.262 342.55C155.112 342.099 155.833 341.695 156.131 341.481C156.591 341.158 159.096 339.704 159.434 339.955C160.015 340.394 157.336 341.8 157.115 341.9ZM155.266 326.884L156.167 326.71L155.859 327.182L155.269 326.883L155.266 326.884ZM159.364 342.25L159.289 342.704L158.916 342.282L159.364 342.25ZM161.273 358.793C161.134 359.392 160.429 359.317 159.938 359.34C160.027 358.81 160.808 358.912 161.273 358.793ZM156.787 281.437L157.439 281.249C157.991 281.615 159.93 284.15 159.525 284.638C156.956 285.222 156.757 283.536 156.787 281.437ZM155.746 280.742C155.931 281.522 155.181 286.23 153.857 285.491C153.397 285.226 153.508 282.457 153.308 281.818L151.205 280.515C150.672 278.938 155.17 278.31 155.743 280.739L155.746 280.742ZM148.393 280.949C148.551 281.054 150.066 283.821 150.06 284.059C150.083 285.267 148.422 286.042 147.77 284.75C147.343 283.913 147.658 282.908 146.95 282.072C146.669 281.751 145.993 281.745 145.961 281.182C146.038 280.62 147.908 280.61 148.393 280.952L148.393 280.949ZM150.101 291.674C151.005 291.982 151.589 292.914 152.543 292.607C153.161 292.403 155.101 287.936 156.267 287.272C158.321 286.127 156.842 289.562 156.731 290.223C156.584 291.027 156.61 293.259 156.224 293.739C155.889 294.161 154.294 294.534 154.36 295.128C154.506 296.551 155.668 297.75 156.148 298.999C157.099 301.424 157.453 304.789 158.71 307.149C159.507 308.632 163.272 311.813 158.449 310.774C158.074 311.217 158.741 315.652 158.64 316.59C158.481 318.078 157.141 316.228 157.037 315.53C156.935 314.851 157.241 313.759 157.23 313.035C157.221 312.2 157.043 311.368 157.057 310.534C157.057 309.955 157.708 305.769 156.824 305.876C156.526 306.359 156.316 306.875 155.639 306.86C155.302 305.912 155.923 305.158 156.036 304.337C156.272 302.704 155.227 301.219 154.999 299.587C154.809 299.354 154.546 299.416 154.297 299.405C154.136 299.394 152.152 299.584 152.047 299.621C151.786 299.715 151.305 300.628 151.302 300.905C151.256 302.771 153.753 301.646 154.142 302.547C154.231 302.746 154.244 306.305 154.229 306.82C154.121 309.322 153.441 309.254 151.92 307.567C150.89 306.433 149.181 304.045 149.467 302.506C149.557 301.995 151.31 298.027 151.642 297.563C152.44 296.426 154.283 297.959 153.594 296.039C152.702 293.535 151.202 296.237 150.081 295.899C148.433 295.421 149.459 293.431 148.644 292.87C147.647 292.182 145.406 293.097 144.456 292.022C145.803 290.886 148.538 291.144 150.104 291.674L150.101 291.674ZM146.639 296.785L146.572 297.476L146.205 297.148L146.181 296.818L146.639 296.785ZM141.05 289.426L141.508 289.392L141.557 290.062L141.099 290.095L141.05 289.426ZM145.178 296.807C144.883 297.46 143.117 299.162 142.352 299.153C141.879 299.155 140.969 298.451 140.745 298.029C138.57 293.994 146.947 292.922 145.178 296.807ZM139.639 289.058L138.967 289.117L138.083 286.444C139.309 286.611 139.977 287.973 139.639 289.058ZM144.624 303.793C144.572 303.081 145.127 300.534 145.876 300.502C147.103 301.44 145.459 303.335 145.825 304.229C145.946 304.542 147.188 304.964 147.621 305.264C150.803 307.47 151.992 310.241 153.588 313.548C153.777 313.941 154.226 314.188 154.32 314.448C154.427 314.749 153.19 319.121 152.959 319.19C151.119 319.731 151.457 315.961 151.161 314.861C150.88 313.834 147.539 309.712 146.598 309.033C146.429 308.915 143.13 307.606 142.936 307.578C141.462 307.419 139.22 308.779 138.677 306.797C138.014 304.341 142.83 303.186 144.624 303.793ZM124.843 303.175C127.266 302.517 129.709 303.333 132.119 303.778C132.33 303.59 132.362 303.578 132.332 303.3C132.196 301.886 131.869 301.078 132.143 299.549C132.303 298.659 133.816 294.214 134.874 294.449C136.447 297.426 135.483 300.719 134.102 303.568C134.077 303.816 134.236 304.071 134.399 304.242C134.804 304.641 135.601 304.957 136.129 305.572C138.066 307.817 137.919 309.785 138.641 312.291C138.87 313.055 140.563 315.36 139.382 315.81C138.902 315.995 138.154 315.321 137.617 315.201C136.467 314.931 135.614 315.273 134.592 314.245C132.982 312.63 136.496 312.061 134.633 310.253C132.976 309.477 131.596 308.368 130.083 307.363C129.18 306.766 128.488 306.271 127.548 305.611C127.004 305.222 124.211 303.907 124.846 303.175L124.843 303.175ZM131.401 314.358C131.436 314.388 131.112 315.095 131.011 315.19C130.296 315.854 130.474 314.319 131.401 314.358ZM129.844 314.235C129.855 314.384 129.738 314.522 129.575 314.534C129.426 314.545 129.287 314.429 129.276 314.277C129.264 314.118 129.381 313.979 129.534 313.968C129.693 313.957 129.832 314.073 129.844 314.235ZM126.815 308.669C127.13 309.127 128.314 311.255 127.989 311.633C127.442 311.663 126.883 311.779 126.319 311.703C124.69 311.481 120.849 309.759 119.407 308.837C118.491 308.241 115.86 306.186 115.858 305.136C116.053 304.277 118.846 302.96 119.668 302.858C121.072 302.68 122.108 303.899 123.043 304.76C124.024 305.674 126.111 307.66 126.822 308.668L126.815 308.669ZM117.067 309.798C116.962 310.544 115.107 310.049 115.418 309.125C115.769 309.057 117.146 309.223 117.067 309.798ZM109.675 262.383C109.834 262.777 108.789 264.951 108.758 265.692C106.874 266.096 106.941 263.298 106.04 262.187C106.645 260.644 108.667 261.686 109.675 262.383ZM109.378 291.047C109.783 290.419 110.032 289.094 110.492 288.377C110.879 287.77 111.41 287.539 111.697 287.079C112.227 286.247 112.163 284.789 113.54 284.386C113.962 284.257 114.26 284.226 114.654 284.477C115.249 284.849 117.132 287.654 117.292 288.361C117.72 290.245 114.324 293.052 113.45 294.761C112.453 295.231 111.705 295.851 110.923 296.637C110.304 297.28 109.269 299.411 108.6 296.882C108.405 296.135 107.924 294.236 107.832 293.556C107.571 291.608 108.742 292.033 109.378 291.047ZM105.233 295.343C105.057 294.104 103.966 292.577 105.067 291.599C106.091 293.557 107.627 297.362 106.838 299.517C106.605 300.175 105.642 300.941 105.357 300.117C105.272 299.856 105.505 299.195 105.484 298.771C105.437 297.695 105.376 296.402 105.233 295.343ZM101.058 260.454C103.017 259.914 103.999 261.426 103.081 263.164C102.544 263.587 99.8766 261.217 101.058 260.454ZM100.043 274.923C99.9974 273.983 101.52 272.792 102.451 273.163C103.281 273.486 103.709 276.121 103.629 276.949C103.558 277.758 102.735 278.514 102.404 279.296C102.111 279.98 101.561 281.884 101.528 282.592C101.43 284.771 103.676 287.4 102.733 289.384C102.072 290.781 100.945 289.879 100.482 290.202C99.0852 292.98 101.345 292.002 102.158 292.723C103.203 293.664 102.766 296.037 103.008 297.294C102.422 298.247 103.253 301.223 102.078 301.621C100.828 302.035 99.8287 299.529 98.9467 298.898C98.0752 298.276 95.577 297.197 94.3698 296.537C93.8318 296.235 92.5641 295.954 92.2238 295.677C90.9294 294.584 92.2483 289.406 93.2373 288.241C94.3745 286.916 95.3542 288.259 96.655 288.098L96.2106 288.495L96.9145 291.513C98.6388 291.162 99.1168 288.591 99.6344 287.142C99.8671 286.485 100.675 285.931 100.14 285.265C99.2072 284.114 98.2878 286.363 97.4144 285.894C97.0033 285.54 96.9702 284.954 96.6279 284.559C95.888 283.684 94.8234 284.126 95.1238 282.208C95.2439 281.484 95.9072 281.179 96.0218 280.826C96.144 280.443 95.7061 280.036 95.906 279.69C96.0398 279.465 97.2382 279.111 97.6596 278.846C98.3899 278.386 100.263 276.857 100.323 276.017C100.346 275.619 100.053 275.276 100.037 274.926L100.043 274.923ZM97.8811 289.15L97.724 290.082L97.2654 290.105C97.1412 289.568 97.3025 289.14 97.8844 289.15L97.8811 289.15ZM96.8733 269.793C96.8617 269.634 96.9796 269.505 97.142 269.494C97.2914 269.483 97.4298 269.59 97.4416 269.751C97.4535 269.913 97.3321 270.039 97.1827 270.05C97.0236 270.061 96.8852 269.955 96.8733 269.793ZM93.8375 260.426C94.501 260.079 93.9201 261.243 94.0109 261.324C94.6163 261.075 96.3063 262.889 96.2741 261.555C96.2559 260.861 95.8491 260.432 96.9842 259.972C99.373 261.787 97.5761 262.796 97.1113 264.521C96.3473 267.422 97.1348 271.315 93.8423 272.99C93.1811 272.609 93.5914 271.746 93.2512 271.202C93.0696 270.907 92.5964 270.909 92.4669 270.746C92.1808 270.36 92.313 269.356 91.2532 269.284C90.1187 269.217 88.9234 271.668 88.4462 269.83C87.6578 266.819 90.3777 268.34 91.3907 268.084C92.4354 267.815 91.4383 267.127 91.3055 266.786C90.6675 265.249 92.0375 265.321 92.1772 264.732C92.2916 264.243 91.7431 263.662 91.8783 263.011C91.9097 262.86 93.6929 260.502 93.8377 260.429L93.8375 260.426ZM88.7286 253.471C88.8576 253.182 89.4536 253.386 89.5103 253.446C90.3652 254.421 88.0258 255.021 88.7286 253.471ZM90.1568 259.606C91.0325 259.393 92.5706 259.397 91.5167 260.567C91.3082 260.797 87.83 262.612 87.5141 262.667C87.0373 262.754 86.6257 262.573 86.2907 262.233C87.1725 261.076 88.7442 259.934 90.16 259.606L90.1568 259.606ZM86.4239 267.358L87.1099 267.317L87.1598 268L86.4739 268.04L86.4239 267.358ZM88.0175 283.118C88.883 282.765 91.0076 283.156 91.6828 283.728C92.4156 284.328 92.5112 285.947 91.9778 286.733C91.8595 286.901 89.9765 288.743 89.7609 288.876C87.4721 290.347 87.8572 288.693 87.3704 287.35C87.224 286.954 86.7465 286.765 86.6866 286.213C86.5798 285.333 87.101 283.488 88.0177 283.121L88.0175 283.118ZM81.7821 274.555C82.0661 274.599 85.1689 278.856 85.2196 279.236C85.4626 280.951 82.3771 281.082 82.3397 280.571C82.2728 279.656 82.3058 277.921 82.0906 277.166C81.9204 276.58 80.3451 275.173 81.7821 274.555ZM82.2648 322.264C82.7005 321.302 82.8248 318.627 84.5269 318.954C84.6364 318.979 86.1687 320.109 86.3095 320.248C87.3962 321.313 87.6683 322.087 87.2512 323.571C86.5247 326.137 82.8707 330.235 82.4914 332.681C82.3471 333.654 82.6673 334.06 83.5208 333.409C83.9291 333.1 84.0074 331.982 84.9664 332.149C85.2667 332.417 84.3885 335.541 84.3725 336.215C84.3454 337.586 84.8645 338.523 84.575 340.011C84.4704 340.5 84.0751 340.808 84.033 341.26C83.9392 342.164 84.5401 342.881 84.3868 343.91C84.2166 345.109 81.4113 345.991 80.3723 345.712C80.0423 345.619 79.9107 345.115 79.5632 344.916C77.4339 343.703 76.4861 343.825 76.4321 340.899C76.307 333.921 79.5885 328.257 82.2686 322.27L82.2648 322.264ZM86.3799 351.473C86.4903 351.956 86.1144 352.263 85.6374 352.214C85.1749 351.916 85.1059 351.687 85.5624 351.322L86.3801 351.477L86.3799 351.473ZM84.4485 359.617C83.2351 360.346 83.4293 362.868 81.6278 361.761C83.2299 361.793 83.0903 360.018 84.4485 359.617ZM72.2245 339.08C71.9748 338.477 71.9251 337.798 71.6816 337.237C71.1484 335.973 69.2059 333.653 71.1444 332.526C72.0634 332.459 75.5938 335.195 75.8165 336.187C75.8805 336.482 74.9152 339.131 74.7212 339.424C74.2753 340.068 73.4073 340.119 72.6995 340.128C72.995 339.616 72.3826 339.456 72.2248 339.083L72.2245 339.08ZM72.9288 352.682L72.9788 353.364L72.2935 353.414C72.1886 353.006 72.485 352.639 72.9288 352.682ZM77.8746 357.584L77.0142 358.32L76.9816 357.874L77.8746 357.584ZM81.5943 392.727L81.506 393.439L79.6082 393.783C79.526 392.794 80.9741 393.085 81.5943 392.727ZM77.5413 353.027L77.4913 352.345L78.1766 352.295L78.2102 352.754L77.5413 353.027ZM78.6931 356.142C78.5134 355.739 78.4916 355.442 78.6105 355.014L78.8346 354.997L78.9172 356.126L78.6931 356.142ZM79.0861 323.888L79.0199 322.983L79.7129 323.039C80.0266 323.221 79.994 323.49 79.9954 323.822L79.0861 323.888ZM79.3065 308.109C79.6918 308.959 79.7275 309.447 79.115 310.178C77.7153 311.886 77.6972 307.979 79.3065 308.109ZM77.7187 311.532C77.8055 311.558 78.7713 312.398 78.8204 312.488C79.5597 313.803 77.3035 314.514 76.3351 314.488C76.114 313.831 76.8924 311.215 77.7185 311.529L77.7187 311.532ZM76.1512 315.187C76.8196 316.38 75.1001 318.314 74.1404 317.646C72.9644 316.835 75.1009 314.932 76.1512 315.187ZM71.1459 285.412C72.4461 284.976 72.575 289.372 72.4857 290.204C72.3136 291.823 70.3174 290.064 70.0909 289.02C69.9414 288.316 70.5405 285.616 71.1492 285.412L71.1459 285.412ZM66.0843 283.032C67.1354 283.03 67.9164 283.262 67.682 284.475L66.1056 284.974C65.3832 287.284 66.0506 289.355 65.2521 291.65C64.7926 293.001 63.9201 294.017 63.1 295.124C62.5807 295.078 61.8699 296.518 61.445 296.156C61.0186 295.771 61.8841 295.418 61.8516 295.108C61.6828 293.514 59.596 293.774 60.6606 291.323C61.1037 290.328 62.2983 289.61 62.8343 288.725C63.6812 287.36 63.4059 285.068 65.46 285.119C65.2667 284.083 64.5249 283.048 66.0808 283.029L66.0843 283.032ZM59.9878 283.286C62.7865 282.492 62.9425 285.339 60.7976 285.698C58.6204 286.062 57.5766 283.976 59.9878 283.286ZM54.701 273.274C56.2978 269.841 59.1466 271.473 61.2982 272.545C62.2862 274.313 64.7853 277.189 64.2988 279.332C64.1702 279.94 61.8549 280.87 61.2682 280.347C61.0487 280.158 60.9985 279.606 60.7746 279.313C60.5717 279.039 58.7822 277.918 58.4408 277.803C57.1961 277.39 55.7026 277.951 54.7659 276.349C54.7523 275.27 54.7276 274.352 54.7008 273.271L54.701 273.274ZM58.3042 292.718C56.8722 293.271 55.7735 290.302 56.7651 289.888C57.8395 289.445 59.2323 292.328 58.3042 292.718ZM55.1139 281.106L54.2233 281.428L54.0486 280.96L54.9392 280.638L55.1139 281.106ZM55.155 287.694C55.1666 287.852 55.0494 287.991 54.887 288.003C54.7376 288.014 54.5985 287.897 54.5867 287.735C54.5758 287.587 54.6962 287.448 54.8456 287.437C55.0048 287.425 55.1439 287.542 55.155 287.694ZM53.9272 279.567C54.2991 279.787 54.3591 280.027 54.3344 280.448L53.4421 280.747C53.3066 280.234 53.5632 279.903 53.9239 279.567L53.9272 279.567ZM53.4335 286.922C53.8574 286.826 54.2252 286.855 54.3754 287.302L53.4661 287.369L53.4335 286.922ZM54.6712 300.764L54.5977 301.231L54.211 300.811L54.6715 300.768L54.6712 300.764ZM53.3287 298.122C53.3974 298.169 53.3609 298.428 53.2551 298.589C52.4862 299.682 52.4543 297.46 53.3287 298.122ZM53.5033 309.034C54.4362 308.442 55.4965 304.414 56.3243 303.68C56.5181 303.517 58.568 302.619 58.8872 302.563C60.4042 302.28 59.7737 303.792 59.412 304.739C58.7015 306.631 55.6809 308.809 56.108 310.81C56.2232 311.358 57.8138 313.287 58.2644 314.002C60.1866 317.07 62.0661 320.314 64.0127 323.404C64.6331 324.386 66.7005 326.673 66.7307 327.666C66.7573 328.744 64.8744 328.712 64.1847 328.389C63.6506 328.139 63.478 327.52 63.0479 327.22C62.1288 326.572 60.9941 326.324 60.3507 325.161C59.994 324.524 59.996 323.838 59.6921 323.21C59.4864 322.763 57.1382 319.137 56.9137 319.014C56.2729 318.644 55.7279 318.96 55.2399 318.001C54.2491 316.061 55.5003 314.955 55.1787 313.639C55.0593 313.166 54.7181 313.234 54.5199 313.024C53.6705 312.123 52.3617 310.701 51.2249 310.29C50.2867 309.962 48.6657 310.253 48.3912 308.998C50.0788 308.146 51.8829 310.046 53.5063 309.03L53.5033 309.034ZM55.3178 325.048C55.0362 323.251 53.5574 321.379 55.5179 319.704C55.9468 319.543 56.0407 319.666 56.2588 320.014C56.5521 320.497 56.9083 322.867 56.9791 323.567C57.1758 325.543 57.2272 328.878 57.0813 330.856C57.0402 331.321 56.958 332.117 56.3953 332.191C54.4078 332.336 55.5022 326.319 55.3146 325.048L55.3178 325.048ZM48.8374 323.981C49.0324 323.121 50.5671 322.677 51.2204 322.19C51.9239 321.677 52.2771 320.926 53.0129 320.541C53.9362 320.665 53.0914 324.827 52.9307 325.577C52.7418 326.521 51.5024 331.001 50.9077 331.395C49.8024 332.13 49.4448 329.919 49.4574 329.2C49.4725 328.512 50.0409 327.938 49.9576 327.066C49.8364 325.855 48.5589 325.263 48.8406 323.981L48.8374 323.981ZM48.9174 293.339C50.2368 292.719 51.0194 295.787 50.6878 296.699L49.595 296.756C49.2443 295.488 48.5579 295.655 47.4202 295.813C47.1101 295.546 48.6768 293.442 48.9142 293.34L48.9174 293.339ZM51.8295 313.78C52.2073 314.705 52.1513 314.966 52.6812 316.007C53.2831 317.182 52.5689 318.444 52.605 319.651C51.012 320.056 49.1522 319.581 50.3993 317.705C50.7882 317.13 52.0715 316.91 51.8933 315.947C51.8765 315.851 50.8138 314.4 50.723 314.319C50.2519 313.905 48.9324 313.764 48.4927 313.198C48.1603 312.761 47.8082 311.473 47.615 310.885C48.2701 309.843 51.5585 313.11 51.8325 313.776L51.8295 313.78ZM46.5382 332.229C45.2258 332.185 44.8901 329.247 45.9209 328.476L46.7792 328.605C47.1665 329.348 47.9812 332.273 46.5382 332.229ZM44.1551 313.441L45.04 313.353L45.0551 313.693L44.5312 314.297C43.8405 314.273 43.9892 313.94 44.1581 313.437L44.1551 313.441ZM40.9213 333.996C42.0515 334.628 41.613 336.267 40.2784 336.098C40.0815 335.192 40.1913 334.595 40.9213 333.996ZM39.4718 331.364L39.4382 330.905L40.3312 330.615C40.4382 331.186 40.0235 331.408 39.4718 331.364ZM36.7904 305.73C37.5484 305.515 39.5167 307.875 39.1589 308.295C37.6281 308.524 36.9895 307.738 36.6642 306.37C36.6168 306.169 36.3588 305.856 36.7904 305.73ZM38.4282 323.435L37.9552 323.128L38.2714 322.764L38.4285 323.438L38.4282 323.435ZM37.6566 350.469L36.9707 350.509L36.9208 349.827L37.6067 349.787L37.6566 350.469ZM37.3102 333.235C37.3807 333.038 37.8018 332.77 37.9455 332.503C38.2484 331.957 38.3033 331.235 38.9805 330.941C39.0866 331.499 38.913 332.071 38.5464 332.505C38.469 332.608 38.1194 332.559 38.0328 332.669C37.8852 332.839 37.9563 333.23 37.7884 333.435C37.561 333.718 37.1864 333.596 37.3135 333.235L37.3102 333.235ZM40.2764 346.649L40.6897 346.586C41.5451 347.122 40.7929 347.863 40.7347 348.54C40.5391 350.866 42.0758 350.003 43.0094 351.563L42.6447 351.889C38.9183 353.391 37.994 348.698 40.2731 346.649L40.2764 346.649ZM46.6578 354.262C46.2959 354.76 43.8304 356.449 43.35 356.354C42.9558 356.275 42.373 355.762 42.2379 355.388C41.7148 353.95 43.5059 353.039 44.1701 352.122C45.0572 350.903 45.0499 349.018 46.0879 347.81C47.8278 347.94 46.8867 349.625 46.8666 350.823C46.842 351.959 47.3579 353.3 46.6578 354.262ZM52.2347 364.714C52.6368 363.293 53.7395 361.362 55.4379 361.505C55.6333 362.57 54.4593 362.945 53.8358 363.527C53.3921 363.933 53.3696 364.92 52.2347 364.714ZM53.5431 367.024C52.1035 366.135 55.2844 363.067 56.4883 363.502C57.4079 364.602 54.265 367.475 53.5431 367.024ZM56.6373 343.355L55.9521 343.405C55.8478 343.006 56.1542 342.642 56.5883 342.685L56.6373 343.355ZM58.0641 343.936C58.0362 343.555 58.7578 343.287 58.9408 343.424C59.2945 343.707 58.5859 344.285 58.0641 343.936ZM57.6504 339.441C56.8138 340.188 54.3856 342.388 53.8651 343.216C53.4989 343.789 53.5058 345.223 52.9908 346.083C52.3756 347.09 50.5706 347.811 50.7195 346.454C50.7972 345.775 52.2813 345.354 52.4735 344.144C52.9101 341.319 51.6264 337.83 49.5084 341.815C48.7786 342.102 48.7743 341.195 48.5632 341.211L47.4714 341.996L45.9457 341.402C46.027 341.621 45.7469 341.898 45.754 341.995C45.8257 342.975 46.0879 344.507 46.0031 345.401C45.9905 345.541 45.7113 346.277 45.6316 346.348L44.4088 346.503C42.6078 344.644 40.288 344.352 42.2057 341.334C38.6481 338.984 42.7887 337.387 44.5038 335.571C45.6239 335.307 46.2411 336.247 47.2515 336.579C47.5497 336.684 48.9794 337.126 48.8036 336.508C48.701 336.132 46.5064 334.205 46.0818 333.979C45.3103 333.564 44.5528 333.652 43.8239 333.374C42.8649 333.028 42.0864 332.249 41.119 331.923C41.3652 331.316 42.0952 330.138 42.8555 330.534C44.2229 332.489 47.1242 333.366 49.2713 334.377C49.6929 335.276 50.3477 335.881 50.2129 336.984L49.3036 337.05L49.6772 339.078C50.4156 338.595 51.3296 338.593 52.0141 337.996C52.6489 337.436 52.9843 335.549 53.4291 335.604C54.2626 336.109 53.303 336.693 53.2329 337.341C52.8768 340.417 54.6197 339.562 56.2635 338.245C60.5356 334.83 64.7496 331.024 69.1862 327.626C69.9282 327.058 70.8859 327.073 70.9729 325.763C71.1628 322.914 68.4202 323.179 68.1857 321.58C67.9955 320.32 70.3476 319.133 71.3061 319.427C72.0637 319.651 74.3092 321.562 74.3636 322.305C74.4415 323.369 73.4223 323.808 73.0512 324.359C72.7144 324.887 72.7299 325.859 72.4702 326.414C71.307 329.035 69.245 330.662 67.065 332.415C64.0004 334.886 60.5471 336.862 57.6509 339.447L57.6504 339.441ZM65.4657 338.492L65.4898 338.822L64.5708 338.889L64.5381 338.443L65.0998 338.177L65.4657 338.492ZM67.4483 381.309L67.9722 380.705L68.1217 381.142L67.445 381.309L67.4483 381.309ZM66.4879 361.841C66.3639 361.752 66.8396 361.204 67.1395 361.331C67.2529 361.408 66.7781 361.969 66.4879 361.841ZM83.1678 416.559C83.0636 417.188 83.2617 417.977 83.1705 418.516C83.0856 418.962 82.4979 419.453 82.6705 420.071C82.2813 420.464 80.5481 418.952 80.1602 418.649C77.5763 416.666 75.5479 414.063 73.9429 411.046C73.1971 409.644 70.9164 405.513 73.6885 405.203C74.4142 405.127 77.5159 405.082 78.1577 405.198C79.1467 405.372 83.0961 408.527 83.8339 409.374C83.9147 409.452 84.1495 409.448 84.1942 409.614C84.6443 411.08 83.4465 414.835 83.1645 416.559L83.1678 416.559ZM89.162 427.27C87.2073 428.311 85.5576 421.915 89.5301 423.51C90.1493 424.343 90.1328 426.75 89.162 427.27ZM85.6381 397.484L86.9493 397.645C89.0777 401.791 84.4766 401.422 85.6381 397.484ZM87.5672 386.096C87.4478 385.624 86.8382 385.369 86.7634 384.926C86.4666 383.234 87.2261 381.566 86.6305 379.896C86.5355 379.623 86.1353 378.84 85.9509 378.684C85.7307 378.485 85.4084 378.766 85.3973 378.747C85.3133 378.627 85.5944 378.229 85.4628 378.037C85.3796 377.926 83.6399 377.218 83.2115 376.94C80.6064 375.248 80.6374 373.35 84.1911 373.594C86.4819 373.758 86.5257 375.829 87.3938 377.297C87.9726 378.292 89.049 378.77 89.599 379.682C90.9579 381.969 90.8538 385.947 87.5642 386.1L87.5672 386.096ZM95.952 429.043C95.7022 431.074 93.0929 428.878 94.085 427.755C95.0161 426.692 96.1303 427.508 95.952 429.043ZM87.5717 314.472C87.9284 314.082 88.0967 312.99 88.2501 312.722C88.6476 311.997 89.9582 312.864 89.2354 313.56C88.9024 313.874 88.5311 313.752 88.2847 313.91C88.1107 314.03 88.0479 314.912 87.5752 314.475L87.5717 314.472ZM89.6326 314.439L89.6653 314.885L88.98 314.935L88.9474 314.489L89.6326 314.439ZM99.8081 414.497C99.5846 414.386 96.2345 411.614 95.9318 411.314C95.6639 411.044 95.4849 410.651 95.3188 410.299C95.0839 408.56 94.8403 402.15 96.8544 401.476C97.9342 401.108 99.0134 403.363 99.359 404.161C100.224 406.162 100.258 407.798 100.576 409.901C100.7 410.705 102.301 415.725 99.8047 414.494L99.8081 414.497ZM91.4536 333.04L91.4209 332.594L92.1062 332.544L92.1388 332.99L91.4536 333.04ZM94.4001 338.775L94.3665 338.316L95.0517 338.266L95.0853 338.725L94.4001 338.775ZM98.9673 351.001C99.0516 350.547 99.4106 350.455 99.844 350.489L99.8766 350.935L98.9673 351.001ZM100.425 358.438L99.9773 358.471L99.9532 358.141L100.268 357.764L100.425 358.438ZM102.995 396.654L103.681 396.603C103.75 396.663 103.537 398.165 103.46 398.45C103.362 398.854 103.49 398.994 102.937 398.937L102.995 396.654ZM103.211 365.092C103.507 365.304 102.252 366.98 101.665 366.008C101.714 365.201 102.574 365.054 103.211 365.092ZM100.929 349.606L101.365 349.233L101.399 349.692L100.929 349.609L100.929 349.606ZM100.779 350.645L100.094 350.695L100.402 350.223L100.743 350.198L100.776 350.645L100.779 350.645ZM109.673 415.82C109.436 416.543 110.394 417.149 110.458 417.304C111.05 418.792 111.158 420.719 109.028 420.384C107.344 420.123 107.386 418.514 106.858 417.46C106.507 416.757 105.879 416.569 105.572 416.172C104.388 414.666 103.767 410.731 103.767 408.813C103.781 406.63 106.5 406.356 107.012 404.254C107.234 403.308 107.141 401.325 106.942 400.354C106.691 399.098 105.694 398.423 106.136 396.69C106.463 395.447 108.249 394.429 108.701 396.363C109.484 399.707 108.925 404.563 108.233 407.868C108.512 409.623 106.949 411.022 108.319 412.57C108.564 412.842 108.581 413.065 108.876 412.679C109.649 411.65 108.174 408.666 109.949 408.696C110.724 408.714 111.347 411.204 111.463 411.901C111.713 413.402 111.995 416.538 109.677 415.82L109.673 415.82ZM102.746 321.117C102.695 320.542 102.991 318.436 103.245 317.936C103.564 317.302 104.342 317.352 104.683 317.916C105.011 318.428 105.31 320.897 105.32 321.615C105.322 322.096 105.078 325.047 104.883 325.201C103.816 326.059 102.798 321.822 102.747 321.12L102.746 321.117ZM103.405 326.912C103.235 326.635 103.711 326.096 103.804 326.197C103.974 326.473 103.498 327.012 103.405 326.912ZM109.409 381.546C109.399 381.397 109.516 381.259 109.678 381.247C109.827 381.236 109.967 381.353 109.978 381.505C109.989 381.663 109.872 381.802 109.719 381.813C109.56 381.825 109.421 381.705 109.409 381.546ZM116.568 426.966C115.448 428.258 114.337 427.89 113.608 426.444C113.47 426.175 112.741 423.705 112.758 423.489C112.822 422.447 114.296 422.19 115.128 422.106C119.512 421.646 118.632 424.611 116.568 426.966ZM111.135 363.54C111.294 363.528 111.424 363.646 111.436 363.807C111.446 363.956 111.339 364.094 111.177 364.106C111.014 364.118 110.888 364 110.877 363.848C110.865 363.69 110.973 363.552 111.135 363.54ZM107.743 320.42L107.71 319.974C108.134 319.878 108.503 319.916 108.662 320.353L107.743 320.42ZM113.562 400.104C113.578 398.721 115.309 400.468 115.632 400.06C115.773 398.466 115.14 397.583 113.776 396.879L114.524 395.368L116.175 395.751C116.457 397.239 118.227 398.983 118.577 400.241C118.823 401.111 119.046 404.467 118.896 405.323C118.758 406.071 117.991 407.047 117.865 407.837C117.707 408.746 117.969 410.151 117.652 411.075C117.554 411.349 117.65 411.364 117.267 411.392L116.323 410.99C115.915 409.96 116.237 408.782 115.927 407.754C115.489 406.33 113.303 405.677 113.853 403.328C113.993 402.739 114.889 402.673 114.868 402.077C114.841 401.266 113.549 400.912 113.565 400.107L113.562 400.104ZM113.803 346.717C114.319 346.721 114.94 347.886 115.085 347.95C115.342 348.071 115.675 347.939 115.956 347.938C115.617 349.023 113.633 347.467 113.803 346.714L113.803 346.717ZM119.331 421.266C118.704 421.494 115.312 418.897 115.155 418.222C114.994 417.496 117.257 416.121 117.891 415.948C121.178 415.044 120.984 419.626 119.331 421.266ZM122.539 407.807C122.446 408.468 121.566 409.953 120.859 409.975C119.637 410 119.436 408.603 119.391 407.677C119.292 405.876 119.559 405.278 120.098 403.804C120.631 402.309 119.492 401.999 119.212 401.248C119.13 401.02 118.793 398.915 118.795 398.626C118.806 397.62 120.274 397.555 120.307 398.011C120.389 399.13 120.355 401.165 120.607 402.109C120.827 402.928 122.236 404.825 122.41 405.466C122.456 405.654 122.565 407.584 122.539 407.811L122.539 407.807ZM122.799 373.205C121.593 374.611 118.774 370.45 121.861 370.822C122.845 370.933 123.382 372.509 122.799 373.205ZM119.991 362.271C120.324 362.13 121.441 362.711 121.191 363.094L120.298 363.384L119.991 362.271ZM123.548 370.228L123.515 369.781L124.642 369.475C124.757 370.162 124.117 370.251 123.548 370.228ZM134.917 398.448C133.399 398.536 134.701 397.105 133.877 396.287C133.785 396.186 131.802 395.229 131.56 395.14C130.655 394.822 129.47 395.227 128.765 393.933C128.602 393.314 129.887 390.918 130.004 390.162C130.161 389.23 129.953 387.993 130.298 386.996L130.165 386.651C129.255 386.526 128.299 385.064 128.222 384.182C128.15 383.203 128.58 382.475 129.082 381.7C130.858 378.982 131.288 378.073 132.333 374.914C132.879 373.268 134.507 370.84 132.882 369.203C131.582 367.897 130.62 368.845 129.772 368.413L128.669 366.686C127.551 366.67 127.568 368.233 126.432 367.523C125.518 366.949 124.568 362.171 123.341 360.794C123.071 360.492 122.522 360.756 122.164 360.73L123.275 360.201C122.788 359.134 122.373 357.558 121.836 356.55C120.975 354.913 120.885 355.475 120.189 353.279C119.949 352.494 119.088 351.884 118.82 351.165C118.621 350.634 118.698 350.072 118.487 349.564C118.13 348.647 116.358 348.211 117.271 347.042L116.782 346.831C116.756 345.002 116.003 341.89 115.275 340.2C115.002 339.547 114.094 338.606 113.88 337.864C113.647 337.036 113.011 333.167 112.955 332.261C112.92 331.652 113.385 331.225 113.311 330.661C113.244 330.195 112.655 329.327 112.496 328.624C112.225 327.414 112.295 325.748 112.076 324.665C111.782 323.145 110.555 323.557 110.136 322.7C109.806 322.028 110.866 320.754 109.587 320.633L108.502 321.515C108.404 321.074 108.833 320.903 108.875 320.461C109.015 319.283 108.786 317.323 108.562 316.172C108.074 313.746 105.086 314.628 104.341 314C103.206 313.033 104.828 311.857 104.718 311.202C104.548 310.22 102.487 308.777 101.476 310.038C101.278 310.286 100.913 312.788 100.845 313.336C100.782 313.951 101.086 314.57 100.84 315.456C100.634 316.157 99.8866 316.969 99.794 317.756C99.5388 319.713 99.8852 322.084 99.4199 324.248C99.3086 324.779 98.6203 326.081 97.9536 325.938C97.8109 325.907 96.2019 324.174 96.1045 323.869C95.6249 322.311 96.1682 321.66 96.939 320.459C93.3518 317.704 96.6089 318.311 98.1699 317.469C99.1537 316.948 99.8431 313.474 97.8558 314.068C97.7305 313.693 98.2857 313.919 98.3019 313.694C98.3867 312.8 96.9484 312.509 96.2453 312.583C95.4449 312.664 94.6845 313.874 93.77 313.245C93.5225 312.941 93.677 312.107 93.8362 311.783C94.1351 311.183 95.0823 311.188 94.8671 310.746C94.68 310.376 93.635 309.925 93.4394 309.439C93.1721 308.73 93.4483 307.061 93.0942 306.639L91.3529 306.177C91.1113 304.794 91.0942 303.533 91.4928 302.197C89.6145 301.649 86.8405 303.36 85.8667 304.911C85.2989 305.807 83.752 309.208 84.0256 310.137C84.0946 310.366 84.7408 310.095 84.5401 310.698C83.3289 310.432 82.8773 311.623 82.2142 310.055C81.3471 308.021 82.1562 303.683 83.0941 301.687C85.2077 297.24 90.4234 295.522 94.8427 297.959C95.9179 298.554 101.432 303.148 102.147 304.081C102.707 304.82 103.039 305.706 103.287 306.586C103.76 306.593 104.066 306.09 104.505 306.058C106.216 305.923 107.705 310.574 108.492 310.315C109.29 310.065 108.581 308.715 108.574 308.221C108.572 307.474 109.157 306.637 109.114 306.042C108.976 304.16 106.374 304.123 107.314 302.279C107.625 301.668 110.49 300.047 111.158 300.073C111.643 300.089 112.073 300.52 112.582 300.43C113.007 300.357 114.027 299.17 114.897 299.318C115.235 297.911 113.51 298.564 113.038 297.432C112.202 295.418 115.525 294.106 116.759 293.349C117.203 293.082 117.458 292.462 118.124 292.189C118.917 291.874 119.572 291.998 120.338 291.747L120.247 290.193C120.51 288.932 123.289 289.21 124.267 289.054C124.417 286.409 123.891 286.727 122.379 285.427C121.944 285.052 121.648 284.537 121.271 284.246C119.636 282.922 116.977 281.64 115.803 279.704C115.398 279.028 115.552 278.461 115.3 277.825C115.126 277.367 114.505 276.772 114.43 276.371C114.348 275.84 115.254 274.694 115.09 274.108C114.887 273.385 111.892 271.806 111.528 271.072C110.709 269.418 110.982 267.259 111.809 265.67C112.545 264.257 112.54 264.065 114.138 264.612C116.154 265.3 120.359 269.593 121.734 271.385C125.13 275.803 127.881 281.548 128.712 287.022C128.947 288.62 128.622 290.335 126.655 290.05C126.558 291.543 126.723 292.903 126.148 294.408C125.704 295.533 123.242 298.867 122.082 299.222C120.779 299.616 119.542 298.991 118.403 299.575C118.84 301.588 117.342 301.815 116.207 302.903C114.722 304.338 114.516 306.076 113.213 307.359C111.879 308.675 110.012 308.854 110.25 311.223C110.426 312.911 112.609 313.652 113.751 314.853C114.833 315.983 116.869 318.829 117.117 320.342C117.251 321.145 116.931 322.356 117.114 322.794C117.216 323.034 118.198 323.518 118.547 323.866C120.215 325.51 120.495 327.596 122.566 328.859L124.585 327.996C123.997 326.69 120.104 322.836 120.783 321.534C121.263 320.602 122.609 321.69 123.157 322.131C126.024 324.448 128.269 327.376 129.99 330.641C130.649 331.887 131.796 333.91 131.776 335.251C131.777 335.391 131.554 336.903 131.528 336.992C131.184 337.863 130.697 337.674 130.668 339.205C130.636 341.711 131.137 341.375 132.056 343.05C132.764 344.335 132.175 346.144 132.214 347.565C132.253 349.263 132.515 350.967 132.578 352.676C130.665 352.825 131.497 349.952 131.088 348.6C130.705 347.344 129.285 345.373 128.98 343.887C128.574 341.861 129.163 339.646 128.725 337.773C128.663 337.498 127.816 335.603 127.654 335.305C127.231 334.524 126.774 334.567 126.479 335.401C126.182 336.203 126.975 339.111 127.084 340.15C127.158 340.85 127.302 341.964 127.213 342.621C127.004 344.005 124.986 344.634 124.799 345.461C124.931 346.563 125.182 347.627 125.179 348.749C125.167 350.633 124.036 354.546 125.478 356.047C126.071 356.657 126.049 356.089 126.621 355.963L126.456 356.778C127.617 356.81 127.66 355.48 128.735 355.486C131.234 357.336 129.085 359.109 128.917 360.929C128.758 362.589 129.758 362.292 130.691 362.864C130.985 363.034 133.595 365.562 134.025 365.992C135.13 367.13 135.865 369.86 136.882 371.262C137.539 372.166 138.676 372.265 138.907 373.37C139.168 374.57 138.579 375.94 138.52 377.047C138.375 379.304 138.808 381.883 138.124 383.956C137.913 384.602 137.415 385.419 137.095 386.053L138.046 386.55C136.83 386.082 135.926 388.545 135.793 389.4C135.546 391.024 136.228 393.296 136.118 395.014C136.089 395.498 135.5 397.713 135.295 398.124C135.18 398.347 135.294 398.433 134.91 398.452L134.917 398.448ZM108.199 307.826C108.268 307.873 108.232 308.133 108.125 308.28C107.356 309.374 107.324 307.152 108.199 307.826ZM138.812 384.435L138.755 385.126L138.388 384.798L138.364 384.468L138.812 384.435ZM140.879 432.959C139.433 434.788 138.301 431.509 139.631 431.028C139.882 430.935 140.16 430.891 140.405 431.036C140.776 431.545 141.126 432.365 140.879 432.959ZM143.473 440.085C141.532 439.97 141.663 437.073 143.59 437.839C143.968 438.316 144.349 440.008 143.473 440.085ZM142.812 428.236C142.718 428.552 142.374 429.166 141.984 429.227C141.057 429.317 141.297 426.89 141.181 426.193C140.819 424.057 139.978 423.862 139.612 422.829C138.736 420.399 138.359 417.165 137.794 414.573C136.75 409.717 135.423 404.924 136.389 399.921C136.553 399.086 136.73 397.841 137.658 397.581C138.807 397.263 139.933 397.844 140.13 399.068C140.33 400.328 139.684 401.175 139.668 402.301C139.576 407.068 141.671 412.192 142.341 416.968C142.648 419.108 143.328 426.495 142.809 428.233L142.812 428.236ZM138.095 368.877C137.477 368.054 135.368 364.219 135.208 363.333C134.563 359.817 135.314 359.912 136.489 357.182C137.646 354.477 137.923 351.664 137.911 348.732C137.907 346.752 137.25 344.114 137.381 342.199C137.54 339.824 139.39 340.875 140.488 340.613C141.733 340.317 143.266 338.335 143.718 337.2C143.991 336.517 143.956 335.758 144.264 335.105C144.644 334.284 145.477 334.194 145.385 333.118C145.16 330.491 143.775 334.455 143.655 334.594C143.201 335.131 140.362 336.707 140.798 334.91C141.088 333.734 142.789 333.34 140.806 331.485C140.494 331.199 137.661 329.469 137.297 329.355C136.363 329.082 133.487 328.948 133.027 328.117C132.075 326.388 133.345 321.568 131.519 320.128C131.429 320.05 129.846 319.125 129.746 319.103C127.678 318.581 125.336 318.571 123.43 317.51C122.736 317.122 122.689 316.485 121.954 315.992C121.604 315.761 118.699 314.25 118.269 314.08C117.229 313.665 115.492 313.877 115.422 312.341C116.345 311.75 117.51 311.791 118.559 312.027C119.269 312.18 119.71 312.629 120.257 312.781C121.024 313.004 122.028 312.758 122.825 313.386L122.976 312.24C122.608 312.482 120.204 310.902 121.391 310.974C122.05 311.011 122.66 311.587 123.274 311.766C123.768 311.912 126.971 312.491 127.109 312.64L127.196 313.522L123.694 312.633L123.709 313.286L123.075 313.589L131.403 315.945C132.59 316.47 133.749 317.185 134.644 318.127C136.193 319.757 138.491 324.609 139.084 326.822C139.156 327.096 139.003 327.459 139.066 327.604C139.187 327.917 139.696 327.824 139.756 328.067C139.803 328.268 139.541 328.648 139.673 328.853C139.769 329.006 142.958 330.603 143.117 330.409C142.629 325.929 146.212 328.931 146.805 331.456C147.663 335.116 145.724 338.416 146.143 341.968C146.25 342.848 146.91 344.364 146.981 345.34C147.223 348.649 144.955 353.802 144.455 357.221C144.272 357.94 143.018 357.583 143.698 358.486L144.947 358.502C144.725 359.448 143.923 359.188 143.46 359.778C142.201 361.356 140.992 365.983 139.951 368.049C139.388 369.15 139.111 370.218 138.089 368.881L138.095 368.877ZM134.68 356.287C134.597 355.019 135.048 353.37 135.075 352.139C135.116 350.061 134.953 347.836 134.843 345.757C134.931 345.035 135.654 344.52 136.351 344.629C136.818 345.889 136.448 347.297 136.427 348.613C136.403 350.338 136.5 355.188 135.726 356.529C135.267 357.301 134.74 357.157 134.676 356.284L134.68 356.287ZM142.657 388.218C141.35 388.421 140.972 384.726 141.313 383.813L142.453 383.815C143.132 384.451 143.793 388.038 142.657 388.218ZM149.763 444.665C149.379 444.716 145.957 444.312 145.775 444.186C144.765 443.466 144.741 441.085 145.832 440.416C146.51 440.003 148.226 439.802 148.304 438.685C148.414 437.103 145.602 436.431 145.728 434.893C147.029 434.466 148.203 434.67 148.623 436.125C148.757 436.619 148.616 437.056 148.777 437.645C149.18 439.19 152.976 444.218 149.764 444.668L149.763 444.665ZM149.602 405.314C149.433 406.087 148.538 406.933 148.546 407.615C148.556 408.343 149.413 409.028 149.411 410.023C149.397 412.924 148.512 417.291 148.151 420.26C147.993 421.491 148.485 423.477 147.136 424.272C146.696 423.972 146.558 423.566 146.467 423.069C145.233 416.643 146.533 410.191 146.874 403.823C146.939 402.664 146.592 401.437 146.688 400.253C146.711 399.985 147.164 397.65 147.24 397.527C147.5 397.111 148.103 397.282 148.43 397.515C149.792 398.495 149.947 403.696 149.602 405.314ZM148.017 392.44C148.785 392.225 149.203 393.969 148.581 393.992C148.324 394.011 147.25 392.665 148.017 392.44ZM152.824 408.083C151.852 408.453 150.739 405.559 150.659 404.902C150.577 404.235 150.876 401.719 151.064 401.032C151.306 400.094 151.791 400.381 152.401 400.957L152.168 403.8L152.853 403.75C152.98 404.329 152.502 404.663 152.49 405.252C152.47 406.015 153.609 407.791 152.824 408.086L152.824 408.083ZM156.03 414.013C156.358 414.844 156.823 416.781 157.067 417.748C157.417 419.146 157.846 421.04 158.119 422.444C158.253 423.12 158.913 427.146 158.7 427.311L157.995 427.223C157.263 426.002 156.77 424.842 156.387 423.455C155.591 420.646 155.472 418.3 155.094 415.59C155.006 414.966 154.18 414.565 154.712 413.768C155.149 413.125 155.755 413.337 156.03 414.013ZM156.997 397.73L156.665 397.745L156.046 397.224L156.021 396.885L156.93 396.818L156.997 397.734L156.997 397.73ZM161.36 400.835L160.899 400.869L160.849 400.186L161.311 400.153L161.36 400.835ZM176.649 391.725L175.864 392.006L175.92 391.306L176.707 391.034L176.649 391.725ZM173.151 390.589C173.113 390.644 173.083 390.678 173.043 390.714C172.936 390.861 172.815 390.987 172.697 391.113C172.467 391.364 172.226 391.596 171.999 391.837C170.125 393.675 167.822 394.945 165.344 395.621C164.839 395.765 164.312 395.878 163.789 395.969C163.577 396.017 163.364 396.042 163.153 396.067C163.121 396.07 163.089 396.082 163.056 396.074C162.769 396.118 162.471 396.15 162.172 396.172C161.873 396.193 161.551 396.207 161.241 396.207C160.178 396.233 159.13 396.137 158.117 395.954C157.88 395.92 157.638 395.872 157.407 395.801C155.659 395.425 153.976 394.736 152.463 393.734C152.306 393.629 152.158 393.532 152.011 393.436C151.863 393.339 151.715 393.233 151.57 393.127C151.546 393.106 151.535 393.087 151.514 393.079C149.491 391.578 147.845 389.601 146.731 387.309L146.184 387.778C146.087 387.356 145.845 386.981 145.835 386.542C145.822 386.221 146.068 386.194 146.202 386.109C145.637 384.684 145.287 383.159 145.17 381.551C145.084 380.371 145.126 379.21 145.302 378.085L145.231 378.016L145.308 378.033C145.45 377.037 145.69 376.08 146.031 375.154C145.811 375.222 145.639 375.248 145.689 374.9C145.783 374.272 146.274 373.218 146.372 372.505C146.706 370.01 145.95 366.866 146.067 364.354C146.1 363.463 146.609 362.217 146.714 361.289C146.81 360.404 146.445 356.89 147.455 356.601C147.708 356.531 147.927 356.716 148.018 356.934C148.597 358.378 146.648 363.466 147.08 365.391L147.663 365.732L148.88 365.182C148.984 366.029 148.886 367.012 148.633 367.833C148.267 368.985 147.046 369.79 147.476 370.988C148.533 371.07 149.056 368.658 149.279 368.586C149.553 368.501 149.956 368.741 150.327 368.682C152.835 366.411 156.079 364.912 159.72 364.613L159.743 364.612C159.817 364.596 159.868 364.58 159.931 364.555C160.548 364.328 159.405 362.936 161.127 363.141C161.258 363.463 160.994 363.954 161.053 364.184C161.086 364.321 161.331 364.453 161.705 364.575L161.716 364.584C164.948 364.712 167.964 365.818 170.438 367.637C170.6 367.667 170.742 367.689 170.811 367.749C170.846 367.779 171.091 368.051 171.373 368.371C171.374 368.381 171.384 368.393 171.398 368.402C174.481 371.044 176.546 374.863 176.865 379.226C177.184 383.589 175.743 387.548 173.151 390.582L173.151 390.589ZM176.418 368.877C176.407 368.728 176.524 368.59 176.677 368.578C176.836 368.567 176.975 368.683 176.986 368.835C176.998 368.994 176.877 369.123 176.718 369.135C176.568 369.146 176.43 369.039 176.418 368.877ZM176.88 371.357L177.338 371.323L177.395 372.239L176.947 372.272L176.88 371.357ZM179.058 385.598L179.108 386.281C177.946 386.87 177.81 385.582 179.058 385.598ZM178.784 378.589C178.709 377.879 177.821 376.893 178.497 376.278C178.712 376.272 180.377 379.48 180.263 380.022L178.784 378.589ZM179.152 379.644C179.163 379.803 179.046 379.941 178.884 379.953C178.734 379.964 178.595 379.848 178.583 379.686C178.572 379.537 178.69 379.399 178.842 379.387C179.001 379.376 179.14 379.492 179.152 379.644ZM180.946 385.837C180.62 386.375 180.24 389.527 179.067 388.8C179.422 388.078 179.928 387.485 180.237 386.715C180.645 385.69 180.103 385.024 181.756 384.721C181.876 385.334 181.204 385.392 180.947 385.84L180.946 385.837ZM179.23 349.423C178.837 350.521 178.138 350.348 177.678 349.364C175.915 345.662 175.546 341.827 173.324 337.87C172.978 337.241 170.711 334.777 172.49 334.227C172.866 334.102 174.255 334.846 174.668 335.086C175.433 335.543 177.812 337.093 178.05 337.846C178.432 339.092 177.863 340.418 178.044 341.602C178.477 344.438 180.322 346.325 179.23 349.423ZM181.455 327.26C180.829 328.399 178.699 329.988 177.509 328.973C176.958 328.5 176.901 327.723 177.178 327.082C177.305 326.774 179.621 324.783 180.074 324.367C180.408 324.063 180.81 322.827 181.607 323.269C182.278 323.659 181.847 326.559 181.458 327.26L181.455 327.26ZM180.717 318.968C179.525 319.139 178.015 318.17 177.101 319.479C176.974 319.661 175.874 322.073 175.853 322.224C175.808 322.634 176.497 323.269 176.658 323.683C177.158 324.941 175.196 325.426 174.773 323.616C174.632 323.038 174.68 320.873 174.76 320.226C174.924 318.952 176.293 316.635 176.238 315.751C176.197 315.198 175.36 314.466 175.201 313.762C174.605 311.195 175.433 308.985 178.306 310.55C179.323 311.107 180.342 312.681 181.115 313.105C183.051 314.183 183.356 312.899 183.849 316.115C183.899 316.495 184.404 321.338 183.263 320.609C183.005 319.89 182.855 318.681 181.96 318.509C181.427 318.409 181.182 318.898 180.714 318.965L180.717 318.968ZM183.403 332.028C183.29 331.951 183.766 331.403 184.065 331.53C184.179 331.607 183.703 332.155 183.403 332.028ZM184.572 333.773L184.913 333.748L184.947 334.207L184.262 334.257L184.569 333.773L184.572 333.773ZM187.963 375.576C187.602 376.084 186.565 373.955 186.68 373.615C187.205 373.736 188.258 375.19 187.963 375.576ZM190.678 400.063L190.216 399.775C190.962 398.81 190.59 397.253 191.572 396.573L190.678 400.063ZM189.783 380.021C188.939 380.083 188.364 377.673 189.75 377.959C189.503 378.682 190.937 379.946 189.783 380.021ZM187.631 326.809C187.638 327.214 187.028 327.796 186.629 327.48L186.095 326.342C185.904 326.356 182.053 328.969 183.826 326.742C184.789 325.527 187.952 324.236 189.45 323.593C188.675 325.051 186.622 324.743 187.631 326.809ZM192.218 355.148L190.199 355.757L190.107 354.629L192.169 354.478L192.218 355.148ZM190.281 325.587L189.138 325.671C189.24 325.15 189.807 325.131 190.248 325.128L190.281 325.587ZM192.018 324.195L191.582 324.582L191.532 323.899L191.993 323.866L192.018 324.195ZM193.631 324.25C193.472 324.261 193.333 324.142 193.321 323.983C193.31 323.834 193.427 323.696 193.59 323.684C193.739 323.673 193.878 323.789 193.889 323.941C193.901 324.1 193.784 324.239 193.631 324.25ZM198.502 375.264L197.817 375.314L198.125 374.842L198.466 374.818L198.499 375.264L198.502 375.264ZM201.419 386.938L201.195 386.954L201.096 385.592L201.32 385.576L201.419 386.938ZM201.254 383.067L201.487 384.644C200.681 384.917 200.87 383.395 201.254 383.067ZM198.997 326.501C197.814 323.859 196.781 320.576 195.403 318.076C195.289 317.86 194.054 316.11 193.946 316.052C193.039 315.573 192.204 317.058 191.609 317.452C190.586 318.148 189.12 318.812 188.066 319.542C187.693 319.709 187.312 319.49 187.267 319.064C187.173 317.637 192.337 315.087 193.2 313.932C193.951 312.905 191.745 311.674 193.105 310.856C194.382 310.1 194.789 311.826 195.788 311.697C196.364 311.623 198.928 309.8 199.248 310.075C199.89 310.64 196.469 313.062 196.571 314.004C198.159 315.588 198.63 318.048 199.404 320.111C200.294 322.452 202.183 326.102 201.239 328.72C200.361 331.138 199.195 326.932 199.003 326.497L198.997 326.501ZM203.934 374.183L203.9 373.724L205.044 373.65C204.942 374.172 204.375 374.181 203.934 374.18L203.934 374.183ZM217.717 404.256C217.32 403.066 217.385 401.767 217.067 400.815C216.074 397.805 214.272 395.489 213.5 391.864C212.844 388.778 212.937 386.973 216.737 388.087C217.459 387.819 216.729 384.579 219.157 385.458C219.916 386.869 219.344 388.335 219.519 389.831L220.231 390.013C218.945 390.504 219.477 391.17 219.139 392.265C218.442 394.478 217.384 395.902 217.4 398.449C217.403 401.434 219.213 402.651 219.716 405.16C219.846 405.772 220.171 407.406 219.344 407.564C219.093 407.531 217.882 404.761 217.718 404.259L217.717 404.256ZM223.928 427.17C225.086 425.811 228.022 426.894 227.615 428.517C227.183 430.239 222.872 428.434 223.928 427.17ZM227.324 431.9C228.408 431.596 229.108 435.141 228.241 435.471C226.986 435.947 226.56 432.619 227.324 431.9ZM230.568 438.497C231.449 440.722 228.641 445.626 228.038 440.191C227.946 439.375 227.481 437.266 228.622 437.154C229.26 437.075 230.334 437.926 230.568 438.497ZM235.503 360.091C235.542 361.34 234.788 363.086 235.462 364.084C236.404 365.491 236.487 365.335 236.484 367.348C236.503 371.84 234.656 375.11 233.521 379.28C233.081 380.905 232.576 382.828 232.037 384.396C231.102 387.052 228.553 391.391 228.14 393.83C227.708 396.44 228.424 399.448 227.675 402.156C227.189 403.905 225.778 405.591 225.667 407.459C225.526 409.951 228.563 414.609 224.309 414.289C224.192 415.335 225.381 415.164 226.098 415.55C227.531 416.343 227.765 417.759 227.556 419.316C227.459 420.051 226.758 421.042 226.745 421.57C226.723 422.44 227.975 423.844 226.824 424.848C224.711 426.671 222.772 421.721 220.331 422.573C219.831 421.058 220.671 420.483 221.124 419.315C222.158 416.713 221.996 412.446 222.16 409.556C222.212 408.525 222.65 407.017 222.57 406.06C222.508 405.336 221.74 404.71 221.445 403.886C220.634 401.591 220.312 398.084 222.775 396.674C223.859 396.049 225.31 396.242 225.532 394.548C225.677 393.458 224.912 393.127 224.73 392.113L222.385 392.232C221.806 392.083 221.875 390.845 221.882 390.354C221.87 387.819 222.706 385.156 222.904 382.726C223.106 380.217 222.922 378.992 223.721 376.397C223.8 376.135 224.54 374.38 224.642 374.307C224.918 374.105 226.156 374.294 226.82 373.956C228.033 373.344 228.915 368.09 229.063 366.72C229.227 365.307 229.576 363.282 229.136 362.007C228.521 360.202 227.815 359.964 225.999 360.676C225.038 361.055 223.543 362.631 222.903 362.71C222.104 362.811 222.119 359.76 222.108 359.035C222.075 356.212 222.202 353.709 221.98 350.805C221.913 350.03 221.791 345.864 222.028 345.44C221.891 345.749 221.136 345.74 221.11 345.39C221.082 345.009 222.36 344.71 222.028 345.44C222.067 345.385 222.774 345.512 222.422 344.491L221.754 344.774C221.082 343.796 221.923 343.243 221.836 342.362C221.797 341.968 221.021 341.94 221.039 341.286L221.725 340.988C221.355 339.315 221.708 336.912 221.288 335.327C221.199 335.002 219.663 332.204 219.401 331.836C218.838 331.065 217.759 331.134 217.922 329.964C218.712 329.747 220.83 329.774 221.014 328.893C221.198 328.024 220.467 327.447 220.22 326.704C219.877 325.669 219.64 323.632 219.212 322.925C218.919 322.442 216.793 320.696 216.215 320.738C214.631 321.133 213.426 323.894 213.439 325.37C213.455 326.75 214.085 328.031 213.962 329.441C213.879 330.484 212.984 331.769 213.08 332.952C213.138 333.611 214.112 335.007 214.379 335.897C214.745 337.057 215.266 339.812 214.114 340.657C213.441 341.146 212.271 340.152 212.054 339.547C211.826 338.932 212.163 338.534 212.046 338.103C211.946 337.756 211.206 337.193 210.98 336.608C208.907 331.164 206.131 324.496 203.163 319.491C202.366 318.148 199.63 315.429 199.52 314.065C199.381 312.468 200.5 312.325 201.184 311.416C202.74 309.345 203.535 307.574 205.909 306.116C207.782 304.974 206.904 305.347 207.995 303.651C208.622 302.675 212.165 299.249 213.24 299.115C215.368 298.843 215.676 301.002 216.91 302.154C217.736 301.846 217.53 301.081 218.424 300.674C218.973 300.419 220.46 300.441 221.049 300.589C222.306 300.894 222.353 302.386 222.716 302.672C223.572 303.338 226.261 303.547 227.485 304.261C233.44 307.698 233.997 317.054 231.89 322.931C231.215 324.853 230.544 324.206 229.331 323.076C227.81 321.646 226.33 319.624 224.767 318.123C224.525 317.893 220.207 314.827 222.618 315.028C223.482 315.105 224.472 316.723 224.671 315.327L225.338 315.483L224.981 316.494C226.404 317.427 228.586 321.537 230.269 321.521C231.473 321.508 230.937 319.622 231.015 318.771C231.295 315.86 231.573 312.429 230.253 309.7C230.128 309.462 227.019 305.882 226.702 305.658C226.432 305.486 224.266 304.22 224.123 304.188C223.218 303.998 221.493 304.381 220.555 304.589C219.841 304.514 220.092 302.815 218.178 303.254C217.068 303.518 217.24 305.999 215.956 306.35L216.752 306.516L216.911 306.953L212.965 309.423C214.481 310.467 216.307 310.613 217.826 311.688C219.83 313.115 221.468 317.434 223.774 319.138L228.17 325.902C229.296 326.739 231.326 324.676 232.949 325.575C234.156 326.234 235.611 331.255 235.678 332.629C235.799 334.857 234.513 336.824 234.394 338.725C234.321 340.1 234.748 341.642 234.675 343.016C234.63 344.005 233.976 345.636 233.861 346.565C233.722 347.752 233.985 349.605 235.362 349.911C236.248 350.103 238.677 348.674 237.624 350.708L235.121 351.158C234.91 351.365 234.879 354.908 234.905 355.573C234.964 356.96 235.449 358.775 235.494 360.098L235.503 360.091ZM237.992 370.772C237.382 370.826 237.612 368.212 237.672 367.736C238.351 362.646 239.703 358.633 239.795 353.157C239.809 352.45 239.175 348.078 239.999 348.005C241.1 347.924 240.617 351.897 240.662 352.642C240.909 357.182 240.716 364.096 239.263 368.462C238.981 369.305 238.665 370.154 237.992 370.769L237.992 370.772ZM240.291 381.805L239.606 381.855L239.556 381.173C239.979 381.067 240.335 381.383 240.291 381.805ZM252.309 392.3C252.468 392.288 252.598 392.406 252.609 392.558C252.62 392.716 252.512 392.844 252.35 392.856C252.188 392.868 252.062 392.76 252.05 392.598C252.039 392.45 252.147 392.312 252.309 392.3ZM252.623 399.983C252.493 401.735 251.802 404.602 250.674 405.968C249.214 407.743 247.584 408.675 245.362 407.394C244.118 406.672 244.234 405.636 243.658 404.674C242.565 402.806 241.565 402.483 240.937 399.918C240.798 399.362 240.288 396.499 240.688 396.213L241.533 396.161C242.4 398.012 243.42 400.344 245.374 401.219C246.169 400.927 249.583 402.517 249.506 401.151C249.449 400.244 247.929 398.697 249.943 397.887C251.655 397.196 252.748 398.205 252.62 399.98L252.623 399.983ZM249.513 395.223C249.597 395.922 249.429 396.705 248.882 397.184C248.649 397.383 245.384 398.991 245.088 399.045C243.333 399.42 243.807 398.271 243.383 397.339C242.435 395.269 242.5 394.246 241.875 392.432C241.505 391.347 241.373 391.025 241.067 389.913C240.978 389.598 240.499 389.343 240.349 388.766C240.041 387.494 240.186 382.561 241.029 381.589C242.149 380.297 243.402 381.405 244.061 382.511C245.079 384.245 246.308 386.938 247.153 388.801C247.91 390.489 249.318 393.449 249.513 395.219L249.513 395.223ZM249.848 371.284C249.908 370.947 249.618 370.507 249.646 370.261C249.718 369.056 252.208 370.34 249.848 371.284ZM251.281 362.715L249.914 362.815C249.691 362.126 250.856 362.167 251.231 362.033L251.281 362.715ZM276.437 405.333C274.911 406.215 274.102 404.71 273.245 403.843C271.506 402.107 272.111 402.44 271.073 400.428C270.27 398.871 269.47 398.513 268.927 396.488C266.878 388.87 263.638 382.657 262.027 374.867C261.86 374.056 260.672 372.365 261.814 371.65C264.126 370.22 263.609 376.943 263.94 378.086C264.747 380.904 267.122 386.638 268.631 389.191C270.218 391.91 274.619 394.232 275.199 397.88C275.335 398.715 275.06 400.221 275.184 400.619C275.567 401.875 276.221 398.949 276.434 398.911C276.691 398.766 277.087 398.873 277.292 399.04C278.654 400.16 277.698 404.597 276.44 405.329L276.437 405.333Z"
        fill="#010301" />
    <path
        d="M116.485 329.222C116.701 329.004 116.955 328.911 117.255 329.032C118.049 329.397 118.164 330.12 118.095 330.922C117.85 333.739 115.268 330.442 116.485 329.222Z"
        fill="#010301" />
    <path
        d="M133.61 388.951C133.668 388.983 134.138 389.963 134.157 390.134C134.264 391.15 133.454 391.821 132.466 391.75C132.112 391.06 132.722 388.457 133.613 388.951L133.61 388.951Z"
        fill="#010301" />
    <path
        d="M123.921 334.814C124.186 334.953 124.386 336.493 124.295 336.89C124.032 337.985 122.64 336.718 122.65 335.921C122.657 335.345 123.269 334.468 123.921 334.814Z"
        fill="#010301" />
    <path
        d="M123.185 330.731C123.426 331.744 122.73 332.409 122.104 333.083C121.156 332.222 121.804 330.23 123.185 330.731Z"
        fill="#010301" />
    <path
        d="M95.9235 303.234L95.3195 304.306L96.2506 304.582L96.2978 303.665C97.408 303.89 100.541 308.83 100.259 309.303C98.9625 309.967 97.8889 309.616 97.0324 308.486C96.5917 307.906 94.4824 303.44 94.767 303.091L95.9237 303.237L95.9235 303.234Z"
        fill="#010301" />
    <path
        d="M119.105 296.967C117.891 297.286 117.666 296.666 117.18 295.739C117.999 295.591 119.154 295.936 119.105 296.967Z"
        fill="#010301" />
    <path
        d="M135.957 382.501C136.294 382.477 136.547 382.185 136.523 381.849C136.498 381.513 136.205 381.261 135.868 381.285C135.53 381.31 135.277 381.602 135.302 381.938C135.326 382.274 135.619 382.526 135.957 382.501Z"
        fill="#010301" />
    <path
        d="M124.672 338.615L124.722 339.294C124.304 339.377 124.054 339.356 123.788 339.018L123.763 338.682L124.672 338.615Z"
        fill="#010301" />
    <path
        d="M128.996 316.882C129.288 317.169 129.294 317.566 129.083 317.903C128.385 318.708 126.182 317.078 126.479 316.087C126.744 315.779 128.704 316.598 128.996 316.882Z"
        fill="#010301" />
    <path
        d="M226.275 356.549C226.125 356.417 226.693 353.108 226.785 352.623C226.991 351.519 227.815 347.645 228.493 347.007C229.617 345.955 230.919 346.471 231.323 347.892C232.21 351.004 228.604 353.524 227.373 356.115L226.272 356.553L226.275 356.549Z"
        fill="#010301" />
    <path
        d="M231.778 375.601C232.502 376.478 229.908 379.041 228.82 378.763C228.143 378.169 230.486 374.583 231.778 375.601Z"
        fill="#010301" />
    <path
        d="M213.742 307.647C213.79 308.397 212.283 309.171 211.718 309.124C211.32 309.092 209.52 307.78 209.828 307.474C211.248 307.071 212.378 307.844 213.738 307.647L213.742 307.647Z"
        fill="#010301" />
    <path
        d="M229.994 380.313C230.297 380.265 230.496 380.491 230.681 380.688C231.114 381.297 229.809 382.921 229.226 382.85C228.448 382.754 228.9 380.49 229.994 380.313Z"
        fill="#010301" />
    <path
        d="M206.03 237.67C207.788 239.128 209.117 243.722 209.015 245.944C208.993 246.443 208.92 246.878 208.525 247.232C207.049 246.914 207.863 245.235 207.746 244.216C207.666 243.523 206.827 240.274 206.562 239.643C206.226 238.842 205.157 238.322 204.95 237.557C204.744 236.791 205.821 237.499 206.027 237.673L206.03 237.67Z"
        fill="#010301" />
    <path
        d="M207.113 252.824C209.662 253.473 208.765 255.717 207.172 256.929C206.259 255.783 206.103 253.961 207.113 252.824Z"
        fill="#010301" />
    <path
        d="M206.69 248.739C207.306 249.706 204.857 251.569 204.535 250.607C204.285 249.868 205.885 248.535 206.69 248.739Z"
        fill="#010301" />
    <path
        d="M184.609 285.778C185.803 285.454 187.399 288.166 186.034 288.62C184.833 289.02 184.519 286.559 184.609 285.778Z"
        fill="#010301" />
    <path
        d="M274.508 401.267L274.576 401.925L272.52 402.075L272.602 401.367C273.243 401.021 273.835 401.036 274.508 401.267Z"
        fill="#010301" />
</svg>