<svg xmlns="http://www.w3.org/2000/svg" fill="none" viewBox="174.1 269.42 1267.75 559.61">
<g clip-path="url(#clip0_63_606)">
<g clip-path="url(#clip1_63_606)">
<path d="M1179.27 638.588C1177.9 638.691 1179.15 637.769 1179.49 637.298C1182.26 633.346 1184.55 632.629 1189.03 629.148C1193.38 625.728 1196.96 620.567 1201.07 617.126C1207.7 611.515 1213.96 605.863 1218.23 600.252C1220.87 596.791 1220.55 593.248 1224.64 589.603L1225.27 593.945C1219.48 602.587 1213.69 609.918 1203.38 619.133C1198.29 623.68 1192.5 628.308 1187.68 632.875C1185.77 634.677 1182.46 636.888 1179.31 638.629H1179.27V638.588Z" fill="#010301"/>
<path d="M1103.18 720.77C1102.87 720.094 1101.07 720.053 1100.73 719.255C1100.21 718.026 1101.73 714.545 1101.38 712.722C1100.23 705.739 1099.87 701.541 1105.78 692.899C1109.05 688.127 1114.53 680.181 1119.38 675.492C1121.28 673.649 1128.36 668.119 1131.28 666.42C1135.54 663.901 1143.09 661.73 1147.93 659.682C1157.67 655.586 1166.51 649.729 1174.32 645.081C1172.54 644.855 1172.56 645.183 1171.09 645.961C1168.76 647.149 1167 648.521 1164.6 649.729C1159.94 652.084 1153.78 654.624 1149.08 657.081C1146.64 658.187 1144.54 658.412 1142.51 658.228L1152.82 651.347C1152.97 648.234 1152.82 645.265 1153.35 642.05C1153.42 641.722 1152.45 641.599 1152.56 641.149C1153.72 636.623 1161.49 630.049 1162.35 625.79C1162.62 624.336 1159.08 624.295 1159.41 623.394C1159.88 622.206 1166.53 616.697 1168.08 614.936C1169.35 613.441 1174.56 604.901 1166.63 610.123C1163.85 611.946 1159.31 615.591 1157.14 617.496C1154.99 619.359 1152.68 623.476 1149.98 624.684C1147.05 625.974 1144.7 625.278 1142.06 625.749C1138.79 626.343 1135.11 629.025 1132.63 630.172C1110.2 640.514 1096.16 646.596 1070.66 655.095C1067.22 656.242 1065.18 657.716 1060.25 657.778C1059.06 657.737 1058.57 657.143 1059.06 656.467C1061.41 653.272 1081.44 643.975 1088.11 640.309C1099.87 633.797 1118.77 623.168 1128.6 616.677C1133.45 613.502 1135.27 609.919 1144.31 608.158C1154.21 606.233 1167.34 604.533 1175.42 604.656C1181.38 602.833 1195.22 601.666 1199.97 600.089C1208.13 597.365 1201.03 594.846 1200.21 593.7C1197.13 589.215 1200.71 583.133 1197.08 578.975C1195.49 578.852 1195.98 578.996 1194.98 579.651C1192.28 581.371 1186.08 588.682 1186.43 590.013C1186.88 592.287 1192.44 591.037 1195.31 591.938C1203.1 594.375 1179.88 603.959 1174.16 599.044C1171.82 597.079 1175.32 590.546 1176.47 587.31C1176.84 586.348 1180.07 583.173 1177.94 583.071C1177.16 583.051 1173.73 584.156 1172.81 583.358L1177 581.085L1179.7 582.027C1182.91 580.081 1183.71 578.115 1186.16 576.293C1188.19 574.777 1191.28 573.651 1192.77 572.586C1195.84 570.374 1191.89 568.081 1192.87 565.705C1195.76 559.131 1200.97 552.148 1201.69 545.902C1201.91 543.527 1198.29 541.929 1202.71 538.837C1206.02 537.813 1211.89 542.073 1213.49 542.789C1218.73 545.206 1224.41 547.499 1228.18 550.612C1238.95 559.664 1225.23 575.392 1224.08 587.679C1224.04 588.232 1224.49 588.641 1224.8 589.112C1225.6 589.112 1226.23 588.355 1226.72 587.965C1231.08 584.546 1230.18 576.866 1230.92 573.712C1232.47 567.528 1237.87 562.244 1235.76 556.531C1232.96 548.953 1224.39 544.776 1214.94 539.861C1211.85 538.264 1210.79 534.68 1208.35 533.103C1207.35 532.427 1203.49 532.059 1204.14 531.096C1208.58 527.307 1210.67 530.072 1213.1 530.789C1218.68 532.345 1224.27 534.004 1230.02 535.458C1231.24 535.786 1237.48 537.363 1238.97 536.953C1240.39 536.134 1239.61 535.827 1239.4 535.315C1238.07 533.103 1228.75 529.089 1225.11 527.348C1223.16 526.468 1216.6 525.894 1219.52 523.335C1220.32 522.618 1222.69 521.942 1223.9 521.102C1228.85 517.805 1232.25 515.123 1238.34 511.826C1249.32 505.887 1267.77 500.132 1274.85 494.623C1280.39 490.302 1282.66 484.077 1285.12 480.124C1287.06 477.012 1294.3 472.834 1298.48 469.639C1305.74 464.151 1311.69 458.478 1318.13 453.031C1321 450.574 1326.31 446.703 1328.03 444.512C1329.48 442.751 1330.08 436.402 1330.4 434.416C1330.65 432.798 1333.72 431.59 1327.17 432.143C1328.22 431.815 1328.77 431.426 1328.97 431.037C1331.02 427.33 1330.69 420.838 1326.95 418.709C1325.29 417.787 1322.14 417.746 1320.71 417.07C1319.3 416.415 1319.38 414.47 1317.21 413.466C1313.57 411.766 1308.38 410.189 1304.28 408.654C1302.08 407.834 1301.73 405.991 1297.29 406.278C1293.46 409.043 1300.34 409.063 1302.57 410.005C1307.62 412.053 1312.36 415.268 1317.83 417.685C1326.68 421.576 1323.63 423.767 1323.74 430.177C1323.78 432.982 1325.64 441.317 1323.55 443.979C1322.12 445.843 1318.28 449.161 1316.13 451.249C1307.6 459.502 1291.26 474.657 1272.7 481.64C1269.51 482.848 1268.18 482.561 1265.95 483.299C1262.78 484.343 1259.86 486.923 1256.07 488.439C1246.42 492.309 1236.11 491.818 1227.75 492.555C1223.57 492.924 1213.45 494.5 1210.22 494.521C1203 494.521 1209.23 489.524 1203.18 488.869C1199.64 492.023 1198.7 495.545 1190.95 498.33C1184.44 497.163 1181.17 500.48 1174.73 502.774C1167.06 505.518 1164.05 503.88 1159.2 503.716C1156.09 503.593 1148.12 505.457 1154.58 501.689C1156.79 500.398 1161.04 499.497 1162.72 497.961C1166.04 494.951 1150.14 491.859 1170.96 488.234C1173.34 486.923 1170.88 487.231 1171.23 486.493C1171.7 485.469 1172.95 484.323 1173.66 483.258C1174.2 482.398 1172.95 480.985 1175.98 480.329C1177.55 480.002 1178.04 480.616 1179.49 480.514C1181.72 480.35 1184.81 479.346 1186.02 480.165C1187.53 481.251 1177.78 486.186 1181.72 487.067C1185.59 487.968 1188.7 485.94 1193.01 485.039C1203.61 482.766 1213.37 481.537 1223.25 479.756C1227.48 478.978 1232 476.95 1236.56 476.192C1239.38 475.721 1241.51 475.824 1243.8 475.435C1245.19 475.189 1246.07 474.37 1246.73 474.37C1247.57 474.37 1247.73 475.005 1249.32 474.657C1251.33 474.227 1255.89 471.605 1258.37 471.708L1257.53 471.011L1259.84 470.581L1256.61 467.161C1259.08 465.257 1262.25 464.376 1264.62 462.226C1266.71 460.362 1265.54 458.663 1267.73 457.147C1269.25 456.103 1275.83 452.888 1276.86 452.089C1277.82 451.352 1277.22 450.758 1277.92 450.144C1278.8 449.324 1281.4 448.505 1282.52 447.563C1284.3 446.089 1282.69 444.43 1285.92 441.85C1287.49 440.58 1290.01 439.536 1291.34 438.286C1291.66 437.979 1294.98 432.839 1295 432.593C1295 432.143 1292.89 431.651 1292.54 431.016C1291.52 429.255 1294.96 426.798 1297 424.545C1293.22 424.054 1287.29 427.044 1283.79 426.163C1283.28 424.258 1291.28 420.326 1286.8 419.753C1283.63 421.146 1276.43 424.381 1273.03 424.955C1269.92 425.508 1269.41 424.32 1267.12 424.852L1254.3 429.603C1248.02 427.924 1242.76 431.631 1234.88 434.293C1231.53 435.44 1216.11 440.539 1215.41 438.983C1214.39 436.853 1224.47 435.542 1228.09 434.232C1237.6 430.832 1241.76 426.204 1247.93 422.395C1250.63 420.757 1256.28 419.077 1257.49 418.197C1259.04 417.05 1257.49 414.674 1260.9 412.893L1233.72 412.196C1228.3 413.589 1224.6 411.869 1221.02 411.889C1220.32 411.889 1219.01 413.405 1217.58 412.811L1219.3 411.48C1213.49 411.93 1214.33 409.657 1220.46 407.937C1222.43 407.404 1234.92 405.213 1236.72 405.111C1238.95 404.947 1246.42 404.701 1248.24 404.783C1256.22 405.07 1259.78 409.514 1272.09 406.851L1273.79 405.541C1271.64 405.377 1258.86 402.387 1258.75 401.957C1258.63 401.486 1261.74 398.189 1261.9 397.001C1262.19 394.626 1257.96 393.131 1260.12 390.12C1261.52 388.236 1266.83 384.304 1270.21 382.441C1272.44 381.192 1276.1 380.352 1278.88 379.615C1281.44 377.813 1268.37 380.495 1266.83 380.884C1242.72 387.13 1233.08 395.998 1218.05 404.988C1215.33 406.606 1208.19 408.797 1206.94 409.657C1202.91 412.34 1212.65 411.91 1207.31 416.19C1202.03 420.388 1194.77 420.613 1187.02 422.722C1185.65 423.112 1174.87 426.45 1174.01 426.818C1168.98 428.866 1164.03 432.593 1158.88 434.887C1155.71 436.279 1150.67 437.631 1147.54 438.921C1143.37 440.621 1135.35 445.413 1131.86 446.048C1129.44 446.478 1128.46 445.7 1126.01 445.884C1123.43 446.089 1120.26 447.543 1118.25 447.625C1115.7 447.727 1116.78 446.519 1115.55 446.253C1109.99 444.962 1101.44 450.021 1098.48 449.611C1095.65 449.222 1104.43 437.262 1090.03 440.887C1084.44 444.409 1079.11 446.437 1074.67 450.103C1068.04 455.591 1069.02 459.85 1058.53 465.482C1054.66 467.55 1049.51 469.332 1046.03 471.667C1040.16 473.469 1040.55 470.807 1038.57 470.131C1034.76 468.882 1028.22 468.103 1024.47 466.527C1017.29 463.516 1028.38 458.499 1034.07 453.359C1037.07 450.676 1042.94 442.321 1043.47 439.986C1043.58 439.413 1041.88 434.662 1041.37 434.313C1040.79 433.945 1040.14 433.412 1038.59 433.597L1033.9 435.542C1032.8 436.709 1036.46 437.611 1036.77 438.368C1037.03 438.901 1035.05 446.212 1034.37 446.949C1033.37 448.075 1028.15 452.212 1026.31 453.195C1020.12 456.512 1016.6 453.297 1013.94 453.072C1011.18 452.826 1004.71 452.744 1001.44 452.744C999.846 452.744 980.435 454.342 990.682 451.659C995.877 450.328 1011.01 450.471 1012.3 450.062L1014.02 448.73C1010.32 447.584 1004.41 448.874 1000.44 447.829C993.034 445.863 1002.36 444.02 1006.64 440.416C1010.87 436.853 1004.73 436.382 1017.31 433.699C1020.03 433.105 1027.19 432.593 1025.29 431.057C1022.16 428.477 1013.26 432.962 1010.38 433.494C1009.15 433.72 1008.4 433.269 1007 433.433C992.891 435.092 960.799 453.666 955.112 459.461C953.619 460.956 954.54 462.513 953.21 464.151C951.922 465.748 946.46 471.175 942.104 471.646C937.788 472.097 942.738 465.503 937.522 465.154C927.008 467.12 919.89 473.633 912.813 476.909C904.366 480.821 892.523 482.889 883.216 486.452C876.712 488.971 857.894 498.965 854.785 499.682C847.953 501.238 847.278 499.272 844.537 498.678C843.392 498.412 837.337 498.883 839.935 497.347C853.762 493.702 862.782 487.947 875.444 483.073C880.23 481.23 888.861 478.752 892.482 476.95C895.018 475.66 909.131 465.523 911.443 463.598C916.29 459.646 923.306 442.915 924.615 438.594C926.088 433.72 917.722 417.255 911.586 415.104C902.279 411.828 891.561 409.022 880.005 406.995C878.143 406.667 875.484 407.036 873.807 406.442C871.803 405.807 870.759 402.571 873.991 400.749C870.759 401.629 861.003 405.213 859.305 404.066C858.201 403.37 866.096 400.564 867.323 399.11C868.08 398.209 865.155 395.752 865.257 394.503C865.401 393.295 868.898 388.564 872.519 389.219C878.307 390.264 865.482 400.708 868.141 401.588C871.639 399.991 874.687 399.766 876.957 397.8C878.021 396.837 882.418 388.974 882.562 388.052C882.664 387.376 880.516 384.919 879.555 384.571C876.323 383.362 871.353 382.461 867.057 381.826C864.235 381.437 864.582 380.577 859.387 381.048C856.851 381.253 838.524 385.144 834.965 386.066C825.699 388.482 812.486 393.54 805.634 397.575C794.322 404.21 792.113 411.439 778.348 417.5C776.425 418.361 774.789 418.361 773.193 418.954C760.369 423.583 741.817 428.743 731.61 434.457L711.545 447.481C705.531 450.696 692.849 449.406 692.747 447.481C692.686 446.642 699.865 441.01 701.542 439.249C708.661 431.692 707.801 424.811 694.895 423.419C693.831 423.296 686.181 422.845 685.466 422.866C684.566 422.927 668.12 425.938 666.136 426.368C649.221 430.156 637.071 438.327 624.328 444.737C622.283 446.314 624.86 448.976 622.549 451.352C621.015 452.97 615.921 457.352 613.712 459.093C607.433 463.946 598.699 464.909 590.108 467.837C570.82 474.431 552.309 483.647 534.759 490.364C524.819 494.173 528.439 489.258 525.412 487.579C524.042 486.821 518.294 484.814 515.164 485.51C510.051 486.944 510.296 488.705 508.353 490.118C505.633 492.084 502.115 493.825 499.803 496.077C497.328 498.514 497.737 501.545 495.978 503.88C491.479 509.921 464.643 517.744 456.481 523.662C450.407 528.086 449.507 531.403 445.498 535.212C437.439 542.851 415.716 558.394 402.953 565.889C390.312 573.323 381.313 575.883 379.983 583.87C379.697 585.651 379.881 591.304 380.372 592.839C380.719 594.027 382.99 594.908 385.833 595.01C397.164 595.461 412.996 591.979 426.578 587.228C431.793 585.385 446.541 575.269 446.398 580.88C446.357 581.76 438.584 593.126 437.152 595.031C436.15 596.321 434.514 598.471 432.591 599.761C428.255 602.669 417.782 604.205 411.401 606.028C394.362 610.943 387.96 616.472 386.917 622.697C386.017 627.94 391.949 629.537 404.548 628.37C402.012 629.804 404.283 630.418 403.935 631.196C402.564 634.288 393.442 638.937 389.883 641.927C387.04 644.303 383.931 650.2 382.765 652.617C381.456 655.361 380.678 663.798 378.715 665.703C377.692 666.686 375.094 668.693 373.192 669.594C365.031 673.546 344.638 679.71 335.229 684.031L331.077 686.407L335.823 687.41L326.23 688.107C320.134 691.506 315.737 695.663 314.591 698.837C312.709 703.916 318.662 706.496 320.85 710.367C324.471 716.838 323.468 728.982 320.564 737.153C319.275 740.655 315.573 743.338 317.557 746.348C319.173 748.826 322.159 750.096 322.036 753.372C321.709 760.54 307.903 770.411 322.2 773.544C325.923 774.363 331.977 773.523 334.554 774.117C337.848 774.895 333.573 777.803 338.932 777.742C340.179 777.742 352.39 775.899 354.743 775.51C363.19 774.117 380.474 770.82 386.406 766.561C392.44 762.178 388.062 761.42 390.169 758.799C392.133 756.342 395.876 752.778 398.269 750.219C398.903 749.563 398.494 748.949 399.292 748.232C402.503 745.447 406.021 747.106 407.432 747.925C412.914 751.181 411.891 758.041 424.164 758.144C432.734 758.205 453.454 750.731 462.27 746.983C473.193 742.334 483.706 736.334 493.892 731.972C499.394 729.637 509.09 727.139 513.63 724.6C517.333 722.552 518.948 720.402 522.139 718.395C524.635 716.797 528.623 715.691 531.487 713.828C536.375 710.654 537.316 708.34 540.548 705.473C543.207 703.158 559.55 691.383 562.884 694.967C564.541 696.728 561.575 698.694 559.959 700.824C550.898 712.906 539.341 726.504 520.871 739.385C507.74 748.519 493.258 753.147 487.694 763.161C485.792 766.622 485.363 768.588 481.251 772.602C477.365 776.39 469.02 780.179 464.684 784.09C457.811 790.214 470.206 795.374 482.213 794.227C485.424 793.92 490.926 791.688 494.076 791.79C500.11 791.975 497.431 795.128 499.517 796.111C503.608 798.036 521.157 795.804 527.601 791.79C536.396 786.261 537.603 780.036 544.332 774.24C547.482 771.517 551.511 769.346 554.682 766.929C562.843 760.745 569.675 753.475 582.274 747.577C583.931 746.799 585.486 746.061 587.408 746C589.617 746.02 588.288 751.714 587.817 753.045C585.056 761.584 582.54 763.53 569.02 772.684C562.291 777.251 553.536 782.104 546.93 786.937C543.616 789.353 537.664 793.756 543.309 794.105C544.966 794.227 556.502 792.773 559.202 792.302C565.482 791.238 581.886 786.65 586.877 783.906C595.672 778.991 594.383 773.564 597.042 769.182C602.585 759.966 617.415 748.212 626.885 738.464C635.087 730.006 638.135 721.712 647.544 713.336C653.537 707.95 659.407 704.838 669.695 705.903C670.984 706.025 671.373 706.599 672.354 706.722C679.657 707.643 682.725 707.213 680.822 712.067C678.716 717.473 671.066 731.03 666.341 736.682C661.309 742.723 645.314 752.778 639.178 759.414C630.26 768.998 634.76 776.861 622.774 787.347C617.701 791.749 608.906 796.521 604.692 800.678C601.563 803.73 605.654 804.61 600.458 808.604C595.651 812.31 585.363 816.222 580.147 819.601C577.284 821.444 569.777 827.178 571.413 828.325C574.277 830.413 596.572 827.137 603.588 827.137C609.315 825.826 616.228 815.976 617.21 813.826C618.069 811.942 616.76 809.791 618.192 807.743C620.217 804.917 627.417 800.965 630.342 798.221C631.917 796.746 633.348 792.118 634.882 790.173C639.178 784.766 646.684 778.664 652.228 773.257C661.596 764.083 676.138 757.14 682.316 747.966C683.952 745.468 684.443 742.621 686.059 740.184C691.172 732.545 701.277 722.408 709.52 714.463C714.879 709.261 719.338 703.466 732.49 699.349C728.828 699.616 724.697 700.332 720.79 700.885C717.947 701.315 714.285 702.196 710.399 702.38C708.661 702.462 707.556 702.81 707.576 701.868L729.994 698.592L732.919 696.339L735.762 696.831C740.037 693.841 748.035 694.475 754.539 692.366L750.96 695.131L753.619 693.759C755.439 693.82 755.419 694.701 757.178 695.008C764.705 696.4 770.371 698.53 773.561 701.971C778.143 706.886 774.748 710.838 769.982 717.473C765.441 723.862 759.857 730.416 753.987 736.989C749.139 740.512 743.085 740.164 737.153 741.986C724.942 745.734 719.153 750.69 715.656 755.543C712.383 760.089 714.06 758.676 719.338 759.905C726.497 761.564 730.056 764.902 743.187 762.281C750.407 760.847 758.466 753.987 761.78 751.14C773.439 741.065 782.766 731.808 795.55 721.671C797.37 720.238 804.938 713.91 807.393 713.603C814.102 712.783 807.188 723.842 807.27 725.767C807.352 727.078 808.824 725.091 809.908 725.337C808.968 726.955 805.245 728.716 803.731 730.129C802.34 731.399 802.688 732.648 800.827 734.368C792.972 741.577 784.607 747.044 780.823 754.335C776.773 762.24 772.764 771.762 759.939 780.63C750.162 787.388 750.428 787.49 743.903 794.146C738.912 799.224 733.39 802.317 734.412 806.74C735.353 810.795 751.921 807.723 761.35 804.958C770.596 802.235 786.223 793.203 787.266 789.497C788.473 785.381 777.53 788.084 779.023 784.357C782.52 775.756 791.888 766.417 804.57 756.874C810.42 752.492 818.561 747.966 822.631 743.583C823.981 742.17 822.917 741.618 823.572 740.532C830.526 729.863 836.887 719.234 849.078 707.848C851.553 705.534 862.312 697.035 865.748 694.987C873.234 690.462 874.134 696.687 874.134 698.141C873.991 707.316 865.503 717.248 857.71 727.467C853.721 732.689 853.026 736.641 845.99 742.375C841.878 745.734 837.562 747.761 833.472 750.649C828.89 753.884 826.579 757.386 821.199 760.765C818.233 762.608 814.572 763.427 811.504 764.881C809.008 766.049 796.204 773.38 794.834 774.486C788.248 779.872 806.779 777.803 811.095 778.807C814.47 779.585 806.779 786.036 803.956 788.207C796.941 793.572 793.791 795.579 787.92 801.149C783.604 805.245 774.298 807.764 767.241 811.122C765.298 812.044 751.614 819.273 751.062 819.764C749.507 821.157 751.246 822.406 753.864 822.406C757.444 822.427 760.041 820.399 763.928 819.744L759.06 822.509L771.802 821.669L781.293 814.338L779.125 814.071C785.343 810.733 790.17 809.586 797.677 808.44C790.313 811.614 790.354 814.747 780.045 817.368C779.8 822.488 789.659 819.15 796.327 814.522C799.211 812.556 801.072 809.095 804.038 806.904C806.881 804.835 813.733 802.665 816.863 800.842C831.119 792.528 826.558 789.313 834.106 782.411C837.153 779.626 843.187 776.37 846.133 773.749C852.698 767.912 852.883 765.291 864.235 758.717C869.635 755.584 880.516 749.768 876.814 758.676C874.073 762.362 871.353 765.987 868.591 769.653C855.358 782.534 860.328 778.5 851.839 784.131C848.035 786.609 843.883 791.34 848.137 792.118C855.583 793.449 872.457 791.094 883.646 787.981C891.255 785.872 906.043 778.643 905.061 775.817C904.488 774.179 894.016 773.953 890.539 773.462C882.071 772.254 890.968 763.817 896.061 759.373C904.529 751.918 913.529 746.205 919.42 738.648C925.986 730.108 928.645 723.576 939.301 714.299C947.013 707.602 969.778 692.55 964.583 706.189C961.514 714.217 950.306 722.613 943.699 730.846C942.124 732.791 942.247 734.962 939.526 737.235C942.124 737.686 942.615 735.064 945.09 735.924C947.299 736.703 940.651 741.72 948.281 741.433C949.406 741.372 957.28 740.696 958.712 740.532C965.094 739.754 980.496 734.45 986.509 734.204C989.312 734.102 996.491 734.614 994.466 736.477H995.468C1006.41 734.655 1035.8 727.467 1035.89 721.835C1035.93 718.64 1031.73 718.968 1028.32 717.575C1025.05 716.203 1028.83 714.094 1029.87 711.862C1034.74 701.582 1040.79 693.267 1049.49 682.373C1051.45 679.915 1049.88 679.034 1055.11 676.413C1062.33 672.788 1084.96 665.109 1089.93 667.587C1090.19 667.689 1091.32 670.904 1091.32 671.334C1091.48 674.591 1088.35 678.768 1086.94 682.332C1083.91 690.154 1077.35 708.503 1068.65 716.367C1066.28 718.518 1058.55 723.35 1058.28 725.275C1058.22 725.931 1060.82 725.972 1059.22 727.241C1058.12 728.122 1054.74 729.146 1053.11 730.108C1044.68 735.085 1046.28 743.194 1056.48 743.112C1062.25 743.051 1077.08 739.856 1083.38 737.317C1092.16 733.754 1104.41 724.17 1103.12 720.893L1102.98 720.852L1103.18 720.77ZM1253.87 430.382C1254.46 430.382 1254.6 430.648 1254.21 430.955C1253.8 431.283 1253.01 431.528 1252.39 431.508C1251.82 431.508 1251.68 431.242 1252.11 430.914C1252.5 430.607 1253.29 430.361 1253.87 430.361V430.382ZM1246.85 400.974L1244.56 402.367L1240.2 402.756C1242 401.015 1244.27 400.769 1246.87 400.974H1246.83H1246.85ZM339.341 687.001C337.029 687.205 338.379 684.482 341.263 684.216C343.861 683.99 342.429 686.714 339.341 687.001ZM577.999 777.865C589.904 774.097 575.197 788.637 568.386 785.811C565.87 784.787 574.277 779.053 577.999 777.865ZM762.823 791.258C766.873 789.661 768.325 792.098 769.716 792.2C771.189 792.282 773.623 791.586 775.116 791.872C781.702 792.999 759.898 802.255 755.848 802.726C745.56 803.893 757.689 793.285 762.803 791.279L762.823 791.258ZM876.732 783.067C881.13 780.507 883.952 781.326 886.386 780.507C888.227 779.892 890.989 777.619 893.177 777.332C899.866 777.64 887.941 783.845 882.398 785.626C874.687 788.104 870.964 786.446 876.753 783.067H876.732ZM924.145 726.258C925.618 725.808 926.415 727.2 924.922 727.671C923.449 728.122 922.733 726.689 924.145 726.258ZM1039.57 673.403C1041.94 673.321 1043.74 673.649 1044.05 674.632L1037.79 674.795L1039.59 673.423L1039.57 673.403ZM1106.15 626.035C1108.76 623.271 1113.78 620.977 1117.68 618.438C1119.3 617.393 1123.88 612.765 1126.68 613.195C1129.5 613.625 1117.27 619.708 1115.55 620.813C1112.96 622.452 1110.58 625.954 1106.15 626.035ZM1164.66 590.28C1172.11 589.071 1169.7 598.43 1160.88 598.225C1158.63 598.184 1159.14 596.751 1156.3 597.406C1145.5 601.973 1138.24 608.833 1125.15 608.035C1127.25 605.782 1131.71 605.823 1134.31 605.004C1135.11 604.758 1147.83 598.942 1148.44 598.614C1152.29 596.464 1149.92 593.577 1157.92 592.512L1161.33 593.495L1164.66 590.28ZM1143.84 590.505C1146.69 587.413 1157.08 585.651 1157.63 587.494C1158.71 591.181 1138.46 596.423 1143.84 590.505ZM1168.16 584.218L1168.96 584.955L1168.1 585.61H1166.36L1168.16 584.218ZM1183.56 549.568C1189.74 545.329 1193.16 545.083 1193.89 548.298C1194.61 551.268 1192.87 558.558 1183.89 562.121C1182.81 562.551 1176.2 563.248 1175.94 565.152C1175.57 567.569 1184.49 562.551 1185.55 562.469C1190.52 562.961 1186.88 568.572 1183.5 571.071C1181.91 572.279 1178.9 573.548 1177 574.798C1173.83 576.866 1171.19 580.634 1165.48 580.921L1174.75 573.774L1172.09 573.508C1165.34 577.276 1152.94 583.767 1156.69 576.907C1158.43 573.671 1162.52 571.89 1165.03 569.084C1171.64 561.794 1171.19 557.964 1183.54 549.547L1183.56 549.568ZM1210.85 497.941C1225.62 494.091 1235.87 496.856 1255.69 490.63C1260.92 488.971 1277 481.619 1279.15 483.606C1279.41 483.872 1278.66 487.783 1278.25 488.295C1270.37 498.125 1249.61 504.515 1232.96 512.686C1226.93 515.635 1218.3 522.761 1210.97 521.553C1205.16 520.57 1203.16 518.051 1199.58 516.269C1196.98 514.959 1188.04 512.788 1190.74 509.921C1193.12 507.361 1199.36 504.003 1201.22 501.258C1202.08 500.726 1209.58 498.269 1210.85 497.92V497.941ZM1143.27 507.853L1148.04 507.32C1147.18 508.119 1145.48 509.04 1144.84 509.778C1144.6 510.105 1148.28 510.29 1142.7 511.457V510.761L1110.52 522.905C1103.69 523.683 1096.86 526.918 1090.17 527.205C1091.01 526.263 1092.16 525.997 1093.79 525.362C1101.38 522.536 1111.59 520.427 1119.32 517.703C1126.99 514.979 1135.8 510.904 1143.21 507.853L1143.25 507.812L1143.27 507.853ZM1113.2 514.242C1117.38 512.133 1121.96 510.474 1126.19 510.802C1125.47 512.317 1114.57 516.249 1113.06 515.594L1113.22 514.242H1113.2ZM1198.84 452.765L1201.58 452.335L1201.93 453.031L1201.07 453.686L1197.68 453.645L1198.84 452.744V452.765ZM1230.61 420.04C1231.51 419.937 1232.22 419.917 1232.84 420.04C1233.84 420.245 1231.96 424.586 1231 425.323C1228.85 427.023 1220.85 429.46 1218.73 429.132C1216.76 428.825 1223.7 420.818 1230.65 420.04H1230.61ZM1166.22 445.249C1166.71 445.556 1168.37 445.351 1169.31 445.392L1161.62 449.959C1156.3 449.959 1160.02 446.15 1163.42 443.898C1167.73 443.324 1165.75 444.942 1166.18 445.249H1166.22ZM1180.13 432.286C1179.21 436.402 1171.93 436.587 1171.52 434.559C1171.01 432.04 1181.09 428.477 1180.13 432.286ZM1153.48 438.983C1166.36 434.539 1166.16 438.225 1157.47 441.727C1156.36 442.177 1154.87 442.321 1154.19 442.587C1152.47 443.263 1150.55 443.938 1148.96 444.696C1146.52 445.884 1139.22 450.84 1136.27 449.468C1133.57 448.239 1148.47 440.723 1153.48 439.003V438.983ZM1107.9 450.922C1108.91 450.942 1109.17 451.618 1110.4 451.679C1112.85 451.802 1116.23 450.901 1119.15 451.454C1120.2 451.659 1124.12 454.014 1123.86 454.669C1123.35 455.796 1120.61 457.68 1118.5 458.827C1116.86 459.748 1107.23 463.188 1105.04 463.741C1099.99 464.97 1099.13 464.233 1095.96 464.192C1094.16 464.151 1089.93 465.257 1090.5 463.598C1090.85 462.717 1093.46 461.878 1094.26 460.813C1094.94 459.871 1093.3 459.257 1094.41 458.253C1096.55 456.39 1101.3 455.181 1098.62 453.174C1099.87 452.069 1106.13 450.799 1107.86 450.901H1107.9V450.922ZM1059.88 478.773C1069.7 477.913 1063.38 483.401 1055.6 486.534C1053.82 487.251 1042.68 490.528 1040.98 490.835C1034.62 491.982 1034.54 488.787 1039.28 486.248C1040.57 485.572 1045.44 484.261 1047.81 483.278C1051.72 481.701 1055.4 479.141 1059.86 478.752L1059.88 478.773ZM1087.12 446.355C1088.8 446.457 1092.28 446.642 1091.71 447.604C1091.36 448.178 1087.37 453.092 1086.78 453.543C1085.57 454.485 1082.99 455.878 1080.72 456.492C1076.28 456.922 1077.43 447.87 1087.14 446.355H1087.1H1087.12ZM1017.23 511.785C1019.13 510.249 1032.84 502.037 1034.07 504.576C1034.92 506.89 1019.95 513.791 1024.57 514.693C1025.92 514.959 1026.54 514.693 1028.17 514.017C1033.41 511.846 1048.12 502.999 1052.33 501.975C1055.46 501.238 1057.94 501.689 1056.18 503.183C1053.37 505.559 1044.89 507.689 1042.7 510.29C1046.85 510.802 1053.09 507.873 1056.79 505.805C1063.95 501.832 1067.06 497.531 1073.05 493.62C1075.48 492.023 1082.05 489.442 1082.99 488.582C1084.55 487.251 1076.67 484.609 1078.92 481.271C1079.21 480.841 1082.17 477.237 1082.56 476.95C1084.57 475.599 1087.88 475.353 1088.45 475.025C1090.62 473.674 1089.19 471.421 1097.17 467.96C1105.92 464.192 1100.68 470.213 1106.27 469.23C1113.37 467.981 1126.64 458.765 1132.12 455.816C1141.1 450.983 1150.14 448.055 1150.94 453.174C1151.06 453.953 1149.73 455.366 1150.06 455.919C1150.96 457.373 1154.79 455.959 1148.75 459.85C1141.61 464.458 1130.04 465.871 1125.35 469.885C1123.45 471.544 1120.24 484.998 1121.87 485.019L1129.24 482.746L1132.92 484.22C1136.4 482.52 1145.4 481.456 1144.76 478.793C1139.04 481.128 1135.8 476.5 1137.17 475.066C1138.57 473.551 1154.03 467.366 1156.34 467.202C1159.63 466.977 1161.92 470.213 1160.12 471.831C1159.02 472.834 1156.52 473.715 1155.64 474.841C1154.81 475.926 1157.81 477.278 1156.93 478.343C1155.93 479.612 1151.7 481.005 1151.12 482.602C1150.39 484.466 1163.4 485.346 1158.39 488.05C1150.96 492.023 1150.06 481.845 1145.19 482.52C1141.76 484.036 1137.32 484.568 1133.7 484.998C1135.31 486.616 1140.02 487.599 1141.94 489.053C1142.53 489.524 1145.15 492.985 1145.23 493.538C1145.34 496.323 1134.17 500.296 1136.83 501.381C1138.44 502.037 1142.39 501.013 1139.63 503.286C1136.91 505.518 1119.81 510.597 1115.53 510.699C1111.18 510.781 1112.79 508.836 1113.63 507.177C1116.25 501.75 1120.44 499.293 1133.92 496.2C1133.86 494.275 1129.18 494.726 1126.8 493.722C1123.53 492.35 1124.21 488.664 1121.67 486.944C1117.99 490.732 1117.58 493.989 1115.51 497.511C1112.4 502.999 1108.58 508.467 1105.1 513.955C1103.16 517.048 1104.9 519.812 1095.06 522.864C1090.68 524.236 1078.82 527.594 1074.44 528.659C1070.56 529.622 1068.12 530.543 1067.81 528.843C1067.22 525.464 1072.29 524.236 1075.38 521.287C1076.98 519.73 1076.08 517.068 1077.73 516.167L1080.8 515.471C1084.63 518.153 1087.23 516.781 1091.83 512.604C1096.88 507.976 1102.87 498.105 1104.96 493.681C1105.23 493.128 1104.78 488.889 1104.41 488.623C1101.91 486.862 1094.53 491.47 1088.74 492.698C1085.96 493.292 1084.67 492.965 1082.28 493.292C1073.5 494.603 1065.89 499.948 1074.2 498.801C1077.37 498.371 1081.15 496.282 1083.2 497.265C1079.27 499.948 1076.16 503.163 1072.17 505.764C1069.25 507.689 1052.62 515.737 1048.12 517.744C1045.6 518.87 1042.47 519.935 1039.65 520.836C1038.59 524.154 1048.96 519.874 1053.64 518.42C1058.06 518.01 1046.34 525.444 1043.74 526.693C1040.67 528.229 1038.63 528.168 1037.05 528.802C1031.28 531.157 1024.9 539.595 1018.91 540.332C1017.23 540.537 1015.57 540.537 1015.25 539.922C1014.9 539.288 1017.95 534.27 1017.89 532.775C1017.52 525.034 996.614 519.136 973.357 525.362C970.248 526.202 964.255 529.273 964.153 526.857C964.03 524.809 969.839 520.631 974.687 518.522C990.703 511.518 1003.18 512.911 1017.31 511.805H1017.27L1017.23 511.785ZM1073.75 508.487C1082.03 503.532 1086.76 498.473 1095.1 493.599C1096.25 493.087 1098.31 493.006 1098.62 493.21C1098.86 493.333 1097.21 497.449 1097.04 497.695C1093.42 501.893 1083.03 512.604 1075.2 516.126C1064.81 520.836 1067.75 519.526 1059.51 524.686C1056.61 526.509 1047.36 531.26 1048.49 527.881L1065.2 516.392L1073.71 508.467H1073.75V508.487ZM1006.78 550.039C1006.17 549.998 1005 550.121 1004.65 550.018C1002.32 549.343 1007.74 547.295 1006.78 550.039ZM990.109 556.797L981.069 557.555C976.385 556.94 991.398 550.489 994.425 551.493C996.327 552.742 992.891 554.81 990.068 556.776H990.109V556.797ZM982.746 525.915C982.357 526.222 981.56 526.468 980.987 526.468C980.394 526.468 980.25 526.202 980.639 525.894C981.048 525.567 981.846 525.321 982.46 525.341C983.032 525.341 983.175 525.608 982.746 525.935V525.915ZM894.773 577.235C891.48 577.931 876.466 579.938 875.423 580.511C868.796 586.245 864.705 592.368 857.771 598.062C856.851 598.819 855.337 599.536 854.314 600.273C853.598 600.785 851.512 603.734 848.771 603.325C846.624 602.976 851.921 598.696 852.903 597.631C861.207 588.15 871.7 578.566 880.496 568.982C881.702 567.692 884.382 562.777 885.507 561.896L894.159 555.22C899.538 554.483 895.652 558.067 894.241 560.012C890.845 564.763 885.711 569.617 881.682 574.368C880.475 575.801 880.68 577.05 877.407 578.873C877.775 579.651 900.418 574.224 898.966 575.637C897.657 576.907 896.92 576.805 894.732 577.235H894.773ZM825.004 632.015C823.572 632.302 822.999 631.237 823.592 631.094C825.085 630.787 825.638 631.872 825.004 632.015ZM914.797 557.8C914.531 555.322 920.115 550.53 925.699 547.725C936.888 546.025 931.406 558.619 922.918 560.524C920.299 561.118 914.92 558.681 914.777 557.8H914.818H914.797ZM1027.21 471.81C1030.77 471.523 1034.02 474.861 1029.71 476.479C1029.28 476.623 1023.33 477.646 1022.71 477.667C1018.36 477.81 1019.62 472.813 1027.19 471.81H1027.21ZM992.502 495.217C998.905 494.46 995.264 502.016 986.673 501.627C981.069 501.381 986.878 495.893 992.502 495.217ZM953.783 527.492C955.194 527.758 957.342 533.861 956.606 534.946C954.335 538.223 937.767 540.619 933.186 540.516C928.829 541.52 927.152 546.107 916.065 547.909C913.263 548.36 889.475 550.53 887.736 550.469C887.286 550.448 881.58 548.646 881.498 548.442C880.843 546.639 886.755 545.615 889.27 544.755C890.948 544.202 892.502 542.933 894.548 542.667C897.759 542.236 897.043 543.609 898.536 544.1C901.359 545.001 921.445 543.752 926.354 541.847C933.308 539.144 926.988 537.322 927.152 535.765C927.417 533.82 932.183 529.949 937.91 529.007L953.783 527.492ZM842.471 543.035C846.746 541.97 855.214 543.178 850.469 545.984C846.603 548.175 838.135 549.465 837.092 547.909C836.519 547.11 839.567 543.793 842.431 543.056H842.471V543.035ZM841.715 535.888C844.394 535.827 848.669 535.888 848.874 537.076C849.037 537.854 847.565 539.165 845.949 540.127C838.442 541.97 834.678 538.591 841.715 535.909V535.888ZM858.221 536.093L859.428 535.151H861.985L860.778 536.113H858.221V536.093ZM872.764 524.563C873.828 522.945 878.696 519.259 883.052 518.706C887.082 518.215 888.514 520.939 889.27 522.188C891.132 525.608 889.925 531.649 880.925 536.482C874.319 540.004 876.159 535.888 875.955 535.13C875.321 532.816 871.128 527 872.764 524.543V524.563ZM801.113 591.529C801.931 590.792 802.279 590.443 804.038 589.931C804.468 589.809 812.424 588.191 813.181 588.068C816.658 587.535 819.849 587.494 822.651 587.597C823.265 588.273 814.429 589.993 813.468 590.157C811.565 590.505 801.256 591.959 801.093 591.549H801.113V591.529ZM769.389 618.008C763.375 621.059 758.691 624.11 751.778 626.875L749.221 626.916C748.832 626.22 767.916 616.39 770.984 614.67C774.789 612.52 783.543 606.335 787.798 605.147C789.311 604.717 790.477 604.369 791.684 604.512C790.334 608.813 777.407 613.973 769.389 618.008ZM811.136 598.164C817.067 594.867 825.965 590.3 833.553 590.566C832.04 594.334 824.595 596.669 818.704 599.72C813.836 602.26 794.343 613.011 789.025 613.769C788.186 613.892 786.55 613.953 786.264 613.769C786.714 612.786 787.491 612.008 789.107 610.943C794.016 607.768 805.286 601.4 811.054 598.205H811.115L811.136 598.164ZM837.706 586.245C834.863 586.675 832.019 586.921 829.258 587.208C830.035 586.266 833.738 585.61 835.415 585.221C837.951 584.668 851.021 582.211 851.492 582.784C852.269 583.788 838.749 586.102 837.706 586.245ZM874.462 555.711L878.143 555.527L875.709 556.408L874.462 555.691V555.711ZM844.66 587.392L843.106 588.293L843.003 587.372H844.66V587.392ZM803.711 621.018C801.502 622.185 799.231 621.919 797.411 621.858C799.252 620.813 801.727 621.162 803.711 621.018ZM1010.91 464.581L1013.75 464.315C1014.65 465.154 1014.2 470.622 1011.32 471.544C1000.56 472.22 1004.75 468.779 1010.87 464.581H1010.91ZM1009.21 463.004C1007.62 464.602 991.398 473.919 988.841 472.199C988.003 471.564 996.348 466.035 997.514 464.704L993.812 461.694C996.45 458.417 1014.16 458.028 1009.23 463.004H1009.21ZM982.644 461.98C982.91 462.226 980.25 468.083 979.555 468.554C976.16 470.991 968.06 472.22 969.451 469.516C970.351 467.755 974.36 465.789 974.257 463.987C974.176 463.291 971.823 463.148 973.337 462.001C975.219 460.895 981.846 461.223 982.603 462.001H982.623L982.644 461.98ZM957.771 483.893C960.062 484.691 959.449 486.657 963.683 486.248C966.464 485.961 986.182 477.339 992.216 476.233C1002.79 474.329 987.655 480.964 985.364 482.254C982.521 483.852 976.18 488.336 973.46 489.217C971.067 489.995 964.358 490.446 962.844 491.654C959.265 494.541 959.919 497.183 957.996 499.784C954.356 504.842 945.888 511.682 943.556 516.679C942.104 519.812 946.235 526.939 932.163 523.928C929.545 524.748 919.134 533.799 916.065 535.683C911.197 538.653 911.811 534.659 913.447 533.246C915.043 531.854 919.256 529.724 921.343 528.249C923.736 526.57 925.515 524.85 927.929 523.191C929.606 522.024 943.985 513.73 940.549 513.771C938.115 514.693 935.865 515.676 933.492 515.532C935.026 513.566 939.424 512.153 942.165 510.535C947.708 507.3 948.301 504.105 952.208 500.787C952.208 500.276 951.103 500.357 950.244 500.296C949.692 500.255 942.165 500.235 941.674 500.296C940.488 500.419 936.151 502.18 935.333 502.733C929.811 506.481 941.858 504.678 940.631 506.583C940.365 506.993 930.158 514.16 928.624 515.184C921.036 520.201 918.806 519.935 918.315 516.249C917.947 513.771 918.806 508.631 924.227 505.6C925.986 504.597 943.679 496.937 946.153 496.077C952.228 493.948 954.356 497.388 957.465 493.395C961.535 488.193 948.465 493.333 945.438 492.453C940.999 491.183 950.367 487.374 949.099 486.084C947.544 484.507 936.99 485.92 936.765 483.565C944.803 481.537 953.742 482.582 957.73 483.933H957.792L957.771 483.893ZM930.792 493.497L928.563 494.869L928.236 494.132L929.095 493.477H930.833H930.792V493.497ZM932.286 477.626H934.024L932.265 479.019H930.526L932.286 477.626ZM925.577 493.272C922.652 494.521 911.504 497.613 908.825 497.449C907.147 497.347 905.961 495.77 906.37 494.89C910.338 486.35 943.003 485.818 925.577 493.272ZM928.338 476.623H925.802L930.363 471.073C934.229 471.646 932.633 474.513 928.338 476.623ZM903.486 507.197C905.347 505.764 914.654 500.747 917.395 500.828C919.052 502.938 907.741 506.46 906.472 508.324C906.002 508.979 909.193 510.064 909.827 510.761C914.675 515.819 910.931 521.594 907.004 528.577C906.534 529.417 907.413 529.99 906.984 530.523C906.493 531.157 889.516 539.697 888.493 539.799C880.434 540.537 892.482 533.021 894.609 530.748C896.593 528.618 896.654 519.689 895.325 518.153C895.059 517.887 887.205 514.611 886.55 514.529C881.825 513.935 869.962 516.228 873.725 512.153C878.471 507.095 898.823 505.682 903.384 507.259H903.466L903.486 507.197ZM835.394 502.16C845.846 501.299 852.126 503.409 859.367 504.76C860.635 504.433 860.798 504.412 861.514 503.839C865.094 500.972 866.26 499.293 871.68 496.241C874.789 494.5 892.993 485.838 896.041 486.514C892.993 492.801 880.107 499.252 867.016 504.699C866.198 505.19 866.035 505.743 866.137 506.112C866.423 506.993 868.305 507.771 868.448 509.102C868.816 513.996 862.619 517.928 857.955 523.109C856.544 524.686 855.91 529.642 850.428 530.318C848.199 530.605 847.503 529.089 845.969 528.761C842.696 527.983 838.667 528.536 838.053 526.263C837.031 522.7 851.083 522.249 849.712 518.235C846.092 516.351 844.435 513.853 841.96 511.559C840.487 510.187 839.485 509.061 838.053 507.566C837.235 506.685 831.181 503.491 835.517 502.16H835.456H835.394ZM826.292 525.915C826.292 525.915 823.163 527.328 822.529 527.512C818.111 528.7 823.142 525.669 826.292 525.915ZM821.138 525.382C820.749 525.69 819.951 525.935 819.358 525.935C818.786 525.935 818.642 525.669 819.051 525.362C819.461 525.034 820.258 524.789 820.831 524.809C821.424 524.809 821.567 525.075 821.158 525.403L821.138 525.382ZM826.497 513.587C826.272 514.57 824.349 519.075 822.099 519.771C820.095 519.73 817.763 519.853 816.004 519.587C810.89 518.829 802.259 514.631 799.845 512.501C798.331 511.129 794.957 506.481 797.984 504.392C801.154 502.692 814.838 500.583 818.008 500.521C823.49 500.439 823.613 503.081 824.431 504.986C825.27 506.993 826.885 511.416 826.497 513.566V513.587ZM788.8 513.996C786.264 515.471 781.15 514.119 784.914 512.337C786.366 512.256 790.723 512.87 788.8 513.996ZM899.416 417.214C898.802 418.053 888.882 422.211 886.611 423.685C878.778 424.136 887.061 418.524 887.123 416.108C893.689 413.118 897.861 415.596 899.416 417.193V417.214ZM815.697 474.8C818.929 473.612 823.633 470.991 827.356 469.639C830.465 468.492 832.981 468.144 835.353 467.264C839.628 465.687 843.596 462.758 849.63 462.206C851.492 462.021 852.637 462.021 853.312 462.595C854.355 463.455 852.903 469.455 851.41 470.929C847.483 474.8 827.397 479.797 819.379 483.073C814.531 483.811 810.072 484.937 805.04 486.37C801.011 487.538 791.172 491.633 796.122 486.411C797.575 484.875 801.379 480.944 802.995 479.571C807.699 475.599 810.583 476.684 815.677 474.82L815.697 474.8ZM788.657 482.643C791.602 480.104 792.154 476.827 798.884 475.066C796.838 479.203 791.316 487.149 782.316 491.326C779.616 492.596 773.991 493.968 775.341 492.248C775.811 491.715 778.511 490.425 779.657 489.565C782.602 487.394 786.1 484.773 788.657 482.623V482.643ZM874.523 411.684C882.971 410.988 882.132 414.203 873.848 417.521C870.719 418.258 868.162 412.995 874.523 411.684ZM829.197 440.6C831.733 438.696 840.569 436.607 842.758 437.529C844.762 438.327 838.667 443.713 836.008 445.372C833.451 446.99 828.338 448.341 824.922 449.857C821.936 451.167 814.511 454.895 812.322 456.328C805.674 460.69 806.063 466.404 797.002 470.213C790.661 472.895 789.25 470.868 786.714 471.421C773.766 476.725 784.586 475.21 785.364 476.827C786.345 478.916 777.959 483.606 775.198 486.186C770.391 487.988 764.725 494.132 759.448 494.705C753.844 495.299 757.546 490.077 756.216 488.644C754.948 487.231 749.221 484.568 746.869 483.012C745.826 482.316 742.164 481.496 741.755 480.882C740.324 478.445 759.939 468.267 766.771 466.137C774.605 463.7 774.216 466.567 779.248 466.506L776.527 467.223L770.309 473.428C777.427 473.059 786.509 467.981 792.522 465.154C795.222 463.885 799.681 462.922 799.743 461.468C799.763 458.97 790.027 463.311 788.288 462.206C787.859 461.407 789.434 460.24 789.352 459.379C789.229 457.475 784.239 458.151 790.804 454.362C793.3 452.929 796.531 452.437 797.984 451.741C799.518 451.004 799.129 450.103 800.847 449.427C801.972 448.997 807.229 448.526 809.479 448.075C813.386 447.277 824.41 444.573 827.029 442.915C828.256 442.136 828.215 441.379 829.176 440.662H829.197V440.6ZM780.536 468.8L777.305 470.643H775.566C776.671 469.496 778.511 468.677 780.536 468.8ZM832.797 429.665C833.206 429.337 833.983 429.112 834.576 429.112C835.149 429.112 835.313 429.358 834.883 429.685C834.453 430.013 833.697 430.238 833.124 430.238C832.531 430.238 832.367 429.992 832.776 429.665H832.797ZM849.078 410.251C852.433 409.678 847.012 411.91 847.115 412.094C849.978 411.705 850.714 415.698 854.458 412.975C856.401 411.582 856.217 410.62 861.514 409.923C864.726 414.019 855.46 415.719 848.833 419.098C837.787 424.77 829.319 432.778 812.854 435.501C811.606 434.621 815.554 432.941 815.881 431.795C816.086 431.16 814.408 431.078 814.429 430.73C814.531 429.89 817.886 427.904 814.347 427.555C810.543 427.207 799.231 431.917 802.872 428.108C808.763 421.883 813.979 425.487 818.295 425.159C822.774 424.811 821.22 423.234 821.751 422.518C823.92 419.303 828.583 419.692 830.731 418.565C832.551 417.603 832.285 416.333 834.658 415.043C835.21 414.736 848.301 410.333 849.037 410.23H849.078V410.251ZM851.103 395.281C852.392 394.728 853.926 395.24 853.946 395.383C854.171 397.493 844.149 398.271 851.103 395.281ZM838.442 407.875C842.165 407.609 847.565 407.916 840.467 410.067C839.076 410.497 821.547 413.466 820.258 413.528C818.315 413.609 817.415 413.159 817.19 412.422C823.633 410.271 832.49 408.264 838.442 407.875ZM802.913 422.763H805.47L803.65 424.197H801.093L802.913 422.763ZM763.089 454.772C767.159 454.239 773.541 455.427 774.298 456.697C775.157 458.028 770.8 461.325 766.648 462.799C765.768 463.127 753.782 466.445 752.657 466.67C740.303 469.209 746.46 465.933 748.607 463.148C749.242 462.308 748.096 461.857 749.467 460.731C751.635 458.929 758.773 455.325 763.089 454.772ZM765.748 436.361C766.628 436.505 765.318 445.659 764.378 446.437C760.266 449.939 748.996 449.611 750.346 448.567C752.739 446.724 757.873 443.222 759.285 441.665C760.369 440.457 758.855 437.324 765.707 436.361H765.728H765.748ZM629.912 532.386C634.187 530.543 642.369 525.178 647.462 526.161C647.769 526.243 649.937 528.802 650.039 529.11C650.796 531.465 649.548 533.062 643.78 535.97C633.819 540.987 609.09 548.523 600.704 553.397C597.39 555.322 597.349 556.203 602.238 555.056C604.549 554.524 608.067 552.292 610.992 552.783C611.278 553.377 599.19 559.5 597.145 560.852C593.095 563.616 592.236 565.582 586.917 568.531C585.138 569.494 582.868 570.026 581.395 570.948C578.449 572.75 578.49 574.306 575.013 576.334C570.943 578.709 558.527 579.938 555.623 579.18C554.723 578.934 555.704 577.89 555.05 577.419C551.041 574.572 547.339 574.634 555.582 568.736C575.259 554.688 603.179 543.916 629.933 532.386H629.912ZM560.184 591.938C559.161 592.921 556.993 593.474 555.418 593.29C554.641 592.614 555.07 592.123 557.729 591.467L560.163 591.938H560.184ZM529.912 607.932C523.51 609.161 516.903 614.281 513.774 611.7C519.337 612.069 523.98 608.465 529.912 607.932ZM545.907 564.292C546.766 563.022 548.566 561.65 549.282 560.483C551.061 557.821 550.898 552.783 560.941 550.899C564.377 550.94 568.979 557.125 566.893 559.152C566.259 559.766 555.214 564.906 553.7 565.439C550.284 566.647 547.052 566.586 544.537 566.463C547.052 565.5 545.355 565.05 545.887 564.272H545.927L545.907 564.292ZM509.212 591.775L507.412 593.147H504.856C505.674 592.266 507.76 591.611 509.212 591.775ZM512.546 602.587L507.371 603.918L508.537 603.017L512.526 602.608H512.546V602.587ZM424.348 673.976L421.975 675.389L414.285 675.717C416.862 673.71 421.137 674.57 424.348 673.976ZM524.512 593.351L526.312 591.979H528.869L527.662 592.942L524.512 593.351ZM519.582 599.843C520.114 598.983 520.871 598.41 522.528 597.57H523.367L520.421 599.864H519.582V599.843ZM613.958 535.048L616.331 533.226L618.621 533.472C619.215 533.902 618.315 534.434 617.353 535.089L613.958 535.048ZM660.246 503.368C659.162 505.149 657.852 506.153 653.598 507.504C643.719 510.658 654.907 502.815 660.246 503.368ZM644.782 509.941C645.028 510.023 645.989 511.887 645.907 512.071C644.721 514.856 634.719 515.86 631.364 515.614C632.489 514.242 642.778 509.143 644.803 509.921H644.782V509.941ZM628.685 516.986C627.621 519.505 615.962 523.068 614.49 521.532C612.669 519.669 625.739 516.249 628.685 516.986ZM696.858 456.144C702.708 455.529 690.477 464.376 687.756 466.035C682.5 469.25 680.516 465.339 682.725 463.188C684.218 461.755 694.118 456.43 696.858 456.144ZM685.854 450.389C689.597 450.574 691.663 451.208 687.347 453.604L680.352 454.301C671.127 458.806 667.527 463.086 658.098 467.55C652.596 470.172 646.562 472.056 640.487 474.124C638.789 473.919 632.101 476.704 631.692 475.885C631.323 475.025 635.353 474.493 636.151 473.858C640.139 470.622 632.039 470.745 642.88 466.015C647.319 464.09 653.598 462.881 658.057 461.202C665.011 458.601 670.636 453.953 677.734 454.465C680.045 452.335 680.393 450.123 685.936 450.389H685.916H685.854ZM663.58 449.734C675.75 448.669 668.08 454.444 659.509 454.731C650.775 455.038 653.107 450.635 663.58 449.734ZM673.766 428.559C689.311 421.965 694.69 425.774 699.17 428.354C697.554 432.102 698.106 438.368 690.19 442.587C688.002 443.775 677.1 445.229 676.568 444.041C676.343 443.611 677.754 442.505 677.795 441.87C677.877 441.297 674.788 438.675 673.888 438.389C670.657 437.324 663.805 438.163 665.093 434.764C668.141 432.593 670.718 430.73 673.745 428.559H673.786H673.766ZM630.423 468.37C623.755 469.209 628.46 463.025 633.144 462.39C638.237 461.694 634.842 467.776 630.423 468.37ZM652.616 444.409L648.546 444.88L649.262 443.898L653.332 443.426L652.616 444.409ZM633.778 457.659C633.369 457.987 632.571 458.233 631.958 458.212C631.385 458.212 631.242 457.946 631.671 457.618C632.06 457.311 632.857 457.065 633.43 457.065C634.023 457.065 634.167 457.332 633.778 457.639V457.659ZM652.862 441.092C653.537 441.604 653.046 442.095 651.757 442.935L647.748 443.365C648.75 442.3 650.591 441.686 652.882 441.071H652.862V441.092ZM629.933 455.775C631.692 455.673 632.919 455.775 632.162 456.717L628.767 456.676L629.933 455.775ZM594.383 483.852L592.767 484.773L592.604 483.852H594.342H594.383ZM597.288 478.281C597.39 478.384 596.51 478.916 595.672 479.203C589.802 481.251 596.101 476.786 597.288 478.281ZM566.422 500.255C571.434 499.231 586.795 491.347 591.827 490.016C592.992 489.729 602.81 488.316 604.079 488.275C610.256 488.009 603.669 490.917 599.66 492.76C591.683 496.446 574.768 500.235 570.472 504.351C569.307 505.457 569.368 509.655 568.897 511.191C566.852 517.723 564.111 524.625 562.127 531.198C561.493 533.287 562.209 538.284 559.427 540.291C556.42 542.462 549.855 542.032 548.341 541.253C547.155 540.66 548.341 539.369 547.686 538.673C546.316 537.199 543.043 536.461 544.087 534.024C544.639 532.673 546.643 531.301 547.38 529.97C547.952 529.028 550.1 521.287 549.671 521C548.505 520.119 545.641 520.652 546.664 518.645C548.75 514.549 556.379 512.563 559.039 509.86C559.959 508.877 558.589 508.958 558.486 508.508C558.057 506.542 557.586 503.409 554.723 502.385C552.35 501.545 545.784 501.832 548.443 499.252C556.891 497.859 557.75 502.037 566.422 500.296H566.443L566.422 500.255ZM526.66 532.816C530.832 529.151 531.016 525.096 542.777 522.106C544.741 521.881 544.741 522.126 544.496 522.864C544.168 523.887 538.564 528.72 536.805 530.154C531.814 534.168 522.364 540.885 516.146 544.837C514.674 545.759 512.076 547.356 509.867 547.377C502.442 547.295 523.653 535.376 526.66 532.796V532.816ZM506.819 529.437C509.99 527.737 516.678 527.144 520.401 526.304C524.369 525.403 527.785 523.969 531.507 523.314C534.391 523.744 519.419 531.956 516.719 533.41C513.324 535.274 496.04 544.039 492.767 544.735C486.733 545.984 491.867 541.479 493.974 540.045C495.999 538.673 499.701 537.608 501.869 535.847C504.917 533.39 502.115 531.956 506.799 529.437H506.819ZM595.488 467.817C601.951 466.813 595.856 473.141 592.072 474.923L588.022 474.841C590.436 472.22 587.531 472.424 583.072 472.527C582.745 471.933 594.363 468.001 595.467 467.837H595.488V467.817ZM546.827 509.47C545.498 511.395 544.537 511.928 543.412 514.119C542.164 516.597 535.987 519.014 532.653 521.43C525.882 521.942 520.626 520.631 530.464 517.089C533.491 516.003 538.666 515.798 540.793 513.832C541.018 513.628 541.448 510.515 541.325 510.331C540.855 509.409 536.58 508.877 536.682 507.648C536.764 506.706 539.239 504.044 540.262 502.815C545.6 500.828 547.789 508.037 546.827 509.429H546.807L546.827 509.47ZM474.931 545.574C470.411 545.226 477.692 539.267 483.583 537.915L486.242 538.345C485.465 539.902 479.881 545.964 474.952 545.595L474.931 545.574ZM520.687 507.32H524.062L523.182 507.996L519.521 509.122C517.148 508.938 518.621 508.303 520.687 507.32ZM449.998 548.052C452.166 549.527 445.886 552.763 441.652 552.169C443.575 550.305 445.641 549.138 449.998 548.052ZM452.452 542.482L453.659 541.54L457.647 541.131C456.359 542.298 454.272 542.667 452.452 542.462V542.482ZM516.903 490.405C520.196 490.118 520.339 495.238 517.885 496.016C511.81 496.18 511.81 494.48 514.633 491.654C515.042 491.244 515.021 490.569 516.923 490.384H516.903V490.405ZM471.618 526.324L470.84 525.628L472.988 524.952L471.597 526.345H471.618V526.324ZM390.967 580.552H388.41L390.231 579.119H392.787L390.967 580.552ZM439.423 545.82C440.261 545.431 442.511 544.981 443.779 544.469C446.418 543.424 448.688 541.991 451.92 541.52C450.673 542.667 448.423 543.772 445.886 544.592C445.293 544.776 444.25 544.592 443.595 544.817C442.573 545.124 441.714 545.923 440.507 546.312C438.87 546.844 437.93 546.517 439.382 545.82H439.423ZM411.216 573.385L412.873 573.323C414.346 574.552 409.56 575.904 407.392 577.276C400.008 581.904 407.923 580.47 406.696 583.788L404.467 584.382C386.958 586.696 397.226 577.071 411.216 573.385ZM411.81 589.911C409.11 590.853 395.508 593.761 394.076 593.495C392.93 593.269 392.337 592.123 392.951 591.324C395.242 588.334 404.201 586.839 409.212 585.119C415.86 582.825 421.28 579.057 428.418 576.825C434.166 577.419 426.005 580.614 422.466 583.051C419.112 585.324 417.066 588.129 411.81 589.931V589.911ZM401.378 612.008C406.88 609.222 416.371 605.557 421.934 606.171C419.562 608.342 414.326 608.895 410.419 609.939C407.678 610.676 404.733 612.663 401.337 612.008H401.378ZM399.333 616.902C396.817 614.834 416.903 609.284 419.889 610.39C419.971 612.786 400.58 617.967 399.333 616.902ZM478.551 569.883H475.995C476.792 569.023 478.92 568.347 480.331 568.511L478.572 569.883H478.551ZM481.926 571.316C482.929 570.538 486.242 570.149 486.488 570.456C486.897 571.091 482.745 572.115 481.926 571.316ZM493.401 562.203C488.288 563.555 473.377 567.507 469.143 569.084C466.197 570.169 462.106 573.036 457.791 574.695C452.718 576.6 444.25 577.706 448.688 575.002C450.918 573.651 457.381 573.098 461.554 570.681C471.229 565.091 476.772 557.821 457.811 565.418C454.416 565.848 457.013 564.026 456.216 564.005L450.12 565.377L446.418 563.903C446.07 564.353 444.291 564.865 444.045 565.05C441.489 567.016 437.991 570.169 435.107 571.951C434.677 572.238 431.548 573.651 431.077 573.774L426.312 573.835C425.309 569.76 417.946 568.715 433.43 563.022C427.662 557.616 446.848 555.199 458.159 551.882C462.863 551.575 462.352 553.582 464.949 554.442C465.686 554.708 469.47 555.875 470.636 554.606C471.372 553.827 469.143 549.547 468.324 548.994C466.79 548.011 463.865 548.052 462.086 547.356C459.713 546.476 459.202 544.755 456.686 543.916C459.284 542.748 465.277 540.516 466.811 541.458C465.993 545.656 473.724 547.97 478.408 550.428C477.324 552.312 477.856 553.664 474.236 555.855L470.84 555.814L466.299 559.971C470.288 559.152 473.54 559.316 477.672 558.251C481.558 557.247 488.144 553.52 489.576 553.705C491.049 554.892 485.997 555.875 483.89 557.145C473.765 563.248 482.376 561.876 491.99 559.541C516.944 553.5 542.818 546.639 568.263 540.66C572.538 539.656 575.872 539.881 579.963 537.24C588.82 531.547 578.409 531.547 582.172 528.29C585.138 525.71 596.879 523.785 599.395 524.563C601.44 525.157 603.854 529.437 601.89 530.932C599.108 533.082 594.22 533.779 591.336 534.823C588.636 535.806 585.874 537.793 583.338 538.837C571.679 543.895 559.714 546.762 546.95 549.875C528.991 554.257 511.094 557.575 493.401 562.203ZM523.755 561.794L522.896 562.449L519.46 562.408L520.626 561.507L523.367 561.077L523.755 561.773V561.794ZM407.289 648.296L410.91 647.17L410.173 648.071L407.31 648.275H407.289V648.296ZM460.041 608.956C459.856 608.751 463.088 607.748 463.825 608.055C463.988 608.239 460.716 609.263 460.041 608.956ZM361.186 722.204C358.997 723.453 357.422 725.071 355.54 726.136C353.965 727.016 350.447 727.897 349.302 729.187C346.786 729.904 345.027 726.525 344.536 725.849C341.12 721.364 341.447 715.753 344.475 709.364C345.866 706.415 349.731 697.65 360.408 697.568C363.19 697.568 374.276 698.059 376.219 698.407C379.206 698.96 384.074 706.046 384.237 707.889C384.278 708.073 385.137 708.094 384.81 708.442C382.172 711.473 367.117 718.804 361.145 722.204H361.206H361.186ZM351.47 744.894C341.55 746.614 354.19 733.426 363.62 737.399C363.415 739.181 356.399 744.034 351.47 744.894ZM424.9 684.318L429.052 684.891C424.614 693.636 409.417 692.018 424.9 684.318ZM464.561 661.791C465.481 660.808 464.07 660.174 465.113 659.293C468.938 655.832 476.445 652.617 479.145 649.136C479.595 648.583 480.413 646.924 480.249 646.555C480.045 646.125 478.102 646.617 478.142 646.555C478.204 646.309 480.311 645.552 480.413 645.142C480.454 644.896 476.342 643.135 475.627 642.5C471.311 638.609 476.895 634.78 488.738 635.968C496.367 636.725 490.558 640.903 489.392 644.036C488.554 646.146 490.988 647.313 490.292 649.258C488.492 654.112 476.67 662.099 464.581 661.791H464.561ZM370.349 749.768C363.62 753.802 360.736 748.887 367.465 746.819C373.826 744.853 375.422 746.717 370.349 749.768ZM671.127 517.723C673.52 517.007 677.263 514.836 678.573 514.324C682.05 512.952 684.197 514.938 679.636 516.187C677.55 516.74 676.588 516.433 675.279 516.699C674.338 516.904 671.557 518.665 671.127 517.703V517.723ZM678.45 518.072L677.284 518.973H674.727L675.893 518.051H678.45V518.072ZM425.923 721.262C425.453 720.995 421.607 714.77 421.423 714.115C421.239 713.521 421.771 712.702 422.2 711.964C426.393 708.421 444.004 695.479 453.086 694.516C457.954 693.984 455.295 698.715 454.191 700.394C451.45 704.592 446.888 707.889 441.918 712.19C440.036 713.828 431.2 724.231 425.943 721.282L425.923 721.262ZM631.283 555.814L632.448 554.913H635.005L633.839 555.834H631.283V555.814ZM625.146 567.917L626.353 566.975H628.91L627.703 567.937H625.146V567.917ZM606.042 593.392C607.638 592.491 609.192 592.368 610.603 592.532L609.438 593.433L606.042 593.392ZM589.74 608.629H588.083L588.942 607.953L591.131 607.256L589.74 608.649V608.629ZM488.635 685.977H491.192C491.254 686.141 486.181 689.11 485.097 689.663C483.604 690.441 483.645 690.748 481.865 690.544L488.656 685.956H488.635V685.977ZM580.393 622.554C580.822 623.025 571.556 626.158 572.293 624.09C574.788 622.472 578.245 622.329 580.393 622.554ZM616.985 590.976L619.603 590.321L618.396 591.263L616.965 591.017H616.985V590.976ZM613.447 593.024H610.89L613.324 592.102H614.592L613.426 593.024H613.467H613.447ZM456.972 725.808C454.068 727.221 455.704 728.614 455.479 728.941C453.27 732.054 448.095 735.945 441.55 734.86C436.355 734.02 441.141 730.784 442.307 728.573C443.084 727.078 441.427 726.586 441.489 725.747C441.652 722.49 450.816 714.442 456.318 710.592C462.659 706.21 473.029 706.189 480.924 702.053C484.401 700.189 489.822 696.175 491.908 694.209C494.628 691.629 493.053 690.093 499.64 686.694C504.385 684.257 513.651 682.536 509.642 686.53C502.749 693.411 486.795 703.056 474.808 709.568C470.738 713.152 461.206 715.65 461.554 719.029C461.636 719.623 461.043 720.074 463.19 719.357C468.897 717.432 472.272 711.145 478.47 711.555C481.149 711.739 476.179 716.859 474.583 718.292C471.147 721.364 463.109 727.733 456.972 725.828V725.808ZM705.572 534.024C707.045 532.857 714.163 528.68 716.515 527.717C719.46 526.509 722.058 526.755 721.649 527.963C721.322 529.048 715.267 534.086 713.242 535.519C711.851 536.482 702.504 542.38 701.358 542.646C695.12 544.182 703.731 535.458 705.592 534.024H705.551H705.572ZM691.172 545.8C691.356 545.226 694.609 544.223 694.629 544.428C694.445 545.001 691.193 546.005 691.172 545.8ZM554.866 656.815C555.254 656.508 556.052 656.262 556.645 656.262C557.218 656.262 557.361 656.528 556.952 656.836C556.543 657.163 555.745 657.409 555.173 657.388C554.58 657.388 554.436 657.122 554.845 656.795L554.866 656.815ZM449.159 749.543C441.468 751.939 438.625 750.956 440.2 747.925C440.486 747.372 445.068 742.252 445.723 741.822C448.954 739.754 454.907 739.508 458.077 739.488C474.911 739.406 463.231 745.201 449.159 749.522V749.543ZM612.894 620.936C613.487 620.936 613.61 621.202 613.181 621.53C612.792 621.837 612.035 622.083 611.422 622.083C610.808 622.083 610.706 621.817 611.115 621.51C611.524 621.182 612.301 620.936 612.894 620.957V620.936ZM725.208 533.574L726.374 532.673C728.133 532.57 729.34 532.714 728.644 533.615L725.208 533.574ZM516.003 694.967C520.032 692.182 521.117 696.032 523.448 695.274C528.562 692.1 528.848 690.195 526.066 688.516L533.062 685.629L537.787 686.714C534.494 689.745 535.7 693.615 533.328 696.216C531.671 698.018 522.814 704.797 519.807 706.496C517.148 707.971 511.646 709.794 508.905 711.35C505.715 713.152 502.606 716.04 498.842 717.801C497.717 718.333 498.024 718.374 496.572 718.354L494.403 717.371C495.938 715.22 500.458 712.906 502.319 710.797C504.876 707.848 499.047 706.107 507.74 701.5C509.928 700.332 513.283 700.373 514.939 699.186C517.189 697.547 513.651 696.585 516.003 694.967ZM670.8 587.617C672.62 587.74 671.454 590.198 671.761 590.341C672.314 590.648 673.868 590.443 674.85 590.484C670.514 592.594 667.998 589.092 670.759 587.617H670.8ZM475.381 738.607C472.518 738.935 468.018 733.078 469.408 731.685C470.943 730.19 482.908 727.856 485.629 727.631C499.844 726.443 485.976 735.617 475.402 738.607H475.381ZM525.494 712.169C523.264 713.48 515.88 716.306 513.344 716.203C508.946 716.019 512.28 713.173 514.796 711.309C519.644 707.664 522.303 706.517 528.439 703.65C534.637 700.762 531.507 699.902 532.673 698.346C533.041 697.875 537.909 693.574 538.768 692.981C541.734 690.953 547.073 691.117 545.866 692.038C542.941 694.291 536.969 698.387 535.128 700.332C533.532 702.032 533.062 706.107 531.814 707.439C531.425 707.828 526.251 711.719 525.514 712.169H525.494ZM626.23 642.623C617.885 645.224 619.93 636.316 629.789 637.647C632.96 638.057 630.28 641.333 626.23 642.623ZM647.809 620.097C649.384 619.871 651.696 621.264 649.671 621.981L645.682 622.39L647.809 620.097ZM637.46 636.787L638.626 635.886L643.514 635.497C641.939 636.889 639.423 636.951 637.439 636.807H637.46V636.787ZM596.245 695.725C590.599 695.622 599.374 692.981 598.822 691.178C598.76 690.953 594.547 688.639 593.933 688.414C591.663 687.595 586.304 688.188 587.531 685.444C588.758 684.175 600.192 679.608 602.769 678.092C606.001 676.249 608.844 673.71 612.956 671.785L613.487 671.068C610.644 670.638 611.442 667.525 613.733 665.723C616.29 663.757 619.93 662.344 623.939 660.911C638.073 655.771 642.185 654.03 654.989 647.886C661.636 644.692 674.42 640.104 673.398 636.5C672.559 633.633 666.443 635.333 664.684 634.309L665.768 630.623C661.861 630.377 657.402 633.531 655.439 631.892C653.884 630.561 664.275 620.772 663.907 617.762C663.805 617.107 661.125 617.537 659.939 617.414L665.359 616.574C666.709 614.322 669.798 611.086 670.82 608.956C672.498 605.495 670.595 606.601 674.461 602.055C675.893 600.437 674.584 599.024 675.729 597.529C676.548 596.423 678.45 595.297 679.186 594.232C680.577 592.307 675.545 591.099 682.172 588.928L681.068 588.396C686.243 584.73 692.543 578.3 694.874 574.757C695.815 573.385 695.304 571.316 696.674 569.78C698.249 568.06 707.126 560.176 709.561 558.333C711.176 557.104 714.06 556.326 715.451 555.179C716.556 554.217 716.985 552.373 718.458 550.94C720.994 548.462 726.026 545.124 728.419 542.892C731.774 539.779 726.251 540.373 727.233 538.55C728.01 537.137 735.415 534.762 731.283 534.27L724.922 535.827C725.842 534.926 727.847 534.659 729.258 533.779C733.144 531.444 738.012 527.451 740.508 525.096C745.764 520.119 732.674 521.328 731.876 519.915C730.649 517.744 739.792 515.696 741.285 514.365C743.514 512.358 740.426 509.061 733.185 511.416C731.774 511.866 723.285 516.843 721.465 517.928C719.481 519.136 718.744 520.468 715.329 522.188C712.567 523.56 707.597 525.055 704.979 526.611C698.474 530.482 692.849 535.315 684.954 539.595C683.011 540.639 676.854 543.117 674.891 542.728C674.482 542.626 673.807 538.837 674.298 538.223C677.1 534.987 680.884 533.799 687.081 531.526C682.377 525.301 692.134 527.144 700.049 525.751C705.02 524.891 717.497 518.031 708.742 518.85C709.376 518.072 710.685 518.645 711.401 518.194C714.285 516.413 710.01 515.553 707.351 515.553C704.304 515.553 698.127 517.846 696.695 516.413C696.695 515.757 699.64 514.119 701.113 513.505C703.895 512.358 707.208 512.563 707.761 511.621C708.17 510.843 705.776 509.737 706.492 508.713C707.597 507.238 713.365 503.921 713.324 503.02L708.497 501.75C711.626 498.924 715.226 496.385 720.463 493.763C715.431 492.309 700.663 495.197 692.768 498.125C688.165 499.825 672.927 506.358 671.168 508.283C670.759 508.754 673.807 508.324 671.373 509.511C667.875 508.733 662.843 511.047 664.991 507.771C667.793 503.511 683.175 494.931 692.236 491.101C712.547 482.561 735.926 480.104 744.496 485.858C746.562 487.271 752.801 497.572 752.637 499.579C752.453 501.177 751.082 503.02 749.426 504.842C751.082 504.945 753.598 504.003 755.255 504.023C761.678 504.085 753.557 513.71 757.075 513.341C760.614 512.972 762.005 510.146 763.375 509.143C765.523 507.648 770.002 506.071 771.557 504.863C776.507 501.033 767.405 500.48 776.016 496.958C778.88 495.791 793.709 493.067 795.959 493.251C797.616 493.374 797.881 494.337 799.947 494.255C801.665 494.193 808.702 491.982 811.34 492.453C816.577 489.688 808.599 490.671 810.215 488.295C813.079 484.077 828.583 482.09 835.128 480.8C837.46 480.35 840.14 479.141 843.29 478.732C846.992 478.24 848.955 478.609 852.371 478.281L856.503 475.148C861.064 472.67 870.064 473.756 874.012 473.633C882.132 468.349 879.391 468.882 877.816 465.974C877.346 465.134 877.816 464.049 877.325 463.373C875.362 460.403 869.655 457.311 871.107 453.174C871.619 451.741 873.807 450.615 874.748 449.304C875.444 448.341 874.994 447.031 875.894 446.191C877.121 445.106 883.646 442.976 884.75 441.768C886.121 440.273 880.087 436.525 880.925 434.969C882.787 431.487 889.966 427.207 897.513 424.156C904.202 421.453 904.734 421.064 908.804 422.477C913.938 424.258 916.434 433.679 916.106 437.57C915.35 447.113 908.518 459.195 895.673 470.356C891.889 473.612 885.814 476.991 879.657 476.049C875.014 479.039 871.659 481.804 865.319 484.712C860.512 486.882 842.185 493.128 837.072 493.62C831.324 494.173 828.767 492.657 823.04 493.62C818.786 497.736 812.813 497.92 805.695 499.886C796.306 502.487 790.579 505.948 782.254 508.283C773.746 510.679 766.628 510.679 760.614 515.491C756.38 518.932 761.944 520.836 762.496 523.457C763.069 525.935 762.046 532.059 758.548 535.151C756.707 536.789 752.085 539.165 751.491 540.086C751.164 540.598 753.23 541.745 753.455 542.523C754.621 546.148 749.569 550.407 753.251 553.336L762.864 551.984C764.541 549.261 761.903 540.742 768.08 538.243C772.457 536.461 774.093 538.898 774.768 539.881C778.205 545.083 777.673 551.411 774.38 558.312C773.132 560.934 771.332 565.234 767.405 567.917C766.996 568.204 761.862 571.214 761.514 571.357C757.771 573.036 756.625 572.565 752.105 575.637C744.762 580.675 747.523 580.081 745.928 583.644C744.701 586.368 737.439 589.89 733.471 592.758C728.685 596.177 724.737 599.659 720.033 603.099C712.854 603.038 724.103 597.406 726.537 594.621C728.828 592.02 729.483 587.781 732.674 584.75C737.071 580.593 745.539 576.272 749.405 572.402C749.957 571.849 752.453 567.855 752.719 567.221C753.476 565.562 751.757 565.562 748.301 567.18C744.926 568.736 739.362 574.736 736.744 576.846C734.965 578.259 732.306 580.532 730.056 581.842C725.31 584.587 716.392 585.467 713.345 587.085C710.645 589.338 708.456 591.508 705.224 593.761C699.743 597.55 684.484 605.188 685.261 608.485C685.588 609.816 687.163 608.69 689.515 608.526L686.591 610.123C690.62 610.41 694.588 607.748 698.352 607.973C701.849 612.171 689.147 615.346 683.318 618.95C677.979 622.267 682.356 621.858 684.013 623.189C684.525 623.599 686.509 629.169 686.775 630.111C687.388 632.609 682.132 638.241 681.661 641.251C681.375 643.197 685.097 643.606 682.745 645.879C680.188 648.337 674.154 650.999 670.779 653.211C663.743 657.716 657.873 662.979 649.446 667.034C646.828 668.304 642.716 669.86 639.771 671.048L641.673 672.236C638.728 671.068 628.419 675.84 625.514 677.519C619.951 680.734 615.819 685.444 610.46 688.885C608.967 689.847 600.499 694.189 598.576 694.967C597.554 695.397 597.697 695.602 596.245 695.561L596.122 695.684L596.245 695.725ZM763.15 508.324C763.253 508.426 762.373 508.958 761.596 509.225C755.725 511.273 762.025 506.808 763.15 508.324ZM650.407 668.283L648.219 669.655L647.891 668.918L648.75 668.263H650.407V668.283ZM517.803 766.253C507.412 769.653 512.894 762.834 518.948 762.137C520.094 762.014 521.198 761.973 521.648 762.301C521.485 763.386 520.38 765.107 517.762 766.274H517.803V766.253ZM506.41 781.101C499.885 780.486 508.701 774.691 513.283 776.616C513.242 777.64 509.703 781.121 506.41 781.101ZM538.257 757.14C537.009 757.755 534.044 758.922 532.469 758.963C528.95 758.963 536.764 754.13 538.38 752.717C543.268 748.355 540.855 747.802 542.532 745.652C546.439 740.594 554.436 734.02 559.918 728.695C570.247 718.722 579.349 708.852 597.206 698.96C600.172 697.322 604.406 694.844 608.435 694.496C613.406 694.086 615.717 695.458 612.874 697.957C609.949 700.537 605.224 702.114 601.931 704.367C587.879 713.93 580.474 724.641 569.082 734.368C563.988 738.73 545.089 753.7 538.257 757.099V757.14ZM692.747 636.848C692.931 635.087 696.531 626.957 698.556 625.134C706.431 617.946 708.804 618.274 720.81 613.011C732.674 607.789 741.776 602.178 750.203 596.28C755.91 592.307 761.187 586.86 767.139 583.051C774.543 578.3 778.041 580.777 782.684 580.45C787.941 580.102 799.068 576.395 803.956 574.204C806.881 572.893 808.947 571.357 811.933 570.088C815.636 568.511 818.847 568.49 821.649 566.299C828.419 560.975 812.097 568.675 811.299 568.92C808.17 569.903 793.545 572.545 800.295 569.002C804.713 566.688 811.852 566.217 810.195 562.121C809.949 561.486 804.897 557.473 803.936 557.165C801.42 556.449 791.643 555.609 792.42 553.848C794.057 550.182 812.445 540.721 810.133 537.485C810.031 537.301 807.106 535.151 806.82 535.069C801.031 533.615 792.768 533.144 789.107 530.645C787.777 529.744 789.454 528.454 788.268 527.307C787.716 526.775 781.804 523.191 780.782 522.761C778.307 521.737 771.557 521.819 775.75 518.706C780.72 517.682 784.709 518.01 787.736 518.665C789.802 519.116 790.068 520.099 791.582 520.488C793.668 521.082 797.902 520.775 798.904 522.188L802.729 519.915C800.745 520.324 796.797 516.699 800.765 517.068C802.975 517.273 803.486 518.543 805.143 519.014C806.472 519.403 816.106 521.184 816.167 521.512L813.918 523.314L804.12 520.836L802.279 522.147L799.17 522.638L821.813 528.987C824.533 530.256 826.517 531.936 827.008 533.984C827.785 537.567 821.915 547.766 817.62 552.312C817.108 552.865 815.492 553.582 815.308 553.889C814.838 554.544 816.883 554.462 816.392 554.954C815.983 555.363 813.938 556.101 813.815 556.531C813.733 556.858 820.381 560.667 821.486 560.319C832.674 551.206 836.683 557.923 831.508 563.145C823.981 570.681 807.618 576.927 798.843 584.177C796.675 585.979 794.65 589.133 792.052 591.14C783.359 597.857 760.512 607.768 748.853 614.547C746.153 615.96 742.758 614.997 742.533 616.943L746.889 617.209C743.412 619.073 741.305 618.376 737.951 619.482C728.931 622.411 711.34 631.483 701.686 635.456C696.511 637.565 692.44 639.674 692.706 636.766H692.747V636.848ZM716.965 610.881C720.319 608.321 726.66 605.086 730.301 602.628C736.458 598.451 742.287 593.945 747.871 589.747C750.264 588.314 754.314 587.413 756.462 587.781C754.478 590.402 749.119 593.167 745.233 595.809C740.18 599.27 726.517 609.059 719.931 611.598C716.065 613.072 714.654 612.663 716.944 610.902H716.965V610.881ZM653.066 676.618C647.85 676.782 657.177 669.266 661.043 667.484L665.032 667.71C665.605 669.123 657.587 676.454 653.066 676.598V676.618ZM515.41 791.504C513.937 791.504 502.974 790.07 502.687 789.784C501.194 788.145 507.985 783.333 513.753 782.206C517.333 781.51 523.98 781.428 527.498 779.196C532.448 776.022 524.471 774.138 529.339 771.066C535.169 770.452 538.748 771.086 536.007 774.097C535.066 775.1 533.328 775.96 532.182 777.189C529.135 780.384 528.091 791.217 515.43 791.504H515.41ZM628.317 712.333C625.514 713.848 619.89 715.384 617.946 716.756C615.881 718.231 616.924 719.767 614.06 721.753C605.674 727.569 589.924 736.191 580.065 742.109C575.954 744.566 571.966 748.642 564.888 749.973C564.193 749.297 564.888 748.437 565.993 747.413C580.168 734.266 603.383 721.528 622.937 708.79C626.537 706.456 628.828 703.937 632.551 701.582C633.41 701.049 641.714 696.441 642.348 696.216C644.435 695.438 646.071 695.888 646.603 696.421C648.587 698.653 634.146 709.138 628.255 712.333H628.317ZM659.837 686.141C663.191 685.854 659.632 689.438 657.341 689.376C656.38 689.376 656.462 686.448 659.837 686.141ZM631.712 718.517C627.192 719.091 631.589 713.05 633.246 711.698C634.882 710.326 643.166 705.35 645.846 703.998C649.405 702.155 650.264 702.831 650.796 704.1L641.796 709.773H644.353C643.146 711.002 640.466 711.575 638.728 712.763C636.478 714.278 635.353 718.087 631.733 718.538L631.712 718.517ZM625.944 731.071C624.717 732.812 620.769 736.785 618.826 738.791C616.044 741.679 612.076 745.57 608.988 748.437C607.535 749.829 598.229 758.041 597.001 758.328L594.772 758.001C595.692 755.4 597.288 752.983 599.947 750.116C605.244 744.321 611.585 739.57 618.069 734.04C619.562 732.771 617.803 731.788 621.976 730.293C625.351 729.085 626.905 729.617 625.924 731.03L625.944 731.071ZM676.323 698.51H675.095L674.441 697.302L675.32 696.626L678.716 696.667L676.323 698.51ZM682.786 705.595H681.047L682.847 704.203H684.586L682.786 705.595ZM763.048 690.195L759.469 690.605L761.678 689.212L765.237 688.823L763.048 690.195ZM753.987 687.246C753.68 687.349 753.496 687.431 753.251 687.472C752.453 687.758 751.635 687.984 750.878 688.209C749.344 688.66 747.851 689.09 746.317 689.54C734.371 692.878 722.59 694.987 711.892 695.868C709.683 696.052 707.495 696.175 705.388 696.257C704.488 696.319 703.67 696.319 702.852 696.339C702.708 696.339 702.586 696.339 702.483 696.339C701.379 696.36 700.192 696.38 699.068 696.38C697.943 696.38 696.756 696.339 695.693 696.257C691.868 696.093 688.452 695.725 685.384 695.151C684.647 695.028 683.911 694.906 683.318 694.701C678.225 693.615 674.277 691.895 671.802 689.581C671.536 689.335 671.311 689.11 671.066 688.905C670.82 688.7 670.616 688.434 670.391 688.209C670.391 688.168 670.391 688.127 670.329 688.107C667.507 684.707 667.364 680.407 670.064 675.574L666.791 676.413C667.67 675.553 667.895 674.754 669.123 673.853C670.002 673.198 670.943 673.198 671.659 673.055C673.766 670.065 676.957 666.932 681.15 663.696C684.238 661.3 687.736 658.986 691.602 656.754L691.561 656.61L691.786 656.651C695.14 654.685 698.781 652.801 702.627 650.999C701.645 651.101 700.99 651.101 702.156 650.426C704.324 649.176 709.07 647.149 711.463 645.736C719.849 640.78 726.251 634.309 733.88 629.271C736.58 627.489 741.939 625.093 745.008 623.23C747.892 621.469 756.748 614.322 761.146 613.953C762.25 613.851 762.475 614.281 762.169 614.731C760.041 617.742 738.483 627.612 734.453 631.565L735.517 632.363L741.428 631.483C739.362 633.203 736.192 635.149 732.94 636.766C728.337 638.999 721.69 640.412 719.747 642.889C723.265 643.258 732.06 638.507 733.042 638.405C734.228 638.282 734.965 638.855 736.458 638.794C751.86 634.718 767.65 632.322 781.375 632.404H781.436C781.723 632.404 781.948 632.384 782.295 632.322C785.118 631.995 785.098 628.964 790.6 629.701C790.129 630.377 787.777 631.299 787.327 631.77C787.02 632.056 787.552 632.363 788.513 632.671H788.554C799.579 633.572 807.024 636.377 810.522 640.514C811.013 640.616 811.463 640.678 811.524 640.821C811.565 640.903 811.647 641.476 811.729 642.173C811.708 642.173 811.729 642.214 811.708 642.255C814.981 648.153 811.258 656.221 799.784 665.068C788.309 673.915 771.843 681.594 753.926 687.185L754.028 687.246H753.987ZM828.133 644.2C828.522 643.893 829.319 643.647 829.892 643.647C830.485 643.647 830.629 643.913 830.24 644.221C829.831 644.548 829.054 644.774 828.46 644.774C827.888 644.774 827.724 644.528 828.154 644.2H828.133ZM822.611 649.299H824.349L821.956 651.163H820.217L822.611 649.299ZM789.25 678.338L787.45 679.71C781.641 680.652 784.893 678.051 789.25 678.338ZM808.477 664.187C810.277 662.754 809.949 660.604 814.143 659.477C814.92 659.498 811.545 666.276 809.581 667.341L808.477 664.167V664.187ZM806.759 666.379C806.349 666.706 805.552 666.952 804.938 666.932C804.365 666.932 804.222 666.665 804.652 666.338C805.04 666.03 805.838 665.785 806.411 665.785C807.004 665.785 807.147 666.051 806.759 666.358V666.379ZM795.222 679.178C792.502 680.202 782.091 686.448 780.045 684.769C783.4 683.396 786.898 682.291 790.211 680.796C794.609 678.809 794.629 677.376 801.318 677.089C799.947 678.359 797.431 678.338 795.222 679.178ZM894.159 605.618C889.598 607.748 887.614 607.277 888.841 605.209C893.279 597.427 903.036 589.624 906.595 581.248C907.168 579.917 906.288 574.511 914.143 573.753C915.84 573.569 918.581 575.33 919.379 575.904C920.77 576.968 924.697 580.532 923.368 582.088C921.097 584.668 915.288 587.228 912.527 589.645C905.859 595.44 906.943 599.577 894.139 605.618H894.18H894.159ZM965.933 561.486C960.43 563.657 948.362 566.442 947.053 564.169C946.46 563.104 948.485 561.548 951.328 560.299C952.678 559.705 966.587 556.142 969.389 555.384C971.435 554.851 976.446 552.414 977.939 553.479C979.207 554.38 969.308 560.135 965.912 561.486H965.933ZM987.225 544.653C982.521 544.776 980.005 542.523 972.989 545.001C972.007 545.329 961.146 549.977 960.655 550.285C959.326 551.104 959.919 552.517 959.285 553.377C957.444 555.998 949.078 556.613 952.821 552.885C953.987 551.698 960.41 547.336 962.558 546.066C966.833 543.527 978.328 539.144 980.68 537.363C982.132 536.257 981.253 534.618 982.746 533.164C988.023 527.881 997.33 523.601 1003 527.307C1004.98 528.618 1004.04 531.977 1005.55 532.98C1009.3 535.519 1014.06 532.98 1006.53 539.554C1005.59 540.332 993.423 550.162 991.5 548.482C992.666 546.988 995.612 544.53 992.952 544.018C991.357 543.711 989.087 544.653 987.225 544.694V544.653ZM959.08 571.439C958.917 571.255 962.169 570.251 962.844 570.579C963.008 570.763 959.755 571.767 959.08 571.439ZM958.16 575.166H959.428L958.221 576.108H955.665L958.14 575.166H958.18H958.16ZM849.589 659.887C846.869 660.829 849.324 656.365 850.735 655.689C852.248 656.037 851.737 659.17 849.589 659.887ZM788.595 709.671L787.798 708.995C793.197 707.193 796.368 703.998 801.829 702.81L788.595 709.65V709.671ZM843.208 669.184C840.037 669.143 844.967 664.187 849.037 665.027C846.071 666.44 847.524 669.246 843.208 669.184ZM989.046 561.753C987.9 562.572 984.055 563.616 983.564 562.9L984.975 560.503C984.239 560.503 963.13 565.009 975.812 560.872C982.746 558.599 997.616 556.633 1004.77 555.63C997.861 558.415 991.48 557.411 989.087 561.753H989.046ZM923.552 619.626L914.654 620.465L917.599 618.192L925.29 618.274L923.531 619.646H923.552V619.626ZM1001.95 559.807L997.698 559.766C999.58 558.722 1001.6 558.804 1003.18 558.886L1001.97 559.828L1001.95 559.807ZM1012.06 557.35L1009.4 558.046L1011.2 556.674H1012.94L1012.08 557.35H1012.06ZM1017.6 557.759C1017.01 557.759 1016.86 557.493 1017.27 557.165C1017.66 556.858 1018.46 556.613 1019.05 556.613C1019.62 556.613 1019.77 556.879 1019.36 557.186C1018.95 557.514 1018.15 557.759 1017.58 557.739L1017.6 557.759ZM887.736 661.3H885.18L887.614 660.378H888.882L887.716 661.3H887.757H887.736ZM864.357 685.321H863.519L867.098 682.557H867.937L864.357 685.321ZM874.973 677.519L871.25 680.734C867.63 681.123 872.662 678.113 874.973 677.519ZM1030.12 563.309C1033.57 557.78 1039.38 550.981 1041.72 545.677C1041.94 545.226 1042.66 541.458 1042.37 541.335C1040.55 540.209 1033.33 543.015 1030.06 543.711C1024.43 544.919 1017.35 545.964 1011.52 547.233C1009.72 547.499 1009.01 546.988 1010.09 546.127C1013.88 543.24 1039.47 539.103 1045.85 536.953C1051.45 535.028 1047.22 532.14 1054.36 530.748C1061.04 529.478 1057.49 533.021 1061.41 532.939C1063.66 532.898 1077.96 529.724 1078.33 530.338C1078.98 531.588 1059.92 535.806 1057.55 537.731C1058.61 541.233 1053.15 546.271 1049.96 550.571C1046.34 555.445 1042.51 563.145 1031.63 568.224C1021.57 572.914 1029.54 564.251 1030.14 563.33H1030.12V563.309ZM910.052 660.153L911.259 659.211L915.513 659.252C913.611 660.296 911.606 660.215 910.031 660.133L910.052 660.153ZM872.028 723.289C874.053 720.811 878.021 718.231 879.678 716.244C884.852 709.998 885.159 705.002 892.911 697.547C899.498 691.219 905.041 687.595 915.268 690.564C918.581 690.175 925.372 683.499 931.386 685.751C929.974 688.741 923.777 691.567 920.054 694.619L922.038 695.11C916.086 695.848 916.025 697.302 911.668 699.431C902.811 703.752 894.977 706.415 887.696 711.534C879.105 717.535 881.989 720.32 876.528 725.48C875.239 726.75 871.639 730.088 868.285 730.252C867.487 730.129 871.189 724.333 872.048 723.289H872.007H872.028ZM827.867 770.574C835.885 768.056 843.146 770.8 837.01 773.974C830.526 777.353 820.463 772.909 827.867 770.574ZM826.251 780.732C830.956 780.343 823.224 787.592 819.195 788.084C813.406 788.801 821.465 782.022 826.251 780.732ZM818.704 794.617C815.39 799.265 791.336 808.583 804.877 797.524C806.881 795.866 811.361 791.524 815.697 791.524C818.192 791.483 819.501 793.408 818.704 794.596V794.617ZM1062.21 637.893C1058.73 640.412 1051.06 643.77 1050.55 645.92C1049.81 648.931 1050.55 648.644 1044.76 652.678C1031.88 661.709 1015.92 667.935 999.886 676.106C993.648 679.301 986.325 683.048 979.882 686.1C968.919 691.281 947.381 699.513 938.892 704.326C929.831 709.486 923.695 715.671 913.243 720.995C906.513 724.415 896.634 727.549 890.845 731.276C883.155 736.273 880.455 746.205 866.362 744.751C862.926 746.819 867.63 746.717 869.062 747.618C871.844 749.502 868.571 752.389 863.335 755.482C860.86 756.956 855.562 758.799 853.987 759.844C851.389 761.584 851.778 764.656 844.803 766.458C832.081 769.714 839.485 759.393 828.44 760.622C831.058 757.489 835.66 756.485 840.631 754.232C851.778 749.215 863.539 740.573 872.457 734.798C875.607 732.73 881.518 729.781 883.973 727.856C885.855 726.381 884.934 724.968 886.264 723.269C890.007 718.497 899.007 711.37 911.79 709.015C917.415 707.971 921.997 708.626 927.642 705.268C931.283 703.097 929.545 702.278 931.815 700.21L923.183 700.005C921.568 699.575 925.372 697.117 926.824 696.134C934.086 691.035 944.722 685.854 952.453 680.98C960.39 675.963 963.274 673.464 973.603 668.406C974.646 667.894 982.316 664.495 982.889 664.372C984.423 664.024 988.268 664.638 991.603 664.085C997.677 663.082 1015.9 652.699 1020.4 649.955C1025.05 647.149 1032.12 643.135 1034.25 640.493C1037.3 636.746 1035.48 636.131 1026.99 637.217C1022.51 637.811 1012.67 640.678 1010.17 640.719C1007.07 640.78 1015.88 634.637 1017.95 633.183C1025.95 627.51 1033.64 622.493 1041.22 616.595C1043.23 615.018 1054.79 606.622 1056.85 605.802C1055.46 606.396 1052.84 606.233 1053.76 605.536C1054.76 604.758 1060.12 604.41 1056.85 605.802C1057.16 605.7 1059.29 606.089 1060.98 603.98L1057.81 604.41C1058.26 602.321 1062.82 601.359 1065.05 599.577C1066.04 598.778 1063.38 598.573 1065.34 597.263L1068.63 596.792C1072.15 593.351 1080.31 588.58 1083.44 585.324C1084.08 584.648 1086.71 578.73 1086.82 577.951C1087.06 576.293 1083.03 576.231 1086.98 573.917C1090.4 573.63 1097.82 574.081 1100.99 572.361C1104.16 570.64 1103.24 569.35 1104.49 567.814C1106.25 565.664 1111.28 561.527 1111.81 560.032C1112.14 559.009 1109.7 555.077 1107.54 555.056C1100.83 555.548 1088.62 560.872 1084.38 563.842C1080.43 566.627 1078.98 569.309 1074.48 572.115C1071.19 574.183 1064.34 576.6 1061.25 579.016C1059.55 580.347 1058.96 583.337 1057.34 585.18C1055.28 587.576 1049.18 593.229 1042.7 594.703C1038.93 595.543 1037.64 593.331 1038.65 592.061C1039.63 590.771 1041.94 590.034 1042.78 589.153C1043.43 588.437 1042.45 587.167 1043.33 585.938C1051.72 574.593 1061.13 560.647 1065.05 550.018C1066.12 547.172 1064.32 541.172 1067.84 538.407C1071.95 535.171 1076.32 535.11 1081.36 533.41C1092.83 529.54 1100.73 526.14 1113.35 523.662C1123.27 521.717 1119.09 522.311 1127.81 519.116C1132.82 517.273 1155.24 511.068 1159.41 511.006C1167.71 510.863 1162.58 515.266 1163.64 517.826C1167.47 517.355 1168.92 515.798 1173.26 515.143C1175.96 514.734 1181.11 515.061 1182.77 515.471C1186.35 516.31 1182.17 519.341 1182.64 519.976C1183.73 521.491 1192.65 522.413 1194.92 524.072C1206.04 532.14 1181.03 551.042 1156.65 562.469C1148.73 566.197 1148.22 564.784 1147.2 562.265C1145.93 559.09 1146.56 554.749 1145.34 551.431C1145.15 550.919 1138.71 543.936 1146.67 544.796C1149.49 545.124 1148.32 548.544 1153.07 545.779L1154.97 546.23L1150.82 548.175C1153.15 550.326 1148.98 559.009 1154.99 559.316C1159.31 559.521 1162.82 555.609 1165.56 553.93C1174.93 548.134 1185.81 541.294 1189.03 535.54C1189.27 535.028 1188.62 527.246 1188.13 526.734C1187.68 526.324 1183.65 523.376 1183.26 523.294C1180.6 522.741 1173.44 523.171 1169.49 523.416C1167.18 523.13 1172.99 519.751 1164.93 520.283C1160.27 520.59 1153.72 525.608 1148.16 526.079L1150.51 526.57L1149.82 527.471L1128.75 531.69C1131.08 534.086 1137.13 534.721 1139.4 537.178C1142.39 540.434 1135.7 549.445 1138.93 553.295L1134.97 567.732C1136.54 569.637 1149.67 565.869 1152.8 567.978C1155.17 569.535 1145.83 579.897 1142.1 582.682C1136.09 587.187 1125.88 590.894 1119.99 594.703C1115.78 597.468 1112.85 600.642 1108.6 603.386C1105.61 605.352 1098.58 608.506 1095.49 610.369C1091.58 612.724 1087.16 616.513 1091.15 617.393C1093.71 617.946 1106.45 615.53 1096.84 619.421L1086.71 619.851C1085.36 620.24 1075.03 627.346 1073.21 628.698C1069.41 631.503 1065.91 635.251 1062.25 637.913H1062.29L1062.21 637.893ZM1040.2 659.846C1037.91 659.846 1046.24 654.624 1047.81 653.682C1064.91 643.565 1081.21 635.763 1097.37 624.766C1099.44 623.353 1109.81 614.445 1112.94 614.445C1117.07 614.485 1103.9 622.39 1101.89 623.906C1089.64 633.101 1069.04 646.944 1051.33 655.443C1047.91 657.081 1044.35 658.74 1040.18 659.846H1040.2ZM1016.54 682.475H1013.98L1015.78 681.062C1017.56 680.939 1017.91 681.635 1016.56 682.475H1016.54ZM1028.71 705.882C1029.3 705.882 1029.42 706.148 1029.01 706.456C1028.6 706.783 1027.87 707.008 1027.25 707.008C1026.64 707.008 1026.52 706.763 1026.95 706.435C1027.34 706.128 1028.09 705.882 1028.71 705.882ZM1007.68 721.385C1002.16 724.886 991.439 730.518 983.523 733.057C973.235 736.334 964.808 737.911 960.676 734.9C958.365 733.221 961.76 731.132 962.496 729.105C964.03 725.132 961.412 724.292 966.608 719.029C967.733 717.883 974.196 712.026 976.405 711.534L979.576 711.575C977.285 715.487 974.176 720.361 978.553 722.49C982.194 722.06 989.7 725.91 993.341 723.146C995.755 721.323 994.834 717.924 1004.32 716.654C1012.38 715.589 1013.3 717.842 1007.74 721.385H1007.72H1007.68ZM1010.42 711.227C1008.72 712.64 1005.82 714.197 1002.55 715.057C1001.15 715.405 984.975 718.026 983.748 718.067C976.466 718.497 981.437 716.265 982.623 714.319C985.241 709.978 988.432 707.93 991.459 704.162C993.3 701.909 993.771 701.233 995.857 698.94C996.471 698.284 995.468 697.691 996.634 696.482C999.211 693.861 1013.94 683.97 1019.75 682.188C1027.44 679.792 1028.67 682.27 1027.77 684.625C1026.37 688.311 1022.94 693.963 1020.55 697.854C1018.36 701.397 1014.8 707.602 1010.36 711.227H1010.42ZM1080.64 663.143C1081.83 662.488 1082.07 661.546 1082.87 661.054C1086.61 658.638 1091.71 661.709 1080.64 663.143ZM1110.4 646.166L1105.27 646.105C1106.47 644.671 1110.44 644.978 1112.18 644.794L1110.38 646.166H1110.4ZM1076.34 736.723C1068.41 738.198 1069.88 735.023 1069.35 733.119C1068.22 729.289 1069.41 730.068 1071.52 725.828C1073.15 722.552 1071.39 721.671 1075.28 717.494C1090.01 701.786 1096.49 688.659 1113.28 672.686C1115.02 671.027 1115.72 667.403 1121.79 666.174C1134.09 663.737 1112.85 677.171 1110.75 679.526C1105.47 685.342 1097.33 697.342 1095.3 702.769C1093.08 708.544 1101.91 714.053 1093.46 721.507C1091.52 723.207 1086.2 726.197 1085.53 727.016C1083.24 729.617 1094.02 723.862 1094.88 723.822C1096.2 723.576 1097.29 723.862 1097.53 724.252C1099.11 726.77 1082.95 735.494 1076.38 736.744L1076.34 736.723Z" fill="#010301"/>
<path d="M730.73 552.968C732.142 552.558 733.287 552.435 734.003 552.743C735.782 553.623 734.085 555.118 731.508 556.695C722.528 562.306 722.896 555.18 730.73 552.968Z" fill="#010301"/>
<path d="M619.031 676.352C619.133 676.434 617.988 678.482 617.538 678.83C615.001 680.898 610.215 682.086 606.901 681.758C607.638 680.304 617.313 675.184 619.031 676.352Z" fill="#010301"/>
<path d="M740.855 565.624C741.367 565.951 737.664 569.085 736.192 569.863C732.101 572.013 730.833 569.187 733.165 567.61C734.842 566.443 739.546 564.805 740.855 565.624Z" fill="#010301"/>
<path d="M750.019 557.268C747.953 559.357 743.555 560.565 739.424 561.794C738.544 559.889 746.603 555.998 750.019 557.268Z" fill="#010301"/>
<path d="M733.042 496.753L727.826 498.78L730.321 499.518L733.144 497.674C736.417 498.33 733.226 508.876 730.894 509.777C724.41 510.863 721.628 509.962 721.853 507.525C721.956 506.276 727.376 496.896 729.401 496.241L733.062 496.753H733.021H733.042Z" fill="#010301"/>
<path d="M832.981 488.602C827.786 489.012 828.788 487.722 829.729 485.756C833.063 485.613 836.131 486.534 832.981 488.602Z" fill="#010301"/>
<path d="M649.119 661.382C650.387 661.382 650.694 661.955 649.814 662.651C648.935 663.348 647.176 663.88 645.908 663.86C644.639 663.839 644.333 663.286 645.212 662.59C646.092 661.894 647.851 661.361 649.119 661.382Z" fill="#010301"/>
<path d="M732.612 573.425L730.812 574.797C729.115 574.879 728.276 574.797 728.317 574.06L729.196 573.384L732.592 573.425H732.612Z" fill="#010301"/>
<path d="M810.522 530.543C810.706 531.178 809.622 531.977 807.883 532.612C803.077 534.107 800.008 530.379 803.915 528.454C805.736 527.901 810.317 529.908 810.522 530.543Z" fill="#010301"/>
<path d="M1039.85 628.984C1039.69 628.697 1051.27 622.144 1052.99 621.181C1056.89 619.011 1071.01 611.352 1075.22 610.225C1082.21 608.321 1085.34 609.611 1082.64 612.56C1076.79 618.99 1056.79 623.373 1044.99 628.328L1039.85 629.004V628.984Z" fill="#010301"/>
<path d="M1004.37 668.344C1004.41 670.248 987.839 674.918 984.771 674.139C984.075 672.829 1002.71 666.071 1004.37 668.344Z" fill="#010301"/>
<path d="M1136.58 528.228C1134.6 529.744 1127.05 531.014 1125.19 530.809C1123.88 530.665 1121.28 527.676 1123.27 527.123C1129.42 526.59 1131.22 528.351 1136.6 528.208H1136.58V528.228Z" fill="#010301"/>
<path d="M984.485 677.498C985.692 677.457 985.753 677.949 985.835 678.399C985.63 679.71 976.324 682.72 974.462 682.474C971.987 682.126 980.128 677.662 984.485 677.519V677.498Z" fill="#010301"/>
<path d="M1311.08 386.024C1313.1 389.3 1304.53 398.802 1297.76 403.226C1296.23 404.229 1294.73 405.089 1292.34 405.704C1288.06 404.782 1295.74 401.567 1298.27 399.478C1299.99 398.086 1306.41 391.368 1307.27 390.058C1308.4 388.379 1306.13 387.129 1307.62 385.532C1309.11 383.935 1310.89 385.573 1311.08 385.983V386.024Z" fill="#010301"/>
<path d="M1271.25 416.68C1278.37 418.483 1268.76 422.804 1259.63 424.933C1259.7 422.455 1264.42 418.749 1271.25 416.68Z" fill="#010301"/>
<path d="M1281.5 408.386C1280.89 410.455 1266.87 413.711 1268.51 411.724C1269.76 410.188 1279.27 407.813 1281.5 408.386Z" fill="#010301"/>
<path d="M1096.7 478.669C1101.85 478.239 1099.66 484.014 1093.53 484.67C1088.15 485.243 1094.1 480.226 1096.7 478.669Z" fill="#010301"/>
<path d="M1081.31 728.162L1079.64 729.514L1071.95 729.432L1074.28 728.019C1077.53 727.446 1079.6 727.589 1081.31 728.183V728.162Z" fill="#010301"/>
</g>
<path d="M1274.11 704.559C1274.03 703.837 1274.63 703.436 1274.92 703.048C1277.46 699.72 1277.93 700.241 1280.2 698.557C1282.42 696.913 1285.72 692.556 1287.96 690.698C1291.59 687.663 1295.24 684.322 1298.84 679.844C1301.06 677.064 1303.29 672.372 1305.65 670.247L1302.93 676.155C1297.39 683.573 1292.69 689.321 1286.74 694.668C1283.8 697.314 1280.79 699.627 1277.85 702.434C1276.69 703.556 1275.25 704.332 1274.11 704.586L1274.11 704.559Z" fill="#010301"/>
<path d="M1317.26 560.208C1317.51 559.598 1323.1 558.048 1323.92 557.839C1325.78 557.369 1332.33 556.045 1333.34 557.543C1335.03 560.016 1334.02 564.666 1331.56 567.383C1326.16 573.357 1322.21 564.51 1317.91 563.238L1317.26 560.225L1317.26 560.208Z" fill="#010301"/>
<path d="M1284.26 596.869C1282.71 600.038 1278.57 594.465 1279.14 590.721C1280.22 587.987 1286.11 591.766 1284.26 596.869Z" fill="#010301"/>
<path d="M1401.84 471.09C1400.55 472.03 1399.38 468.042 1399.5 466.196C1399.59 464.907 1401.99 457.888 1402.5 458.55C1403.04 462.626 1401.65 466.962 1401.85 471.072L1401.84 471.09Z" fill="#010301"/>
<path d="M1276.37 596.05C1276.42 596.956 1276.02 597.826 1275.66 598.61C1274.58 600.613 1271.93 598.105 1272.1 596.224C1272.33 593.681 1276.16 592.811 1276.35 596.102L1276.35 596.067L1276.37 596.05Z" fill="#010301"/>
<path d="M1441.82 356.962C1442.28 360.393 1437.49 368.178 1436.84 364.347C1436.27 360.968 1440.5 357.467 1441.82 356.962Z" fill="#010301"/>
<path d="M1236.52 757.793L1235.39 758.681L1235.32 752.342L1236.52 751.889C1237.06 753.544 1236.98 755.459 1236.52 757.811L1236.52 757.793Z" fill="#010301"/>
</g>
<defs>
<clipPath id="clip0_63_606">
<rect width="1440" height="1024" fill="white"/>
</clipPath>
<clipPath id="clip1_63_606">
<rect width="1017" height="450" fill="white" transform="translate(314.346 379)"/>
</clipPath>
</defs>
</svg>