<svg xmlns="http://www.w3.org/2000/svg" fill="none" viewBox="33.42 233.45 245.58 232.5">
    <path
        d="M268.951 382.423C268.618 382.426 268.707 381.984 268.667 381.738C268.354 379.72 268.766 379.426 269.016 377.71C269.258 376.041 268.845 373.399 269.007 371.698C269.273 368.936 269.422 366.12 269.073 363.282C268.856 361.518 267.843 359.612 267.951 357.811L269.258 360.153C270.012 364.565 270.417 368.282 270.132 372.846C269.993 375.099 269.691 377.376 269.622 379.64C269.598 380.532 269.323 381.608 268.945 382.422L268.951 382.423Z"
        fill="#010301" />
    <path
        d="M270.6 423.688C270.346 423.313 269.858 423.226 269.558 422.789C269.1 422.113 268.58 420.301 268.02 419.317C265.889 415.549 264.692 413.286 263.977 408.874C263.579 406.435 262.924 402.38 262.968 400.043C262.983 399.126 263.384 396.425 263.697 395.611C264.145 394.418 265.555 393.516 266.287 392.594C267.759 390.751 268.539 387.925 269.363 385.721C268.838 385.54 268.929 385.718 268.744 386.077C268.449 386.634 268.344 387.301 268.041 387.867C267.434 388.96 266.496 390.109 265.913 391.258C265.563 391.765 265.079 391.807 264.498 391.64L265.388 388.323C264.607 386.668 263.796 385.07 263.097 383.371C263.025 383.199 262.738 383.098 262.657 382.859C261.771 380.484 262.086 377.238 261.193 374.991C260.879 374.219 259.95 374.073 259.795 373.606C259.6 372.981 259.907 370.275 259.838 369.388C259.772 368.632 258.898 364.251 258.2 366.764C257.953 367.644 257.715 369.432 257.657 370.372C257.587 371.299 258.059 373.415 257.666 373.961C257.237 374.553 256.443 374.094 255.874 374.251C255.17 374.452 254.913 375.754 254.57 376.281C251.415 381.025 249.335 383.777 244.903 387.424C244.305 387.914 244.151 388.622 242.88 388.488C242.555 388.414 242.27 388.09 242.225 387.749C242.002 386.125 244.799 381.854 245.58 380.131C246.951 377.064 249.095 372.04 249.977 368.919C250.411 367.399 249.944 365.543 251.852 364.914C253.933 364.236 256.921 363.786 259.068 364.136C260.144 363.367 263.461 363.237 264.283 362.556C265.703 361.384 263.188 359.791 262.669 359.148C260.686 356.644 260.027 353.517 257.99 351.165C257.541 351.042 257.7 351.143 257.609 351.45C257.351 352.273 257.649 355.96 258.088 356.689C258.796 357.913 259.934 357.445 260.913 358.028C263.593 359.605 260.032 363.917 257.246 361.083C256.122 359.955 255.33 356.58 254.78 354.896C254.622 354.395 254.64 352.809 254.055 352.674C253.844 352.631 253.238 353.107 252.789 352.65L253.293 351.583L254.25 352.186C254.58 351.257 254.273 350.233 254.436 349.343C254.574 348.61 255.084 348.115 255.189 347.594C255.409 346.525 253.773 345.146 253.414 343.911C252.444 340.496 251.979 336.947 250.524 333.639C249.963 332.386 248.59 331.392 248.942 329.901C249.54 329.476 252.191 331.944 252.792 332.397C254.796 333.867 256.882 335.297 258.682 337.103C263.872 342.313 264.407 350.239 267.33 356.771C267.469 357.062 267.692 357.304 267.889 357.561C268.093 357.584 268.064 357.201 268.092 357.022C268.331 355.353 266.088 351.209 265.459 349.545C264.245 346.298 264.268 343.653 262.222 340.525C259.502 336.372 256.169 333.839 252.411 330.882C251.185 329.912 249.97 327.972 248.916 327.028C248.48 326.635 247.369 326.299 247.294 325.812C247.46 323.937 248.731 325.496 249.558 325.96C251.423 326.989 253.316 328.074 255.2 329.049C255.611 329.265 257.656 330.331 257.933 330.158C258.08 329.77 257.807 329.577 257.614 329.297C256.689 328.071 253.196 325.59 251.789 324.535C251.049 323.999 249.183 323.456 249.274 322.184C249.297 321.829 249.734 321.543 249.839 321.15C250.272 319.563 250.447 318.242 251.178 316.692C252.496 313.905 255.804 311.477 256.218 308.778C256.528 306.657 255.498 303.416 255.101 301.388C254.788 299.792 255.586 297.814 255.841 296.255C256.295 293.572 256.369 290.754 256.629 288.071C256.734 286.856 257.105 284.971 256.987 283.86C256.9 282.96 255.401 279.602 254.958 278.538C254.595 277.68 255.091 277.144 253.519 277.209C253.703 277.064 253.754 276.888 253.701 276.677C253.264 274.76 251.48 271.283 249.941 270.017C249.269 269.468 248.434 269.327 247.88 268.915C247.335 268.518 246.846 267.479 246.021 266.874C244.622 265.833 242.852 264.81 241.387 263.855C240.589 263.329 240.028 262.345 238.936 262.334C238.66 263.673 240.464 263.936 241.294 264.51C243.154 265.783 245.234 267.666 247.29 269.144C250.622 271.535 250.402 272.604 252.109 276.026C252.859 277.526 255.524 282.051 255.681 283.402C255.792 284.348 255.663 285.992 255.642 287.026C255.571 291.131 255.278 298.668 252.256 301.748C251.737 302.284 251.313 302.086 250.928 302.393C250.371 302.834 250.288 304.118 249.693 304.803C248.185 306.532 245.365 305.915 243.376 306.013C242.382 306.064 240.146 306.553 239.306 306.444C237.428 306.192 237.738 303.736 235.989 303.179C235.886 304.738 236.562 306.584 235.272 307.81C233.27 306.954 233.281 308.61 232.199 309.618C230.916 310.822 229.702 309.843 228.388 309.581C227.536 309.405 225.949 310.127 226.652 308.337C226.89 307.728 227.767 307.389 227.811 306.628C227.892 305.141 222.915 302.921 227.422 301.715C227.703 301.1 227.137 301.175 227.036 300.792C226.892 300.26 226.915 299.693 226.829 299.151C226.746 298.717 226.047 297.915 226.66 297.667C226.983 297.543 227.274 297.891 227.623 297.893C228.167 297.893 228.71 297.46 229.244 297.941C229.927 298.567 228.665 300.873 229.934 301.483C231.182 302.099 231.466 301.129 232.353 300.793C234.526 299.946 236.763 299.637 238.866 299.029C239.765 298.759 240.421 297.835 241.412 297.593C242.022 297.44 242.609 297.565 243.105 297.449C243.411 297.369 243.42 296.957 243.59 296.984C243.812 297.018 244.02 297.353 244.343 297.23C244.76 297.069 245.259 295.828 245.929 295.966L245.528 295.558L246.017 295.408L244.272 293.46C244.418 292.531 245.02 292.163 245.078 291.102C245.138 290.172 244.386 289.234 244.555 288.492C244.676 287.992 245.55 286.498 245.612 286.107C245.668 285.749 245.362 285.409 245.379 285.109C245.391 284.701 245.857 284.354 245.908 283.886C245.988 283.163 245.128 282.217 245.294 280.95C245.369 280.325 245.759 279.858 245.781 279.234C245.782 279.083 245.309 276.449 245.24 276.32C245.117 276.074 244.441 275.741 244.184 275.386C243.448 274.407 243.71 273.217 243.651 272.082C242.531 271.679 241.759 273.071 240.615 272.482C239.987 271.444 241.042 269.62 239.717 269.153C239.258 269.793 238.226 271.263 237.489 271.462C236.82 271.649 236.379 270.996 235.916 271.192L233.809 273.28C231.729 272.166 231.325 273.961 229.966 275.106C229.39 275.6 226.693 277.789 226.1 276.928C225.276 275.752 227.565 275.408 228.176 274.835C229.777 273.346 229.642 271.014 230.262 269.211C230.537 268.424 231.578 267.734 231.656 267.303C231.766 266.749 230.735 265.419 231.159 264.589L223.872 263.261C222.819 263.818 221.402 262.765 220.474 262.652C220.292 262.633 220.347 263.4 219.819 263.025L219.912 262.37C218.527 262.412 218.142 261.215 219.302 260.524C219.673 260.3 222.367 259.581 222.811 259.585C223.355 259.585 225.244 259.708 225.735 259.818C227.9 260.256 229.99 262.754 232.512 261.768L232.622 261.126C232.01 260.954 227.884 258.911 227.737 258.675C227.583 258.414 227.527 256.761 227.255 256.137C226.713 254.887 225.206 253.925 224.991 252.401C224.858 251.441 225.224 249.532 225.613 248.651C225.866 248.064 226.603 247.737 227.137 247.443C227.328 246.567 224.617 247.543 224.321 247.703C219.654 250.2 219.455 254.597 217.881 258.867C217.598 259.643 216.303 260.562 216.196 260.969C215.851 262.264 218.276 262.376 218 264.472C217.718 266.536 215.884 266.399 214.405 267.256C214.143 267.409 212.208 268.821 212.073 268.984C211.298 269.91 210.972 271.716 210.233 272.769C209.773 273.409 208.812 273.951 208.328 274.534C207.687 275.297 206.842 277.574 206.092 277.791C205.572 277.936 205.109 277.485 204.523 277.502C203.9 277.522 203.459 278.188 202.956 278.162C202.312 278.126 202.276 277.513 201.892 277.335C200.1 276.449 199.192 278.854 198.309 278.532C197.468 278.225 196.633 272.143 193.818 273.569C193.283 275.257 192.413 276.158 192.219 277.963C191.923 280.66 193.296 282.983 192.026 285.613C191.56 286.587 190.677 287.358 190.373 288.476C189.311 289.238 188.72 287.816 188.028 287.395C186.71 286.594 184.794 285.948 183.399 284.971C180.732 283.105 182.317 280.816 182.458 278.265C182.537 276.938 181.891 272.677 181.412 271.447C181.286 271.135 179.6 268.549 179.372 268.339C179.124 268.117 178.816 267.809 178.45 267.85L177.738 268.733C177.755 269.32 178.948 269.927 179.233 270.34C179.437 270.631 180.84 274.482 180.86 274.839C180.889 275.405 180.613 277.437 180.389 277.897C179.634 279.453 177.873 277.61 177.116 277.393C176.329 277.161 174.624 276.893 173.765 276.781C173.352 276.726 168.691 276.891 170.671 275.829C171.678 275.295 175.681 275.914 175.904 275.732L175.997 275.077C174.745 274.339 173.533 274.818 172.222 274.117C169.772 272.803 171.727 272.148 171.9 270.373C172.077 268.618 170.341 268.152 172.927 267.153C173.481 266.938 175.223 266.91 174.32 266.023C172.83 264.535 171.667 266.611 171.054 266.797C170.792 266.874 170.478 266.608 170.155 266.646C166.894 267.03 163.376 275.833 163.409 278.733C163.41 279.478 164.055 280.348 164.141 281.182C164.223 281.983 164.217 284.706 163.203 284.806C162.19 284.897 161.764 281.544 160.302 281.177C158.069 281.863 157.921 285.09 156.924 286.588C155.743 288.378 153.183 289.069 151.689 290.647C150.648 291.757 148.35 296.441 147.729 296.721C146.357 297.316 145.668 296.246 144.788 295.826C144.415 295.639 142.955 295.679 143.234 294.955C145.893 293.492 146.739 290.729 148.78 288.578C149.548 287.76 151.153 286.735 151.63 285.904C151.96 285.309 152.985 280.382 153.09 279.437C153.319 277.497 150.771 268.788 149.976 266.526C149.084 263.977 142.586 254.878 140.414 253.51C137.119 251.427 133.583 249.552 130.033 248.065C129.451 247.823 128.862 247.924 128.271 247.552C127.577 247.141 126.463 245.378 126.831 244.506C126.211 244.862 124.61 246.436 123.857 245.769C123.391 245.361 124.711 244.131 124.651 243.399C124.615 242.94 123.198 241.53 122.913 240.868C122.634 240.23 122.307 237.825 123.427 238.29C125.216 239.047 124.593 244.188 125.523 244.754C126.017 244.021 126.757 244.009 126.834 243.036C126.866 242.565 125.95 238.512 125.748 238.014C125.596 237.655 124.384 236.267 124.049 236.05C122.888 235.297 121.354 234.632 120.062 234.15C119.22 233.844 119.087 233.393 117.85 233.458C117.24 233.481 113.469 234.911 112.782 235.275C110.991 236.248 108.861 238.484 108.128 240.401C106.904 243.557 108.231 247.34 106.214 250.092C105.935 250.482 105.51 250.435 105.241 250.684C103.101 252.702 99.6007 254.821 98.4298 257.513L96.5999 263.771C95.8657 265.277 92.2138 264.142 91.6924 263.118C91.4593 262.671 91.8511 259.903 91.8246 259.023C91.7041 255.236 89.6831 251.524 85.9316 250.331C85.6212 250.23 83.5006 249.713 83.3174 249.704C83.1001 249.702 79.5852 250.739 79.1805 250.902C75.7461 252.329 74.7151 256.27 73.0633 259.254C72.9426 260.023 74.3104 261.534 74.3309 262.726C74.3547 263.54 74.1666 265.704 74.0439 266.548C73.6716 268.918 71.644 269.132 70.1643 270.39C66.8447 273.226 64.4244 277.514 61.5948 280.484C59.9957 282.166 59.6494 279.669 58.4189 278.669C57.8609 278.213 55.835 276.946 55.2016 277.202C54.2429 277.786 54.7668 278.732 54.6255 279.422C54.4313 280.386 53.9612 281.176 53.9544 282.31C53.9489 283.521 54.8416 285.161 55.0008 286.351C55.409 289.419 50.441 292.657 49.8603 295.536C49.4355 297.695 50.0637 299.425 50.0154 301.328C49.9069 305.125 48.308 312.683 46.9359 316.236C45.578 319.762 43.8966 320.814 45.6386 325.043C46.0335 325.992 47.5622 329.018 48.0931 329.857C48.5021 330.505 49.3256 331.055 50.091 331.218C53.1688 331.852 56.3985 330.554 58.6976 328.486C59.5813 327.686 60.7842 322.797 62.2231 325.786C62.443 326.254 63.3867 332.062 63.5143 333.034C63.5953 333.693 63.7272 334.784 63.5633 335.408C63.192 336.807 60.8531 337.26 59.6729 338.017C56.5127 340.049 56.2789 342.776 57.6373 346.068C58.7743 348.84 60.743 349.904 63.734 349.727C63.4432 350.404 64.2026 350.815 64.3147 351.213C64.7682 352.817 63.6028 354.991 63.458 356.459C63.3403 357.629 64.0656 360.671 64.3999 361.921C64.7734 363.342 66.7915 367.828 66.7715 368.773C66.7696 369.269 66.6075 370.238 66.343 370.663C65.2421 372.489 61.5308 375.07 60.199 377.044L59.7291 378.168L61.2339 378.871L58.9079 378.906C58.2024 380.502 58.1467 382.578 58.6788 384.227C59.5217 386.877 61.7538 388.469 63.3379 390.618C65.9845 394.208 68.9094 400.664 70.2894 404.932C70.8688 406.763 70.6106 408.071 71.912 409.733C72.9873 411.113 74.0995 411.902 74.9209 413.639C76.7167 417.463 75.6943 422.252 80.2527 424.436C81.4415 425.01 82.8055 424.761 83.6308 425.173C84.6986 425.698 84.3354 427.109 85.7222 427.261C86.0519 427.303 88.7537 426.742 89.2706 426.62C91.1074 426.173 94.7722 425.022 95.2063 422.95C95.6389 420.825 94.2944 420.256 94.1554 418.938C94.0241 417.696 94.0656 415.92 94.026 414.64C94.0243 414.315 93.7522 413.97 93.7763 413.606C93.884 412.228 95.2442 413.243 95.8293 413.735C98.1195 415.67 99.6419 419.304 102.885 419.79C105.143 420.121 108.606 416.854 109.922 415.17C111.563 413.074 112.738 410.232 114.261 408.259C115.089 407.201 116.969 406.209 117.492 405.018C117.928 404.049 117.783 402.956 118.095 402C118.333 401.237 119.077 400.783 119.337 399.885C119.783 398.366 119.419 397.153 119.522 395.745C119.615 394.604 120.794 388.881 122.611 390.915C123.506 391.909 123.247 392.863 123.381 393.941C124.174 400.083 124.723 406.954 123.267 413.182C122.225 417.611 119.65 419.57 120.825 424.724C121.228 426.504 121.642 427.541 121.607 429.544C121.581 431.431 120.399 433.169 120.279 435.103C120.095 438.144 124.68 441.335 127.521 441.145C128.278 441.09 129.131 440.091 129.981 440.257C131.604 440.565 131.732 442.164 132.537 442.766C134.109 443.942 138.117 443.36 138.744 441.44C139.595 438.796 138.279 435.501 138.521 432.644C138.633 431.299 139.118 430.285 139.315 429.095C139.822 426.076 139.713 422.428 141.459 419.722C141.691 419.358 141.905 419.024 142.388 419.057C142.97 419.149 144.114 422.148 144.343 422.831C145.854 427.293 145.717 428.252 144.577 432.676C144.014 434.878 142.991 437.17 142.537 439.518C142.309 440.693 141.898 442.831 143.473 443.23C143.941 443.356 146.571 442.981 147.159 442.827C148.525 442.48 151.609 440.598 152.191 439.307C153.204 436.991 151.445 434.049 150.986 431.785C150.025 427.055 150.821 421.291 150.731 416.405C150.658 412.169 149.286 407.851 149.549 403.7C149.707 401.036 150.425 399.57 153.392 400.512C153.763 400.623 154.006 400.943 154.307 401.043C156.457 401.791 157.148 401.673 157.921 404.204C158.791 407.019 160.341 414.005 160.589 416.85C160.858 419.906 159.311 424.718 159.451 428.046C159.637 432.861 162.87 437.212 162.48 442.403C162.313 444.58 161.265 446.825 161.243 448.896C161.222 450.415 162.523 451.03 162.215 452.991C161.93 454.804 160.271 456.533 159.788 458.16C159.52 459.047 159.067 461.848 159.787 462.513C161.082 463.731 166.05 462.761 167.887 463.007C169.039 462.508 168.266 457.483 167.962 456.375C167.694 455.394 166.784 454.204 166.624 453.161C166.415 451.723 167.262 449.857 167.305 448.492C167.334 447.761 166.49 445.328 166.383 444.349C166.084 441.614 166.45 438.612 166.483 435.906C166.529 431.334 168.508 428.132 167.716 423.438C167.494 422.163 166.875 420.647 166.657 419.415C165.991 415.509 165.981 410.453 166.05 406.488C166.088 403.891 165.736 400.95 168.092 399.216C167.2 399.227 166.306 399.464 165.433 399.629C164.793 399.755 164.08 400.096 163.11 400.065C162.677 400.05 162.482 400.203 162.236 399.692L167.236 398.727L167.419 397.62L168.285 397.983C168.621 396.535 170.877 397.159 172.027 396.259L171.825 397.61L172.153 396.969C172.648 397.069 172.868 397.534 173.406 397.76C175.742 398.773 177.777 400.11 179.511 402.057C182 404.847 182.144 406.846 182.634 410.215C183.122 413.466 183.382 416.783 183.569 420.085C183.223 421.803 181.55 421.399 180.478 422.16C178.266 423.736 178.048 426.174 178.407 428.649C178.748 430.971 178.815 430.269 180.516 431.108C182.823 432.248 184.626 434.153 187.376 433.222C188.887 432.714 189.204 429.327 189.316 427.92C189.72 422.938 189.73 418.318 190.421 413.348C190.522 412.642 190.837 409.524 191.403 409.452C192.94 409.25 194.025 414.919 194.56 415.942C194.927 416.646 194.792 415.633 195.144 415.807C195.318 416.635 194.81 417.452 194.786 418.15C194.763 418.783 195.176 419.465 195.129 420.311C194.969 423.894 194.207 426.518 195.136 430.282C196.143 434.362 197.599 439.321 196.571 443.598C195.788 446.866 195.885 446.937 195.927 450.259C195.95 452.8 195.323 454.257 196.746 456.654C198.048 458.857 201.578 457.79 203.319 456.649C205.025 455.522 206.739 451.244 206.045 449.3C205.277 447.138 203.126 448.205 202.542 446.256C201.205 441.778 201.202 437.113 202.019 432.456C202.397 430.322 203.34 428.179 203.262 425.987C203.245 425.282 202.819 424.946 202.709 424.387C201.734 418.929 200.617 413.472 200.81 407.811C200.849 406.661 201.437 402.496 201.799 401.516C202.572 399.359 204.441 402.719 204.816 403.503C207.181 408.401 207.563 413.418 208.202 418.606C208.524 421.259 209.378 423.337 209.042 426.169C208.848 427.823 208.243 428.755 207.938 430.155C207.591 431.732 207.899 433.507 207.383 435.133C207.093 436.016 206.35 436.32 205.932 436.989C205.586 437.529 204.154 440.987 204.09 441.539C203.782 444.192 208.083 443.732 209.472 444.416C210.558 444.954 210.243 448.135 210.068 449.187C209.633 451.807 209.344 452.766 209.265 455.541C209.206 457.573 207.439 458.602 206.468 460.147C206.207 460.572 204.525 463.958 204.506 464.201C204.464 464.887 205.249 465.624 205.93 465.712C206.874 465.85 207.021 464.855 207.855 464.642L207.304 465.95L210.415 465.953L210.987 462.37L210.339 462.15C211.096 460.585 212.056 460.141 213.715 459.795C212.623 461.231 213.454 462.908 211.447 463.955C212.723 466.683 214.422 465.243 214.958 463.006C215.194 462.049 214.769 460.265 214.981 459.209C215.182 458.203 216.401 457.282 216.741 456.416C218.292 452.478 216.255 450.592 216.415 447.16C216.48 445.776 217.208 444.249 217.292 442.955C217.486 440.068 216.847 438.674 218.086 435.55C218.678 434.067 219.994 431.333 221.363 435.966C221.613 437.84 221.854 439.683 222.092 441.546C222.016 447.971 222.251 445.989 221.501 448.691C221.16 449.892 221.308 452.268 222.63 452.834C224.929 453.812 228.722 453.144 230.829 451.876C232.267 451.012 234.236 447.668 233.238 446.129C232.655 445.227 229.866 444.746 228.82 444.355C226.289 443.407 226.407 439.213 226.568 437.013C226.833 433.329 227.686 430.588 227.237 426.749C226.716 422.409 225.697 419.009 226.06 414.431C226.329 411.125 228.337 403.878 230.541 410.976C231.848 415.166 231.107 419.252 231.546 423.427C231.642 424.414 232.25 425.579 232.127 426.693C232.922 427.024 232.368 425.641 233.238 426.188C234.018 426.678 233.6 429.13 235.514 429.247C235.795 429.258 237.674 429.175 238.004 429.129C239.465 428.938 242.106 426.641 243.611 426.714C244.319 426.759 246.33 427.282 246.284 428.204L246.549 428.235C248.929 427.647 254.729 424.842 253.271 421.826C252.445 420.121 251.433 420.143 250.178 419.276C248.967 418.426 249.405 417.438 249.087 416.275C247.665 410.954 247.073 406.722 246.487 401.197C246.356 399.955 245.713 399.434 246.394 398.202C247.332 396.514 251.236 393.205 253.179 394.708C253.277 394.776 254.412 396.533 254.527 396.767C255.414 398.505 255.699 400.635 256.264 402.496C257.523 406.57 260.616 416.152 260.406 420.052C260.348 421.113 259.591 423.436 260.028 424.453C260.181 424.802 260.877 424.921 260.791 425.535C260.732 425.969 260.113 426.39 259.945 426.85C259.053 429.214 261.596 433.611 264.237 433.918C265.73 434.087 268.768 432.9 269.751 431.761C271.108 430.168 271.8 425.471 270.608 423.676L270.6 423.688ZM233.893 273.727C234.051 273.752 234.16 273.897 234.136 274.047C234.112 274.204 233.966 274.313 233.805 274.288C233.657 274.264 233.548 274.119 233.574 273.959C233.597 273.812 233.742 273.703 233.893 273.727ZM224.352 257.753L224.118 258.418L223.078 258.472C223.087 257.597 223.625 257.553 224.352 257.753ZM62.053 378.776C61.5041 378.808 61.143 377.393 61.8209 377.358C62.4452 377.328 62.7757 378.729 62.053 378.776ZM148.264 435.749C150.381 434.148 150.357 441.415 147.835 439.657C146.915 439.027 147.599 436.249 148.264 435.749ZM200.092 449.409C200.734 448.7 201.747 450.057 202.144 450.152C202.551 450.249 203.008 449.963 203.464 450.165C205.482 451.001 202.208 455.184 201.272 455.287C198.887 455.549 199.279 450.306 200.092 449.409ZM227.723 449.028C228.207 447.817 229.151 448.356 229.575 448.003C229.9 447.742 230.021 446.615 230.52 446.543C232.355 446.949 230.858 449.849 229.873 450.6C228.505 451.649 227.101 450.641 227.723 449.031L227.723 449.028ZM225.234 420.322C225.502 420.128 226.075 420.907 225.806 421.104C225.539 421.299 224.977 420.508 225.234 420.322ZM241.553 396.119C242.153 396.16 242.712 396.399 243.042 396.924L241.447 396.791L241.554 396.115L241.553 396.119ZM246.55 373.138C246.515 371.76 247.225 370.706 247.578 369.485C247.732 368.99 247.716 366.677 248.556 366.993C249.405 367.319 247.81 370.148 247.642 370.673C247.386 371.463 247.693 373.242 246.55 373.138ZM252.473 356.073C254.105 355.692 255.926 360.613 253.564 360.186C252.961 360.082 252.722 359.332 252.152 359.587C250.525 361.656 250.425 365.064 246.799 364.179C246.759 363.05 247.935 363.222 248.4 362.885C248.549 362.78 250.354 360.122 250.422 359.962C250.865 358.942 249.491 357.321 251.294 357.03L252.451 357.678L252.476 356.073L252.473 356.073ZM247.09 355.464C247.022 353.907 249.281 353.333 249.904 354.34C251.152 356.341 247.233 358.437 247.09 355.464ZM251.801 352.964L252.203 353.385L252.151 353.711L251.695 353.64L251.801 352.964ZM246.742 334.972C247.248 332.924 248.074 332.913 249.111 334.664C250.072 336.286 251.53 340.122 250.121 341.703C249.95 341.893 248.411 342.039 248.836 343.048C249.373 344.33 250.384 341.961 250.646 341.95C252.073 342.391 252.589 345.258 252.364 346.477C252.262 347.065 251.812 347.644 251.642 348.245C251.353 349.246 251.648 351.164 250.236 351.113L250.784 347.624L250.017 347.385C249.24 349.164 247.699 352.195 246.876 348.665C246.476 346.994 247.079 346.192 247.008 344.776C246.825 341.117 245.706 339.05 246.734 334.977L246.742 334.972ZM240.348 308.334C243.204 306.794 246.602 308.637 250.151 305.997C251.086 305.29 253.361 301.932 254.442 303.063C254.58 303.216 255.406 305.279 255.431 305.543C255.95 310.528 252.199 313.212 249.987 316.991C249.186 318.355 248.799 321.869 246.566 320.957C244.792 320.226 243.608 318.809 242.201 317.734C241.174 316.946 238.27 315.476 238.227 314.031C238.178 312.75 238.927 311.17 238.701 309.773C238.784 309.517 240.109 308.471 240.348 308.334ZM225.279 311.25L226.391 311.132C226.372 311.53 226.175 311.962 226.203 312.333C226.22 312.497 227.234 312.732 226.083 313.158L225.904 312.786L220.667 318.154C219.088 318.326 218.151 319.824 216.471 319.731C216.446 319.26 216.672 319.145 216.942 318.875C218.188 317.633 220.306 316.866 221.61 315.676C222.903 314.497 224.141 312.617 225.279 311.25ZM219.097 313.607C219.639 312.635 220.397 311.901 221.592 312.226C221.804 313.015 219.983 314.728 219.406 314.326L219.097 313.607ZM225.368 283.749L225.976 283.618L226.251 284.006L226.199 284.333L225.299 284.191L225.368 283.749ZM225.1 267.363C225.311 267.344 225.491 267.349 225.684 267.445C226.007 267.594 226.643 269.841 226.586 270.2C226.478 271.036 225.025 272.062 224.369 271.808C223.776 271.574 223.488 267.534 225.1 267.363ZM214.876 278.592C215.086 278.767 215.463 278.717 215.727 278.779L214.917 280.953C213.526 280.767 213.499 278.862 213.801 277.774C214.78 277.626 214.685 278.421 214.876 278.589L214.876 278.592ZM215.108 272.136C215.939 274.298 214.088 274.146 213.447 273.04C212.653 271.675 214.359 270.128 215.108 272.136ZM209.9 274.788C212.11 272.867 213.018 274.825 211.664 276.394C211.491 276.594 211.142 276.614 211.037 276.739C210.762 277.04 210.434 277.324 210.217 277.68C209.892 278.233 209.277 280.622 208.149 279.785C207.118 279.029 209.043 275.54 209.9 274.788ZM201.118 279.577C201.393 279.63 201.627 279.991 201.974 280.069C202.646 280.217 203.298 279.866 204.199 280.257C204.523 280.394 206.168 281.798 206.267 282.138C206.425 282.724 206.207 283.629 205.957 284.174C205.77 284.611 204.155 286.117 203.73 286.329C202.732 286.809 202.31 286.388 201.473 286.257C200.989 286.171 200.171 286.614 199.892 285.749C199.756 285.294 200.214 284.936 200.148 284.394C200.081 283.917 199.493 283.523 199.515 283.031C199.584 282.103 200.515 281.632 199.288 280.468C199.322 279.912 200.628 279.467 201.109 279.575L201.118 279.577ZM195.859 292.771C198.198 292.652 197.988 295.373 196.77 296.771C196.492 297.095 194.432 298.455 194.079 298.564C192.716 298.954 191.857 297.243 192.434 296.047C192.593 295.727 193.522 295.204 193.895 294.763C194.503 294.058 194.797 292.82 195.856 292.77L195.859 292.771ZM194.482 276.394C194.952 276.511 195.907 276.726 196.001 277.217C196.062 277.519 196.302 279.999 196.268 280.22C196.204 280.686 195.897 281.34 195.457 281.583C194.404 281.654 192.336 276.858 194.482 276.398L194.482 276.394ZM193.357 308.915C193.452 308.162 194.88 304.25 195.864 305.646C196.697 306.912 194.594 310.081 196.034 310.718C196.458 310.912 196.543 310.788 196.796 310.479C197.599 309.503 199.119 305.28 199.961 304.894C200.58 304.604 201.355 304.939 201.282 305.673C201.174 306.844 199.512 307.686 199.619 308.999C200.833 309.416 201.706 308.073 202.129 307.102C202.955 305.223 202.639 303.033 203.193 301.167C203.412 300.4 204.45 299.247 204.471 298.817C204.532 298.157 201.781 296.471 201.494 294.775C201.453 294.552 201.293 292.734 201.317 292.587C201.485 291.934 202.288 291.919 202.347 291.754C202.557 291.108 201.594 289.854 202.773 288.289C204.072 286.583 204.278 289.615 205.49 289.287C207.019 288.867 208.07 284.401 208.731 283.024C209.813 280.752 211.41 279.502 212.96 282.273C213.196 282.698 213.217 283.404 213.449 283.712C214.06 284.521 214.689 283.897 214.133 285.776C213.481 287.998 210.823 288.345 210.645 290.316C210.582 291.137 213.263 298.225 213.697 298.293L215.018 297.335L216.361 298.249C216.829 297.469 218.9 297.21 218.031 295.757C217.141 296.805 215.086 294.214 215.066 293.499C215.034 292.739 217.452 289.974 218.018 289.964C218.822 289.963 220.263 291.764 220.222 292.569C220.196 293.073 219.781 293.451 219.842 294.022C219.907 294.574 221.047 295.4 221.094 295.936C221.169 296.575 220.423 297.17 220.692 298.013C220.994 298.989 224.622 299.917 224.012 301.18C223.112 303.048 220.208 297.569 219.115 297.752C218.605 298.44 217.599 298.571 216.759 298.669C217.613 299.591 219.088 300.275 219.975 301.13C220.258 301.411 221.852 303.349 222.01 303.643C222.775 305.135 220.884 306.87 221.863 307.542C222.461 307.948 223.218 307.538 223.097 308.665C222.968 309.758 219.827 311.877 218.744 311.783C217.621 311.672 217.539 310.687 217.327 309.83C216.597 307.027 217.042 305.853 219.753 304.67C219.233 303.636 218.123 303.712 217.244 303.098C216.033 302.248 215.232 300.297 214.12 299.292C214.149 301.187 214.897 302.913 215.285 304.723C215.903 307.542 216.343 310.345 216.869 313.149C217.174 314.73 218.352 316.277 216.579 317.555C215.792 318.134 213.572 319.512 212.703 319.927C211.938 320.302 211.547 320.717 211.02 319.79C209.985 317.964 210.98 317.483 211.017 316.008C211.03 315.233 210.098 313.78 210.286 313.343L210.9 313.082C212.604 314.656 212.922 314.016 213.031 311.936C213.141 309.642 212.116 304.564 211.5 302.274C211.425 301.994 210.199 299.704 210.029 299.549C208.921 298.521 208.195 300.731 206.998 301.18C206.421 301.391 206 301.174 205.463 301.274C203.513 301.67 202.922 304.256 204.795 303.933C205.51 303.809 205.954 302.828 206.74 303.428C206.418 304.726 206.446 306.329 206.086 307.592C205.823 308.513 203.591 312.233 202.936 313.147C202.572 313.661 202.036 314.119 201.53 314.502C202.125 316.237 203.709 314.316 204.553 313.703C205.604 313.642 204.481 317.204 204.139 317.787C203.734 318.502 203.187 318.393 202.948 318.68C202.056 319.738 202.596 324.025 201.232 324.211C200.845 324.259 200.41 324.2 200.17 323.86C199.912 323.508 199.394 320.929 198.988 320.133C196.864 315.985 189.858 312.098 185.409 314.61C184.812 314.949 184.056 316.383 183.394 315.081C182.827 313.988 183.254 311.96 183.958 311.001C186.314 307.816 189.935 309.002 193.344 308.91L193.357 308.915ZM207.269 309.147C208.137 306.788 208.049 304.247 208.955 301.937C209.124 301.704 209.637 301.732 209.773 301.849C209.869 301.93 210.518 304.073 210.532 304.194C210.688 306.312 210.778 311.674 209.659 313.281C208.171 315.433 208.602 314.831 207.801 317.309C207.521 318.184 206.35 320.396 205.76 318.63L207.12 313.076L207.269 309.147ZM200.657 329.008C200.48 328.958 200.214 328.992 200.097 328.921C199.31 328.472 200.19 327.573 200.657 329.008ZM198.065 332.038L195.901 332.132C194.516 331.632 196.749 328.723 197.812 329.363C198.64 330.097 198.281 331.078 198.065 332.038ZM188.042 315.266C188.018 315.413 187.873 315.522 187.722 315.498C187.564 315.473 187.455 315.328 187.479 315.178C187.503 315.021 187.649 314.912 187.81 314.938C187.958 314.961 188.067 315.106 188.042 315.266ZM178.493 339.613C177.814 339.865 174.409 340.41 174.299 340.695C174.071 343.531 174.608 346.662 174.278 349.452C174.243 349.824 174.027 350.148 173.959 350.515C173.91 350.767 174.138 352.273 173.313 351.947C172.659 351.683 172.926 349.585 172.9 349.052C172.59 344.273 172.816 339.513 172.606 334.704C172.579 334.053 171.998 331.52 172.065 331.097L172.578 327.829C173.794 327.62 173.709 329.402 173.856 330.397C174.214 332.819 174.147 335.238 174.334 337.634C174.396 338.356 174.777 339.033 174.392 339.889C174.693 340.323 179.191 338.213 179.177 338.91C179.163 339.545 178.949 339.459 178.493 339.613ZM174.614 366.453C174.315 366.557 173.886 365.971 174.005 365.904C174.316 365.792 174.743 366.388 174.614 366.453ZM178.636 329.926C177.913 328.592 178.123 326.228 178.848 324.927C181.325 324.41 183.194 330.957 181.478 331.669C180.945 331.887 178.901 330.401 178.64 329.927L178.636 329.926ZM185.496 287.903C186.347 287.876 188.076 289.779 187.377 290.49C187.301 290.554 186.012 290.893 185.862 290.879C184.767 290.806 183.782 288.176 185.495 287.907L185.496 287.903ZM182.558 299.203C184.03 299.024 185.064 302.935 182.714 302.425C181.183 302.099 181.263 299.368 182.558 299.203ZM180.89 315.092C181.324 315.288 183.493 318.622 183.578 319.177C183.836 320.849 180.145 321.556 178.912 321.33C178.038 321.711 178.802 324.109 176.369 324.679C175.75 324.818 170.103 325.143 169.64 325.047C169.512 325.017 167.549 323.855 167.481 323.746C166.844 322.76 168.111 322.42 168.55 322.056C168.848 321.821 168.923 321.196 169.378 321.129C170.103 321.007 170.283 321.724 170.799 322.032C171.768 322.617 176.699 322.656 177.482 321.808C178.593 320.61 176.458 319.411 176.099 318.587C175.655 317.555 175.887 315.658 177.139 315.346L180.887 315.091L180.89 315.092ZM155.858 319.489C156.705 319.07 159.224 320.007 158.724 321.344C158.292 322.379 156.417 322.774 155.73 321.901C155.367 321.443 155.292 319.78 155.858 319.492L155.858 319.489ZM153.795 315.646C154.48 315.711 155.613 315.889 155.977 316.53C156.223 316.956 156.178 317.599 156.007 318.058C154.526 318.777 152.662 316.84 153.792 315.645L153.795 315.646ZM158.165 316.342L158.237 315.887L158.915 315.994L158.844 316.448L158.165 316.342ZM158.945 310.684C158.804 309.861 159.108 308.05 160.104 307.918C161.024 307.793 162.121 309.305 162.642 310C164.026 311.892 165.291 315.084 164.209 317.353C163.406 319.01 162.808 316.874 162.551 316.456C161.774 315.189 159.16 311.939 158.945 310.684ZM157.763 343.964C157.787 343.6 157.782 343.425 158.109 343.207C158.193 343.155 159.847 342.574 160.014 342.535C160.78 342.363 161.608 342.46 162.366 342.612C162.707 343 160.842 343.604 160.639 343.657C160.231 343.777 157.918 344.192 157.76 343.96L157.763 343.964ZM156.397 357.004C155.622 358.416 155.205 359.896 154.112 361.129L153.45 361.058C153.165 360.669 155.576 356.087 155.93 355.28C156.361 354.258 157.024 351.27 157.831 350.773C158.11 350.59 158.336 350.452 158.686 350.572C159.461 352.821 157.427 355.128 156.397 357.008L156.397 357.004ZM162.117 347.868C162.806 346.312 163.931 344.187 165.985 344.585C166.577 346.546 165.238 347.537 164.507 348.955C163.908 350.148 161.619 355.198 160.433 355.422C160.243 355.458 159.834 355.437 159.711 355.319C159.573 354.811 159.569 354.42 159.716 353.905C160.171 352.388 161.446 349.371 162.118 347.865L162.117 347.868ZM165.944 342.429C165.305 342.555 164.64 342.592 163.993 342.641C163.948 342.168 164.742 341.938 165.081 341.798C165.602 341.587 168.372 340.739 168.644 341.061C169.11 341.62 166.183 342.381 165.944 342.429ZM167.549 327.384L168.466 327.42L168.059 327.809L167.552 327.385L167.549 327.384ZM168.055 343.279L167.88 343.704L167.612 343.209L168.055 343.279ZM166.163 359.825C165.891 360.376 165.223 360.143 164.739 360.054C164.945 359.558 165.683 359.835 166.163 359.825ZM179.337 283.467L180.015 283.432C180.47 283.914 181.783 286.821 181.278 287.205C178.643 287.192 178.832 285.505 179.337 283.467ZM178.481 282.554C178.484 283.356 176.687 287.771 175.565 286.751C175.177 286.388 175.912 283.717 175.862 283.049L174.109 281.303C173.948 279.646 178.472 280.055 178.479 282.55L178.481 282.554ZM171.272 281.087C171.402 281.226 172.25 284.264 172.191 284.494C171.94 285.676 170.146 286.054 169.804 284.648C169.578 283.736 170.112 282.829 169.613 281.854C169.411 281.478 168.754 281.319 168.851 280.763C169.053 280.233 170.877 280.648 171.272 281.091L171.272 281.087ZM170.504 291.921C171.315 292.425 171.672 293.466 172.671 293.383C173.319 293.324 176.221 289.414 177.507 289.032C179.768 288.383 177.548 291.392 177.29 292.011C176.964 292.761 176.483 294.941 175.999 295.321C175.577 295.655 173.938 295.657 173.868 296.25C173.688 297.669 174.548 299.101 174.732 300.427C175.109 303.003 174.69 306.361 175.379 308.945C175.819 310.57 178.765 314.522 174.303 312.416C173.836 312.763 173.48 317.234 173.169 318.124C172.677 319.537 171.791 317.431 171.849 316.728C171.904 316.044 172.449 315.05 172.603 314.342C172.784 313.527 172.799 312.675 173.001 311.867C173.133 311.303 174.716 307.373 173.831 307.277C173.431 307.68 173.11 308.135 172.454 307.967C172.34 306.967 173.116 306.374 173.412 305.599C174.013 304.062 173.331 302.38 173.48 300.739C173.348 300.468 173.077 300.469 172.837 300.401C172.683 300.354 170.708 300.09 170.597 300.102C170.322 300.134 169.645 300.915 169.58 301.183C169.112 302.991 171.799 302.461 171.973 303.427C172.016 303.64 171.22 307.11 171.089 307.608C170.417 310.02 169.77 309.8 168.671 307.812C167.925 306.474 166.802 303.76 167.43 302.326C167.633 301.849 170.241 298.382 170.669 298.006C171.705 297.079 173.151 298.99 172.916 296.964C172.615 294.323 170.542 296.614 169.526 296.031C168.029 295.192 169.48 293.486 168.814 292.755C167.999 291.859 165.608 292.242 164.927 290.979C166.496 290.178 169.101 291.05 170.507 291.921L170.504 291.921ZM165.973 296.113L165.751 296.771L165.468 296.369L165.519 296.042L165.973 296.113ZM162.198 287.678L162.652 287.75L162.548 288.413L162.094 288.342L162.198 287.678ZM164.545 295.804C164.109 296.372 162.003 297.63 161.261 297.448C160.799 297.342 160.073 296.45 159.951 295.988C158.747 291.565 167.149 292.421 164.545 295.804ZM160.907 287L160.24 286.905L159.985 284.101C161.142 284.542 161.483 286.02 160.907 287ZM162.422 302.482C162.532 301.777 163.65 299.422 164.387 299.56C165.37 300.752 163.339 302.225 163.492 303.178C163.539 303.511 164.653 304.204 165.007 304.595C167.605 307.464 168.134 310.433 168.939 314.016C169.034 314.441 169.415 314.783 169.448 315.058C169.484 315.375 167.287 319.353 167.047 319.368C165.132 319.478 166.316 315.882 166.277 314.744C166.237 313.68 163.917 308.907 163.155 308.033C163.017 307.88 160.102 305.856 159.919 305.785C158.519 305.296 156.027 306.112 155.948 304.058C155.859 301.517 160.812 301.484 162.422 302.482ZM143.296 297.394C145.805 297.302 148 298.651 150.245 299.631C150.494 299.496 150.528 299.491 150.561 299.214C150.749 297.806 150.614 296.944 151.227 295.518C151.585 294.688 154.067 290.702 155.045 291.17C155.901 294.426 154.216 297.415 152.224 299.876C152.144 300.113 152.241 300.397 152.361 300.6C152.664 301.081 153.369 301.569 153.744 302.288C155.121 304.913 154.532 306.797 154.667 309.401C154.717 310.197 155.843 312.826 154.59 312.997C154.081 313.068 153.506 312.242 153.009 312.003C151.951 311.479 151.042 311.619 150.28 310.387C149.078 308.448 152.629 308.691 151.225 306.507C149.788 305.376 148.695 303.983 147.449 302.661C146.706 301.875 146.143 301.235 145.378 300.38C144.936 299.877 142.514 297.964 143.299 297.394L143.296 297.394ZM147.146 309.773C147.173 309.81 146.698 310.425 146.578 310.495C145.731 310.979 146.253 309.524 147.146 309.773ZM145.658 309.3C145.635 309.447 145.49 309.556 145.329 309.53C145.181 309.507 145.072 309.362 145.095 309.211C145.12 309.054 145.266 308.946 145.417 308.97C145.574 308.994 145.683 309.14 145.658 309.3ZM143.971 303.192C144.173 303.709 144.844 306.05 144.441 306.345C143.902 306.25 143.331 306.236 142.799 306.034C141.263 305.448 137.912 302.9 136.717 301.675C135.961 300.887 133.863 298.289 134.1 297.266C134.485 296.473 137.504 295.824 138.327 295.911C139.735 296.057 140.468 297.478 141.183 298.529C141.931 299.641 143.514 302.05 143.977 303.193L143.971 303.192ZM134.221 302.081C133.949 302.783 132.255 301.88 132.767 301.052C133.124 301.065 134.428 301.539 134.221 302.081ZM137.774 254.224C137.84 254.645 136.328 256.525 136.13 257.239C134.204 257.206 134.903 254.496 134.278 253.209C135.218 251.844 136.951 253.317 137.774 254.224ZM130.984 282.074C131.521 281.554 132.064 280.32 132.675 279.727C133.189 279.223 133.759 279.119 134.142 278.736C134.847 278.046 135.115 276.611 136.549 276.531C136.988 276.501 137.286 276.538 137.612 276.872C138.108 277.37 139.306 280.528 139.301 281.253C139.291 283.185 135.347 285.149 134.108 286.615C133.03 286.847 132.161 287.281 131.222 287.869C130.473 288.355 128.981 290.196 128.904 287.581C128.883 286.809 128.844 284.85 128.909 284.168C129.097 282.211 130.141 282.89 130.984 282.074ZM125.973 285.318C126.083 284.072 125.366 282.338 126.66 281.635C127.214 283.773 127.846 287.828 126.589 289.748C126.213 290.336 125.102 290.864 125.011 289.996C124.988 289.723 125.364 289.132 125.439 288.714C125.639 287.655 125.871 286.382 125.973 285.318ZM129.819 250.392C131.849 250.31 132.463 252.005 131.175 253.49C130.556 253.78 128.495 250.867 129.819 250.392ZM125.549 264.253C125.718 263.328 127.471 262.513 128.294 263.086C129.029 263.588 128.848 266.252 128.582 267.04C128.33 267.811 127.357 268.361 126.857 269.047C126.416 269.648 125.449 271.377 125.256 272.059C124.666 274.159 126.257 277.229 124.89 278.947C123.928 280.159 123.035 279.024 122.511 279.234C120.521 281.623 122.944 281.182 123.572 282.069C124.377 283.223 123.413 285.435 123.364 286.714C122.576 287.509 122.711 290.596 121.476 290.718C120.165 290.837 119.76 288.17 119.044 287.355C118.336 286.551 116.148 284.934 115.122 284.018C114.666 283.602 113.495 283.04 113.227 282.693C112.214 281.336 114.673 276.591 115.9 275.681C117.308 274.648 117.958 276.178 119.261 276.317L118.739 276.603L118.74 279.702C120.499 279.751 121.547 277.356 122.38 276.062C122.756 275.474 123.668 275.118 123.298 274.348C122.651 273.015 121.245 274.997 120.501 274.342C120.181 273.904 120.281 273.326 120.038 272.864C119.516 271.844 118.378 272.033 119.106 270.233C119.387 269.555 120.102 269.408 120.294 269.09C120.5 268.745 120.166 268.249 120.439 267.958C120.62 267.769 121.868 267.696 122.338 267.534C123.154 267.251 125.325 266.187 125.573 265.383C125.686 265 125.479 264.6 125.542 264.255L125.549 264.253ZM120.217 277.619L119.853 278.491L119.401 278.41C119.401 277.859 119.656 277.479 120.22 277.62L120.217 277.619ZM123.625 258.538C123.65 258.381 123.794 258.282 123.955 258.308C124.103 258.331 124.214 258.466 124.188 258.626C124.163 258.787 124.016 258.882 123.868 258.859C123.711 258.834 123.6 258.698 123.625 258.538ZM122.793 248.727C123.518 248.539 122.688 249.541 122.758 249.641C123.404 249.535 124.639 251.686 124.91 250.379C125.05 249.699 124.751 249.189 125.961 248.998C127.876 251.308 125.897 251.883 125.053 253.458C123.651 256.11 123.535 260.08 119.948 260.964C119.391 260.443 119.986 259.696 119.778 259.089C119.668 258.76 119.207 258.655 119.118 258.467C118.926 258.027 119.283 257.078 118.267 256.768C117.177 256.446 115.457 258.562 115.409 256.664C115.325 253.552 117.629 255.65 118.673 255.63C119.752 255.606 118.936 254.71 118.885 254.347C118.612 252.705 119.93 253.086 120.199 252.544C120.422 252.094 120.019 251.403 120.299 250.801C120.363 250.66 122.635 248.768 122.792 248.73L122.793 248.727ZM119.394 240.795C119.586 240.542 120.12 240.876 120.161 240.948C120.773 242.091 118.358 242.145 119.394 240.795ZM119.394 247.094C120.295 247.084 121.792 247.437 120.501 248.338C120.246 248.514 116.446 249.493 116.126 249.476C115.642 249.452 115.282 249.182 115.033 248.776C116.154 247.849 117.944 247.092 119.397 247.094L119.394 247.094ZM114.001 253.797L114.678 253.913L114.572 254.589L113.894 254.473L114.001 253.797ZM111.978 269.508C112.901 269.361 114.882 270.223 115.41 270.933C115.988 271.683 115.713 273.282 115.016 273.927C114.862 274.064 112.611 275.43 112.371 275.511C109.808 276.425 110.558 274.901 110.388 273.483C110.335 273.064 109.913 272.771 109.98 272.221C110.076 271.339 111.002 269.66 111.978 269.511L111.978 269.508ZM107.847 259.753C108.114 259.861 110.171 264.71 110.134 265.092C109.981 266.818 106.947 266.246 107.026 265.74C107.168 264.833 107.594 263.15 107.556 262.366C107.523 261.757 106.308 260.03 107.847 259.753ZM97.4977 306.329C98.1402 305.491 98.868 302.914 100.451 303.619C100.553 303.667 101.789 305.115 101.894 305.283C102.711 306.567 102.801 307.382 102.058 308.732C100.768 311.067 96.2802 314.229 95.3558 316.526C94.9946 317.441 95.2145 317.909 96.1934 317.469C96.6613 317.26 96.9909 316.189 97.8871 316.569C98.1189 316.898 96.555 319.741 96.3866 320.394C96.0493 321.723 96.3423 322.754 95.723 324.137C95.5102 324.59 95.0552 324.801 94.9118 325.231C94.6153 326.09 95.038 326.925 94.6554 327.892C94.2176 329.022 91.2855 329.244 90.3367 328.737C90.0363 328.572 90.0225 328.051 89.7292 327.778C87.9305 326.114 86.9799 326.017 87.5908 323.156C89.0515 316.331 93.532 311.559 97.4999 306.336L97.4977 306.329ZM94.8812 335.711C94.8792 336.206 94.4435 336.42 93.9902 336.263C93.6072 335.868 93.592 335.63 94.1194 335.378L94.8807 335.714L94.8812 335.711ZM91.1534 343.204C89.8062 343.639 89.4234 346.139 87.9199 344.652C89.4729 345.047 89.7395 343.287 91.1534 343.204ZM83.9053 320.43C83.7988 319.786 83.9044 319.114 83.7945 318.512C83.562 317.159 82.1961 314.46 84.3397 313.802C85.25 313.945 88.0678 317.411 88.0598 318.427C88.0554 318.728 86.5145 321.089 86.2589 321.331C85.6786 321.857 84.8217 321.71 84.1302 321.559C84.5343 321.126 83.9741 320.832 83.9048 320.433L83.9053 320.43ZM81.5066 333.837L81.4005 334.513L80.7217 334.406C80.7122 333.985 81.0839 333.695 81.5066 333.837ZM85.2117 339.733L84.2069 340.255L84.2763 339.813L85.2117 339.733ZM80.8645 374.804L80.617 375.478L78.6907 375.382C78.8349 374.4 80.1793 375.012 80.8645 374.804ZM85.9205 335.219L86.0267 334.543L86.7054 334.65L86.634 335.105L85.9205 335.219ZM86.3358 338.515C86.2522 338.081 86.2985 337.787 86.5114 337.397L86.7334 337.431L86.5578 338.55L86.3358 338.515ZM94.0335 307.19L94.1744 306.293L94.8365 306.505C95.1007 306.754 95.008 307.008 94.9342 307.331L94.0335 307.19ZM97.8267 291.872C98.0093 292.787 97.9333 293.271 97.171 293.843C95.4202 295.19 96.2887 291.381 97.8267 291.872ZM95.504 294.845C95.5826 294.891 96.3328 295.928 96.36 296.027C96.7819 297.475 94.4232 297.656 93.4861 297.411C93.4197 296.721 94.771 294.35 95.5045 294.842L95.504 294.845ZM93.1483 298.05C93.5287 299.364 91.4155 300.857 90.6322 299.989C89.6709 298.932 92.1832 297.564 93.1483 298.05ZM95.0261 267.916C96.3914 267.786 95.5199 272.097 95.2442 272.887C94.7094 274.425 93.1642 272.258 93.1802 271.191C93.1944 270.471 94.3903 267.977 95.0293 267.916L95.0261 267.916ZM90.6363 264.449C91.6605 264.686 92.3684 265.089 91.8648 266.218L90.2164 266.346C88.9891 268.432 89.1693 270.6 87.8711 272.655C87.1173 273.866 86.037 274.658 84.9872 275.55C84.492 275.387 83.473 276.629 83.1414 276.179C82.8134 275.708 83.7363 275.561 83.775 275.251C83.972 273.661 81.8806 273.441 83.4735 271.295C84.1306 270.426 85.457 269.998 86.1797 269.258C87.3143 268.12 87.5658 265.825 89.5547 266.341C89.6014 265.288 89.1137 264.112 90.6335 264.446L90.6363 264.449ZM84.641 263.314C87.5467 263.176 87.053 265.984 84.8827 265.847C82.6797 265.708 82.1361 263.44 84.641 263.314ZM81.7624 252.365C84.0962 249.383 86.5007 251.618 88.3532 253.15C88.9144 255.096 90.696 258.465 89.7363 260.441C89.4733 261.004 87.0073 261.385 86.5544 260.742C86.3835 260.509 86.4598 259.96 86.3082 259.624C86.1728 259.31 84.6842 257.813 84.3777 257.624C83.259 256.939 81.6772 257.147 81.1284 255.374C81.3598 254.32 81.5439 253.42 81.7629 252.361L81.7624 252.365ZM80.8621 272.119C79.3419 272.333 78.9453 269.192 80.0049 269.013C81.1518 268.826 81.8544 271.95 80.8621 272.119ZM80.3884 260.086L79.4479 260.198L79.3841 259.702L80.3245 259.59L80.3884 260.086ZM78.9344 266.511C78.9097 266.668 78.7642 266.777 78.6033 266.752C78.4554 266.728 78.3463 266.583 78.3715 266.423C78.3946 266.276 78.5434 266.168 78.6914 266.191C78.849 266.216 78.958 266.361 78.9344 266.511ZM79.5816 258.318C79.894 258.617 79.8981 258.863 79.7785 259.268L78.8416 259.357C78.8261 258.826 79.151 258.562 79.5784 258.318L79.5816 258.318ZM77.4327 265.37C77.8674 265.372 78.2191 265.483 78.264 265.953L77.3633 265.812L77.4327 265.37ZM75.499 279.132L75.3214 279.57L75.0402 279.073L75.4985 279.135L75.499 279.132ZM74.7908 276.253C74.8471 276.315 74.7526 276.559 74.6132 276.692C73.6164 277.582 74.0891 275.411 74.7908 276.253ZM72.4861 286.921C73.5289 286.556 75.475 282.873 76.4477 282.347C76.6735 282.231 78.8737 281.822 79.1971 281.84C80.7389 281.908 79.7818 283.238 79.2148 284.078C78.0937 285.76 74.6578 287.196 74.62 289.242C74.6079 289.801 75.7197 292.041 75.9965 292.839C77.1727 296.264 78.2675 299.849 79.4627 303.3C79.8441 304.397 81.3389 307.094 81.1432 308.068C80.9247 309.123 79.098 308.666 78.4996 308.194C78.0362 307.829 78.0083 307.188 77.6575 306.798C76.9093 305.958 75.8605 305.459 75.4976 304.181C75.2946 303.479 75.4523 302.811 75.2988 302.131C75.1997 301.649 73.735 297.585 73.5443 297.414C73.004 296.909 72.4015 297.093 72.1437 296.048C71.6187 293.934 73.0881 293.141 73.0735 291.786C73.0643 291.299 72.7168 291.287 72.5713 291.037C71.9482 289.968 70.9962 288.285 69.9822 287.627C69.1428 287.095 67.4982 287.011 67.5152 285.727C69.3521 285.28 70.6782 287.54 72.4898 286.918L72.4861 286.921ZM70.6215 302.929C70.7547 301.115 69.739 298.957 72.0283 297.77C72.4826 297.71 72.5462 297.851 72.6796 298.24C72.8557 298.776 72.6651 301.166 72.5753 301.864C72.3188 303.833 71.6124 307.093 71.0217 308.986C70.8763 309.429 70.6158 310.186 70.051 310.13C68.0824 309.821 70.5128 304.209 70.6183 302.929L70.6215 302.929ZM64.5519 300.42C64.9368 299.627 66.5322 299.543 67.2788 299.217C68.0805 298.877 68.5947 298.225 69.3988 298.017C70.2698 298.347 68.5031 302.209 68.1766 302.903C67.7786 303.779 65.5554 307.862 64.8867 308.111C63.6436 308.576 63.7967 306.341 63.9723 305.644C64.1427 304.978 64.8268 304.547 64.9433 303.679C65.0998 302.472 63.99 301.606 64.5551 300.421L64.5519 300.42ZM71.579 270.595C73.0046 270.291 73.0712 273.456 72.5414 274.269L71.4641 274.077C71.4102 272.762 70.7037 272.769 69.5598 272.665C69.3183 272.335 71.3214 270.64 71.5758 270.595L71.579 270.595ZM69.7795 291.164C69.9377 292.15 69.824 292.392 70.1041 293.525C70.4237 294.807 69.442 295.874 69.2034 297.057C67.5599 297.091 65.8563 296.207 67.4964 294.662C68.0055 294.191 69.3054 294.267 69.3502 293.289C69.3556 293.191 68.6496 291.538 68.5795 291.438C68.2147 290.928 66.9615 290.491 66.6616 289.84C66.4371 289.339 66.3862 288.005 66.3313 287.389C67.2058 286.522 69.6674 290.45 69.7832 291.161L69.7795 291.164ZM60.4421 307.932C59.1738 307.592 59.5131 304.654 60.6919 304.137L61.4986 304.457C61.7075 305.268 61.8375 308.302 60.4421 307.932ZM62.382 289.093L63.2637 289.208L63.2012 289.543L62.554 290.013C61.8868 289.832 62.1071 289.542 62.3857 289.09L62.382 289.093ZM54.5708 308.379C55.5281 309.251 54.7295 310.747 53.468 310.28C53.4817 309.353 53.7239 308.797 54.5708 308.379ZM53.756 305.487L53.8274 305.032L54.7628 304.952C54.7376 305.533 54.2833 305.655 53.756 305.487ZM56.9578 279.913C57.7449 279.876 59.1267 282.62 58.683 282.948C57.1402 282.824 56.6964 281.914 56.6898 280.508C56.6893 280.301 56.509 279.938 56.9578 279.913ZM54.5377 297.528L54.1467 297.122L54.5372 296.839L54.5372 297.531L54.5377 297.528ZM47.6552 323.683L46.978 323.566L47.0842 322.89L47.7614 323.007L47.6552 323.683ZM51.2262 306.819C51.3396 306.644 51.8105 306.478 52.0111 306.25C52.4299 305.787 52.6472 305.096 53.3733 304.964C53.3501 305.531 53.0513 306.049 52.596 306.388C52.4972 306.471 52.1678 306.344 52.0585 306.432C51.8762 306.564 51.8566 306.961 51.6468 307.122C51.3611 307.346 51.0239 307.142 51.2295 306.82L51.2262 306.819ZM51.0731 320.556L51.4899 320.589C52.2015 321.304 51.3009 321.855 51.0906 322.502C50.3726 324.723 52.065 324.231 52.6204 325.962L52.1913 326.197C48.2215 326.814 48.3854 322.034 51.0699 320.555L51.0731 320.556ZM55.5617 329.418C55.0963 329.821 52.312 330.907 51.8657 330.705C51.4995 330.539 51.0483 329.907 51.0015 329.513C50.8182 327.994 52.7693 327.512 53.6241 326.77C54.7645 325.784 55.185 323.946 56.4698 323.005C58.135 323.526 56.8363 324.954 56.545 326.116C56.2633 327.217 56.4617 328.64 55.5617 329.418ZM58.6229 340.862C59.3368 339.57 60.8486 337.939 62.4705 338.463C62.4192 339.545 61.1907 339.644 60.4515 340.07C59.9272 340.365 59.6815 341.321 58.6229 340.862ZM59.3733 343.409C58.173 342.216 61.9667 339.95 63.0405 340.647C63.6866 341.927 59.974 344.012 59.3733 343.409ZM67.7548 321.058L67.0761 320.952C67.065 320.54 67.4459 320.255 67.8589 320.395L67.7548 321.058ZM69.0125 321.948C69.0719 321.57 69.8353 321.474 69.9827 321.648C70.263 322.004 69.4416 322.406 69.0125 321.948ZM69.6292 317.476C68.6449 318.014 65.7811 319.606 65.0862 320.295C64.5996 320.77 64.2813 322.167 63.5846 322.888C62.757 323.73 60.8356 324.022 61.2884 322.735C61.5179 322.091 63.0588 322.018 63.5206 320.882C64.5864 318.23 64.1275 314.541 61.161 317.942C60.3849 318.056 60.5864 317.172 60.3773 317.139L59.1358 317.656L57.7846 316.732C57.8142 316.963 57.4785 317.17 57.4634 317.266C57.311 318.237 57.219 319.788 56.9337 320.639C56.8895 320.773 56.4507 321.427 56.357 321.478L55.1311 321.351C53.7984 319.133 51.6052 318.322 54.1574 315.818C51.2256 312.721 55.6205 312.105 57.7028 310.725C58.8536 310.722 59.2416 311.778 60.1501 312.331C60.4168 312.501 61.7091 313.255 61.678 312.613C61.6634 312.224 59.963 309.849 59.6007 309.533C58.9434 308.954 58.1857 308.868 57.5389 308.431C56.6833 307.877 56.1017 306.942 55.2335 306.405C55.6108 305.87 56.5891 304.888 57.2397 305.446C58.128 307.66 60.7548 309.173 62.6169 310.643C62.8236 311.615 63.324 312.353 62.9427 313.396L62.042 313.255L61.946 315.314C62.7748 315.011 63.6654 315.217 64.4673 314.791C65.2126 314.389 65.9673 312.627 66.388 312.782C67.0853 313.462 66.0183 313.813 65.8029 314.43C64.7584 317.345 66.65 316.906 68.5496 315.997C73.4848 313.64 78.4523 310.888 83.5438 308.586C84.3953 308.201 85.3247 308.432 85.7066 307.176C86.5377 304.444 83.8063 304.081 83.9405 302.47C84.0412 301.199 86.6011 300.577 87.4679 301.081C88.1549 301.471 89.9087 303.841 89.793 304.578C89.6275 305.632 88.5353 305.828 88.049 306.28C87.6011 306.718 87.396 307.668 87.0171 308.15C85.2897 310.439 82.9126 311.556 80.3918 312.768C76.8467 314.48 73.0353 315.621 69.6282 317.482L69.6292 317.476ZM77.456 318.324L77.4047 318.651L76.4943 318.508L76.5638 318.066L77.1711 317.935L77.456 318.324ZM69.6766 360.475L70.3238 360.006L70.3702 360.466L69.6734 360.475L69.6766 360.475ZM73.1563 341.297C73.0556 341.182 73.6434 340.756 73.9065 340.948C73.9996 341.048 73.4098 341.487 73.1563 341.297ZM76.9921 398.372C76.748 398.961 76.7621 399.774 76.5509 400.279C76.3672 400.693 75.6834 401.039 75.7112 401.68C75.2431 401.974 73.898 400.109 73.589 399.725C71.5222 397.208 70.1367 394.213 69.2578 390.911C68.8495 389.376 67.5652 384.835 70.3353 385.162C71.0594 385.252 74.0903 385.912 74.6892 386.17C75.6128 386.565 78.7439 390.533 79.2704 391.525C79.3314 391.62 79.5609 391.669 79.567 391.84C79.6728 393.37 77.6546 396.756 76.9889 398.372L76.9921 398.372ZM80.401 410.163C78.2613 410.733 78.105 404.131 81.6122 406.585C82.0264 407.537 81.4644 409.877 80.401 410.163ZM83.7241 380.354L84.9646 380.808C86.0972 385.329 81.6997 383.926 83.7241 380.354ZM88.1856 369.701C88.1764 369.213 87.6404 368.827 87.6681 368.378C87.7627 366.663 88.8807 365.211 88.6794 363.449C88.6487 363.162 88.4367 362.308 88.2924 362.115C88.1229 361.872 87.7454 362.072 87.7388 362.051C87.6844 361.914 88.0484 361.591 87.9638 361.374C87.9079 361.247 86.3741 360.163 86.0198 359.795C83.8664 357.556 84.3269 355.715 87.7327 356.759C89.9267 357.438 89.4996 359.465 90.0121 361.092C90.3502 362.192 91.2904 362.901 91.619 363.914C92.4239 366.45 91.4204 370.3 88.1819 369.703L88.1856 369.701ZM86.612 413.43C85.9082 415.351 83.8648 412.621 85.0857 411.752C86.2336 410.928 87.1337 411.976 86.612 413.43ZM104.433 299.944C104.869 299.645 105.281 298.619 105.491 298.393C106.043 297.777 107.122 298.919 106.261 299.433C105.865 299.663 105.531 299.46 105.255 299.558C105.059 299.635 104.797 300.48 104.436 299.948L104.433 299.944ZM106.448 300.378L106.379 300.821L105.7 300.714L105.77 300.272L106.448 300.378ZM93.6666 400.137C93.4739 399.979 90.8398 396.519 90.613 396.158C90.4133 395.835 90.3282 395.411 90.2462 395.031C90.4118 393.284 91.6283 386.986 93.7428 386.786C94.878 386.672 95.4175 389.114 95.5733 389.968C95.9615 392.114 95.6243 393.715 95.4562 395.836C95.3947 396.647 95.8158 401.899 93.6639 400.133L93.6666 400.137ZM104.003 318.909L104.073 318.466L104.751 318.573L104.682 319.015L104.003 318.909ZM105.572 325.162L105.644 324.707L106.322 324.814L106.251 325.269L105.572 325.162ZM107.248 338.106C107.433 337.682 107.803 337.674 108.218 337.805L108.148 338.247L107.248 338.106ZM106.981 345.679L106.537 345.61L106.589 345.283L106.981 344.987L106.981 345.679ZM100.818 383.482L101.496 383.588C101.551 383.663 101.002 385.077 100.862 385.337C100.676 385.708 100.768 385.874 100.243 385.693L100.818 383.482ZM108.185 352.791C108.425 353.065 106.823 354.412 106.472 353.333C106.702 352.558 107.574 352.61 108.185 352.791ZM109.474 337.192L109.984 336.927L109.913 337.382L109.474 337.195L109.474 337.192ZM109.093 338.169L108.415 338.062L108.822 337.673L109.16 337.726L109.09 338.169L109.093 338.169ZM102.975 403.664C102.579 404.314 103.375 405.122 103.402 405.287C103.641 406.87 103.31 408.771 101.311 407.962C99.7297 407.326 100.136 405.768 99.861 404.622C99.6777 403.858 99.1092 403.533 98.9007 403.076C98.0889 401.34 98.3765 397.368 98.8117 395.499C99.3197 393.377 102.03 393.727 103.006 391.795C103.436 390.924 103.795 388.972 103.822 387.981C103.862 386.701 103.045 385.817 103.868 384.23C104.468 383.093 106.439 382.507 106.44 384.493C106.445 387.927 104.799 392.53 103.375 395.592C103.249 397.365 101.409 398.372 102.393 400.191C102.57 400.511 102.535 400.732 102.91 400.423C103.897 399.597 103.137 396.356 104.859 396.787C105.61 396.98 105.651 399.547 105.607 400.253C105.51 401.771 105.073 404.889 102.978 403.664L102.975 403.664ZM117.706 309.857C117.786 309.285 118.552 307.301 118.913 306.872C119.368 306.327 120.113 306.552 120.318 307.178C120.522 307.752 120.252 310.224 120.099 310.925C119.992 311.395 119.085 314.213 118.861 314.319C117.627 314.913 117.596 310.555 117.705 309.86L117.706 309.857ZM117.033 315.65C116.93 315.342 117.516 314.925 117.583 315.044C117.687 315.352 117.1 315.769 117.033 315.65ZM110.491 370.223C110.514 370.075 110.659 369.967 110.82 369.992C110.968 370.015 111.077 370.161 111.053 370.311C111.029 370.468 110.883 370.576 110.732 370.553C110.574 370.528 110.466 370.38 110.491 370.223ZM107.162 416.083C105.778 417.086 104.779 416.477 104.397 414.903C104.324 414.61 104.174 412.039 104.24 411.832C104.539 410.832 106.032 410.916 106.862 411.023C111.236 411.569 109.706 414.257 107.162 416.083ZM116.255 353.077C116.413 353.102 116.512 353.245 116.487 353.406C116.464 353.553 116.328 353.663 116.167 353.638C116.006 353.612 115.91 353.469 115.934 353.319C115.958 353.162 116.094 353.052 116.255 353.077ZM122.73 310.311L122.8 309.869C123.234 309.872 123.584 309.992 123.64 310.454L122.73 310.311ZM110.326 389.239C110.655 387.896 111.945 389.989 112.352 389.665C112.851 388.145 112.435 387.141 111.266 386.147L112.338 384.844L113.858 385.592C113.795 387.105 115.124 389.205 115.179 390.51C115.222 391.413 114.678 394.731 114.338 395.531C114.034 396.229 113.065 397.006 112.764 397.746C112.403 398.595 112.34 400.023 111.821 400.851C111.664 401.096 111.754 401.133 111.374 401.073L110.547 400.467C110.383 399.371 110.963 398.297 110.894 397.226C110.791 395.739 108.81 394.608 109.878 392.445C110.148 391.903 111.036 392.042 111.151 391.456C111.309 390.66 110.13 390.022 110.328 389.243L110.326 389.239ZM122.668 337.297C123.17 337.419 123.511 338.693 123.637 338.789C123.86 338.965 124.215 338.912 124.488 338.975C123.912 339.955 122.332 337.99 122.669 337.294L122.668 337.297ZM111.146 411.157C110.484 411.237 107.768 407.939 107.768 407.246C107.776 406.502 110.292 405.676 110.949 405.651C114.355 405.516 113.127 409.936 111.146 411.157ZM117.322 398.777C117.082 399.399 115.888 400.646 115.194 400.508C113.998 400.254 114.12 398.849 114.286 397.936C114.598 396.16 114.993 395.638 115.852 394.325C116.711 392.989 115.672 392.429 115.569 391.635C115.541 391.394 115.691 389.267 115.758 388.986C115.997 388.009 117.441 388.278 117.37 388.73C117.196 389.839 116.702 391.813 116.733 392.789C116.761 393.637 117.703 395.804 117.727 396.467C117.73 396.661 117.398 398.566 117.321 398.78L117.322 398.777ZM125.423 365.136C123.929 366.231 122.128 361.539 125.049 362.602C125.983 362.933 126.148 364.59 125.423 365.136ZM125.168 353.85C125.524 353.788 126.48 354.607 126.15 354.923L125.215 355.003L125.168 353.85ZM126.827 362.405L126.897 361.963L128.064 361.92C128.02 362.616 127.377 362.557 126.827 362.405ZM131.5 392.469C130.001 392.211 131.595 391.112 130.978 390.128C130.911 390.01 129.196 388.628 128.981 388.485C128.172 387.971 126.926 388.097 126.533 386.676C126.515 386.037 128.309 383.994 128.595 383.284C128.959 382.413 129.037 381.161 129.599 380.268L129.548 379.902C128.69 379.574 128.09 377.933 128.215 377.057C128.367 376.086 128.951 375.475 129.615 374.834C131.962 372.59 132.587 371.802 134.321 368.962C135.226 367.483 137.362 365.488 136.151 363.525C135.181 361.958 134.028 362.663 133.301 362.05L132.619 360.118C131.533 359.849 131.195 361.375 130.25 360.425C129.49 359.659 129.648 354.79 128.765 353.171C128.571 352.815 127.976 352.948 127.634 352.842L128.835 352.578C128.604 351.428 128.556 349.799 128.262 348.696C127.795 346.906 127.58 347.434 127.4 345.137C127.344 344.318 126.644 343.528 126.546 342.768C126.473 342.205 126.675 341.675 126.585 341.132C126.445 340.159 124.818 339.332 125.973 338.4L125.544 338.084C125.934 336.297 125.906 333.095 125.58 331.285C125.463 330.587 124.792 329.464 124.751 328.693C124.712 327.833 124.97 323.921 125.121 323.026C125.225 322.425 125.775 322.114 125.83 321.548C125.871 321.079 125.494 320.101 125.499 319.379C125.509 318.14 125.956 316.533 125.987 315.428C126.046 313.881 124.757 314.004 124.544 313.074C124.375 312.345 125.696 311.345 124.478 310.937L123.221 311.55C123.226 311.098 123.682 311.029 123.824 310.608C124.227 309.492 124.449 307.532 124.491 306.36C124.566 303.887 121.456 304.068 120.873 303.287C119.987 302.088 121.833 301.311 121.874 300.648C121.932 299.652 120.252 297.78 118.981 298.778C118.732 298.976 117.809 301.329 117.619 301.847C117.418 302.433 117.573 303.104 117.133 303.911C116.773 304.547 115.861 305.169 115.592 305.914C114.9 307.762 114.7 310.15 113.756 312.152C113.527 312.644 112.561 313.756 111.944 313.466C111.813 313.402 110.638 311.35 110.613 311.031C110.499 309.405 111.176 308.894 112.199 307.899C109.33 304.402 112.364 305.732 114.076 305.266C115.152 304.982 116.612 301.754 114.541 301.882C114.504 301.489 114.994 301.835 115.061 301.619C115.346 300.768 114.011 300.158 113.31 300.071C112.512 299.968 111.497 300.974 110.749 300.154C110.576 299.802 110.916 299.025 111.144 298.746C111.572 298.229 112.493 298.449 112.384 297.969C112.286 297.566 111.37 296.891 111.29 296.372C111.19 295.621 111.838 294.059 111.589 293.567L109.997 292.723C110.076 291.32 110.345 290.089 111.036 288.878C109.331 287.918 106.241 288.955 104.941 290.245C104.185 290.989 101.907 293.95 101.963 294.918C101.978 295.156 102.669 295.038 102.337 295.58C101.217 295.047 100.508 296.104 100.217 294.427C99.834 292.249 101.606 288.208 102.972 286.476C106.039 282.624 111.508 282.134 115.26 285.51C116.172 286.333 120.501 292.058 120.985 293.129C121.363 293.976 121.486 294.914 121.527 295.827C121.987 295.942 122.399 295.521 122.834 295.589C124.53 295.845 124.926 300.713 125.752 300.639C126.586 300.577 126.201 299.101 126.307 298.619C126.474 297.89 127.233 297.209 127.326 296.619C127.619 294.755 125.093 294.128 126.426 292.545C126.868 292.021 130.027 291.092 130.671 291.269C131.139 291.395 131.46 291.911 131.976 291.94C132.408 291.965 133.67 291.04 134.483 291.382C135.132 290.088 133.303 290.333 133.101 289.123C132.743 286.972 136.277 286.447 137.651 285.99C138.144 285.831 138.533 285.285 139.243 285.17C140.087 285.043 140.697 285.313 141.499 285.242L141.763 283.708C142.306 282.539 144.95 283.44 145.937 283.51C146.683 280.968 146.099 281.159 144.921 279.549C144.582 279.085 144.411 278.517 144.11 278.148C142.818 276.488 140.518 274.636 139.814 272.484C139.573 271.734 139.852 271.216 139.75 270.54C139.685 270.054 139.215 269.334 139.233 268.926C139.274 268.391 140.416 267.481 140.389 266.872C140.355 266.122 137.796 263.905 137.608 263.107C137.185 261.311 137.941 259.27 139.107 257.91C140.144 256.701 140.183 256.513 141.615 257.408C143.422 258.535 146.545 263.67 147.477 265.727C149.783 270.8 151.159 277.02 150.728 282.539C150.593 284.149 149.888 285.745 148.037 285.021C147.604 286.453 147.456 287.815 146.555 289.151C145.868 290.146 142.713 292.835 141.504 292.917C140.145 293.006 139.081 292.117 137.839 292.427C137.809 294.487 136.299 294.368 134.947 295.17C133.175 296.231 132.58 297.878 131.02 298.831C129.422 299.811 127.563 299.561 127.258 301.923C127.046 303.606 129.004 304.823 129.844 306.252C130.642 307.598 131.98 310.831 131.878 312.362C131.826 313.174 131.24 314.28 131.318 314.749C131.364 315.005 132.211 315.7 132.471 316.118C133.723 318.097 133.522 320.193 135.253 321.892L137.416 321.51C137.139 320.104 134.221 315.467 135.177 314.354C135.857 313.554 136.921 314.92 137.355 315.473C139.621 318.38 141.144 321.741 142.079 325.311C142.439 326.674 143.097 328.905 142.774 330.206C142.743 330.343 142.183 331.765 142.137 331.846C141.605 332.616 141.173 332.322 140.798 333.806C140.198 336.239 140.763 336.026 141.278 337.866C141.676 339.278 140.692 340.906 140.407 342.299C140.06 343.961 139.929 345.68 139.602 347.359C137.706 347.071 139.168 344.461 139.076 343.051C138.988 341.741 138.051 339.5 138.092 337.983C138.156 335.918 139.232 333.894 139.23 331.971C139.232 331.689 138.837 329.65 138.746 329.324C138.512 328.467 138.057 328.405 137.58 329.151C137.109 329.865 137.223 332.877 137.093 333.913C137.006 334.612 136.893 335.73 136.658 336.349C136.14 337.65 134.033 337.805 133.662 338.567C133.542 339.671 133.545 340.765 133.288 341.857C132.848 343.688 130.86 347.243 131.924 349.032C132.363 349.76 132.47 349.203 133.056 349.209L132.71 349.966C133.834 350.261 134.177 348.975 135.222 349.225C137.237 351.593 134.742 352.832 134.166 354.567C133.634 356.148 134.676 356.085 135.455 356.854C135.702 357.086 137.671 360.14 137.992 360.656C138.81 362.016 138.907 364.841 139.58 366.437C140.014 367.467 141.099 367.821 141.074 368.949C141.056 370.177 140.172 371.378 139.863 372.442C139.209 374.608 139.047 377.218 137.91 379.081C137.559 379.663 136.888 380.346 136.433 380.891L137.246 381.59C136.168 380.859 134.729 383.053 134.405 383.855C133.796 385.381 133.945 387.748 133.449 389.397C133.31 389.861 132.235 391.885 131.942 392.239C131.78 392.431 131.871 392.54 131.493 392.471L131.5 392.469ZM126.031 298.149C126.087 298.21 125.993 298.455 125.855 298.574C124.859 299.465 125.331 297.294 126.031 298.149ZM138.472 379.705L138.259 380.364L137.976 379.962L138.028 379.635L138.472 379.705ZM129.48 427.433C127.657 428.886 127.299 425.436 128.703 425.269C128.968 425.235 129.249 425.256 129.455 425.453C129.7 426.033 129.856 426.911 129.48 427.433ZM130.391 434.961C128.526 434.409 129.311 431.618 131.014 432.801C131.274 433.35 131.262 435.085 130.391 434.961ZM132.434 423.271C132.271 423.558 131.797 424.077 131.403 424.048C130.479 423.926 131.264 421.617 131.309 420.912C131.44 418.75 130.666 418.369 130.544 417.279C130.242 414.714 130.608 411.479 130.645 408.826C130.73 403.86 130.525 398.891 132.6 394.237C132.949 393.461 133.404 392.289 134.366 392.246C135.557 392.197 136.523 393.018 136.437 394.255C136.346 395.528 135.524 396.206 135.254 397.299C134.083 401.921 134.962 407.387 134.531 412.19C134.344 414.344 133.332 421.692 132.432 423.268L132.434 423.271ZM141.302 364.39C140.886 363.448 139.702 359.234 139.748 358.335C139.916 354.764 140.626 355.027 142.39 352.635C144.13 350.262 145.038 347.585 145.692 344.727C146.136 342.798 146.095 340.08 146.657 338.245C147.351 335.967 148.914 337.411 150.042 337.404C151.322 337.398 153.265 335.816 153.963 334.813C154.384 334.209 154.521 333.463 154.969 332.896C155.526 332.183 156.357 332.284 156.512 331.215C156.889 328.605 154.641 332.152 154.492 332.26C153.928 332.68 150.805 333.572 151.638 331.92C152.187 330.841 153.933 330.843 152.422 328.587C152.184 328.237 149.817 325.909 149.488 325.716C148.64 325.239 145.869 324.456 145.61 323.542C145.075 321.642 147.405 317.235 145.953 315.419C145.883 315.322 144.551 314.063 144.459 314.019C142.562 313.041 140.284 312.5 138.668 311.035C138.08 310.499 138.179 309.868 137.575 309.222C137.287 308.917 134.8 306.787 134.419 306.524C133.501 305.884 131.761 305.696 132.041 304.184C133.074 303.818 134.2 304.123 135.168 304.59C135.825 304.9 136.152 305.437 136.65 305.709C137.347 306.1 138.38 306.089 139.014 306.881L139.421 305.799C139.009 305.951 137.025 303.867 138.165 304.207C138.799 304.392 139.262 305.092 139.819 305.406C140.267 305.66 143.255 306.95 143.356 307.126L143.241 308.004L140.031 306.345L139.898 306.984L139.212 307.135L146.788 311.319C147.826 312.099 148.793 313.058 149.45 314.179C150.59 316.117 151.727 321.364 151.802 323.654C151.811 323.938 151.579 324.256 151.608 324.411C151.654 324.744 152.171 324.769 152.175 325.019C152.175 325.226 151.833 325.537 151.916 325.766C151.975 325.936 154.718 328.215 154.917 328.063C155.458 323.588 158.266 327.325 158.271 329.919C158.277 333.678 155.64 336.451 155.243 340.007C155.148 340.888 155.446 342.513 155.294 343.481C154.78 346.758 151.402 351.263 150.139 354.479C149.799 355.138 148.658 354.506 149.116 355.539L150.328 355.838C149.898 356.709 149.175 356.274 148.59 356.743C147.006 357.995 144.779 362.228 143.297 364.004C142.5 364.949 141.987 365.925 141.295 364.392L141.302 364.39ZM140.831 351.353C141.038 350.099 141.851 348.595 142.157 347.402C142.667 345.388 143.014 343.184 143.378 341.134C143.627 340.451 144.448 340.113 145.102 340.377C145.272 341.71 144.592 342.998 144.273 344.274C143.858 345.949 142.853 350.695 141.795 351.826C141.173 352.473 140.692 352.214 140.828 351.349L140.831 351.353ZM141.359 384.261C140.039 384.162 140.509 380.478 141.049 379.666L142.158 379.926C142.676 380.7 142.506 384.343 141.359 384.261ZM135.479 440.848C135.092 440.811 131.851 439.642 131.702 439.477C130.883 438.548 131.399 436.223 132.613 435.819C133.367 435.57 135.084 435.764 135.414 434.693C135.879 433.177 133.293 431.885 133.765 430.416C135.128 430.296 136.226 430.76 136.305 432.273C136.323 432.784 136.087 433.177 136.109 433.788C136.152 435.384 138.709 441.142 135.478 440.852L135.479 440.848ZM144.245 402.486C143.905 403.201 142.842 403.822 142.695 404.488C142.54 405.199 143.219 406.061 142.991 407.029C142.32 409.852 140.468 413.904 139.443 416.714C139.01 417.877 139.038 419.923 137.544 420.391C137.184 419.999 137.142 419.573 137.165 419.068C137.421 412.529 140.151 406.541 141.927 400.415C142.253 399.301 142.193 398.028 142.555 396.897C142.638 396.641 143.609 394.469 143.711 394.367C144.058 394.021 144.607 394.324 144.873 394.625C145.977 395.888 144.948 400.988 144.245 402.486ZM145.621 389.589C146.418 389.553 146.43 391.347 145.819 391.228C145.565 391.188 144.823 389.634 145.621 389.589ZM146.756 405.914C145.725 406.054 145.298 402.983 145.368 402.325C145.44 401.656 146.302 399.274 146.641 398.648C147.089 397.789 147.496 398.178 147.96 398.878L147.088 401.593L147.767 401.7C147.759 402.293 147.218 402.51 147.072 403.081C146.88 403.819 147.587 405.808 146.755 405.917L146.756 405.914ZM148.533 412.416C148.664 413.3 148.678 415.292 148.696 416.289C148.72 417.731 148.709 419.672 148.656 421.102C148.633 421.791 148.363 425.861 148.118 425.974L147.451 425.728C147.015 424.373 146.798 423.131 146.74 421.694C146.601 418.777 147.017 416.465 147.264 413.74C147.32 413.112 146.606 412.534 147.306 411.879C147.876 411.352 148.419 411.696 148.533 412.416ZM153.168 396.777L152.841 396.716L152.356 396.069L152.409 395.733L153.309 395.874L153.167 396.781L153.168 396.777ZM156.713 400.791L156.257 400.719L156.363 400.043L156.82 400.115L156.713 400.791ZM173.67 395.385L172.841 395.481L173.055 394.812L173.883 394.726L173.67 395.385ZM170.521 393.486C170.471 393.53 170.434 393.557 170.387 393.583C170.25 393.702 170.103 393.797 169.959 393.893C169.678 394.085 169.391 394.257 169.115 394.44C166.874 395.805 164.342 396.52 161.776 396.616C161.251 396.642 160.712 396.633 160.183 396.602C159.965 396.601 159.752 396.577 159.541 396.554C159.509 396.549 159.475 396.553 159.445 396.539C159.155 396.516 158.857 396.479 158.561 396.433C158.265 396.386 157.948 396.327 157.646 396.256C156.606 396.04 155.606 395.71 154.662 395.302C154.438 395.214 154.213 395.113 154.005 394.992C152.388 394.229 150.905 393.176 149.659 391.857C149.529 391.719 149.407 391.591 149.285 391.464C149.164 391.336 149.043 391.199 148.926 391.063C148.907 391.037 148.901 391.016 148.883 391.004C147.253 389.083 146.098 386.785 145.532 384.3L144.893 384.632C144.895 384.2 144.744 383.779 144.834 383.35C144.894 383.034 145.14 383.063 145.29 383.011C145.063 381.495 145.068 379.93 145.318 378.338C145.502 377.168 145.806 376.048 146.232 374.992L146.18 374.908L146.25 374.942C146.615 374.005 147.066 373.127 147.607 372.303C147.377 372.319 147.205 372.305 147.332 371.977C147.567 371.387 148.284 370.472 148.541 369.8C149.431 367.445 149.409 364.212 150.092 361.791C150.326 360.932 151.105 359.833 151.418 358.953C151.711 358.113 152.153 354.608 153.202 354.556C153.465 354.545 153.636 354.775 153.675 355.008C153.912 356.545 150.86 361.059 150.843 363.032L151.334 363.496L152.644 363.236C152.553 364.085 152.235 365.02 151.802 365.763C151.184 366.801 149.812 367.308 149.96 368.572C150.971 368.892 152.027 366.661 152.26 366.642C152.547 366.622 152.885 366.947 153.26 366.973C156.217 365.33 159.716 364.606 163.33 365.141L163.353 365.144C163.428 365.146 163.482 365.142 163.549 365.132C164.201 365.051 163.404 363.435 165.035 364.026C165.09 364.37 164.721 364.788 164.726 365.025C164.727 365.166 164.936 365.35 165.273 365.554L165.281 365.565C168.399 366.423 171.086 368.184 173.083 370.516C173.234 370.583 173.367 370.636 173.422 370.71C173.449 370.748 173.626 371.068 173.827 371.444C173.826 371.453 173.833 371.468 173.845 371.479C176.248 374.752 177.393 378.94 176.715 383.261C176.036 387.583 173.735 391.111 170.522 393.479L170.521 393.486ZM178.626 373.08C178.65 372.933 178.795 372.825 178.946 372.848C179.104 372.873 179.213 373.018 179.189 373.169C179.165 373.326 179.017 373.424 178.86 373.399C178.712 373.376 178.601 373.241 178.626 373.08ZM178.514 375.6L178.968 375.671L178.816 376.577L178.372 376.507L178.514 375.6ZM177.406 389.965L177.299 390.641C176.034 390.951 176.193 389.666 177.406 389.965ZM178.728 383.075C178.816 382.367 178.174 381.206 178.973 380.76C179.184 380.803 180.077 384.305 179.844 384.807L178.728 383.075ZM178.847 384.187C178.822 384.344 178.677 384.453 178.516 384.427C178.368 384.404 178.259 384.259 178.284 384.099C178.307 383.951 178.453 383.843 178.604 383.867C178.761 383.891 178.87 384.037 178.847 384.187ZM179.19 390.626C178.751 391.075 177.666 394.059 176.688 393.085C177.198 392.463 177.824 392 178.3 391.32C178.93 390.414 178.554 389.643 180.232 389.722C180.21 390.346 179.543 390.251 179.19 390.629L179.19 390.626ZM185.777 354.771C185.145 355.751 184.504 355.424 184.279 354.361C183.401 350.357 183.912 346.537 182.645 342.179C182.45 341.489 180.802 338.574 182.658 338.442C183.053 338.406 184.238 339.446 184.585 339.773C185.226 340.392 187.192 342.44 187.253 343.228C187.342 344.529 186.487 345.691 186.396 346.885C186.174 349.745 187.543 352.002 185.777 354.771ZM192.97 333.69C192.103 334.657 189.668 335.722 188.738 334.464C188.31 333.878 188.43 333.109 188.845 332.547C189.039 332.275 191.746 330.862 192.282 330.559C192.676 330.339 193.348 329.226 194.023 329.838C194.589 330.37 193.512 333.096 192.973 333.691L192.97 333.69ZM194.133 325.447C192.933 325.343 191.681 324.057 190.495 325.125C190.33 325.273 188.711 327.372 188.656 327.515C188.519 327.903 189.047 328.679 189.11 329.119C189.311 330.457 187.29 330.484 187.288 328.626C187.283 328.031 187.82 325.932 188.045 325.321C188.494 324.118 190.352 322.171 190.499 321.298C190.585 320.75 189.936 319.847 189.94 319.126C189.942 316.49 191.25 314.526 193.693 316.702C194.557 317.474 195.193 319.238 195.849 319.827C197.491 321.316 198.078 320.135 197.829 323.378C197.793 323.76 197.185 328.591 196.24 327.622C196.151 326.863 196.279 325.652 195.447 325.282C194.951 325.063 194.601 325.484 194.13 325.443L194.133 325.447ZM193.786 338.775C193.693 338.675 194.281 338.249 194.544 338.441C194.637 338.541 194.05 338.968 193.786 338.775ZM194.529 340.74L194.867 340.793L194.796 341.248L194.117 341.141L194.526 340.739L194.529 340.74ZM188.351 382.223C187.884 382.636 187.357 380.327 187.547 380.022C188.03 380.259 188.726 381.914 188.351 382.223ZM185.442 406.687L185.058 406.302C186.003 405.531 185.994 403.931 187.104 403.492L185.442 406.687ZM189.116 386.965C188.28 386.834 188.267 384.357 189.551 384.949C189.146 385.598 190.257 387.154 189.116 386.965ZM199.088 334.651C199.003 335.048 198.276 335.476 197.96 335.078L197.698 333.849C197.508 333.819 193.165 335.49 195.397 333.724C196.61 332.759 199.984 332.218 201.588 331.932C200.503 333.176 198.573 332.41 199.088 334.651ZM197.128 363.292L195.024 363.428L195.19 362.308L197.233 362.629L197.128 363.292ZM201.946 334.063L200.814 333.885C201.032 333.4 201.588 333.511 202.017 333.608L201.946 334.063ZM203.953 333.101L203.441 333.378L203.547 332.702L204.004 332.774L203.953 333.101ZM205.512 333.52C205.354 333.495 205.246 333.347 205.27 333.19C205.294 333.042 205.439 332.934 205.6 332.959C205.748 332.982 205.857 333.127 205.833 333.278C205.809 333.435 205.663 333.543 205.512 333.52ZM198.686 384.309L198.008 384.202L198.415 383.813L198.753 383.866L198.683 384.308L198.686 384.309ZM198.88 396.34L198.658 396.306L198.87 394.957L199.092 394.992L198.88 396.34ZM199.597 392.534L199.466 394.121C198.619 394.205 199.148 392.765 199.597 392.534ZM210.227 336.929C209.675 334.088 209.413 330.656 208.638 327.908C208.576 327.672 207.77 325.688 207.677 325.607C206.903 324.934 205.753 326.191 205.084 326.441C203.93 326.887 202.351 327.2 201.16 327.673C200.758 327.751 200.436 327.451 200.49 327.026C200.721 325.615 206.33 324.303 207.432 323.373C208.396 322.543 206.527 320.844 208.037 320.356C209.452 319.909 209.457 321.682 210.46 321.784C211.037 321.841 213.947 320.647 214.197 320.988C214.694 321.684 210.814 323.267 210.699 324.207C211.886 326.111 211.787 328.613 212.073 330.798C212.409 333.28 213.421 337.263 211.907 339.599C210.504 341.755 210.322 337.393 210.234 336.927L210.227 336.929ZM204.222 384.489L204.293 384.034L205.424 384.221C205.206 384.706 204.652 384.586 204.223 384.486L204.222 384.489ZM210.826 416.904C210.709 415.655 211.067 414.404 210.973 413.405C210.688 410.248 209.458 407.583 209.529 403.879C209.59 400.724 210.09 398.987 213.538 400.934C214.302 400.837 214.326 397.515 216.491 398.922C216.911 400.468 216.021 401.767 215.852 403.263L216.504 403.602C215.14 403.788 215.507 404.558 214.93 405.547C213.749 407.545 212.396 408.691 211.834 411.177C211.16 414.084 212.647 415.68 212.568 418.238C212.556 418.863 212.502 420.528 211.66 420.495C211.423 420.405 210.872 417.433 210.826 416.907L210.826 416.904ZM211.679 440.63C213.114 439.568 215.728 441.289 214.964 442.777C214.152 444.356 210.363 441.621 211.679 440.63ZM213.913 446.006C215.038 445.956 214.916 449.568 213.996 449.692C212.666 449.871 213.006 446.533 213.913 446.006ZM215.577 453.167C215.93 455.534 212.083 459.673 212.728 454.243C212.823 453.427 212.849 451.268 213.986 451.417C214.625 451.485 215.478 452.558 215.577 453.167ZM238.164 377.923C237.919 379.148 236.789 380.678 237.219 381.802C237.817 383.387 237.934 383.254 237.474 385.214C236.474 389.593 233.933 392.358 231.882 396.162C231.086 397.646 230.157 399.404 229.277 400.809C227.764 403.184 224.297 406.831 223.342 409.114C222.329 411.558 222.344 414.649 221.001 417.117C220.131 418.71 218.374 420.033 217.842 421.827C217.139 424.221 219.041 429.447 214.97 428.171C214.62 429.163 215.817 429.265 216.427 429.804C217.643 430.901 217.55 432.334 216.993 433.803C216.732 434.497 215.824 435.303 215.691 435.814C215.473 436.656 216.374 438.308 215.026 439.025C212.554 440.321 211.789 435.06 209.217 435.336C209.074 433.747 210.022 433.378 210.729 432.343C212.326 430.043 213.136 425.851 213.951 423.074C214.235 422.081 215.004 420.711 215.144 419.762C215.247 419.042 214.641 418.258 214.54 417.389C214.271 414.97 214.753 411.481 217.472 410.667C218.669 410.303 220.038 410.82 220.639 409.221C221.028 408.192 220.357 407.696 220.41 406.667L218.099 406.252C217.569 405.975 217.917 404.786 218.035 404.308C218.598 401.836 220.017 399.433 220.761 397.111C221.526 394.713 221.624 393.478 222.991 391.133C223.128 390.895 224.246 389.353 224.363 389.306C224.677 389.172 225.84 389.637 226.564 389.458C227.883 389.137 229.934 384.22 230.389 382.919C230.869 381.58 231.668 379.686 231.529 378.345C231.339 376.448 230.705 376.056 228.776 376.337C227.753 376.488 225.94 377.684 225.299 377.616C224.497 377.533 225.204 374.565 225.358 373.857C225.966 371.1 226.657 368.691 227.099 365.813C227.21 365.042 228.037 360.957 228.363 360.598C228.159 360.868 227.426 360.687 227.481 360.341C227.54 359.963 228.852 359.963 228.363 360.598C228.413 360.553 229.074 360.838 228.962 359.763L228.247 359.887C227.815 358.782 228.759 358.435 228.874 357.557C228.926 357.164 228.176 356.961 228.342 356.327L229.078 356.194C229.097 354.48 229.985 352.22 229.936 350.581C229.923 350.244 229.061 347.17 228.889 346.753C228.517 345.874 227.45 345.696 227.874 344.594C228.693 344.562 230.749 345.069 231.128 344.252C231.505 343.448 230.924 342.72 230.852 341.94C230.752 340.854 230.983 338.816 230.727 338.031C230.551 337.494 228.877 335.311 228.304 335.221C226.672 335.247 224.872 337.663 224.55 339.103C224.253 340.451 224.575 341.841 224.136 343.187C223.818 344.184 222.655 345.232 222.48 346.406C222.387 347.061 223.019 348.641 223.078 349.569C223.171 350.782 223.054 353.583 221.74 354.145C220.974 354.468 220.06 353.235 219.985 352.596C219.903 351.946 220.321 351.634 220.305 351.189C220.286 350.828 219.693 350.111 219.606 349.49C218.822 343.718 217.63 336.594 215.874 331.047C215.403 329.558 213.355 326.289 213.558 324.935C213.784 323.349 214.906 323.463 215.779 322.734C217.764 321.069 218.939 319.524 221.583 318.643C223.665 317.955 222.726 318.12 224.173 316.715C225.005 315.907 229.233 313.374 230.31 313.487C232.444 313.704 232.255 315.877 233.195 317.279C234.069 317.167 234.042 316.374 235.005 316.181C235.598 316.057 237.042 316.415 237.581 316.694C238.736 317.276 238.444 318.74 238.733 319.1C239.415 319.943 241.986 320.757 243.017 321.729C248.038 326.427 246.458 335.666 243.073 340.912C241.979 342.631 241.473 341.849 240.548 340.473C239.391 338.735 238.408 336.43 237.226 334.613C237.043 334.335 233.532 330.37 235.835 331.112C236.659 331.383 237.256 333.184 237.766 331.869L238.381 332.172L237.804 333.076C238.978 334.308 240.171 338.805 241.814 339.171C242.989 339.431 242.895 337.473 243.164 336.662C244.097 333.89 245.146 330.611 244.48 327.654C244.412 327.394 242.196 323.202 241.938 322.912C241.714 322.683 239.891 320.96 239.759 320.896C238.921 320.505 237.154 320.487 236.193 320.477C235.515 320.243 236.145 318.645 234.181 318.638C233.04 318.643 232.644 321.098 231.315 321.149L232.052 321.491L232.108 321.953L227.705 323.464C228.945 324.824 230.69 325.381 231.925 326.773C233.553 328.617 234.17 333.195 236.029 335.377L238.776 342.961C239.683 344.033 242.128 342.483 243.505 343.727C244.531 344.643 244.809 349.863 244.563 351.217C244.175 353.414 242.477 355.038 241.93 356.863C241.547 358.185 241.613 359.784 241.231 361.105C240.962 362.058 239.955 363.498 239.632 364.377C239.228 365.502 239.064 367.366 240.336 367.977C241.155 368.365 243.845 367.523 242.358 369.266L239.818 369.136C239.566 369.29 238.732 372.734 238.606 373.387C238.349 374.752 238.41 376.629 238.154 377.928L238.164 377.923ZM238.166 388.89C237.56 388.805 238.377 386.311 238.543 385.861C240.358 381.058 242.585 377.455 243.917 372.143C244.091 371.458 244.466 367.056 245.285 367.171C246.375 367.343 245.004 371.103 244.878 371.838C244.089 376.316 242.333 383.006 239.928 386.928C239.463 387.686 238.962 388.441 238.166 388.887L238.166 388.89ZM237.903 400.157L237.224 400.051L237.33 399.375C237.767 399.368 238.042 399.756 237.903 400.157ZM247.228 413.104C247.386 413.129 247.485 413.273 247.461 413.423C247.437 413.58 247.302 413.681 247.142 413.655C246.981 413.63 246.883 413.496 246.908 413.336C246.931 413.189 247.067 413.079 247.228 413.104ZM245.791 420.658C245.268 422.335 243.944 424.97 242.536 426.046C240.711 427.443 238.913 427.981 237.039 426.23C235.99 425.244 236.339 424.262 235.996 423.194C235.355 421.127 234.454 420.585 234.424 417.944C234.415 417.372 234.568 414.468 235.023 414.28L235.858 414.421C236.282 416.421 236.746 418.923 238.451 420.218C239.291 420.114 242.255 422.437 242.49 421.089C242.641 420.193 241.511 418.342 243.656 418.009C245.481 417.724 246.316 418.955 245.789 420.655L245.791 420.658ZM243.842 415.317C243.765 416.017 243.423 416.741 242.783 417.084C242.51 417.225 238.966 418.05 238.665 418.036C236.87 418.003 237.593 416.991 237.391 415.988C236.937 413.756 237.233 412.776 237.035 410.867C236.921 409.726 236.866 409.383 236.82 408.23C236.805 407.903 236.397 407.546 236.381 406.95C236.369 405.641 237.63 400.87 238.671 400.114C240.055 399.11 241.024 400.474 241.415 401.7C242.013 403.619 242.599 406.521 242.999 408.527C243.354 410.342 244.054 413.545 243.842 415.313L243.842 415.317ZM249.597 392.077C249.732 391.764 249.55 391.269 249.632 391.036C249.976 389.878 252.11 391.694 249.597 392.077ZM252.937 384.057L251.582 383.844C251.521 383.123 252.647 383.427 253.043 383.381L252.937 384.057ZM267.771 431.269C266.085 431.782 265.639 430.133 265.001 429.094C263.7 427.009 264.215 427.471 263.659 425.276C263.231 423.577 262.533 423.048 262.463 420.952C262.195 413.068 260.449 406.281 260.646 398.329C260.667 397.502 259.894 395.585 261.169 395.148C263.744 394.279 261.716 400.71 261.78 401.898C261.927 404.826 262.939 410.95 263.83 413.778C264.759 416.786 268.518 420.045 268.256 423.73C268.199 424.574 267.59 425.979 267.62 426.394C267.708 427.704 269.009 425.003 269.225 425.014C269.508 424.931 269.87 425.126 270.031 425.335C271.104 426.734 269.167 430.838 267.775 431.266L267.771 431.269Z"
        fill="#010301" />
    <path
        d="M129.248 320.867C129.507 320.705 129.776 320.671 130.04 320.857C130.731 321.393 130.679 322.123 130.43 322.888C129.553 325.577 127.786 321.78 129.248 320.867Z"
        fill="#010301" />
    <path
        d="M132.381 382.924C132.43 382.968 132.665 384.029 132.645 384.2C132.519 385.214 131.578 385.684 130.632 385.391C130.444 384.639 131.628 382.241 132.384 382.925L132.381 382.924Z"
        fill="#010301" />
    <path
        d="M135.222 328C135.448 328.196 135.294 329.741 135.115 330.107C134.611 331.114 133.542 329.565 133.733 328.79C133.87 328.231 134.665 327.515 135.222 328Z"
        fill="#010301" />
    <path
        d="M135.431 323.857C135.436 324.898 134.608 325.388 133.845 325.902C133.117 324.849 134.199 323.056 135.431 323.857Z"
        fill="#010301" />
    <path
        d="M115.116 290.894L114.284 291.801L115.129 292.281L115.383 291.399C116.413 291.869 118.344 297.392 117.962 297.788C116.549 298.14 115.583 297.555 115.005 296.26C114.707 295.596 113.665 290.768 114.022 290.492L115.115 290.897L115.116 290.894Z"
        fill="#010301" />
    <path
        d="M139.115 290.047C137.86 290.083 137.782 289.427 137.519 288.415C138.35 288.456 139.396 289.054 139.115 290.047Z"
        fill="#010301" />
    <path
        d="M136.129 377.175C136.463 377.227 136.776 377 136.828 376.668C136.881 376.335 136.652 376.023 136.318 375.97C135.984 375.918 135.671 376.145 135.619 376.478C135.567 376.81 135.795 377.122 136.129 377.175Z"
        fill="#010301" />
    <path
        d="M135.092 331.873L134.986 332.546C134.56 332.531 134.321 332.454 134.139 332.065L134.191 331.731L135.092 331.873Z"
        fill="#010301" />
    <path
        d="M144.231 311.686C144.45 312.033 144.366 312.42 144.085 312.701C143.222 313.327 141.447 311.239 141.96 310.342C142.288 310.101 144.011 311.343 144.231 311.686Z"
        fill="#010301" />
    <path
        d="M229.98 372.381C229.864 372.218 231.167 369.124 231.367 368.673C231.818 367.644 233.499 364.057 234.304 363.59C235.638 362.821 236.788 363.619 236.86 365.094C237.018 368.326 232.934 369.963 231.148 372.206L229.977 372.384L229.98 372.381Z"
        fill="#010301" />
    <path
        d="M231.019 392.184C231.525 393.202 228.417 395.11 227.421 394.593C226.896 393.86 229.991 390.9 231.019 392.184Z"
        fill="#010301" />
    <path
        d="M228.864 321.91C228.741 322.652 227.097 323.064 226.557 322.89C226.178 322.768 224.722 321.082 225.091 320.854C226.565 320.784 227.491 321.793 228.861 321.909L228.864 321.91Z"
        fill="#010301" />
    <path
        d="M228.213 396.368C228.519 396.39 228.662 396.656 228.797 396.89C229.08 397.581 227.441 398.867 226.89 398.665C226.154 398.396 227.107 396.293 228.213 396.368Z"
        fill="#010301" />
    <path
        d="M237.222 252.007C238.605 253.826 238.857 258.602 238.253 260.743C238.118 261.224 237.949 261.631 237.484 261.886C236.118 261.242 237.292 259.791 237.409 258.772C237.488 258.079 237.409 254.725 237.294 254.05C237.148 253.194 236.224 252.444 236.197 251.652C236.17 250.86 237.058 251.794 237.219 252.01L237.222 252.007Z"
        fill="#010301" />
    <path
        d="M234.841 267.012C237.176 268.222 235.793 270.205 233.967 271.024C233.338 269.701 233.599 267.891 234.841 267.012Z"
        fill="#010301" />
    <path
        d="M235.356 262.938C235.736 264.019 232.928 265.278 232.833 264.269C232.757 263.492 234.618 262.557 235.356 262.938Z"
        fill="#010301" />
    <path
        d="M205.449 294.004C206.686 293.959 207.625 296.962 206.193 297.095C204.932 297.212 205.185 294.744 205.449 294.004Z"
        fill="#010301" />
    <path
        d="M266.815 426.872L266.732 427.528L264.695 427.209L264.936 426.537C265.639 426.346 266.212 426.495 266.815 426.872Z"
        fill="#010301" />
</svg>