<svg xmlns="http://www.w3.org/2000/svg" fill="none" viewBox="174.1 269.42 1267.75 559.61">
<g clip-path="url(#clip0_63_671)">
<path d="M1188.27 712.81C1186.66 712.154 1184.87 712.154 1182.99 711.397C1180.12 710.23 1174.76 706.83 1170.89 705.069C1156.23 698.353 1147.71 694.319 1136.47 685.842C1130.26 681.152 1119.96 673.351 1115.42 668.723C1113.64 666.9 1109.56 661.413 1108.99 659.693C1108.09 657.174 1110.99 654.901 1111.59 652.812C1112.82 648.656 1109.77 642.799 1108.11 638.151C1106 637.967 1106.65 638.294 1106.76 639.072C1106.88 640.281 1107.86 641.632 1107.98 642.861C1108.15 645.236 1107.31 647.836 1107.64 650.314C1107.47 651.44 1105.94 651.707 1103.66 651.563L1100 644.704C1094.08 641.693 1088.16 638.827 1082.43 635.714C1081.84 635.387 1080.71 635.305 1079.93 634.854C1072.21 630.452 1066.76 623.94 1059.29 619.804C1056.71 618.391 1053.29 618.432 1051.84 617.551C1049.95 616.384 1045.53 610.937 1043.54 609.197C1041.82 607.722 1030.13 599.368 1032.81 604.589C1033.76 606.412 1036.54 610.036 1038.2 611.92C1039.8 613.763 1045.61 617.797 1045.43 619.025C1045.18 620.336 1041.6 619.722 1040.04 620.234C1038.12 620.889 1039.84 623.551 1039.76 624.718C1038.69 635.202 1037.26 641.366 1029.72 650.13C1028.7 651.318 1029.62 652.771 1025.11 652.956C1023.89 652.935 1022.29 652.382 1021.45 651.727C1017.44 648.594 1018.27 639.175 1017.41 635.489C1015.84 628.936 1012.99 618.268 1009.67 611.777C1008.1 608.603 1002.81 605.101 1007.93 603.197C1013.54 601.129 1022.64 599.204 1030.5 599.142C1032.57 597.259 1043.4 595.825 1044.77 594.187C1047.19 591.382 1035.58 589.109 1032.55 588.003C1020.9 583.744 1012.46 577.785 1000.91 573.833C999.149 573.751 999.907 573.874 1000.21 574.529C1001.01 576.249 1009.39 583.437 1012.3 584.727C1017.13 586.897 1019.97 585.587 1024.44 586.406C1036.56 588.597 1033.28 598.364 1018.3 593.737C1012.28 591.894 1002.86 585.505 997.655 582.351C996.119 581.409 993.006 578.276 990.774 578.215C989.996 578.215 988.911 579.341 986.474 578.604L986.024 576.331L990.406 577.191C989.628 575.246 986.597 573.321 985.328 571.519C984.304 570.024 985.02 568.857 984.345 567.792C982.952 565.601 974.721 563.451 971.035 561.137C960.94 554.708 952.298 547.868 940.811 541.828C936.408 539.534 929.856 538.06 928.033 534.988C929.18 533.924 942.981 537.916 945.91 538.572C955.554 540.783 965.383 542.872 975.028 545.821C1002.81 554.318 1020.47 569.82 1043.32 581.717C1044.34 582.249 1045.59 582.638 1046.78 583.089C1047.52 583.068 1046.64 582.31 1046.37 581.942C1043.85 578.543 1028.02 571.15 1022.58 568.079C1012.01 562.079 1006.81 556.837 993.703 551.37C976.297 544.101 960.039 540.251 941.568 535.725C935.528 534.251 927.562 530.811 922.177 529.337C919.945 528.722 915.542 528.436 914.314 527.494C911.119 523.726 918.511 526.368 922.177 527.002C930.49 528.395 938.988 529.869 947.261 531.139C949.063 531.425 958.032 532.818 958.626 532.388C958.359 531.569 957.049 531.282 955.841 530.791C950.292 528.681 933.623 524.996 926.805 523.398C923.262 522.6 915.952 522.19 913.699 519.631C913.044 518.914 913.966 518.218 913.495 517.378C911.754 514.081 909.706 511.419 909.051 508.102C907.863 502.123 914.088 496.164 910.054 490.697C906.86 486.397 896.908 480.335 891.523 476.465C887.284 473.414 885.994 469.216 883.721 466.043C879.892 460.575 874.486 454.965 869.961 449.579C867.872 447.142 865.353 443.272 862.712 441.143C860.644 439.402 848.869 433.259 845.286 431.334C842.358 429.758 842.931 428.529 837.792 429.205C838.119 428.857 837.914 428.488 837.341 428.099C832.037 424.474 819.096 418.209 811.438 416.243C808.1 415.403 805.008 415.403 802.366 414.789C799.745 414.195 796.039 412.311 792.067 411.39C785.309 409.833 777.323 408.421 770.504 407.028C766.798 406.271 762.928 404.509 759.263 404.878C761.024 407.622 767.576 407.499 771.508 408.359C780.272 410.223 791.002 413.233 800.872 415.444C816.823 419.007 818.216 421.198 830.768 427.382C836.276 430.085 854.255 438.112 857.49 440.733C859.763 442.556 862.609 445.852 864.637 447.921C872.643 456.07 886.731 471.08 882.779 478.226C882.103 479.455 880.322 479.23 879.626 479.967C878.643 481.032 880.936 483.612 880.302 485.148C878.725 489.1 868.036 488.854 861.586 489.755C858.371 490.205 851.859 491.946 848.849 492.028C842.051 492.192 838.16 487.216 831.218 486.724C834.003 489.837 839.962 493.277 838.078 496.123C829.662 495.14 833 498.396 831.423 500.771C829.539 503.597 823.499 502.082 818.584 502.02C815.39 501.959 811.499 503.945 810.291 500.157C809.881 498.867 812.113 497.884 810.721 496.369C808.018 493.4 786.927 490.738 799.582 486.786C799.274 485.475 797.554 485.823 796.428 485.086C794.892 484.103 793.848 482.956 792.435 481.912C791.268 481.073 787.336 479.742 788.913 479.045C789.773 478.697 791.411 479.271 792.599 479.148C794.401 478.943 795.384 477.919 798.107 478.677C801.629 479.68 802.039 484.677 807.506 485.455C812.912 486.253 811.909 484.226 814.223 483.243C819.792 480.806 826.652 479.434 832.488 477.489C834.966 476.629 835.293 474.581 838.14 473.762C839.88 473.25 842.092 473.291 843.505 472.882C844.365 472.616 843.566 471.797 844.201 471.797C844.999 471.797 846.392 472.39 847.211 472.022C848.276 471.571 847.457 468.93 849.996 468.971L847.825 468.316L849.177 467.845L839.45 464.609C838.078 462.725 839.348 461.783 837.423 459.674C835.744 457.831 831.362 456.214 830.461 454.698C829.867 453.654 829.805 450.398 829.253 449.62C828.72 448.883 827.021 448.33 826.488 447.716C825.69 446.897 826.591 446.057 825.792 445.115C824.604 443.661 819.854 442.085 817.867 439.525C816.885 438.255 817.212 437.191 816.065 435.962C815.779 435.655 808.899 430.618 808.428 430.372C807.527 429.942 804.619 429.512 803.042 428.897C798.64 427.218 797.124 424.761 794.667 422.55C790.121 422.14 790.326 425.171 785.309 424.393C781.132 422.57 781.029 418.598 775.665 418.127C775.398 419.54 774.886 422.836 772.818 423.451C770.934 424.044 768.17 422.918 767.023 423.471L764.157 428.345C754.962 426.85 757.215 430.556 754.942 433.3C754.02 434.488 749.352 439.75 745.666 438.255C740.547 436.228 747.529 434.733 748.41 433.382C750.785 429.88 745.666 425.314 744.11 421.526C743.475 419.888 745.563 418.147 744.949 417.267C744.192 416.12 738.089 413.867 737.864 412.065L710.835 411.984C708.418 413.437 701.579 411.861 698.241 411.984C697.607 412.004 699.306 413.499 696.808 412.946L695.846 411.635C691.259 412.209 687.593 409.977 690.051 408.195C690.849 407.622 698.405 405.247 699.9 405.103C701.702 404.899 708.255 404.489 710.159 404.55C718.268 404.673 730.267 408.871 736.717 406.045L735.776 404.735C733.421 404.612 715.544 402.011 714.582 401.602C713.538 401.151 710.057 397.895 707.906 396.749C703.586 394.455 696.644 393.083 692.836 390.155C690.481 388.312 687.88 384.401 687.409 382.517C687.081 381.268 688.904 380.367 690.092 379.589C688.986 377.787 681.88 380.654 681.205 381.084C670.598 387.657 678.727 396.401 682.024 405.41C682.618 407.049 680.14 409.322 680.59 410.161C682.024 412.844 690.378 412.209 693.655 416.468C696.849 420.645 690.419 421.014 687.225 423.225C686.672 423.635 683.027 427.096 682.884 427.464C682.126 429.553 684.686 433.259 684.297 435.593C684.03 437.006 681.901 438.419 681.45 439.73C680.816 441.47 682.556 446.262 680.488 446.958C679.034 447.429 676.597 446.692 674.652 446.938C672.625 447.183 672.461 448.678 670.741 448.801C668.509 448.944 667.198 447.757 665.54 447.552C657.779 446.426 659.54 451.504 655.957 451.176C652.557 450.869 637.548 439.115 630.995 442.924C632.572 446.446 631.487 448.535 634.435 452.159C638.838 457.606 648.093 461.701 649.117 467.353C649.486 469.442 648.093 471.264 649.322 473.599C647.295 475.462 642.462 472.882 639.309 472.288C633.289 471.162 625.61 470.568 618.955 469.094C606.28 466.329 607.017 461.251 602.369 456.152C599.993 453.49 589.284 445.299 585.229 443.027C584.206 442.453 573.353 437.928 572.186 437.58C570.936 437.232 569.257 436.72 568.152 436.945L567.517 438.931C568.745 440.078 573.967 440.876 575.728 441.593C576.998 442.105 589.386 449.211 590.164 449.927C591.393 451.033 594.546 455.149 594.71 456.132C595.324 459.469 585.741 456.439 582.752 456.275C579.66 456.091 573.394 456.152 570.302 456.234C568.807 456.275 553.552 458.22 558.057 455.436C560.35 454.023 574.97 453.859 575.38 453.429L574.418 452.118C568.705 451.094 565.592 452.466 559.818 451.524C549.006 449.784 554.227 447.798 551.238 444.235C548.31 440.713 541.573 440.385 548.228 437.498C549.661 436.863 555.415 436.228 550.644 434.774C542.678 432.358 542.965 436.863 541.265 437.436C540.528 437.682 538.972 437.273 537.969 437.436C527.853 439.341 533.689 457.975 539.607 463.708C541.102 465.183 545.013 466.677 546.958 468.295C548.842 469.851 554.268 475.237 551.074 475.79C547.879 476.322 539.73 469.851 534.119 469.626C528.037 471.756 533.976 478.206 533.648 481.523C533.279 485.475 526.113 487.728 524.27 491.393C523.021 493.953 524.7 504.027 523.184 504.805C519.765 506.464 515.321 504.58 511.554 504.068C509.956 503.843 505.144 504.416 504.612 502.881C510.571 499.051 507.888 493.297 510.386 488.321C511.328 486.438 514.645 483.857 514.564 482.035C514.461 480.745 508.031 470.629 506.496 468.725C503.383 464.793 477.418 448.473 470.231 444.276C462.143 439.545 422.192 423.819 412.2 421.874C397.006 418.905 381.423 416.427 366.577 414.727C364.161 414.441 362.379 414.871 359.656 414.338C356.502 413.765 349.254 410.673 348.721 408.83C347.37 409.752 345.138 413.417 341.309 412.352C338.933 411.717 340.879 408.81 339.24 407.397C338.196 406.516 330.64 404.202 328.347 402.994C326.135 401.827 320.217 397.179 324.907 397.732C332.401 398.612 340.612 408.973 344.872 409.793C345.056 408.175 347.513 407.888 345.813 405.943C344.974 405.001 333.773 397.302 332.114 396.401C330.886 395.745 324.067 393.411 322.511 393.104C317.105 392.019 310.675 391.24 305.372 390.729C301.972 390.421 300.6 389.582 296.587 390.135C294.601 390.38 284.833 394.537 283.257 395.5C279.223 398.039 276.581 403.219 277.953 407.253C280.185 413.908 292.184 420.952 290.976 427.096C290.833 427.956 289.297 428.017 288.929 428.611C285.816 433.361 278.363 438.747 279.837 444.48L286.246 457.504C286.799 460.739 272.322 459.777 268.513 457.913C266.814 457.094 262.616 451.504 260.773 449.763C252.787 442.31 238.576 435.675 223.669 434.611C222.42 434.508 214.311 434.242 213.676 434.283C212.959 434.365 203.274 437.621 202.229 438.092C193.609 442.126 198.052 450.275 198.482 456.746C199.629 458.323 207.226 460.821 209.683 463.176C211.403 464.773 215.109 469.114 216.379 470.834C219.881 475.646 213.512 476.772 211.096 479.783C205.69 486.56 206.141 495.877 202.659 502.737C200.673 506.628 194.551 501.816 188.408 500.239C185.623 499.522 176.306 497.72 174.708 498.458C172.681 499.952 176.306 501.631 177.227 503.044C178.497 505.01 178.517 506.751 180.77 509.003C183.165 511.399 189.452 514.327 192.36 516.621C199.854 522.538 189.739 530.688 193.547 536.585C196.434 540.988 202.004 544.203 205.67 547.991C212.898 555.547 222.686 571.048 225.205 578.543C227.723 585.996 224.201 588.658 238.514 596.419C241.729 598.139 252.889 603.606 256.35 605.081C258.991 606.227 262.862 607.026 265.749 607.067C277.318 607.251 285.529 603.545 289.092 598.671C290.444 596.788 284.669 586.692 295.481 592.119C297.14 592.958 311.924 604.118 314.299 606.002C315.876 607.272 318.518 609.401 319.234 610.671C320.791 613.558 313.869 615.278 311.433 617.183C304.921 622.302 309.61 627.769 320.75 633.83C330.087 638.909 338.831 640.321 348.475 638.929C348.865 640.362 352.223 640.915 353.39 641.673C358.12 644.704 358.571 649.393 361.007 652.341C362.953 654.696 371.491 660.471 375.095 662.826C379.191 665.488 394.897 673.678 396.76 675.562C397.722 676.545 399.135 678.531 399.115 679.432C399.094 683.425 391.846 689.835 391.354 694.196L392.05 696.572L398.501 697.432L390.781 698.312C391.641 701.711 395.613 705.848 400.671 708.919C408.78 713.874 419.448 716.229 429.052 719.936C445.085 726.12 467.794 737.873 480.941 745.818C486.531 749.238 488.292 751.9 495.991 754.767C502.359 757.122 507.663 758.289 513.867 761.442C527.525 768.384 533.689 778.213 553.306 780.936C558.446 781.653 562.5 780.691 566.083 781.223C570.691 781.899 572.329 784.806 577.264 784.622C578.452 784.602 586.376 782.554 587.85 782.124C593.113 780.588 603.044 777.046 600.341 772.787C597.536 768.425 591.905 767.79 588.792 765.21C585.864 762.794 582.465 759.272 579.742 756.753C579.086 756.118 577.489 755.525 576.834 754.808C574.438 752.043 581.011 753.579 583.939 754.337C595.468 757.367 607.836 764.002 619.651 763.859C627.883 763.736 632.9 756.057 633.944 752.248C635.234 747.518 633.473 741.498 634.62 737.075C635.254 734.699 639.575 732.078 638.92 729.539C638.428 727.471 635.766 725.362 634.886 723.355C634.149 721.758 635.746 720.591 634.804 718.728C633.248 715.554 629.623 713.301 627.105 710.475C625.118 708.182 617.644 696.469 627.76 699.848C632.736 701.506 633.78 703.472 636.401 705.561C651.37 717.437 666.953 730.829 674.55 743.648C679.935 752.76 675.246 757.531 689.477 767.34C694.412 770.718 697.832 772.623 701.763 776.595C705.449 780.322 704.978 784.192 708.459 788.042C713.906 794.123 735.673 798.833 744.785 797.461C747.222 797.093 748.062 794.82 751.236 794.84C757.276 794.881 760.901 797.994 764.812 798.915C772.429 800.697 784.674 798.157 782.913 794.123C780.456 788.595 769.46 782.534 764.546 776.8C762.232 774.118 761.822 771.926 760.102 769.51C755.761 763.347 748.082 756.18 748.492 750.221C748.533 749.422 748.574 748.685 750.253 748.583C752.382 748.562 762.211 754.091 764.361 755.381C778.347 763.695 779.801 765.62 784.838 774.773C787.377 779.339 788.545 784.213 791.698 789.004C793.295 791.42 796.203 795.782 802.244 796.007C804.066 796.089 812.113 794.431 813.772 793.919C817.642 792.772 824.195 787.96 823.56 785.196C822.311 780.261 810.537 775.039 804.476 770.739C791.78 761.729 782.913 750.037 772.859 740.413C764.116 732.058 750.888 723.99 743.454 715.697C738.642 710.373 738.11 707.24 749.925 708.039C751.399 708.141 752.853 708.673 754.02 708.776C762.703 709.513 764.771 709.021 772.429 713.752C780.968 719.014 800.134 732.283 806.667 737.853C813.69 743.812 818.134 753.866 825.26 760.398C835.519 769.858 855.054 777.353 864.125 787.735C867.913 792.096 868.896 796.908 872.991 801.004C875.96 804.014 881.551 804.771 884.438 808.764C887.12 812.45 885.011 816.443 886.67 819.842C887.55 821.685 891.646 827.398 895.393 828.443C902.171 830.409 916.853 826.743 923.508 826.6C926.354 825.207 913.72 815.542 910.485 813.454C907.618 811.611 902.191 809.563 899.57 807.556C896.007 804.792 895.086 800.799 892.485 798.076C891.093 796.622 883.434 792.117 881.121 790.212C874.67 784.909 869.879 778.848 864.555 773.483C855.565 764.432 855.75 757.388 843.73 748.378C840.433 745.941 835.334 743.156 832.14 740.781C822.086 733.287 811.929 723.294 804.23 715.41C799.152 710.271 792.087 704.578 796.51 700.319C793.561 700.646 791.043 701.445 788.442 702.059C786.579 702.53 784.838 703.472 781.541 703.738C780.067 703.861 779.719 704.23 777.876 703.308L792.66 699.643L791.022 697.391L794.667 697.8C792.886 694.811 801.691 695.261 803.718 693.09L805.704 695.834L805.54 694.442C807.363 694.442 809.062 695.302 811.335 695.568C821.164 696.756 830.666 698.701 840.372 701.936C854.275 706.585 858.76 710.475 867.176 716.987C875.305 723.253 882.82 729.724 890.049 736.174C892.342 739.696 885.912 739.471 883.865 741.354C879.646 745.245 883.783 750.139 889.946 754.91C895.721 759.374 894.553 757.982 901.925 759.047C911.918 760.48 921.767 763.633 929.098 760.828C933.152 759.292 927.398 752.494 924.982 749.668C916.361 739.675 907.147 730.522 899.509 720.468C898.444 719.035 893.263 712.769 895.004 712.421C899.755 711.499 914.744 722.311 918.552 724.174C921.194 725.444 918.696 723.499 920.231 723.703C922.484 725.28 922.422 727.082 923.733 728.475C924.921 729.744 927.665 730.932 929.221 732.631C935.835 739.778 938.558 745.225 949.206 752.351C960.755 760.07 975.54 769.367 980.659 778.192C984.57 784.929 985.041 785.032 991.819 791.605C996.999 796.622 997.778 799.714 1007.36 803.973C1016.15 807.863 1025.81 804.526 1029.35 801.679C1032.79 798.854 1029.97 789.782 1023.74 786.178C1016.86 782.165 1011.78 785.032 1005.93 781.387C992.494 773.012 983.157 763.777 976.543 754.275C973.533 749.914 972.407 745.368 967.738 741.047C966.284 739.655 964.175 739.143 962.68 738.078C948.49 727.614 933.808 717.212 923.16 705.95C920.969 703.657 914.621 695.22 913.863 693.152C912.123 688.626 925.105 694.626 927.951 696.019C945.664 704.885 957.008 714.673 969.519 724.707C975.908 729.826 982.952 733.655 987.478 739.368C990.119 742.706 989.996 744.754 991.757 747.62C993.744 750.856 998.351 754.275 999.866 757.654C1000.64 759.497 998.781 760.357 998.719 761.831C998.638 763.019 1000.79 770.37 1001.67 771.476C1005.95 776.82 1019.4 774.425 1025.44 775.285C1030.17 775.981 1035.46 782.37 1036.99 784.52C1040.8 789.864 1041.74 791.851 1047.04 797.379C1050.92 801.413 1047.04 804.075 1046.92 807.474C1046.88 808.416 1048.05 815.706 1048.46 816.177C1049.69 817.549 1053.78 818.737 1056.24 818.675C1059.68 818.614 1058.18 816.607 1060.54 815.87L1061.32 818.655L1071.74 817.569L1066.46 810.28L1063.9 810.075C1063.28 806.717 1065.62 805.509 1070.47 804.239C1069.69 807.474 1075.84 810.484 1071.21 813.249C1080.95 818.204 1083.74 814.764 1081.04 810.136C1079.93 808.171 1074.93 804.792 1073.48 802.601C1072.15 800.553 1074.38 798.301 1073.81 796.458C1071.11 788.124 1060.52 785.114 1054.19 778.274C1051.63 775.51 1051.02 772.254 1048.7 769.654C1043.56 763.879 1038.63 761.34 1036.54 754.726C1035.56 751.593 1034.49 745.716 1048.33 754.398C1052.92 758.023 1057.43 761.586 1061.95 765.19C1074.57 777.926 1071.37 773.913 1074.3 779.523C1075.55 782.001 1080.81 786.67 1086.36 787.325C1095.98 788.451 1107.37 785.81 1111.85 782.574C1114.93 780.363 1114.82 773.073 1108.41 770.37C1104.67 768.794 1094.35 768.814 1090.09 768.404C1079.73 767.422 1071.7 759.067 1067.85 754.664C1061.36 747.293 1058.72 741.559 1049.54 734.126C1039.12 725.731 1028.9 719.362 1020.94 710.168C1015.2 703.534 1007.4 688.504 1029 701.773C1041.74 709.595 1047.47 717.949 1057.3 726.058C1059.6 727.983 1063.96 730.072 1065.78 732.324C1069.12 732.693 1064.47 730.154 1068.46 730.932C1072.07 731.628 1075.57 736.624 1082.18 736.174C1083.13 736.092 1089.27 735.273 1090.29 735.089C1094.82 734.188 1099.04 728.741 1104.22 728.372C1106.67 728.229 1114.45 728.556 1116.15 730.379H1117.12C1123.87 728.352 1137.68 720.796 1126.76 715.328C1120.6 712.257 1117.24 712.646 1111.3 711.376C1105.55 710.127 1105.02 708.018 1101.64 705.807C1086.22 695.773 1075.77 687.623 1062.75 676.893C1059.82 674.477 1056.63 673.658 1056.46 671.016C1056.2 667.351 1062.65 659.447 1072.17 661.74C1072.64 661.843 1079.93 664.914 1080.79 665.344C1087.26 668.477 1092.46 672.593 1098.07 676.054C1110.44 683.671 1139.95 701.547 1147.1 709.349C1149.02 711.458 1151.15 716.311 1154.65 718.195C1155.86 718.83 1158.42 718.83 1159.36 720.079C1160.04 720.959 1158.81 722.004 1159.16 722.966C1160.9 727.963 1178.2 735.764 1187.66 735.457C1192.98 735.273 1200.79 731.874 1201.79 729.273C1203.14 725.649 1196.08 716.127 1188.46 712.973L1188.23 712.933L1188.27 712.81ZM765.262 429C765.836 429 766.47 429.246 766.696 429.532C766.921 429.86 766.655 430.106 766.081 430.106C765.528 430.106 764.894 429.86 764.668 429.553C764.443 429.246 764.709 429 765.262 428.979V429ZM701.374 400.742L701.927 402.134L698.569 402.605C696.869 400.885 698.528 400.598 701.415 400.742H701.374ZM400.794 696.735C399.033 696.981 394.978 694.319 397.19 694.012C399.197 693.746 403.149 696.387 400.794 696.735ZM803.226 779.339C807.117 775.428 821.553 789.803 809.595 787.223C805.254 786.301 801.998 780.568 803.226 779.339ZM1003.92 788.288C1004.66 786.67 1010.76 788.984 1012.28 789.045C1013.85 789.107 1014.77 788.369 1016.74 788.595C1025.18 789.557 1022.58 798.956 1019.65 799.488C1012.21 800.84 1003.02 790.335 1003.92 788.267V788.288ZM1095.6 777.885C1094.78 775.326 1099.04 776.042 1099.71 775.203C1100.26 774.568 1098.42 772.295 1099.94 771.988C1106.88 772.152 1107.68 778.397 1105.9 780.24C1103.44 782.8 1096.72 781.284 1095.58 777.885H1095.6ZM1029.78 721.983C1030.27 721.512 1033.76 722.843 1033.26 723.335C1032.77 723.806 1029.29 722.434 1029.78 721.983ZM1035.91 668.416C1037.99 668.293 1040.33 668.559 1042.5 669.501L1036.89 669.788L1035.89 668.416H1035.91ZM1006.62 621.237C1003.74 618.514 1004 616.2 1002.73 613.661C1002.24 612.616 997.552 608.05 1001.01 608.398C1004.51 608.767 1004.82 614.91 1005.33 615.995C1006.07 617.633 1010.64 621.073 1006.62 621.257V621.237ZM992.269 585.402C996.958 584.071 1012.89 593.163 1004.15 593.143C1001.93 593.143 999.62 591.75 998.208 592.446C996.918 597.095 1003.39 603.873 989.484 603.402C987.089 601.17 991.368 601.108 992.249 600.289C992.515 600.043 993.252 594.146 993.17 593.798C992.597 591.627 984.775 588.904 990.242 587.696L995.402 588.576L992.269 585.382V585.402ZM973.082 586.099C969.724 583.048 976.133 581.123 980.249 582.904C988.44 586.426 979.492 591.935 973.082 586.099ZM983.812 579.485L986.003 580.181L986.474 580.836H984.795L983.792 579.485H983.812ZM930.879 545.657C928.443 541.418 931.228 541.131 938.19 544.223C944.66 547.09 957.213 554.155 955.657 557.8C955.452 558.23 950.599 559.049 954.039 560.912C958.4 563.267 957.049 558.23 957.889 558.107C963.561 558.475 971.014 563.984 972.693 566.461C973.533 567.649 973.164 568.959 973.82 570.209C974.864 572.277 979.696 575.963 974.843 576.372L969.683 569.267L966.653 569.062C967.615 572.85 968.537 579.382 958.728 572.686C954.059 569.512 954.469 567.71 951.377 564.946C943.432 557.759 935.548 554.073 930.838 545.677H930.879V545.657ZM856.159 495.202C862.609 491.168 877.68 493.604 884.274 487.154C885.974 485.434 886.875 478.001 892.752 479.864C893.509 480.11 900.389 483.898 901.024 484.41C912.737 494.096 905.55 500.71 905.734 508.962C905.795 511.952 911.508 519.016 902.232 518.013C894.84 517.194 888.042 514.798 881.182 513.16C876.186 511.952 863.531 510.047 860.5 507.222C857.756 504.703 857.122 501.324 853.538 498.621C853.313 498.089 855.647 495.57 856.159 495.202ZM811.602 506.239L815.083 505.624C815.82 506.403 816.004 507.344 816.864 508.061C817.253 508.389 821.103 508.491 818.113 509.74L816.782 509.065L810.025 521.494C805.09 522.395 804.926 525.671 799.152 526.081C798.128 525.159 798.66 524.873 799.008 524.238C800.667 521.351 806.216 519.098 808.202 516.293C810.168 513.508 810.537 509.372 811.602 506.259V506.218V506.239ZM795.609 513.058C795.466 510.928 796.531 509.228 801.179 509.454C803.452 510.948 800.79 514.962 798.087 514.368L795.609 513.058ZM756.846 451.832L758.628 451.361L760.307 452.036L760.778 452.692L757.481 452.733L756.826 451.832H756.846ZM723.121 419.499C723.776 419.376 724.411 419.335 725.23 419.458C726.602 419.642 733.236 423.86 733.769 424.597C735.059 426.297 732.254 428.816 729.592 428.549C727.134 428.283 718.084 420.4 723.141 419.499H723.1H723.121ZM711.388 445.259C712.432 445.545 713.599 445.299 714.602 445.34L716.241 449.927C711.224 450.05 707.313 446.282 706.145 444.03C709.115 443.395 710.384 444.992 711.367 445.279H711.408L711.388 445.259ZM699.265 432.44C706.391 436.433 699.88 436.761 695.538 434.815C690.133 432.399 692.754 428.734 699.265 432.44ZM687.143 439.484C690.685 434.918 697.648 438.481 696.255 442.044C696.071 442.494 694.945 442.678 694.822 442.945C694.515 443.641 694.003 444.317 693.982 445.095C694.003 446.303 696.726 451.238 691.3 449.968C686.344 448.842 685.771 441.245 687.163 439.484H687.143ZM667.362 452.016C668.366 452.016 669.901 452.651 671.212 452.692C673.751 452.753 675.225 451.832 679.034 452.282C680.386 452.446 688.72 454.637 689.723 455.272C691.423 456.377 692.508 458.241 692.754 459.408C692.999 460.35 690.604 463.872 689.621 464.466C687.245 465.776 684.993 465.08 681.921 465.101C680.14 465.101 678.276 466.247 675.614 464.65C674.242 463.811 675.082 462.93 673.771 461.886C672.584 460.964 669.84 460.391 668.918 459.408C667.321 457.565 669.451 456.296 663.021 454.412C662.018 453.306 665.499 451.954 667.321 452.016H667.362ZM676.188 479.946C683.785 478.902 688.515 484.349 687.266 487.543C687 488.28 682.843 491.68 681.839 492.028C678.072 493.277 671.765 490.185 671.294 487.625C671.191 486.949 673.239 485.578 673.608 484.574C674.222 482.977 672.727 480.417 676.188 479.946ZM638.797 448.043C640.599 448.105 644.203 448.207 645.534 449.149C646.332 449.722 652.127 454.555 652.435 454.985C653.151 455.927 653.417 457.34 652.455 457.975C649.076 458.487 632.551 449.722 638.817 448.043H638.776H638.797ZM700.146 512.771C698.979 511.256 695.928 503.024 701.989 505.44C707.292 507.652 706.596 514.655 712.719 515.412C714.521 515.638 714.582 515.371 714.787 514.675C715.524 512.484 712.166 503.597 714.193 502.532C715.708 501.734 718.944 502.143 720.193 503.618C722.158 505.973 718.309 508.225 721.298 510.785C726.192 511.174 726.438 508.225 725.885 506.157C724.902 502.164 719.455 497.946 717.531 494.034C716.732 492.437 717.899 489.796 717.121 488.956C715.995 487.646 703.422 485.25 699.061 481.994C698.487 481.564 694.289 478.042 694.085 477.735C693.327 476.383 696.009 476.076 695.887 475.749C695.293 474.397 689.58 472.247 690.378 468.746C691.3 464.916 698.078 470.834 701.456 469.79C705.736 468.438 700.31 459.224 699.757 456.275C698.815 451.422 701.661 448.371 712.391 453.326C714.05 454.084 715.503 455.476 716.896 455.988C720.561 457.36 721.421 455.927 723.326 459.818C725.578 464.425 717.387 466.043 720.766 470.015C722.179 471.653 745.359 484.738 746.956 484.718L749.454 482.363L755.781 483.694C755.781 481.994 762.191 480.745 756.396 478.185C755.536 480.561 743.454 476.158 741.98 474.766C740.342 473.271 742.902 466.944 744.765 466.759C747.447 466.473 755.884 469.544 757.338 471.141C758.259 472.145 757.624 473.046 758.976 474.151C760.307 475.216 765.754 476.445 767.003 477.51C768.518 478.759 767.228 480.192 769.829 481.769C772.777 483.591 786.784 484.165 787.275 486.868C788.012 490.861 767.33 481.052 764.034 481.81C763.727 483.346 760.594 483.96 757.993 484.451C762.682 485.987 769.01 486.827 773.678 488.199C775.173 488.649 784.388 491.925 785.514 492.458C791.043 495.161 788.217 499.215 792.845 500.219C795.65 500.812 797.37 499.748 799.213 502C800.974 504.212 794.708 509.495 790.899 509.699C786.927 509.863 784.654 507.959 782.258 506.341C774.19 501.058 773.33 498.58 780.047 495.284C776.217 493.42 772.675 493.953 768.518 493.052C762.764 491.803 756.191 488.219 750.437 486.601C754.328 490.328 760.286 493.502 765.201 496.942C772.941 502.307 779.985 507.693 787.377 513.058C791.555 516.088 798.619 518.73 795.22 521.883C793.746 523.296 789.077 526.798 786.988 527.924C785.186 528.927 784.715 529.89 781.07 528.231C773.924 524.975 776.34 523.685 773.494 520.757C771.999 519.221 765.938 516.661 765.733 515.74L767.269 515.003C776.115 517.522 775.89 516.129 772.102 511.993C767.863 507.426 754.307 497.741 747.652 493.42C746.854 492.888 738.151 488.792 737.291 488.547C731.516 486.909 733.503 491.516 730.431 492.826C728.936 493.461 727.093 493.174 725.496 493.543C719.763 494.997 722.977 500.321 728.568 499.031C730.718 498.539 730.226 496.451 734.076 497.352C735.591 500.034 738.909 503.208 740.219 505.809C741.181 507.713 741.161 515.863 740.813 517.911C740.649 519.057 739.748 520.143 738.827 521.084C744.294 524.32 745.748 519.958 747.345 518.443C750.724 517.952 754.102 525.385 754.123 526.654C754.205 528.19 752.157 528.19 751.911 528.825C751.051 531.221 761.433 539.514 757.235 540.374C756.027 540.599 754.471 540.64 752.976 540.067C751.399 539.452 744.519 534.538 741.55 533.104C726.151 525.651 694.904 520.388 685.054 526.92C683.744 527.801 684.071 530.913 679.259 528.559C675.164 526.593 672.522 522.436 672.993 520.286C674.488 513.16 688.986 514.245 700.207 512.873H700.166L700.146 512.771ZM747.12 508.348C745.297 503.392 739.912 498.396 738.315 493.502C738.397 492.99 740.178 492.847 740.874 493.052C741.345 493.174 747.816 497.188 748.103 497.413C752.874 501.55 763.89 512.116 763.378 515.699C762.723 520.47 762.948 519.139 765.221 524.299C766.02 526.122 766.552 530.913 761.044 527.637L754.471 516.191L747.099 508.348H747.14H747.12ZM764.771 549.957C764.095 549.936 763.276 550.08 762.703 549.977C759.181 549.363 760.327 547.295 764.771 549.957ZM762.17 556.837L755.126 557.779C749.495 557.288 751.154 550.735 755.966 551.636C760.184 552.803 760.983 554.871 762.15 556.837H762.191H762.17ZM695.067 527.166C695.293 527.473 695.027 527.719 694.474 527.739C693.9 527.739 693.266 527.494 693.04 527.207C692.815 526.879 693.081 526.634 693.655 526.634C694.207 526.634 694.842 526.879 695.067 527.187V527.166ZM711.879 578.666C710.098 579.403 699.818 581.676 700.002 582.269C704.917 587.962 712.985 593.962 717.469 599.593C718.084 600.351 718.022 601.067 718.534 601.804C718.882 602.316 722.629 605.204 719.23 604.876C716.507 604.589 713.21 600.33 712.043 599.286C701.415 589.948 692.672 580.447 682.331 571.007C680.938 569.717 673.915 564.926 673.28 564.045L668.468 557.41C672.113 556.591 675.41 560.134 677.867 562.038C683.928 566.707 688.515 571.519 693.962 576.188C695.6 577.601 698.241 578.809 698.692 580.631C700.576 581.389 711.388 575.635 712.739 577.027C713.988 578.297 713.067 578.195 711.838 578.645H711.879V578.666ZM752.649 633.093C751.87 633.4 749.249 632.397 749.516 632.233C750.314 631.905 752.956 632.929 752.649 633.093ZM692.958 559.438C687.88 557.042 683.846 552.312 683.641 549.465C690.87 547.582 710.241 559.868 705.92 561.895C704.589 562.53 694.781 560.277 692.917 559.438H692.958ZM631.773 473.947C634.579 473.599 644.141 476.752 643.24 478.411C643.118 478.554 639.473 479.68 638.961 479.721C635.132 479.967 626.613 475.114 631.794 473.967L631.773 473.947ZM644.551 497.311C649.117 496.43 660.4 503.822 651.513 503.618C645.739 503.495 640.537 498.068 644.551 497.311ZM670.802 529.316C672.666 529.541 686.549 535.398 687.982 536.463C692.201 539.678 681.246 542.36 676.7 542.36C674.55 543.425 681.901 547.889 674.918 549.875C673.137 550.366 654.871 552.987 653.151 552.967C652.68 552.967 643.773 551.329 643.322 551.145C639.206 549.425 642.769 548.298 643.507 547.418C644.039 546.865 643.015 545.595 644.428 545.288C646.599 544.797 648.626 546.148 651.001 546.578C655.424 547.397 671.97 545.739 672.891 543.793C674.202 541.029 664.659 539.411 661.813 537.896C658.27 536.012 655.26 532.183 658.823 531.139L670.864 529.316H670.823H670.802ZM595.898 546.742C597.884 545.616 608.204 546.599 609.167 549.404C609.802 551.616 604.293 553.028 600.259 551.554C598.15 550.776 594.567 547.52 595.857 546.742H595.898ZM581.257 539.862C583.673 539.739 587.809 539.698 590.328 540.845C592.007 541.602 593.133 542.892 593.482 543.855C589.98 545.8 579.844 542.606 581.257 539.862ZM597.27 539.698L596.594 538.777H599.072L599.747 539.678H597.27V539.698ZM588.567 528.251C586.437 526.675 583.837 522.989 586.888 522.375C589.734 521.801 596.389 524.422 599.543 525.61C607.959 528.866 618.586 534.743 619.487 539.596C620.122 543.159 613.856 539.125 612.156 538.387C607.017 536.155 591.762 530.627 588.526 528.231H588.567V528.251ZM651.247 594.494C650.592 593.757 650.244 593.429 650.878 592.876C651.042 592.754 655.404 591.013 655.895 590.89C658.127 590.296 661.076 590.194 663.922 590.235C665.826 590.89 660.83 592.733 660.257 592.917C659.131 593.286 652.23 594.924 651.247 594.515V594.494ZM672.789 620.746C673.034 623.817 674.57 626.868 673.403 629.694L671.069 629.796C669.348 629.141 668.222 619.21 667.792 617.49C667.198 615.319 663.451 609.176 665.13 607.927C665.704 607.477 666.175 607.128 667.587 607.231C674.693 611.408 672.502 616.671 672.789 620.746ZM673.608 600.678C672.789 597.361 672.318 592.754 679.976 592.836C685.894 596.521 683.396 598.938 683.785 602.009C684.153 604.569 686.631 615.381 683.088 616.22C682.536 616.343 681.123 616.466 680.447 616.261C678.973 615.299 678.194 614.541 677.642 613.476C676.126 610.302 674.365 603.914 673.587 600.699L673.608 600.678ZM675.533 588.597C673.669 589.068 671.478 589.375 669.41 589.703C668.325 588.781 670.516 588.064 671.355 587.655C672.686 587.061 680.242 584.42 681.819 584.952C684.481 585.894 676.229 588.433 675.533 588.597ZM650.776 558.291L653.909 558.045L653.336 558.946L650.776 558.291ZM684.317 589.559L684.583 590.46L682.699 589.58H684.317V589.559ZM711.101 622.937C711.306 624.124 708.623 623.899 706.78 623.879C706.473 622.814 709.504 623.121 711.101 622.937ZM602.287 467.312L604.457 467.005C606.955 467.804 617.173 473.087 616.231 474.029C607.385 474.909 604.641 471.51 602.246 467.312H602.287ZM597.597 465.817C599.195 467.394 602.041 476.752 596.246 475.134C594.219 474.54 591.352 469.012 589.837 467.701L580.458 464.875C576.588 461.661 592.54 460.882 597.577 465.817H597.597ZM570.527 465.408C571.244 465.633 580.131 471.346 580.417 471.838C581.953 474.274 576.711 475.626 572.738 472.984C570.158 471.264 570.097 469.278 566.493 467.537C565.06 466.862 562.561 466.78 561.763 465.654C561.374 464.548 568.295 464.732 570.527 465.449V465.408ZM589.673 487.113C593.379 487.83 596.655 489.755 599.85 489.263C601.898 488.915 603.781 480.172 607.324 478.984C613.59 476.895 612.197 483.653 612.566 484.943C612.976 486.54 615.74 491.024 614.88 491.925C614.122 492.724 608.675 493.297 609.617 494.505C611.87 497.372 617.603 499.911 620.859 502.451C627.268 507.426 632.592 514.204 640.087 519.078C644.817 522.129 662.591 528.927 643.425 526.327C642.544 527.187 650.325 536.135 651.083 538.019C652.271 540.988 645.083 537.138 643.855 535.725C642.667 534.354 642.503 532.203 641.602 530.729C640.578 529.05 638.92 527.35 637.978 525.692C637.302 524.525 634.722 516.191 631.569 516.313C631.057 517.255 630.872 518.259 628.333 518.156C625.958 516.231 627.371 514.778 626.798 513.139C625.733 509.904 620.081 506.792 617.296 503.495C616.313 503.003 615.412 503.106 614.47 503.065C613.856 503.044 606.73 503.188 606.382 503.249C605.522 503.392 604.826 505.194 605.133 505.747C607.201 509.474 615.105 507.488 617.644 509.351C618.197 509.761 622.518 516.907 623.05 517.931C625.651 522.948 623.03 522.723 615.371 519.18C610.191 516.784 601.017 511.808 600.239 508.757C599.973 507.754 601.754 499.973 602.41 499.072C604.007 496.881 612.689 500.157 607.856 496.226C601.57 491.106 599.215 496.348 594.649 495.57C587.973 494.444 589.407 490.553 585.7 489.345C581.175 487.871 573.947 489.448 569.155 487.175C572.82 485.045 583.284 485.864 589.693 487.093L589.673 487.113ZM582.895 496.983L583.468 498.355L581.728 497.659L581.257 497.004H582.936H582.895V496.983ZM553.408 481.605H555.087L556.07 482.936H554.391L553.408 481.605ZM577.53 496.881C577.223 498.15 572.677 501.365 569.831 501.283C568.07 501.222 563.852 499.727 562.521 498.867C549.641 490.533 579.455 489.304 577.53 496.901V496.881ZM547.736 480.745H545.279L538.829 475.339C543.6 475.81 547.675 478.615 547.736 480.745ZM583.796 510.805C582.752 509.372 581.789 504.334 584.533 504.334C590.226 506.341 586.356 509.986 588.792 511.808C589.611 512.443 594.751 513.426 596.676 514.081C611.092 518.853 618.832 524.525 628.681 531.343C629.849 532.162 631.814 532.695 632.449 533.227C633.227 533.842 633.801 542.462 633.043 542.585C626.859 543.486 623.603 535.951 621.187 533.698C618.914 531.61 601.59 522.968 597.311 521.514C596.553 521.269 582.731 518.259 581.974 518.197C576.322 517.726 569.605 520.204 565.223 516.17C559.838 511.174 576.342 509.392 583.714 510.805H583.776H583.796ZM509.629 507.426C517.84 506.362 527.894 508.286 537.334 509.413C537.887 509.065 538.01 509.044 537.559 508.471C535.348 505.624 533.177 503.966 532.399 500.915C531.928 499.154 532.276 490.39 536.453 490.983C545.832 497.127 546.2 503.638 544.439 509.187C544.644 509.679 545.545 510.211 546.344 510.58C548.33 511.419 551.647 512.136 554.35 513.426C564.22 518.136 566.022 522.067 571.694 527.187C573.455 528.743 582.485 533.555 578.636 534.333C577.08 534.661 573.496 533.227 571.367 532.92C566.78 532.244 564.015 532.859 559.019 530.668C551.115 527.248 563.503 526.511 554.412 522.661C547.327 520.921 540.897 518.545 534.099 516.375C530.044 515.085 526.891 513.999 522.611 512.587C520.113 511.747 508.195 508.798 509.69 507.426H509.629ZM547.265 530.565C547.265 530.565 547.081 531.999 546.815 532.183C544.951 533.432 543.784 530.381 547.265 530.565ZM541.347 530.156C541.573 530.463 541.306 530.709 540.713 530.729C540.16 530.729 539.525 530.483 539.32 530.176C539.095 529.849 539.361 529.603 539.914 529.603C540.487 529.603 541.122 529.849 541.368 530.156H541.347ZM523.471 518.648C525.171 519.61 532.133 524.013 531.355 524.709C529.368 524.709 527.423 524.873 525.253 524.668C518.946 524.054 502.626 520.184 496.196 518.177C492.1 516.887 479.855 512.464 478.627 510.375C478.34 508.675 487.125 506.341 490.032 506.218C495.049 506.013 500.332 508.573 504.796 510.396C509.506 512.32 519.642 516.559 523.471 518.648ZM488.64 519.856C489.131 521.351 481.657 520.143 481.719 518.32C482.947 518.218 488.23 518.709 488.64 519.856ZM404.725 423.963C405.77 424.782 404.5 429.02 405.258 430.495C398.746 431.109 395.654 425.498 390.985 423.164C391.395 420.133 400.139 422.447 404.725 423.963ZM437.755 481.421C438.492 480.213 437.857 477.571 438.717 476.179C439.413 475.011 441.113 474.602 441.625 473.701C442.608 472.083 440.642 469.155 445.249 468.5C446.662 468.295 447.747 468.254 449.488 468.807C452.17 469.626 462.47 475.441 463.904 476.895C467.733 480.725 458.477 485.967 457.269 489.325C454.136 490.144 452.089 491.311 450.123 492.806C448.608 494.034 447.277 498.191 441.768 493.031C440.151 491.516 436.096 487.646 434.949 486.274C431.673 482.342 436.506 483.325 437.693 481.4H437.734L437.755 481.421ZM427.475 489.571C425.325 487.052 419.469 483.878 422.397 482.035C428.52 486.069 438.758 493.871 438.39 498.109C438.328 499.399 435.666 500.833 433.577 499.154C432.963 498.621 433.025 497.331 432.431 496.471C430.997 494.321 429.195 491.7 427.414 489.571H427.455H427.475ZM370.427 419.15C377.041 418.29 382.508 421.423 381.177 424.802C379.662 425.601 366.966 420.543 370.427 419.15ZM383.9 448.064C382.59 446.18 386.87 443.948 390.719 444.788C394.18 445.525 398.89 450.849 399.606 452.507C400.323 454.125 398.132 455.538 397.845 457.074C397.579 458.405 397.804 462.152 398.521 463.585C400.753 467.947 412.22 473.455 411.073 477.325C410.295 480.049 405.033 478.124 403.702 478.718C401.818 484.124 409.046 482.424 412.937 483.96C417.933 485.967 419.141 490.676 421.558 493.215C420.534 495.058 427.148 501.12 423.278 501.795C419.141 502.491 412.445 497.352 408.411 496C404.439 494.649 393.873 492.212 388.61 490.758C386.255 490.103 381.218 489.407 379.621 488.792C373.519 486.458 372.229 476.22 374.522 473.988C377.164 471.469 382.406 474.254 387.033 474.07L385.846 474.827L392.05 480.97C398.05 480.458 396.739 475.339 396.944 472.513C397.006 471.223 399.361 470.199 396.576 468.786C391.743 466.37 391.006 470.793 387.197 469.749C385.252 468.991 384.433 467.824 382.692 466.985C378.884 465.162 375.484 465.899 374.317 462.111C373.887 460.678 375.996 460.125 376.017 459.429C376.017 458.671 373.908 457.811 374.215 457.135C374.461 456.705 378.474 456.111 379.723 455.64C381.873 454.801 387.013 451.934 386.255 450.275C385.887 449.497 384.371 448.76 383.9 448.043V448.064ZM392.828 476.363L393.361 478.206H391.682C390.555 477.121 390.658 476.281 392.828 476.363ZM366.024 437.436C365.799 437.109 366.065 436.883 366.659 436.863C367.212 436.863 367.826 437.088 368.051 437.416C368.277 437.744 368.01 437.969 367.458 437.989C366.884 437.989 366.249 437.764 366.024 437.457V437.436ZM343.602 418.331C345.65 417.697 344.851 419.97 345.302 420.154C347.267 419.724 355.704 423.553 353.963 420.85C353.083 419.458 351.056 418.536 354.7 417.758C365.717 421.649 360.27 423.492 360.598 426.911C361.212 432.645 368.789 440.549 358.55 443.538C355.642 442.699 356.134 441.02 354.209 439.894C353.165 439.279 351.424 439.238 350.748 438.89C349.213 438.071 348.516 436.085 344.503 435.819C340.223 435.552 338.708 440.365 334.735 436.597C328.203 430.454 340.141 433.832 343.561 433.402C347.124 432.972 342.599 431.498 341.698 430.781C337.479 427.628 342.66 427.915 342.476 426.768C342.332 425.805 339.568 424.577 339.322 423.287C339.261 422.98 343.049 418.454 343.52 418.311H343.602V418.331ZM316.347 403.813C316.491 403.26 318.948 403.711 319.234 403.854C323.576 405.902 315.61 406.864 316.347 403.813ZM328.94 416.263C331.951 415.936 337.623 416.099 335.125 418.331C334.633 418.761 323.862 422.017 322.756 422.12C321.098 422.242 319.357 421.833 317.699 421.116C319.603 418.905 324.067 416.775 328.94 416.263ZM324.354 431.416H326.831L327.835 432.788H325.357L324.354 431.416ZM349.028 463.196C351.834 462.582 360.168 463.606 363.362 464.814C366.782 466.084 369.075 469.36 368.031 470.875C367.806 471.203 362.994 474.684 362.359 474.93C355.622 477.633 355.089 474.356 351.649 471.612C350.626 470.793 348.639 470.363 347.759 469.257C346.305 467.476 346.018 463.831 349.008 463.196H349.028ZM315.692 445.34C316.777 445.463 333.363 454.33 334.039 455.108C336.988 458.589 325.685 458.507 324.927 457.463C323.596 455.62 321.651 452.139 319.951 450.603C318.641 449.415 311.085 446.426 315.712 445.34H315.692ZM374.317 541.07C374.768 539.186 372.044 533.821 378.781 534.681C379.211 534.743 386.255 537.179 386.952 537.466C392.276 539.739 394.18 541.295 394.405 544.244C394.774 549.302 386.092 557.124 387.607 561.997C388.242 563.943 389.88 564.782 392.296 563.574C393.443 563.001 392.398 560.769 396.166 561.199C397.579 561.752 398.071 567.936 398.808 569.287C400.343 572.031 403.374 573.976 404.091 576.925C404.275 577.887 403.19 578.461 403.558 579.382C404.295 581.184 407.347 582.679 408.022 584.727C408.821 587.102 399.483 588.576 395.245 587.901C393.914 587.675 392.808 586.652 391.293 586.221C381.935 583.559 378.576 583.703 374.891 577.826C366.106 563.82 371.532 552.824 374.379 541.111H374.338L374.317 541.07ZM424.383 600.105C425.346 601.088 424.342 601.661 422.52 601.518C420.452 600.883 419.919 600.392 421.168 599.716L424.383 600.105ZM426.922 616.22C423.278 617.551 427.004 622.629 418.998 620.213C424.998 620.459 422.356 616.875 426.922 616.22ZM357.076 573.71C355.417 572.461 354.434 571.089 352.857 569.963C349.376 567.362 339.404 562.489 345.24 560.462C348.557 560.421 364.939 566.297 366.925 568.304C367.519 568.919 367.089 574.12 366.7 574.673C365.799 575.901 362.625 575.922 360.024 575.86C360.495 574.857 358.038 574.488 357.035 573.71H357.076ZM375.914 601.067L376.918 602.439H374.44C373.58 601.62 374.235 600.944 375.935 601.067H375.914ZM400.118 611.429L397.804 612.821L397.149 611.92L400.118 611.449V611.429ZM455.774 682.32L456.286 683.732L449.652 684.224C448.177 682.217 453.911 682.975 455.774 682.32ZM393.463 602.255L392.46 600.883H394.938L395.613 601.784L393.463 602.255ZM401.429 608.623C400.262 607.784 399.852 607.21 399.791 606.35H400.589L402.227 608.603H401.429V608.623ZM364.447 543.998L363.116 542.176L365.758 542.36C367.15 542.749 367.355 543.302 367.724 543.957L364.427 543.998H364.447ZM346.489 512.382C348.926 514.122 349.643 515.126 348.25 516.518C345.076 519.794 340.367 511.972 346.489 512.382ZM344.687 519.057C345.056 519.119 349.602 520.921 349.909 521.084C354.229 523.808 346.694 524.975 343.07 524.832C341.472 523.48 341.227 518.32 344.687 519.037V519.057ZM343.172 526.224C347.063 528.681 342.988 532.367 338.626 530.934C333.282 529.173 338.974 525.589 343.172 526.224ZM289.133 465.961C293.454 465.223 299.147 474.049 299.802 475.728C301.112 478.943 291.591 475.196 289.502 473.087C288.11 471.653 287.127 466.309 289.133 465.981V465.961ZM267.51 460.637C271.421 460.739 274.595 461.292 275.168 463.708L269.926 464.527C269.987 469.073 274.943 473.312 274.697 477.817C274.615 480.479 272.588 482.424 270.848 484.554C268.841 484.39 267.94 487.236 265.954 486.438C263.926 485.618 266.711 485.004 266.22 484.39C263.701 481.175 256.268 481.482 257.292 476.67C257.763 474.725 261.326 473.414 262.247 471.694C263.763 469.032 260.015 464.425 267.694 464.753C265.749 462.643 261.735 460.493 267.489 460.637H267.51ZM245.21 460.493C254.65 459.203 258.602 464.937 251.087 465.408C243.449 465.899 237.081 461.599 245.21 460.493ZM213.635 439.812C215.498 433.095 227.989 436.679 237.245 439.054C243.019 442.719 255.736 448.74 256.473 452.999C256.718 454.207 249.224 455.825 246.439 454.698C245.395 454.289 244.555 453.183 243.368 452.569C242.303 451.995 234.317 449.559 232.883 449.272C227.764 448.31 222.911 449.272 217.505 445.955C216.154 443.784 214.966 441.941 213.594 439.771H213.635V439.812ZM250.186 479.23C245.518 480.172 237.921 474.11 241.095 473.394C244.555 472.616 253.155 478.554 250.186 479.23ZM224.488 455.579L221.58 456.132L220.372 455.169L223.28 454.616L224.488 455.579ZM232.494 468.807C232.72 469.135 232.453 469.38 231.88 469.38C231.327 469.38 230.692 469.135 230.467 468.827C230.242 468.52 230.508 468.275 231.061 468.254C231.634 468.254 232.269 468.5 232.494 468.786V468.807ZM218.263 452.364C219.921 452.855 220.392 453.326 220.802 454.166L217.853 454.657C216.727 453.613 217.28 452.978 218.242 452.344L218.263 452.364ZM225.205 467.066C226.658 466.923 228.071 467.025 229.136 467.926L225.839 467.967L225.184 467.066H225.205ZM246.275 494.956L246.562 495.898L244.617 495.017H246.296L246.275 494.956ZM238.146 489.509C238.453 489.611 238.637 490.123 238.433 490.451C236.876 492.56 234.132 488.096 238.146 489.509ZM251.784 511.399C254.527 510.314 253.688 502.348 255.879 500.956C256.391 500.649 262.923 499.072 264.049 499.01C269.353 498.621 268.8 501.57 268.595 503.433C268.206 507.16 259.606 511.194 263.578 515.269C264.643 516.375 272.875 520.429 275.393 521.904C286.185 528.272 297.017 534.988 307.931 541.377C311.392 543.404 321.815 548.216 323.105 550.223C324.477 552.394 317.453 552.107 314.504 551.39C312.211 550.837 310.839 549.568 308.873 548.913C304.716 547.52 300.191 546.885 296.403 544.49C294.314 543.179 293.515 541.807 291.611 540.497C290.321 539.575 277.277 532.06 276.315 531.773C273.51 530.954 271.851 531.528 268.902 529.562C262.902 525.569 266.24 523.48 263.476 520.818C262.452 519.856 261.285 519.958 260.322 519.528C256.084 517.624 249.552 514.634 244.842 513.692C240.972 512.935 235.3 513.344 232.801 510.805C238.064 509.269 247.033 513.303 251.845 511.44L251.784 511.399ZM277.605 543.732C274.41 540.108 266.691 536.196 271.974 533.043C273.366 532.777 273.878 533.043 275.086 533.739C276.745 534.722 280.881 539.514 282.007 540.947C285.099 544.92 289.236 551.616 291.079 555.568C291.488 556.489 292.123 558.086 290.116 558.168C282.929 558.25 279.796 546.292 277.605 543.711V543.732ZM252.275 540.886C251.988 539.186 257.148 538.469 258.991 537.568C260.998 536.606 261.428 535.152 263.681 534.435C267.264 534.784 269.087 543.036 269.373 544.51C269.783 546.373 270.54 555.24 268.8 555.977C265.544 557.329 261.612 552.844 260.814 551.431C260.036 550.059 261.49 548.954 260.118 547.213C258.213 544.776 252.766 543.445 252.295 540.906L252.275 540.886ZM216.092 479.434C220.27 478.329 226.822 484.574 226.699 486.376H222.706C219.901 483.796 217.546 484.062 213.512 484.247C212.058 483.694 215.355 479.619 216.113 479.455L216.092 479.434ZM251.231 520.736C253.749 522.641 253.831 523.153 257.046 525.303C260.691 527.719 259.544 530.176 261.101 532.592C255.674 533.227 248.18 532.081 250.575 528.436C251.333 527.33 255.817 527.023 254.016 525.077C253.831 524.873 248.159 521.842 247.729 521.699C245.497 520.818 240.419 520.388 238.125 519.201C236.364 518.279 233.539 515.679 232.126 514.47C233.313 512.443 249.429 519.364 251.231 520.716V520.736ZM253.585 557.165C248.63 556.919 243.92 551.001 246.828 549.568L250.186 549.936C252.5 551.452 259.012 557.431 253.626 557.185H253.585V557.165ZM222.338 519.221L225.532 519.16L226.024 519.835L224.754 521.003C222.174 520.88 222.317 520.245 222.338 519.221ZM234.849 560.093C239.784 561.485 240.132 564.721 234.972 564.25C233.19 562.407 232.842 561.24 234.849 560.093ZM226.331 554.667L225.655 553.745L228.624 553.274C229.689 554.441 228.419 554.83 226.331 554.687V554.667ZM185.827 502.962C188.367 502.614 198.503 507.549 197.684 508.348C192.278 508.635 188.96 506.996 186.135 504.212C185.705 503.802 184.394 503.147 185.827 502.942V502.962ZM213 538.654L210.891 537.998L211.628 537.302L213.021 538.674L213 538.654ZM242.344 592.774H239.866L238.863 591.402H241.34L242.344 592.774ZM220.515 558.189C220.556 557.8 221.805 557.308 222.01 556.796C222.481 555.731 221.826 554.298 223.976 553.766C225.041 554.912 225.061 556.018 224.242 556.858C224.058 557.062 222.727 556.919 222.522 557.124C222.174 557.451 222.911 558.23 222.522 558.639C222.01 559.192 220.495 558.885 220.515 558.189ZM247.524 585.402L248.978 585.321C252.787 586.488 250.883 587.88 251.476 589.252C253.504 593.88 258.193 592.324 263.496 595.559L262.554 596.173C250.514 598.774 241.484 589.273 247.504 585.402H247.524ZM280.267 601.374C279.53 602.337 272.363 605.449 270.479 605.224C268.943 605.019 266.158 603.934 265.216 603.156C261.551 600.207 267.121 598.59 268.513 596.808C270.336 594.453 268.083 590.685 270.52 588.372C277.113 588.822 275.639 592.098 276.991 594.515C278.24 596.788 281.782 599.531 280.287 601.374H280.267ZM313.419 622.937C313.194 620.131 315.016 616.384 321.466 616.855C323.453 619.005 319.562 619.64 317.924 620.746C316.757 621.503 317.842 623.489 313.378 622.957H313.419V622.937ZM321.016 627.708C314.607 625.762 322.756 619.967 327.753 620.971C332.483 623.285 324.231 628.711 321.016 627.708ZM304.327 580.57H301.85C300.99 579.771 301.706 579.096 303.344 579.218L304.327 580.57ZM310.306 581.901C309.754 581.143 312.108 580.672 312.948 580.979C314.586 581.594 312.641 582.679 310.306 581.901ZM303.406 572.83C301.174 574.243 294.805 578.379 293.864 579.997C293.167 581.102 294.928 583.969 294.048 585.648C292.963 587.593 287.106 588.843 286.062 586.14C285.529 584.788 290.567 584.112 289.83 581.696C288.089 576.085 279.161 568.939 276.069 576.7C273.694 577.191 272.609 575.369 271.83 575.369L268.718 576.823L262.35 575.471C262.902 575.922 262.206 576.434 262.35 576.638C263.783 578.604 266.588 581.717 267.325 583.498C267.469 583.785 267.285 585.218 267.08 585.361L262.718 585.525C253.831 581.614 244.862 580.775 248.384 574.918C232.392 569.82 245.845 567.076 250.043 563.615C253.872 563.205 257.312 565.151 261.449 565.949C262.657 566.195 268.534 567.239 267.121 565.97C266.302 565.212 255.858 561.117 254.036 560.605C250.678 559.683 247.975 559.786 244.965 559.151C240.992 558.352 237.163 556.694 233.19 555.957C233.375 554.769 234.706 552.496 237.962 553.356C245.374 557.431 257.189 559.499 266.363 561.752C269.005 563.595 272.158 564.885 272.957 567.076L269.66 567.117L273.469 571.232C275.619 570.352 279.038 570.434 280.861 569.328C282.56 568.263 281.536 564.516 283.277 564.68C286.983 565.786 284.096 566.85 284.608 568.14C286.942 574.263 292.41 572.748 296.915 570.27C308.73 563.881 319.828 556.714 332.217 550.387C334.305 549.322 337.889 549.465 336.619 546.844C333.916 541.152 324.067 541.377 321.303 538.162C319.091 535.623 326.422 533.493 330.312 534.19C333.384 534.722 343.991 538.797 345.076 540.292C346.633 542.442 343.356 543.2 342.68 544.264C342.046 545.268 343.274 547.233 342.967 548.319C341.8 553.458 336.066 556.489 330.067 559.765C321.63 564.393 311.167 567.977 303.488 572.85H303.447L303.406 572.83ZM331.316 571.785L331.787 572.441L328.47 572.481L327.814 571.581L329.596 571.11L331.316 571.765V571.785ZM389.654 657.87L390.883 656.703L391.948 657.584L389.634 657.85L389.654 657.87ZM362.912 618.718C362.359 618.534 363.444 617.49 364.714 617.756C365.226 617.94 364.12 618.985 362.912 618.718ZM490.012 730.276C490.38 731.526 492.059 733.123 492.346 734.208C492.571 735.089 490.974 736.01 492.367 737.28C491.384 738.017 483.152 734.802 481.35 734.167C469.392 729.908 458.785 724.482 449.222 718.257C444.778 715.369 431.407 706.83 441.297 706.503C443.918 706.441 455.365 706.687 457.884 706.974C461.754 707.445 480.183 714.182 483.91 715.963C484.299 716.147 485.179 716.147 485.527 716.496C488.927 719.485 488.988 726.877 489.971 730.317L490.012 730.276ZM524.986 752.412C518.966 754.296 505.226 741.273 521.874 744.917C525.15 746.638 527.976 751.491 524.986 752.412ZM476.456 692.292L481.514 692.763C494.353 701.322 476.845 700.073 476.456 692.292ZM470.047 669.665C469.023 668.702 466.463 668.129 465.685 667.228C462.593 663.808 463.392 660.532 459.194 657.113C458.539 656.56 456.102 654.942 455.222 654.594C454.177 654.164 453.317 654.696 453.256 654.655C452.826 654.41 453.379 653.652 452.641 653.242C452.211 653.017 444.901 651.399 442.956 650.785C431.284 647.12 429.134 643.311 442.608 644.192C451.31 644.765 453.952 648.922 458.907 651.973C462.225 654.021 466.811 655.106 469.944 656.99C477.705 661.72 482.067 669.685 470.047 669.644V669.665ZM552.323 756.712C553.838 760.767 541.532 756.077 543.866 753.927C546.057 751.9 551.176 753.661 552.323 756.712ZM384.72 526.019C385.58 525.282 384.904 523.112 385.15 522.579C385.743 521.166 391.661 523.05 389.798 524.361C388.917 524.955 387.423 524.668 386.685 524.955C386.194 525.18 386.992 526.92 384.72 526.019ZM392.337 526.183L392.992 527.084H390.515L389.859 526.224H392.337V526.183ZM549.313 727.942C548.35 727.696 532.604 721.779 531.15 721.144C529.839 720.591 528.713 719.772 527.669 719.035C524.72 715.533 516.181 702.633 522.857 701.506C526.44 700.892 533.116 705.52 535.348 707.158C540.938 711.274 543.026 714.55 546.712 718.809C548.125 720.427 560.043 730.686 549.313 727.942ZM421.25 563.676L420.595 562.775H423.073L423.728 563.635H421.25V563.676ZM439.004 575.492L438.328 574.57H440.806L441.482 575.471H439.004V575.492ZM470.538 600.514C470.313 599.613 471.521 599.47 473.18 599.593L473.835 600.494L470.538 600.535V600.514ZM484.811 615.606H483.193L482.722 614.971L483.439 614.254L484.831 615.626L484.811 615.606ZM539.873 692.517H542.351C542.658 692.619 543.661 695.609 543.723 696.162C543.846 696.961 544.48 697.247 542.371 697.083L539.853 692.517H539.873ZM503.076 629.243C504.407 629.694 501.745 632.929 498.428 630.902C497.65 629.284 500.639 629.08 503.076 629.243ZM476.19 597.934L477.378 597.238L478.053 598.16L476.21 597.955L476.19 597.934ZM476.825 600.002H474.347L474.92 599.122H476.149L476.804 600.002H476.845H476.825ZM587.502 731.669C587.502 733.082 591.762 734.413 592.192 734.72C596.164 737.771 598.847 741.641 590.553 740.74C584.001 740.044 582.24 736.809 579.004 734.638C576.854 733.184 574.315 732.754 572.697 731.915C566.513 728.761 559.51 720.796 557.217 716.967C554.657 712.584 564.425 712.339 563.831 708.182C563.524 706.319 560.8 702.326 558.937 700.36C556.5 697.821 551.995 696.346 551.586 692.927C551.32 690.469 556.746 688.606 560.698 692.538C567.578 699.336 571.305 709.001 572.636 715.554C575.769 719.096 571.633 721.738 578.554 724.993C579.783 725.546 580.11 726.017 580.745 725.28C582.404 723.294 573.353 717.151 580.008 717.417C582.895 717.54 588.199 722.598 589.448 724.011C592.171 727.062 596.963 733.368 587.482 731.669H587.523H587.502ZM448.976 541.008C448.096 539.841 446.683 535.664 447.051 534.681C447.502 533.453 450.43 533.637 452.375 534.804C454.177 535.869 458.273 540.865 459.133 542.278C459.706 543.24 462.327 549.138 461.795 549.425C458.866 551.042 450.041 542.421 449.017 541.008H448.976ZM458.314 552.701C457.351 552.127 458.477 551.104 458.928 551.308C459.89 551.882 458.764 552.906 458.314 552.701ZM545.709 662.907C545.484 662.6 545.75 662.355 546.344 662.334C546.897 662.334 547.531 662.58 547.736 662.887C547.961 663.215 547.695 663.46 547.142 663.46C546.569 663.46 545.934 663.215 545.688 662.907H545.709ZM626.367 754.787C623.746 757.265 619.18 756.385 614.737 753.415C613.918 752.862 608.266 747.825 608.061 747.395C607.078 745.327 612.238 744.958 615.208 744.877C630.934 744.426 631.2 750.282 626.327 754.767H626.367V754.787ZM530.658 626.991C531.232 626.991 531.846 627.237 532.071 627.544C532.297 627.851 532.071 628.097 531.478 628.117C530.884 628.138 530.29 627.872 530.085 627.564C529.86 627.237 530.085 626.991 530.679 626.991H530.658ZM466.689 540.148L466.033 539.247C467.487 539.104 468.9 539.227 470.006 540.108L466.689 540.148ZM583.223 700.585C581.625 697.821 590.123 701.506 590.861 700.728C589.489 697.534 586.069 695.711 580.192 694.155L581.175 691.207L587.748 692.148C590.553 695.159 599.215 698.865 602.02 701.425C603.966 703.206 608.798 709.943 609.249 711.643C609.617 713.137 607.959 715.001 608.409 716.577C608.921 718.379 611.563 721.246 611.481 723.028C611.46 723.56 611.829 723.601 610.416 723.622L606.443 722.7C603.7 720.591 603.474 718.257 601.119 716.168C597.823 713.281 588.915 711.704 588.137 707.056C587.932 705.888 591.188 705.848 590.431 704.66C589.386 703.042 584.144 702.182 583.223 700.564V700.585ZM520.502 593.552C522.447 593.614 526.133 596.03 526.727 596.173C527.833 596.439 528.897 596.214 529.942 596.255C529.962 598.385 520.748 595.047 520.481 593.573H520.522L520.502 593.552ZM629.849 743.648C627.78 744.037 612.095 738.467 610.723 737.095C609.269 735.621 616.006 733.102 618.156 732.836C629.296 731.382 634.026 740.535 629.849 743.668V743.648ZM625.712 717.007C626.142 718.318 624.668 721.205 622.067 721.164C617.562 721.082 615.146 718.257 613.897 716.393C611.399 712.769 611.645 711.602 611.89 708.694C612.095 705.766 607.488 705.008 605.563 703.472C605.01 703.001 601.222 698.763 600.894 698.169C599.747 696.141 605.112 696.182 605.788 697.104C607.426 699.356 609.74 703.431 611.767 705.356C613.569 707.035 621.043 710.967 622.456 712.298C622.866 712.687 625.548 716.557 625.712 717.007ZM585.475 647.652C582.649 650.335 567.23 641.693 579.168 642.779C582.936 643.106 586.827 646.321 585.475 647.652ZM562.009 625.414C563.073 625.169 567.926 626.459 567.435 627.196L564.466 627.667L562.009 625.414ZM584.697 641.755L584.042 640.854L587.871 640.362C589.1 641.755 586.847 641.857 584.697 641.755ZM660.523 699.582C654.974 699.602 658.127 696.858 654.114 695.138C653.643 694.933 645.165 692.783 644.141 692.579C640.415 691.841 636.504 692.538 632.306 689.835C630.975 688.565 632.879 683.917 632.408 682.401C631.876 680.559 629.623 678.04 629.726 676.074L628.825 675.357C625.282 674.989 619.999 671.979 618.668 670.197C617.235 668.231 617.951 666.798 618.934 665.324C622.293 660.061 622.784 658.3 622.927 652.075C622.989 648.84 626.122 644.13 618.156 640.67C611.767 637.905 609.331 639.707 605.686 638.745L599.543 635.161C595.365 634.997 597.29 638.151 592.232 636.595C588.178 635.346 578.922 625.66 572.718 622.752C571.346 622.118 569.646 622.588 568.275 622.486L571.756 621.544C568.664 619.353 565.264 616.138 562.07 614.05C556.91 610.671 557.278 611.777 552.077 607.313C550.275 605.716 546.303 604.385 544.46 602.91C543.088 601.825 542.699 600.699 541.306 599.654C538.89 597.77 531.785 596.706 533.791 594.474L531.723 593.982C529.45 590.317 522.939 583.99 518.229 580.508C516.447 579.157 511.943 577.171 510.263 575.676C508.421 573.997 501.438 566.175 500.127 564.332C499.288 563.124 500.475 562.304 499.534 561.158C498.714 560.216 495.52 558.414 494.107 556.98C491.67 554.523 489.93 551.206 487.841 548.994C484.954 545.923 480.879 546.599 478.279 544.838C476.272 543.466 478.647 541.009 473.794 540.619L470.825 542.278C469.944 541.398 471.316 541.09 470.948 540.21C470.047 537.855 466.893 533.903 464.682 531.569C459.972 526.654 449.938 528.088 446.416 526.736C441.052 524.668 445.659 522.477 444.492 521.166C442.69 519.18 433.332 516.047 431.079 518.484C430.649 518.955 432.287 523.931 432.676 525.037C433.168 526.245 435.052 527.555 435.175 529.296C435.236 530.688 433.434 532.224 434.028 533.801C435.42 537.691 439.516 542.483 440.355 546.763C440.581 547.827 439.577 550.346 436.915 549.998C436.342 549.916 428.315 546.251 427.578 545.657C423.933 542.483 425.182 541.234 426.615 538.899C410.029 532.982 422.848 534.558 427.619 533.043C430.649 532.122 429.073 525.2 422.418 526.204C421.496 525.446 423.83 525.958 423.626 525.507C422.868 523.726 417.175 522.989 414.657 523.05C411.79 523.112 410.398 525.467 406.261 524.115C404.992 523.48 404.562 521.822 404.766 521.207C405.156 520.04 408.678 520.163 407.367 519.242C406.22 518.484 401.818 517.46 400.507 516.457C398.664 515.003 397.681 511.686 395.879 510.805L388.856 509.699C386.296 506.894 384.761 504.375 384.617 501.734C377 500.423 368.707 503.556 366.966 506.566C365.922 508.307 364.263 514.962 366.352 516.866C366.884 517.337 368.952 516.866 368.932 518.054C364.12 517.378 363.874 519.733 359.533 516.518C353.902 512.361 351.731 503.72 352.837 499.829C355.397 491.147 372.7 488.26 392.009 493.625C396.699 494.935 422.643 504.764 426.39 506.689C429.339 508.245 431.632 510.047 433.618 511.849C435.4 511.911 435.912 510.948 437.529 510.928C443.714 510.846 454.792 520.327 457.392 519.897C460.034 519.467 455.815 516.702 455.201 515.72C454.3 514.225 455.467 512.607 454.607 511.419C451.843 507.611 442.137 507.263 443.427 503.679C443.857 502.491 452.58 499.543 455.078 499.666C456.901 499.748 458.989 500.669 460.791 500.546C462.266 500.444 464.661 498.171 468.061 498.56C467.631 495.775 462.02 496.901 458.928 494.567C453.42 490.431 464.19 488.158 467.856 486.786C469.187 486.294 469.371 485.086 471.542 484.615C474.101 484.062 476.661 484.39 479.241 483.98L477.029 480.847C476.518 478.349 487.145 479.209 490.606 479.004C488.005 473.721 486.449 474.295 479.282 471.51C477.193 470.711 475.514 469.647 473.774 469.012C466.136 466.186 454.71 463.319 448.075 459.306C445.761 457.913 445.659 456.787 443.959 455.476C442.751 454.535 439.761 453.265 439.004 452.446C438.062 451.381 440.069 449.19 438.738 447.982C437.12 446.508 424.117 443.006 421.906 441.511C416.909 438.112 415.333 433.812 416.52 430.699C417.565 427.935 417.319 427.566 423.892 428.816C432.205 430.413 452.928 439.484 460.177 443.231C478.033 452.466 495.09 464.282 504.694 475.339C507.458 478.574 508.318 481.974 500.66 481.195C502.073 484.185 504.305 486.929 503.977 489.878C503.649 492.069 498.51 498.519 494.619 499.092C490.258 499.748 484.913 498.355 481.391 499.42C485.384 503.495 480.121 503.802 477.193 505.85C473.385 508.573 474.695 512.034 471.398 514.47C468.02 516.969 461.303 517.132 465.009 521.904C467.671 525.303 476.661 527.023 482.312 529.562C487.698 531.958 498.633 537.876 501.336 540.947C502.769 542.565 503.056 544.981 504.264 545.862C504.939 546.353 509.137 547.438 510.837 548.175C518.987 551.656 522.509 555.875 531.682 558.619L538.153 557.103C534.426 554.421 515.362 546.271 516.345 543.732C517 541.909 523.307 544.244 525.887 545.186C539.259 550.141 551.094 556.264 561.374 563.001C565.326 565.56 571.96 569.758 573.496 572.441C573.68 572.727 574.663 575.737 574.643 575.901C574.397 577.621 572.39 577.191 574.09 580.242C576.957 585.259 578.411 584.645 583.837 588.105C587.973 590.767 587.953 594.31 589.816 597.177C591.966 600.596 594.997 604.036 597.249 607.456C590.328 607.538 590.001 601.866 586.868 599.122C583.96 596.562 576.342 592.446 573.435 589.436C569.503 585.321 569.073 580.959 565.223 577.15C564.65 576.597 559.265 572.707 558.282 572.072C555.784 570.454 554.145 570.495 554.043 572.133C553.9 573.71 560.288 579.628 561.947 581.717C563.032 583.129 564.937 585.361 565.367 586.692C566.227 589.457 559.51 590.501 559.797 592.119C561.62 594.351 563.79 596.501 565.142 598.753C567.333 602.521 567.804 610.241 574.95 613.415C577.858 614.705 577.141 613.579 579.086 613.374L579.455 614.992C583.816 615.176 582.363 612.514 586.376 612.657C597.843 616.63 592.007 619.967 593.543 623.592C594.935 626.909 598.294 626.418 602.45 627.667C603.741 628.056 616.457 633.4 618.545 634.301C623.992 636.718 629.971 642.246 635.418 645.175C638.94 647.058 643.261 647.386 645.431 649.618C647.827 652.055 647.274 654.737 648.401 656.949C650.53 661.454 655.24 666.675 655.158 670.75C655.158 672.02 654.277 673.617 653.847 674.846L657.963 675.951C652.906 674.886 652.496 679.74 652.987 681.419C653.991 684.654 659.253 689.282 660.871 692.722C661.342 693.684 661.793 698.066 661.506 698.865C661.363 699.295 661.895 699.5 660.462 699.479L660.584 699.602L660.523 699.582ZM453.379 514.941C453.686 515.044 453.87 515.556 453.645 515.842C452.089 517.952 449.345 513.488 453.379 514.941ZM658.291 671.917L658.905 673.289L657.165 672.593L656.694 671.938H658.311L658.291 671.917ZM723.756 769.449C720.541 772.95 712.473 766.254 716.814 765.435C717.653 765.292 718.616 765.21 719.681 765.538C721.646 766.603 723.94 768.282 723.735 769.449H723.776H723.756ZM741.898 784.028C734.547 783.578 731.578 777.783 739.646 779.544C741.591 780.527 745.052 783.987 741.898 784.028ZM725.312 760.173C725.353 760.808 724.82 761.995 723.408 762.057C720.07 762.118 718.063 757.286 716.814 755.893C712.923 751.572 709.586 751.101 706.985 748.992C700.842 744.016 695.579 737.505 690.378 732.222C680.713 722.372 670.086 712.625 667.71 702.694C667.321 701.035 666.482 698.558 669.635 698.148C673.526 697.636 678.379 698.926 680.57 701.404C682.802 703.943 681.43 705.581 682.699 707.834C688.044 717.376 701.927 727.901 710.098 737.525C713.804 741.846 725.087 756.733 725.25 760.173H725.291H725.312ZM637.097 640.629C633.842 638.909 621.412 631.004 619.794 629.203C613.221 622.077 616.129 622.363 617.214 616.998C618.279 611.695 615.945 606.084 612.423 600.207C610.068 596.235 604.478 590.87 602.676 587.061C600.444 582.31 608.553 584.624 612.3 584.215C616.58 583.764 619.897 579.956 620.224 577.724C620.429 576.393 619.385 574.857 619.753 573.567C620.183 571.97 623.173 571.867 621.555 569.697C617.583 564.393 617.173 572.215 616.907 572.461C615.863 573.485 607.181 576.331 606.669 572.789C606.341 570.454 612.177 569.86 602.635 565.929C601.14 565.315 588.567 561.547 587.072 561.281C583.284 560.646 572.431 560.052 569.749 558.332C564.159 554.749 563.114 545.227 554.637 542.155C554.186 541.971 547.224 539.964 546.815 539.903C538.501 538.633 529.798 538.347 521.464 536.012C518.434 535.173 517.512 533.883 514.154 532.797C512.577 532.285 500.025 528.948 498.203 528.559C493.841 527.617 487.636 527.842 485.568 524.75C488.292 523.665 492.674 523.89 496.831 524.443C499.636 524.832 501.827 525.774 504.038 526.122C507.151 526.654 510.571 526.265 514.297 527.617L513.499 525.344C512.414 525.794 501.622 522.354 506.107 522.641C508.584 522.805 511.553 524.013 514.031 524.422C516.038 524.77 528.611 526.286 529.327 526.593L530.679 528.374L516.611 526.204L517.43 527.514L515.444 528.047L549.17 533.678C554.207 534.845 559.367 536.422 563.811 538.387C571.51 541.828 585.803 551.8 590.635 556.305C591.229 556.858 591.106 557.574 591.516 557.881C592.335 558.516 594.096 558.393 594.628 558.885C595.058 559.294 594.526 560.032 595.263 560.462C595.816 560.789 609.535 564.332 609.884 563.963C602.737 554.933 619.61 561.322 624.832 566.461C632.388 573.894 629.091 580.304 634.906 587.471C636.36 589.252 640.599 592.365 642.032 594.33C646.885 601.006 644.612 611.08 646.803 617.879C646.988 619.292 641.93 618.452 645.493 620.336L650.141 620.5C650.448 622.363 647.152 621.749 646.128 622.896C643.322 625.926 644.346 635.059 642.954 639.113C642.176 641.263 642.421 643.373 637.036 640.567H637.118L637.097 640.629ZM609.413 615.012C607.59 612.452 607.303 609.217 605.932 606.739C603.618 602.583 600.362 598.098 597.454 593.921C596.942 592.487 599.01 591.525 601.713 591.832C604.949 594.412 605.256 597.197 606.751 599.839C608.696 603.279 614.839 613.046 613.59 615.647C612.791 617.142 610.682 616.794 609.413 615.053V615.012ZM677.027 679.903C672.4 680.17 666.605 672.716 666.789 670.914L671.007 671.057C674.304 672.409 681 679.678 677.027 679.903ZM770.668 793.878C769.317 793.919 756.109 792.751 755.29 792.485C750.683 790.929 747.755 786.137 750.99 784.929C752.997 784.172 759.16 783.967 758.116 781.735C756.621 778.561 745.42 776.923 744.028 773.851C748.348 773.135 752.956 773.667 756.232 776.636C757.317 777.64 757.317 778.5 758.628 779.708C761.945 782.861 782.053 793.345 770.648 793.898L770.668 793.878ZM723.203 714.96C723.489 716.475 721.196 718.093 722.015 719.465C722.916 720.939 726.909 722.393 728.097 724.379C731.496 730.195 733.4 738.856 735.612 744.774C736.492 747.231 740.69 751.265 736.595 752.719C734.608 752.084 733.605 751.245 732.663 750.221C720.438 737.198 717.572 724.4 711.244 711.663C710.098 709.329 707.354 706.851 706.289 704.496C706.064 703.964 704.937 699.336 705.101 699.09C705.572 698.292 708.009 698.701 709.504 699.193C715.708 701.302 722.486 711.745 723.141 714.96H723.203ZM701.968 688.954C704.569 688.606 708.193 692.148 705.9 692.128C704.958 692.128 699.368 689.323 701.968 688.954ZM738.438 720.857C735.264 721.492 727.687 715.574 726.602 714.243C725.496 712.892 723.612 707.895 723.489 706.523C723.285 704.68 725.394 705.295 728.363 706.523L730.902 712.195H733.38C734.567 713.342 733.155 713.977 733.83 715.144C734.67 716.659 740.997 720.345 738.438 720.857ZM757.399 733.102C759.611 734.802 763.645 738.733 765.692 740.72C768.661 743.566 772.511 747.416 775.194 750.262C776.504 751.634 783.732 759.763 783.139 760.091L780.415 759.825C776.238 757.306 773.023 754.931 769.952 752.105C763.645 746.392 760.43 741.662 755.781 736.174C754.696 734.904 751.154 734.003 752.178 732.468C753.038 731.239 755.536 731.71 757.338 733.102H757.379H757.399ZM741.632 700.564H740.444L737.496 699.438L737.004 698.763L740.301 698.722L741.632 700.564ZM761.515 707.26H759.836L758.833 705.909H760.512L761.515 707.26ZM807.383 690.654L804.803 691.125L804.189 689.732L806.789 689.282L807.404 690.654H807.383ZM793.07 687.992C792.988 688.094 792.947 688.176 792.824 688.237C792.619 688.524 792.292 688.77 792.005 688.995C791.432 689.466 790.838 689.896 790.285 690.387C785.514 693.869 778.49 696.182 770.095 697.247C768.375 697.472 766.552 697.636 764.73 697.78C764.013 697.862 763.256 697.882 762.477 697.903C762.355 697.903 762.273 697.903 762.129 697.903C761.126 697.943 760.061 698.005 758.955 698.005C757.85 698.005 756.682 698.005 755.556 697.964C751.645 697.903 747.652 697.595 743.659 697.124C742.738 697.022 741.775 696.92 740.854 696.735C733.933 695.793 726.848 694.217 720.029 692.046C719.312 691.821 718.677 691.616 718.002 691.411C717.326 691.207 716.671 690.981 715.995 690.756C715.913 690.715 715.811 690.674 715.729 690.654C706.432 687.418 697.955 683.282 691.074 678.552L689.6 679.432C688.761 678.572 687.409 677.794 686.815 676.914C686.385 676.279 687.266 676.238 687.634 676.074C683.826 673.146 680.734 670.054 678.379 666.819C676.659 664.443 675.43 662.129 674.734 659.877L674.406 659.734L674.693 659.775C674.038 657.809 673.792 655.904 673.935 654.082C673.198 654.205 672.604 654.225 672.379 653.55C671.99 652.3 672.543 650.232 672.072 648.819C670.352 643.864 663.779 637.455 661.199 632.438C660.257 630.656 660.666 628.22 659.929 626.356C659.233 624.595 653.684 617.51 657.083 617.039C657.943 616.916 658.987 617.326 659.561 617.776C663.431 620.746 662.243 630.738 666.154 634.649L668.714 635.387L672.584 634.404C673.997 636.124 674.795 638.069 674.836 639.687C674.857 641.96 671.294 643.454 674.304 645.891C678.338 646.178 677.396 641.386 678.133 641.263C679.034 641.12 680.816 641.652 682.126 641.571C688.74 637.291 698.999 634.629 712.125 634.424H712.186C712.432 634.404 712.616 634.383 712.821 634.322C714.848 633.933 708.93 631.025 715.565 631.619C716.425 632.274 716.015 633.236 716.527 633.687C716.793 633.974 717.879 634.24 719.414 634.547H719.455C731.619 635.182 744.13 637.721 755.495 641.652C756.15 641.734 756.703 641.775 757.031 641.919C757.215 641.98 758.423 642.553 759.856 643.229C759.856 643.229 759.918 643.27 759.979 643.291C774.579 648.922 786.763 656.805 793.152 665.59C799.541 674.395 798.926 682.156 792.886 687.951L793.09 688.012L793.07 687.992ZM779.309 644.785C779.084 644.478 779.35 644.233 779.903 644.212C780.477 644.212 781.111 644.458 781.337 644.744C781.562 645.072 781.296 645.297 780.702 645.318C780.149 645.318 779.535 645.093 779.309 644.765V644.785ZM783.999 649.843H785.678L787.009 651.666H785.33L783.999 649.843ZM809.042 678.634L810.045 680.006C806.421 681.05 804.414 678.47 809.042 678.634ZM799.663 664.546C798.558 663.112 794.073 661.044 795.855 659.877C796.633 659.877 806.646 666.511 806.871 667.576L799.663 664.546ZM802.285 666.696C802.51 667.023 802.244 667.269 801.67 667.269C801.117 667.269 800.483 667.023 800.257 666.716C800.032 666.409 800.298 666.163 800.851 666.143C801.425 666.143 802.059 666.389 802.285 666.675V666.696ZM816.332 679.309C815.758 680.354 818.113 686.62 812.892 685.043C813.363 683.63 814.509 682.483 814.755 680.989C815.042 678.982 812.257 677.589 818.011 677.159C819.178 678.409 816.762 678.449 816.332 679.309ZM766.593 606.105C766.429 608.255 763.624 607.845 760.757 605.818C749.802 598.2 743.843 590.46 730.902 582.29C728.854 581 717.51 575.799 723.448 574.898C724.698 574.693 730.738 576.331 732.561 576.843C735.96 577.846 746.628 581.205 748.389 582.74C751.277 585.28 750.765 587.88 752.853 590.276C757.829 596.009 766.941 600.002 766.552 606.105H766.593ZM748.451 561.895C747.488 564.106 741.468 567.055 735.857 564.905C733.236 563.881 732.11 562.345 732.356 561.076C732.458 560.462 738.683 556.735 739.871 555.936C740.751 555.363 740.772 552.926 744.253 553.909C747.202 554.769 749.065 560.523 748.471 561.895H748.451ZM735.817 545.186C731.619 545.411 724.841 543.281 723.018 545.821C722.752 546.169 721.524 550.878 721.647 551.186C721.995 552.005 725.312 553.356 726.377 554.216C729.735 556.796 723.018 557.554 719.312 553.868C718.104 552.701 715.688 548.36 715.217 547.07C714.316 544.531 716.65 540.046 715.381 538.265C714.582 537.159 710.589 535.603 709.156 534.149C703.873 528.927 704.323 524.607 716.875 528.047C721.319 529.275 726.971 532.552 730.349 533.473C738.827 535.848 738.417 533.309 744.089 539.8C744.703 540.558 752.362 550.346 747.284 548.749C745.461 547.274 743.454 544.838 739.973 544.408C737.864 544.141 737.557 545.104 735.898 545.186H735.857H735.817ZM761.372 571.662C760.86 571.478 761.986 570.454 763.235 570.741C763.747 570.925 762.621 571.949 761.372 571.662ZM767.76 575.287H768.989L769.665 576.208H767.187L767.74 575.287H767.781H767.76ZM830.154 659.488C829.437 660.471 823.048 656.089 823.069 655.413C825.178 655.72 830.788 658.751 830.154 659.488ZM869.428 708.899L867.381 708.264C868.998 706.421 865.742 703.247 868.609 701.998L869.428 708.899ZM842.194 668.6C839.122 668.641 834.147 663.747 839.614 664.464C839.532 665.877 846.412 668.58 842.194 668.6ZM770.832 561.67C771.364 562.489 769.747 563.595 767.904 562.898L764.587 560.564C763.87 560.564 752.73 565.396 756.642 561.117C758.771 558.782 768.989 556.55 773.781 555.424C772.654 558.25 764.668 557.431 770.873 561.67H770.832ZM821.615 618.985L814.837 619.988L813.199 617.715L820.652 617.633L821.635 618.985H821.615ZM779.207 559.499L775.071 559.54C774.825 558.496 776.914 558.537 778.531 558.578L779.207 559.499ZM783.978 556.899L782.811 557.636L781.808 556.264H783.487L783.958 556.899H783.978ZM790.039 557.185C789.466 557.185 788.831 556.94 788.585 556.632C788.36 556.325 788.626 556.08 789.22 556.059C789.773 556.059 790.408 556.305 790.613 556.612C790.838 556.94 790.572 557.185 790.019 557.185H790.039ZM868.916 660.02H866.439L867.012 659.14H868.241L868.896 660.02H868.937H868.916ZM893.632 683.753H892.833L890.847 681.009H891.646L893.632 683.753ZM888.431 675.972L891.175 679.166C888.513 679.617 887.387 676.607 888.431 675.972ZM812.646 562.264C805.131 556.837 797.37 550.141 789.261 544.981C788.585 544.531 781.93 540.886 781.419 540.763C777.507 539.698 776.136 542.585 774.395 543.322C771.426 544.612 766.778 545.78 763.727 547.111C762.539 547.418 760.86 546.926 760.205 546.066C758.157 543.2 774.272 538.633 776.115 536.422C777.671 534.456 768.027 531.732 772.081 530.238C775.931 528.866 779.473 532.367 783.036 532.203C785.084 532.101 792.415 528.743 793.95 529.316C797.002 530.504 787.193 534.988 788.708 536.913C796.51 540.271 801.158 545.247 806.503 549.465C812.584 554.257 823.97 561.772 823.581 566.932C823.191 571.683 813.874 563.124 812.625 562.223L812.646 562.264ZM887.776 658.444L887.1 657.522L891.236 657.481C891.482 658.546 889.393 658.484 887.776 658.444ZM974.782 720.263C971.874 717.827 970.584 715.246 968.291 713.281C961.021 707.138 951.561 702.285 944.394 694.933C938.292 688.667 936.47 685.063 951.909 687.705C954.285 687.255 947.712 680.661 957.766 682.709C962.25 685.637 961.902 688.483 964.339 691.514L967.185 691.944C962.987 692.783 965.752 694.196 965.793 696.346C965.854 700.708 963.602 703.452 966.714 708.571C970.277 714.55 978.427 717.192 983.3 722.27C984.529 723.519 987.641 726.836 984.795 727.062C983.812 726.959 976.011 721.267 974.823 720.263H974.782ZM1025.09 766.889C1027.8 764.289 1039.96 766.766 1040.37 769.981C1040.84 773.401 1022.66 769.305 1025.09 766.889ZM1043.34 776.739C1047 776.247 1053.82 783.435 1050.98 783.987C1046.88 784.806 1041.33 778.09 1043.34 776.739ZM1063.24 790.315C1069.16 794.881 1064.57 804.403 1055.85 793.427C1054.52 791.789 1050.3 787.489 1054.4 787.407C1056.67 787.305 1061.67 789.148 1063.24 790.315ZM988.174 633.626C989.812 636.144 989.095 639.543 992.781 641.632C997.962 644.56 998.064 644.253 1000.48 648.287C1005.89 657.297 1002.94 663.645 1003.7 671.897C1004.02 675.112 1004.39 678.9 1004.27 681.992C1003.98 687.234 999.661 695.65 1001.03 700.483C1002.53 705.663 1008.79 711.786 1009.22 717.13C1009.51 720.57 1006.28 723.806 1008.08 727.553C1010.53 732.549 1027.33 742.194 1011.15 741.088C1011.95 743.156 1016.19 742.952 1019.3 743.812C1025.59 745.552 1028.1 748.439 1029.19 751.531C1029.7 753.006 1028.29 754.91 1028.86 755.955C1029.8 757.695 1036.13 760.644 1033.06 762.548C1027.39 765.968 1014.28 755.832 1006.25 757.265C1002.61 754.173 1005.03 753.108 1005.31 750.815C1006.07 745.716 1000.38 737.136 997.552 731.362C996.508 729.314 996.365 726.324 994.89 724.4C993.805 722.946 990.181 721.594 988.133 719.915C982.379 715.226 977.014 708.141 984.488 705.581C987.764 704.455 993.375 704.988 992.167 701.609C991.409 699.438 988.153 698.681 986.269 696.633H977.71C975.355 696.244 974.147 693.766 973.594 692.783C970.523 687.685 970.482 682.463 968.311 677.589C966.059 672.573 963.909 670.095 963.806 664.976C963.786 664.464 964.441 661.024 964.728 660.88C965.506 660.512 970.318 661.024 972.386 660.409C976.174 659.304 973.164 648.881 972.1 646.137C971.035 643.332 969.888 639.298 966.775 636.697C962.332 633.011 959.445 632.458 953.547 633.687C950.455 634.342 946.749 637.332 944.476 637.434C941.63 637.557 938.046 631.434 937.145 629.981C933.644 624.309 931.146 619.312 926.866 613.456C925.699 611.879 920.272 603.524 920.641 602.705C920.498 603.32 917.692 603.197 917.18 602.501C916.628 601.743 921.01 601.272 920.641 602.705C920.723 602.603 923.508 602.931 920.989 600.842L918.839 601.333C915.194 599.306 917.631 598.262 916.279 596.501C915.686 595.723 912.737 595.559 912.061 594.269L914.252 593.737C910.874 590.337 909.317 585.546 905.898 582.331C905.201 581.676 896.151 575.881 894.717 575.123C891.728 573.526 887.776 573.546 886.998 571.212C889.66 570.864 897.564 571.13 897.175 569.389C896.826 567.669 893.427 566.42 891.625 564.926C889.107 562.816 885.81 558.721 883.373 557.247C881.714 556.264 871.742 552.517 869.654 552.537C864.248 553.151 863.08 558.557 864.862 561.526C866.541 564.291 870.411 566.932 871.64 569.738C872.561 571.806 870.8 574.304 872.561 576.679C873.544 577.99 878.827 580.918 880.875 582.72C883.598 585.075 888.84 590.665 885.585 592.242C883.68 593.143 878.131 591.034 876.616 589.784C875.059 588.515 875.797 587.757 874.875 586.897C874.097 586.181 870.698 584.972 869.121 583.785C854.951 572.645 836.706 558.967 819.71 548.605C815.164 545.821 801.773 540.067 799.725 537.323C797.329 534.108 801.302 533.944 802.756 532.203C806.073 528.21 806.892 524.75 813.997 522.088C819.587 519.999 816.782 520.654 818.809 517.378C819.977 515.494 829.048 509.003 832.857 508.86C840.433 508.553 844.16 512.914 850.119 515.351C852.822 514.819 851.142 513.283 853.968 512.546C855.729 512.095 861.217 512.3 863.613 512.668C868.63 513.406 870.595 516.416 872.275 517.01C876.247 518.443 886.465 519.139 891.851 520.716C918.061 528.272 931.248 547.07 930.449 558.639C930.245 562.407 926.968 561.055 921.132 558.639C913.761 555.609 905.898 551.39 898.28 548.216C897.113 547.725 877.435 541.111 886.608 541.766C889.905 542.012 895.495 545.35 894.574 542.585L897.236 542.974L897.113 544.961C903.481 546.988 916.484 555.465 922.73 555.629C927.194 555.731 922.934 551.882 922.218 550.182C919.801 544.387 916.73 537.527 908.58 531.917C907.822 531.425 892.035 523.91 890.581 523.419C889.352 523.03 879.81 520.286 879.278 520.183C875.674 519.692 869.756 520.286 866.521 520.614C863.797 520.388 862.691 517.01 856.098 517.685C852.289 518.074 855.893 523.071 851.531 523.644L854.685 524.054L855.791 524.934L844.098 529.46C850.979 531.732 857.92 532.203 864.841 534.538C874.015 537.63 885.196 546.455 895.803 550.121L920.17 564.168C925.351 565.97 930.429 562.038 937.514 564.025C942.797 565.478 954.162 575.696 956.025 578.461C959.117 582.945 956.68 586.733 958.544 590.542C959.936 593.307 963.335 596.419 964.687 599.183C965.69 601.149 965.199 604.364 965.895 606.227C966.796 608.582 969.97 612.33 975.478 613.108C978.98 613.599 986.31 610.978 984.816 614.951L976.072 615.585C975.56 615.995 979.635 623.08 980.536 624.411C982.399 627.196 986.392 630.902 988.112 633.564H988.153L988.174 633.626ZM1010.15 655.311C1007.98 655.352 1005.66 650.13 1005.35 649.188C1001.83 639.052 1002.04 631.148 995.873 620.172C995.075 618.759 987.519 609.913 990.508 609.872C994.501 609.831 997.429 617.756 998.494 619.251C1004.8 628.383 1012.34 642.226 1012.13 650.826C1012.09 652.485 1011.95 654.164 1010.17 655.331L1010.15 655.311ZM1031.83 677.692H1029.35L1028.35 676.34C1029.8 676.177 1031.48 676.852 1031.83 677.692ZM1088.92 700.053C1089.49 700.053 1090.11 700.298 1090.31 700.605C1090.54 700.933 1090.31 701.158 1089.72 701.179C1089.12 701.199 1088.55 700.954 1088.33 700.626C1088.1 700.319 1088.33 700.073 1088.92 700.053ZM1099.22 715.472C1100.82 718.973 1101.66 724.645 1099.12 727.266C1095.8 730.666 1090.91 732.365 1081.1 729.539C1075.63 727.963 1074.81 725.874 1071.54 723.908C1065.25 720.038 1061.15 719.28 1055.79 714.079C1054.6 712.933 1049.32 707.158 1050.44 706.626L1053.52 706.585C1058.96 710.414 1065.52 715.205 1073.81 717.151C1076.41 716.659 1090.99 720.202 1089.04 717.458C1087.75 715.635 1080.28 712.38 1086.79 710.946C1092.32 709.738 1097.58 711.888 1099.22 715.431V715.472ZM1082.04 705.602C1083.19 707.015 1083.47 708.571 1082.04 709.472C1081.41 709.841 1071.21 712.707 1070.16 712.789C1064.1 713.363 1064.49 711.11 1061.79 709.185C1055.81 704.926 1054.85 702.899 1050.36 699.193C1047.7 696.981 1046.84 696.326 1044.36 694.053C1043.67 693.418 1041.58 692.865 1040.33 691.678C1037.67 689.097 1032.32 679.207 1034.31 677.364C1036.93 674.886 1042.91 677.262 1046.66 679.555C1052.51 683.139 1060.27 688.667 1065.62 692.497C1070.45 695.978 1079.19 702.039 1082.02 705.622L1082.04 705.602ZM1054.74 657.624C1054.58 656.969 1052.98 656.048 1052.8 655.556C1051.63 653.14 1062.4 655.986 1054.74 657.624ZM1049.85 640.588L1044.87 640.649C1043.24 639.236 1047.58 639.461 1048.85 639.216L1049.85 640.588ZM1193.99 728.802C1189.36 730.399 1184.57 727.307 1180.35 725.464C1171.83 721.799 1174.47 722.516 1168.21 718.379C1163.37 715.185 1160 714.366 1155.53 710.25C1138.84 694.749 1119.43 681.931 1104.18 666.122C1102.6 664.484 1096.17 660.962 1099.53 659.652C1106.39 657.031 1112.49 670.463 1115.09 672.798C1121.44 678.531 1137.1 690.285 1145.74 695.589C1154.86 701.22 1173.98 706.359 1180.47 713.731C1181.97 715.431 1182.75 718.42 1183.69 719.219C1186.6 721.779 1185.55 715.984 1186.31 715.943C1187.09 715.676 1188.68 715.943 1189.67 716.311C1196.06 718.707 1197.8 727.492 1193.99 728.823V728.802Z" fill="#010301"/>
<path d="M509.649 558.762C510.181 558.352 511.021 558.188 512.29 558.454C515.669 559.273 516.98 560.748 517.635 562.345C520.092 567.956 506.577 561.075 509.628 558.762H509.649Z" fill="#010301"/>
<path d="M644.367 680.394C644.612 680.456 647.54 682.483 647.786 682.831C649.404 684.879 647.192 686.128 643.445 685.903C641.316 684.49 640.496 679.33 644.367 680.415V680.394Z" fill="#010301"/>
<path d="M543.866 570.781C544.992 571.089 547.572 574.201 547.736 574.979C548.084 577.15 541.368 574.447 540.487 572.87C539.812 571.703 541.061 570.024 543.887 570.781H543.866Z" fill="#010301"/>
<path d="M536.269 562.509C538.378 564.577 536.576 565.826 535.061 567.096C530.515 565.273 530.556 561.341 536.269 562.509Z" fill="#010301"/>
<path d="M402.37 504.395L401.408 506.463L405.196 507.118L404.274 505.275C408.656 505.849 426.185 516.108 425.693 517.009C421.68 518.196 417.298 517.377 412.752 515.022C410.397 513.814 397.271 504.641 397.927 503.965L402.391 504.395H402.35H402.37Z" fill="#010301"/>
<path d="M480.94 494.362C476.824 494.874 475.247 493.604 472.34 491.679C475.206 491.475 479.896 492.294 480.94 494.362Z" fill="#010301"/>
<path d="M643.609 665.263C644.837 665.263 646.23 665.795 646.721 666.471C647.212 667.147 646.619 667.72 645.39 667.72C644.161 667.72 642.769 667.188 642.278 666.512C641.786 665.836 642.38 665.263 643.609 665.263Z" fill="#010301"/>
<path d="M551.237 578.481L552.241 579.853C550.807 579.976 549.845 579.914 548.453 579.198L547.961 578.522L551.258 578.481H551.237Z" fill="#010301"/>
<path d="M541.368 535.357C542.781 535.971 543.293 536.749 542.883 537.405C541.245 538.94 531.109 535.418 531.068 533.473C531.682 532.9 539.955 534.743 541.368 535.336V535.357Z" fill="#010301"/>
<path d="M1237.14 518.092C1236.41 518.173 1236.01 517.571 1235.63 517.277C1232.3 514.737 1232.82 514.269 1231.13 511.997C1229.49 509.778 1225.13 506.477 1223.28 504.244C1220.24 500.609 1216.9 496.96 1212.42 493.364C1209.64 491.145 1204.95 488.913 1202.82 486.547L1208.73 489.274C1216.15 494.808 1221.9 499.513 1227.25 505.461C1229.89 508.401 1232.2 511.409 1235.01 514.35C1236.13 515.513 1236.91 516.956 1237.16 518.092H1237.14Z" fill="#010301"/>
<path d="M1092.79 474.936C1092.18 474.692 1090.63 469.102 1090.42 468.283C1089.95 466.42 1088.62 459.871 1090.12 458.861C1092.59 457.172 1097.24 458.182 1099.96 460.638C1105.93 466.037 1097.09 469.99 1095.82 474.292L1092.8 474.936H1092.79Z" fill="#010301"/>
<path d="M1129.45 507.94C1132.62 509.49 1127.04 513.635 1123.3 513.06C1120.56 511.98 1124.34 506.094 1129.45 507.94Z" fill="#010301"/>
<path d="M1003.67 390.364C1004.61 391.653 1000.62 392.819 998.774 392.697C997.485 392.61 990.466 390.207 991.128 389.702C995.203 389.162 999.54 390.555 1003.65 390.346L1003.67 390.364Z" fill="#010301"/>
<path d="M1128.63 515.829C1129.53 515.777 1130.4 516.178 1131.19 516.543C1133.19 517.623 1130.68 520.27 1128.8 520.096C1126.26 519.87 1125.39 516.038 1128.68 515.847H1128.64L1128.63 515.829Z" fill="#010301"/>
<path d="M908.402 270.315C915.438 272.962 924.302 280.921 926.201 284.7C926.619 285.554 926.845 286.285 925.957 286.843C920.976 286.163 921.847 283.377 920.419 281.618C919.478 280.434 913.539 274.808 912.041 273.711C910.161 272.3 906.277 271.325 904.831 270.001C903.386 268.678 907.513 269.966 908.332 270.297H908.367L908.402 270.315Z" fill="#010301"/>
<path d="M927.193 296.247C935.884 297.588 935.344 301.333 931.53 303.248C927.472 301.211 925.156 298.093 927.193 296.247Z" fill="#010301"/>
<path d="M921.672 289.229C924.598 290.936 918.746 293.879 916.761 292.224C915.228 290.936 918.92 288.811 921.672 289.229Z" fill="#010301"/>
<path d="M889.54 350.376C892.971 349.924 900.755 354.713 896.924 355.357C893.545 355.932 890.045 351.7 889.54 350.376Z" fill="#010301"/>
<path d="M1290.37 555.677L1291.26 556.809L1284.92 556.879L1284.47 555.677C1286.12 555.137 1288.04 555.224 1290.39 555.677H1290.37Z" fill="#010301"/>
</g>
<defs>
<clipPath id="clip0_63_671">
<rect width="1440" height="1024" fill="white"/>
</clipPath>
</defs>
</svg>